<svg xmlns="http://www.w3.org/2000/svg" xml:space="preserve" width="71px" height="71px" version="1.1" style="shape-rendering:geometricPrecision; text-rendering:geometricPrecision; image-rendering:optimizeQuality; fill-rule:evenodd; clip-rule:evenodd"
viewBox="0 0 580 580"
 xmlns:xlink="http://www.w3.org/1999/xlink">
 <defs>
  <style type="text/css">
   <![CDATA[
    .fil1 {fill:#49984C}
    .fil0 {fill:#429A44;fill-rule:nonzero}
   ]]>
  </style>
 </defs>
<symbol id="Fm1-60-0" viewBox="16644 16559 4650 445">
 <path class="fil0" d="M16644 16567l45 0 0 146 179 0 0 -146 45 0 0 339 -45 0 0 -155 -179 0 0 155 -45 0 0 -339zm404 345c-11,0 -21,-2 -31,-4 -10,-2 -18,-6 -26,-12 -7,-5 -13,-13 -17,-21 -5,-9 -7,-20 -7,-32 0,-14 3,-25 7,-34 5,-9 11,-16 19,-22 8,-5 17,-9 27,-12 10,-3 20,-5 30,-7 11,-3 22,-4 32,-5 10,-1 19,-3 26,-5 8,-2 14,-5 18,-9 5,-4 7,-10 7,-17 0,-9 -2,-16 -5,-22 -4,-5 -8,-9 -13,-12 -5,-3 -11,-5 -17,-6 -7,-1 -13,-1 -20,-1 -17,0 -31,3 -42,9 -12,7 -18,19 -19,37l-40 0c0,-15 3,-28 9,-38 6,-11 13,-19 23,-26 9,-6 20,-11 32,-14 13,-2 26,-4 40,-4 11,0 22,1 33,2 11,2 20,5 29,10 9,5 16,12 22,21 5,9 8,20 8,35l0 126c0,9 0,16 1,21 2,4 5,6 12,6 2,0 7,0 12,-2l0 31c-7,5 -17,7 -29,7 -10,0 -19,-3 -25,-9 -6,-6 -9,-16 -9,-29 -11,13 -24,23 -39,29 -15,6 -31,9 -48,9zm9 -36c14,0 25,-1 35,-5 9,-4 17,-8 23,-14 6,-5 10,-11 13,-18 3,-6 4,-12 4,-18l0 -41c-5,4 -11,7 -19,8 -9,2 -17,3 -26,4 -9,2 -18,3 -28,4 -9,1 -17,4 -24,7 -8,3 -14,8 -18,13 -5,6 -7,14 -7,24 0,7 1,13 4,17 3,5 6,9 10,11 5,3 10,5 15,7 6,1 12,1 18,1zm178 -215l41 0 0 200 116 -200 51 0 0 245 -40 0 0 -200 -116 200 -52 0 0 -245zm104 -36c-9,0 -18,-2 -26,-5 -8,-2 -16,-6 -22,-12 -6,-5 -11,-12 -15,-20 -3,-7 -5,-16 -5,-26l34 0c0,23 12,35 34,35 11,0 19,-3 25,-10 6,-6 9,-14 9,-25l34 0c0,9 -2,18 -5,26 -4,8 -9,14 -15,20 -6,5 -13,9 -21,12 -8,3 -17,5 -27,5zm225 72l-88 0 0 -36 216 0 0 36 -88 0 0 209 -40 0 0 -209zm160 -36l40 0 0 200 116 -200 52 0 0 245 -40 0 0 -200 -116 200 -52 0 0 -245zm401 0l40 0 0 117 113 -117 53 0 -108 106 121 139 -52 0 -102 -116 -25 24 0 92 -40 0 0 -245zm275 343c-5,0 -10,0 -15,-1 -4,0 -9,-2 -13,-3l0 -37c4,1 7,2 11,4 4,1 8,2 12,2 9,0 15,-2 20,-6 5,-4 10,-10 14,-17l16 -41 -97 -244 46 0 71 201 1 0 69 -201 43 0 -107 278c-5,12 -9,22 -14,30 -5,8 -10,15 -15,20 -6,5 -12,9 -19,12 -7,2 -14,3 -23,3zm213 -343l41 0 0 33 1 0c6,-14 17,-23 31,-30 14,-6 30,-9 47,-9 19,0 36,4 50,11 14,7 26,16 35,28 9,12 16,25 21,41 5,15 7,32 7,49 0,18 -2,35 -7,50 -4,15 -11,29 -21,40 -9,12 -21,21 -35,28 -14,6 -30,10 -49,10 -6,0 -13,-1 -20,-2 -8,-2 -15,-4 -22,-6 -8,-3 -14,-7 -21,-12 -6,-5 -12,-11 -16,-18l-1 0 0 126 -41 0 0 -339zm117 215c13,0 25,-2 34,-8 10,-5 17,-12 23,-21 6,-9 10,-19 12,-30 3,-12 4,-24 4,-36 0,-11 -1,-22 -4,-33 -3,-11 -8,-21 -14,-29 -6,-9 -14,-16 -24,-21 -9,-5 -21,-7 -34,-7 -13,0 -25,2 -34,8 -10,5 -17,12 -24,21 -6,9 -10,19 -13,30 -2,11 -4,22 -4,33 0,12 2,24 5,35 3,11 7,21 13,30 6,8 14,15 24,21 10,5 22,7 36,7zm265 36c-19,0 -35,-3 -49,-9 -15,-6 -27,-15 -37,-26 -9,-11 -17,-24 -21,-40 -5,-15 -8,-32 -8,-50 0,-19 3,-36 7,-52 5,-16 12,-30 22,-42 10,-12 22,-21 36,-28 15,-6 31,-10 51,-10 14,0 27,2 39,5 13,4 23,9 33,16 9,7 17,15 23,26 6,11 9,23 11,38l-42 0c-3,-16 -10,-28 -20,-36 -10,-9 -24,-13 -41,-13 -14,0 -26,2 -36,8 -10,5 -18,12 -24,21 -5,9 -10,19 -12,31 -3,11 -4,23 -4,36 0,11 1,22 4,33 3,11 7,20 13,29 5,8 13,15 22,20 9,5 20,7 33,7 20,0 35,-5 46,-15 12,-11 19,-25 21,-44l41 0c-4,30 -15,54 -33,70 -18,16 -43,25 -75,25zm391 0c-19,0 -36,-4 -51,-10 -15,-7 -27,-16 -37,-27 -10,-12 -18,-25 -23,-41 -5,-15 -8,-32 -8,-50 0,-18 3,-35 8,-51 5,-15 13,-29 23,-41 10,-11 22,-20 37,-27 15,-6 32,-10 51,-10 20,0 37,4 52,10 15,7 27,16 37,27 10,12 18,26 23,41 5,16 8,33 8,51 0,18 -3,35 -8,50 -5,16 -13,29 -23,41 -10,11 -22,20 -37,27 -15,6 -32,10 -52,10zm0 -36c11,0 21,-2 30,-6 9,-4 18,-10 25,-18 6,-7 12,-17 16,-29 4,-11 6,-24 6,-39 0,-15 -2,-28 -6,-40 -4,-11 -10,-21 -16,-29 -7,-8 -16,-14 -25,-18 -9,-4 -19,-6 -30,-6 -10,0 -20,2 -29,6 -10,4 -18,10 -25,18 -7,8 -12,18 -16,29 -4,12 -6,25 -6,40 0,15 2,28 6,39 4,12 9,22 16,29 7,8 15,14 25,18 9,4 19,6 29,6zm277 36c-32,0 -57,-8 -77,-25 -19,-16 -32,-41 -37,-75 -2,-13 -3,-28 -3,-44 0,-12 1,-24 2,-37 0,-13 2,-25 4,-37 2,-13 5,-25 8,-36 4,-11 9,-22 15,-31 11,-17 24,-29 39,-37 16,-8 35,-13 59,-15 15,-1 28,-2 39,-4 10,-1 16,-5 17,-12l40 0c0,13 -3,22 -7,29 -5,6 -12,11 -20,15 -9,3 -19,5 -32,6 -12,2 -27,3 -43,4 -14,1 -26,4 -36,9 -10,6 -18,13 -25,22 -8,9 -13,20 -18,32 -4,12 -7,25 -9,40l1 0c7,-16 18,-30 33,-40 14,-10 32,-16 53,-16 35,0 62,11 82,33 20,21 30,52 30,93 0,20 -3,38 -9,54 -5,16 -13,29 -23,39 -10,11 -22,19 -37,25 -14,5 -29,8 -46,8zm0 -35c10,0 19,-2 28,-6 9,-3 16,-9 23,-17 7,-8 12,-17 16,-28 4,-11 6,-24 6,-39 0,-29 -6,-52 -20,-68 -13,-17 -31,-25 -54,-25 -23,0 -41,8 -54,25 -14,17 -20,39 -20,68 0,28 6,50 20,66 13,16 31,24 55,24zm187 127c-4,0 -9,0 -14,-1 -5,0 -9,-2 -14,-3l0 -37c4,1 8,2 12,4 4,1 8,2 12,2 8,0 15,-2 20,-6 5,-4 9,-10 13,-17l17 -41 -98 -244 46 0 72 201 1 0 69 -201 42 0 -107 278c-4,12 -9,22 -14,30 -4,8 -9,15 -15,20 -5,5 -11,9 -18,12 -7,2 -15,3 -24,3zm360 -197c-8,3 -18,6 -31,9 -13,2 -26,4 -41,4 -30,0 -52,-7 -65,-20 -13,-13 -19,-31 -19,-55l0 -84 40 0 0 77c0,16 4,28 11,36 8,8 21,12 41,12 12,0 24,-2 36,-4 11,-3 21,-6 28,-9l0 -112 40 0 0 245 -40 0 0 -99zm205 105c-19,0 -37,-4 -51,-10 -15,-6 -27,-15 -37,-26 -10,-12 -17,-26 -22,-41 -5,-16 -8,-33 -8,-52 0,-19 3,-35 9,-51 6,-16 14,-29 24,-41 10,-11 22,-20 37,-26 14,-7 29,-10 46,-10 22,0 40,5 54,14 15,9 26,20 35,34 9,14 15,29 18,46 3,16 5,32 4,47l-184 0c0,10 1,21 4,30 3,10 7,19 14,26 6,7 14,13 24,18 10,4 21,6 35,6 17,0 31,-4 42,-12 11,-7 18,-19 21,-36l40 0c-5,28 -17,49 -35,63 -19,14 -42,21 -70,21zm66 -152c0,-9 -2,-18 -6,-27 -4,-8 -9,-16 -15,-22 -6,-6 -13,-11 -22,-15 -8,-3 -17,-5 -27,-5 -11,0 -20,2 -29,5 -8,4 -15,9 -21,15 -6,7 -11,14 -15,22 -3,9 -5,18 -6,27l141 0zm85 -99l40 0 0 98 124 0 0 -98 41 0 0 245 -41 0 0 -113 -124 0 0 113 -40 0 0 -245zm266 0l40 0 0 200 116 -200 52 0 0 245 -41 0 0 -200 -116 200 -51 0 0 -245zm320 149c-17,-2 -31,-10 -43,-23 -11,-14 -16,-30 -16,-51 0,-23 7,-41 21,-55 13,-13 32,-20 56,-20l124 0 0 245 -40 0 0 -94 -54 0 -75 94 -53 0 80 -96zm102 -33l0 -80 -71 0c-18,0 -30,3 -37,10 -8,8 -12,18 -12,30 0,13 4,22 12,30 7,7 19,10 37,10l71 0z"/>
</symbol>
 <g id="Layer-69">
  <metadata id="CorelCorpID_0Corel-Layer"/>
  <g id="_2097292100736">
   <g>
    <g>
     <g>
      <path class="fil1" d="M319 135c-5,0 -10,5 -10,10l0 58c0,5 5,10 10,10l39 0c5,0 9,-5 9,-10l0 -58c0,-5 -4,-10 -9,-10l-39 0zm29 58l-19 0 0 -38 19 0 0 38z"/>
      <path class="fil1" d="M68 251c5,0 9,-4 9,-9l0 -145 426 0 0 145c0,5 4,9 9,9 6,0 10,-4 10,-9l0 -155c0,-5 -4,-10 -10,-10l-222 0 0 -58 48 0 0 20 -29 0c-5,0 -9,4 -9,9 0,6 4,10 9,10l39 0c5,0 10,-4 10,-10l0 -38c0,-6 -5,-10 -10,-10l-68 0c-5,0 -9,4 -9,10l0 67 -203 0c-6,0 -10,5 -10,10l0 155c0,5 4,9 10,9z"/>
      <path class="fil1" d="M416 135c-6,0 -10,5 -10,10l0 58c0,5 4,10 10,10l38 0c6,0 10,-5 10,-10l0 -58c0,-5 -4,-10 -10,-10l-38 0zm29 58l-20 0 0 -38 20 0 0 38z"/>
      <path class="fil1" d="M570 561l-560 0c-6,0 -10,4 -10,9 0,6 4,10 10,10l560 0c6,0 10,-4 10,-10 0,-5 -4,-9 -10,-9z"/>
      <path class="fil1" d="M358 503c5,0 9,-5 9,-10l0 -135c0,-3 -1,-5 -3,-7 0,-1 -22,-22 -74,-22 -52,0 -74,21 -75,22 -1,2 -2,4 -2,7l0 135c0,5 4,10 9,10 6,0 10,-5 10,-10l0 -131c6,-4 21,-12 48,-14l0 97c-5,0 -9,4 -9,9 0,6 4,10 9,10l0 29c0,5 5,10 10,10 5,0 10,-5 10,-10l0 -29c5,0 9,-4 9,-10 0,-5 -4,-9 -9,-9l0 -97c27,2 42,10 48,14l0 131c0,5 4,10 10,10z"/>
      <path class="fil1" d="M174 532c0,5 4,9 10,9l212 0c6,0 10,-4 10,-9 0,-6 -4,-10 -10,-10l-212 0c-6,0 -10,4 -10,10z"/>
      <path class="fil1" d="M48 522c-5,0 -9,4 -9,10 0,5 4,9 9,9l97 0c5,0 10,-4 10,-9 0,-6 -5,-10 -10,-10l-10 0 0 -232 310 0 0 232 -10 0c-5,0 -10,4 -10,10 0,5 5,9 10,9l97 0c5,0 9,-4 9,-9 0,-6 -4,-10 -9,-10l-10 0 0 -232 10 0c5,0 9,-4 9,-10 0,-5 -4,-9 -9,-9l-484 0c-5,0 -9,4 -9,9 0,6 4,10 9,10l10 0 0 232 -10 0zm416 -232l39 0 0 232 -39 0 0 -232zm-387 0l39 0 0 232 -39 0 0 -232z"/>
      <path class="fil1" d="M126 135c-6,0 -10,5 -10,10l0 58c0,5 4,10 10,10l38 0c6,0 10,-5 10,-10l0 -58c0,-5 -4,-10 -10,-10l-38 0zm29 58l-20 0 0 -38 20 0 0 38z"/>
      <path class="fil1" d="M222 135c-5,0 -9,5 -9,10l0 58c0,5 4,10 9,10l39 0c5,0 10,-5 10,-10l0 -58c0,-5 -5,-10 -10,-10l-39 0zm29 58l-19 0 0 -38 19 0 0 38z"/>
     </g>
    </g>
   </g>
   <g>
   </g>
   <g>
   </g>
   <g>
   </g>
   <g>
   </g>
   <g>
   </g>
   <g>
   </g>
   <g>
   </g>
   <g>
   </g>
   <g>
   </g>
   <g>
   </g>
   <g>
   </g>
   <g>
   </g>
   <g>
   </g>
   <g>
   </g>
   <g>
   </g>
  </g>
 </g>
</svg>
