<svg xmlns="http://www.w3.org/2000/svg" xml:space="preserve" width="61px" height="55px" version="1.1" style="shape-rendering:geometricPrecision; text-rendering:geometricPrecision; image-rendering:optimizeQuality; fill-rule:evenodd; clip-rule:evenodd"
viewBox="0 0 4023 3620"
 xmlns:xlink="http://www.w3.org/1999/xlink">
 <defs>
  <style type="text/css">
   <![CDATA[
    .fil1 {fill:#399C3A}
    .fil0 {fill:#429A44;fill-rule:nonzero}
   ]]>
  </style>
 </defs>
<symbol id="Fm1-60-0" viewBox="102893 119009 37621 3600">
 <path class="fil0" d="M102893 119074l365 0 0 1179 1445 0 0 -1179 365 0 0 2743 -365 0 0 -1257 -1445 0 0 1257 -365 0 0 -2743zm3269 2786c-89,0 -173,-10 -253,-29 -79,-19 -150,-52 -210,-97 -60,-44 -108,-102 -141,-173 -35,-71 -53,-155 -53,-255 0,-112 20,-204 58,-276 38,-72 89,-131 152,-176 63,-44 134,-78 215,-101 81,-23 163,-42 247,-57 91,-19 176,-32 256,-42 81,-9 151,-22 214,-38 61,-16 110,-40 145,-73 36,-32 54,-78 54,-139 0,-72 -13,-130 -40,-173 -28,-44 -61,-78 -104,-101 -42,-23 -89,-38 -141,-45 -54,-8 -105,-12 -156,-12 -138,0 -254,26 -346,78 -93,53 -143,152 -151,298l-325 0c5,-123 30,-226 77,-311 46,-84 107,-152 184,-206 76,-52 163,-90 262,-113 100,-23 205,-34 317,-34 91,0 180,7 268,19 88,13 168,39 240,78 72,40 129,96 173,168 43,72 65,165 65,281l0 1021c0,77 5,133 13,169 9,36 40,54 91,54 23,0 56,-6 100,-19l0 254c-57,33 -135,50 -235,50 -84,0 -152,-24 -202,-72 -50,-47 -75,-124 -75,-232 -89,108 -194,185 -312,232 -119,48 -249,72 -387,72zm73 -285c108,0 199,-15 277,-44 77,-30 139,-67 188,-111 49,-45 85,-94 108,-147 23,-53 35,-102 35,-147l0 -335c-42,34 -95,57 -162,69 -66,13 -136,25 -209,35 -73,10 -147,20 -221,30 -75,11 -141,30 -200,55 -59,25 -107,62 -144,109 -37,48 -55,113 -55,195 0,53 11,99 32,136 21,37 49,67 84,90 35,23 75,40 122,50 46,10 94,15 145,15zm1441 -1744l326 0 0 1621 937 -1621 419 0 0 1986 -327 0 0 -1621 -937 1621 -418 0 0 -1986zm840 -292c-76,0 -148,-12 -214,-35 -67,-23 -125,-55 -174,-99 -51,-43 -91,-97 -120,-160 -30,-62 -45,-135 -45,-217l273 0c6,190 97,285 277,285 89,0 158,-26 206,-76 47,-50 71,-119 71,-209l272 0c0,78 -14,147 -42,212 -28,64 -66,117 -115,161 -49,43 -107,77 -173,101 -67,25 -138,37 -216,37zm1814 580l-711 0 0 -288 1748 0 0 288 -710 0 0 1698 -327 0 0 -1698zm1299 -288l326 0 0 1621 937 -1621 419 0 0 1986 -327 0 0 -1621 -937 1621 -418 0 0 -1986zm3242 0l327 0 0 948 910 -948 434 0 -879 860 983 1126 -419 0 -830 -945 -199 196 0 749 -327 0 0 -1986zm2225 2778c-38,0 -77,-2 -115,-8 -38,-5 -75,-14 -111,-27l0 -300c30,10 62,21 93,31 32,10 65,15 98,15 67,0 121,-15 163,-46 40,-31 76,-76 106,-135l134 -334 -787 -1974 369 0 580 1625 8 0 557 -1625 346 0 -865 2247c-38,97 -76,180 -113,247 -37,66 -78,120 -123,163 -45,42 -95,73 -149,92 -56,19 -119,29 -191,29zm1728 -2778l327 0 0 269 8 0c53,-110 138,-191 253,-241 116,-49 242,-74 380,-74 154,0 288,28 402,84 115,57 209,133 284,229 76,97 133,207 171,332 39,125 58,259 58,399 0,144 -18,278 -55,402 -37,124 -94,233 -169,327 -75,94 -170,168 -284,221 -115,53 -248,81 -399,81 -51,0 -106,-6 -164,-16 -59,-9 -118,-27 -177,-50 -60,-23 -115,-54 -168,-94 -52,-40 -96,-89 -132,-147l-8 0 0 1021 -327 0 0 -2743zm942 1744c110,0 203,-21 280,-65 77,-44 138,-101 185,-173 46,-72 79,-154 99,-246 21,-93 31,-187 31,-284 0,-93 -12,-183 -36,-272 -25,-88 -62,-166 -111,-236 -50,-68 -115,-124 -192,-165 -78,-41 -170,-61 -275,-61 -110,0 -204,21 -280,65 -78,44 -140,100 -189,171 -49,71 -83,150 -105,240 -22,90 -33,180 -33,273 0,97 12,191 35,282 23,91 59,172 109,241 50,68 114,124 194,166 79,43 175,64 288,64zm2148 285c-152,0 -285,-24 -401,-73 -117,-49 -215,-118 -293,-208 -78,-90 -137,-196 -176,-319 -41,-123 -60,-260 -60,-411 0,-149 19,-287 57,-417 39,-130 97,-242 176,-339 77,-96 175,-171 292,-226 116,-55 253,-82 412,-82 112,0 218,13 317,40 99,28 186,69 262,125 75,56 137,127 186,213 49,86 79,187 91,306l-337 0c-25,-125 -80,-223 -162,-293 -81,-69 -192,-103 -331,-103 -117,0 -215,21 -295,65 -79,44 -143,101 -190,173 -47,72 -81,155 -102,247 -20,94 -30,191 -30,291 0,93 11,182 33,269 20,87 54,164 101,232 46,69 106,123 179,163 72,42 162,62 266,62 161,0 288,-42 379,-127 91,-84 146,-204 167,-357l334 0c-36,248 -126,439 -272,570 -146,132 -347,199 -603,199zm3164 0c-158,0 -297,-27 -416,-80 -119,-52 -220,-125 -301,-219 -82,-92 -144,-202 -184,-328 -42,-125 -63,-261 -63,-407 0,-146 21,-282 63,-409 40,-128 102,-238 184,-331 81,-93 182,-167 301,-220 119,-54 258,-81 416,-81 157,0 295,27 416,81 120,53 221,127 303,220 82,93 144,203 185,331 40,127 61,263 61,409 0,146 -21,282 -61,407 -41,126 -103,236 -185,328 -82,94 -183,167 -303,219 -121,53 -259,80 -416,80zm0 -285c85,0 166,-16 241,-50 75,-33 141,-81 198,-145 56,-62 100,-140 132,-234 31,-92 48,-199 48,-320 0,-121 -17,-227 -48,-321 -32,-94 -76,-172 -132,-236 -57,-65 -123,-113 -198,-146 -75,-34 -156,-50 -241,-50 -84,0 -164,16 -239,50 -76,33 -142,81 -198,146 -56,64 -101,142 -132,236 -32,94 -48,200 -48,321 0,121 16,228 48,320 31,94 76,172 132,234 56,64 122,112 198,145 75,34 155,50 239,50zm2237 285c-256,0 -463,-66 -621,-196 -158,-131 -257,-334 -297,-608 -16,-108 -24,-228 -24,-360 0,-95 3,-194 10,-297 6,-102 18,-203 35,-303 16,-100 40,-195 69,-288 30,-93 68,-175 117,-249 87,-136 194,-237 319,-302 125,-65 283,-105 472,-118 126,-9 231,-21 315,-34 84,-12 132,-45 143,-96l325 0c-5,100 -26,177 -64,231 -38,53 -92,93 -161,120 -70,28 -155,45 -254,54 -100,10 -216,19 -350,29 -110,8 -206,33 -288,76 -82,44 -151,102 -209,175 -58,73 -104,159 -140,258 -36,99 -62,207 -78,324l12 0c56,-130 144,-238 264,-322 118,-84 262,-126 431,-126 280,0 500,87 661,260 161,174 242,426 242,753 0,167 -22,313 -67,439 -44,128 -109,233 -190,319 -82,86 -180,152 -294,195 -115,44 -240,66 -378,66zm3 -277c77,0 151,-16 223,-48 72,-31 135,-78 189,-140 53,-62 97,-139 130,-229 34,-90 51,-196 51,-317 0,-233 -54,-416 -162,-550 -107,-133 -254,-199 -438,-199 -185,0 -332,67 -440,201 -109,134 -164,318 -164,552 0,226 55,403 162,534 108,131 257,196 449,196zm1514 1026c-38,0 -78,-2 -116,-8 -38,-5 -75,-14 -111,-27l0 -300c31,10 62,21 94,31 32,10 64,15 98,15 66,0 121,-15 162,-46 40,-31 76,-76 107,-135l134 -334 -787 -1974 369 0 580 1625 8 0 556 -1625 346 0 -864 2247c-38,97 -76,180 -113,247 -37,66 -79,120 -123,163 -45,42 -95,73 -150,92 -55,19 -118,29 -190,29zm2907 -1599c-59,25 -140,50 -245,73 -105,23 -215,35 -331,35 -245,0 -420,-53 -526,-160 -105,-106 -158,-255 -158,-447l0 -680 327 0 0 626c0,131 31,228 90,290 60,63 170,94 329,94 97,0 194,-10 289,-31 95,-21 170,-44 225,-69l0 -910 327 0 0 1986 -327 0 0 -807zm1664 850c-159,0 -298,-27 -417,-78 -119,-51 -218,-122 -297,-214 -80,-93 -140,-203 -179,-331 -40,-128 -60,-267 -60,-418 0,-150 23,-287 70,-414 46,-127 110,-235 194,-328 83,-93 181,-164 295,-216 114,-51 238,-76 375,-76 177,0 324,36 441,109 116,73 209,167 279,279 71,112 119,235 146,368 28,134 39,260 33,381l-1486 0c-4,87 7,170 30,247 23,79 60,148 111,208 51,60 117,108 196,144 80,36 172,54 280,54 138,0 253,-32 341,-97 88,-64 146,-161 174,-291l324 0c-44,225 -140,394 -289,505 -149,112 -335,168 -561,168zm534 -1227c-6,-76 -22,-149 -51,-218 -30,-69 -70,-129 -120,-179 -50,-49 -109,-89 -177,-119 -67,-29 -142,-44 -224,-44 -85,0 -161,15 -229,44 -68,30 -126,70 -175,121 -49,51 -87,111 -114,179 -29,68 -45,140 -50,216l1140 0zm684 -802l326 0 0 792 1007 0 0 -792 326 0 0 1986 -326 0 0 -915 -1007 0 0 915 -326 0 0 -1986zm2151 0l327 0 0 1621 937 -1621 419 0 0 1986 -327 0 0 -1621 -937 1621 -419 0 0 -1986zm2593 1210c-140,-21 -256,-84 -345,-192 -90,-108 -135,-243 -135,-407 0,-186 56,-336 168,-446 111,-110 262,-165 455,-165l1006 0 0 1986 -327 0 0 -764 -433 0 -608 764 -433 0 652 -776zm822 -269l0 -653 -576 0c-138,0 -237,30 -299,89 -62,58 -93,138 -93,238 0,103 31,182 93,240 62,57 161,86 299,86l576 0z"/>
</symbol>
 <g id="Layer-78">
  <metadata id="CorelCorpID_0Corel-Layer"/>
  <g id="_2096942801088">
   <path class="fil1" d="M4022 1207c-7,-115 -143,-205 -416,-273 9,-20 14,-41 14,-63l0 -469 -1 0c-24,-390 -1625,-402 -1809,-402 -184,0 -1785,12 -1809,402l-1 0 0 9 0 0 0 0 0 461c0,127 165,227 409,301 -3,11 -5,22 -6,34l-1 0 0 9 0 0 0 0 0 459c-263,68 -395,156 -401,269l-1 0 0 9 0 0 0 0 0 461c0,88 80,163 211,226 -5,14 -8,28 -9,42l-1 0 0 9 0 0 0 0 0 460c1,223 503,362 1061,426 4,1 7,3 12,3 1,0 2,-1 3,-1 108,12 217,22 325,28 3,1 5,2 7,2 1,0 2,-1 4,-1 137,8 272,12 398,12 127,0 262,-4 399,-12 1,0 2,1 4,1 2,0 4,-2 6,-2 108,-7 218,-16 325,-28 1,0 3,1 4,1 4,0 8,-2 12,-3 558,-65 1060,-203 1061,-426l0 -469 -1 0c-5,-82 -75,-151 -214,-208 9,-20 13,-40 13,-61l0 -438c241,-74 402,-173 403,-299l0 -469 -1 0zm-543 1228l-23 20c-35,31 -94,63 -171,93l0 -320c80,-28 148,-58 201,-92l0 277c0,7 -2,15 -7,22zm-1499 312c-10,0 -20,0 -30,0 -24,1 -48,1 -73,1l0 -335c19,0 37,0 56,-1 3,0 7,0 10,0 68,-1 135,-3 203,-6l0 335c-15,0 -29,1 -44,2 -40,1 -81,3 -122,4zm-293 1c-31,-1 -62,-2 -92,-3 -4,0 -7,0 -11,0 -37,-1 -73,-3 -109,-4l0 -335c67,3 135,5 202,6 4,0 7,0 11,0 18,1 37,1 55,1l0 335c-13,0 -26,0 -39,0 -6,0 -11,0 -17,0zm-1211 -153c-2,-1 -4,-2 -7,-2l0 -324c63,17 130,32 201,46l0 328c-61,-13 -118,-27 -170,-41 -8,-3 -16,-5 -24,-7zm1413 555c18,0 37,1 55,1l0 335c-92,-1 -182,-4 -268,-8l0 -335c67,4 135,6 202,7 4,0 7,0 11,0zm255 0c68,-2 135,-4 203,-7l0 335c-86,4 -176,7 -269,8l0 -335c19,-1 37,-1 56,-1 3,0 7,0 10,0zm538 -31l0 333c-65,7 -132,13 -201,18l0 -334c68,-5 135,-10 201,-17zm134 -14c69,-8 136,-18 201,-28l0 329c-63,11 -130,21 -201,31l0 -332zm335 -52c71,-14 139,-30 201,-47l0 324c-59,18 -127,34 -201,50l0 -327zm-2279 0l0 327c-75,-16 -142,-32 -202,-50l0 -324c63,17 130,33 202,47zm134 24c65,10 132,20 201,28l0 332c-71,-10 -138,-20 -201,-31l0 -329zm335 42c66,7 133,12 201,17l0 334c-70,-5 -137,-11 -201,-17l0 -334zm-166 -400c-7,-1 -14,-2 -21,-3 -5,0 -9,-1 -14,-1l0 -333c66,6 133,12 201,16l0 334c-56,-4 -112,-8 -166,-13zm-169 -351l0 331c-71,-9 -138,-19 -201,-31l0 -329c64,11 132,20 201,29zm1318 361c-15,1 -29,3 -44,4l0 -335c68,-4 135,-10 201,-16l0 333c-42,4 -84,8 -128,12 -9,1 -19,2 -29,2zm291 -30l0 -331c69,-9 136,-18 201,-29l0 329c-63,12 -130,22 -201,31zm335 -384c71,-14 139,-29 201,-46l0 324c-60,17 -127,34 -201,49l0 -327zm-917 -306c-50,-1 -100,-3 -148,-6 -3,0 -5,0 -8,0l0 -335c67,4 135,6 203,7 3,0 7,0 10,0 19,0 37,1 55,1l0 335c-32,-1 -65,-1 -97,-2 -5,0 -10,0 -15,0zm-1564 -958l0 -324c63,17 130,32 201,46l0 328c-8,-2 -16,-4 -24,-6 -36,-8 -71,-16 -104,-24 -25,-7 -49,-13 -73,-20zm1219 -181c18,1 37,1 55,1l0 335c-90,-1 -180,-3 -268,-8l0 -334c67,3 135,5 202,6 4,0 7,0 11,0zm255 0c68,-1 135,-3 202,-6l0 334c-11,1 -22,2 -33,2 -1,0 -2,0 -3,0 -45,2 -91,4 -138,5 -7,0 -14,0 -21,0 -24,1 -49,1 -73,1l0 -335c19,0 37,0 56,-1 3,0 7,0 10,0zm1528 34l-2 0 -24 18c-36,28 -90,56 -160,83l0 -319c80,-28 148,-59 201,-92l0 277c0,10 -5,21 -15,33zm-856 253l0 -332c69,-8 136,-17 201,-28l0 329c-64,11 -131,21 -201,31zm335 -57l0 -327c71,-14 139,-29 201,-46l0 323c-60,18 -128,34 -201,50zm-469 -260l0 332c-65,7 -132,13 -201,18l0 -334c68,-4 135,-10 201,-16zm-1341 333l0 -333c66,6 133,12 201,16l0 334c-68,-5 -136,-11 -201,-17zm-134 -348l0 332c-14,-2 -27,-3 -41,-5 -8,-1 -16,-3 -25,-4 -39,-5 -76,-11 -113,-18 -8,-1 -15,-2 -22,-4l0 -329c64,11 132,20 201,28zm721 1169c-9,-1 -19,-1 -28,-2 -42,-3 -84,-7 -125,-11 -9,-1 -18,-2 -27,-3 -1,0 -3,0 -5,-1l0 -333c66,7 133,12 201,17l0 334c-5,-1 -11,-1 -16,-1zm-443 -50c-27,-4 -52,-9 -77,-13l0 -329c65,10 132,20 201,28l0 332c-41,-6 -81,-11 -120,-17 -1,-1 -3,-1 -4,-1zm-211 -366l0 326c-74,-15 -142,-32 -201,-50l0 -323c62,17 130,33 201,47zm-335 -88l0 319c-106,-41 -174,-82 -196,-119l-4 -8c-1,-2 -2,-4 -2,-6l0 -278c54,34 122,65 202,92zm1608 185c67,-2 135,-4 202,-7l0 335c-88,4 -178,7 -268,8l0 -335c18,0 36,-1 55,-1 3,0 7,0 11,0zm866 257c-29,5 -59,10 -90,15 -17,2 -35,5 -53,8 -17,2 -35,4 -52,6l0 -331c69,-8 136,-18 201,-28l0 329c-2,0 -4,1 -6,1zm-454 57c-25,2 -51,4 -76,5l0 -333c68,-5 135,-10 201,-17l0 333c-39,4 -78,8 -118,12 -2,0 -5,0 -7,0zm766 -125c-33,9 -69,18 -105,26 -16,4 -33,8 -51,12 -5,1 -10,2 -16,3l0 -327c72,-14 139,-30 201,-46l0 323c-9,3 -19,6 -29,9zm364 -653c-6,46 -109,106 -294,163l0 0c-237,73 -608,141 -1078,161 -24,1 -48,2 -73,3 -20,1 -40,1 -61,2 -55,1 -111,2 -169,2 -59,0 -115,-1 -170,-2 -21,-1 -41,-1 -61,-2 -25,-1 -49,-2 -73,-3 -470,-21 -841,-88 -1078,-161l0 0c-183,-56 -286,-116 -294,-162 1,-1 1,-2 1,-4 5,1 10,2 15,4 26,6 53,12 80,18 133,28 281,52 438,70 1,0 1,0 2,0 0,0 0,0 0,0 107,12 218,22 333,29 0,0 1,0 2,0 0,0 1,0 1,0 82,4 166,8 250,10 51,1 102,2 151,2 35,0 71,0 108,-1 487,-8 939,-66 1253,-155 14,-4 28,-9 42,-13 9,-3 18,-5 26,-8 24,-7 47,-15 70,-24 4,-1 7,-3 11,-4 19,-7 37,-15 55,-22 5,-3 10,-5 15,-7 18,-8 36,-17 53,-26 8,-4 14,-8 21,-12 8,-5 16,-9 24,-14 4,-3 9,-5 13,-8 300,65 379,136 387,164zm-2078 -1077c1106,0 1665,174 1675,274 -8,45 -111,105 -293,162l0 0c-237,73 -608,140 -1079,161 -24,1 -48,2 -72,3 -20,0 -40,1 -61,1 -55,2 -112,3 -170,3 -58,0 -114,-1 -170,-3 -20,0 -40,-1 -60,-1 -25,-1 -49,-2 -73,-3 -470,-21 -841,-88 -1079,-161l0 0c-182,-57 -285,-117 -293,-162 11,-100 570,-274 1675,-274zm-1676 737l0 -277c54,33 122,64 201,92l0 321c-130,-49 -201,-98 -201,-136zm325 928c1,1 2,2 3,3 92,93 282,166 519,220 5,1 11,3 17,4 17,4 35,7 52,11 218,46 477,80 760,96 0,0 0,0 0,0 0,0 0,0 0,0 91,6 184,9 279,11 42,1 83,1 124,1 46,0 93,0 142,-1 87,-2 174,-6 259,-11 0,0 0,1 1,1 0,0 1,-1 1,-1 284,-16 550,-50 774,-99 -48,26 -115,52 -198,78l0 0c-250,77 -650,147 -1159,164 -15,0 -29,1 -45,1 -16,1 -33,1 -50,1 -42,1 -84,2 -128,2 -58,0 -114,-1 -170,-3 -20,0 -40,-1 -60,-1 -25,-1 -49,-2 -73,-3 -470,-21 -841,-88 -1079,-161l0 0c-184,-57 -287,-118 -293,-164 7,-25 75,-88 324,-149zm-325 614l0 -277c54,33 122,64 201,92l0 320 -38 -15 -1 1c-105,-44 -162,-87 -162,-121zm201 738l0 -278c54,34 122,65 201,92l0 321c-130,-48 -201,-97 -201,-135zm3151 135l0 -320c80,-28 148,-59 202,-93l0 278c-1,37 -71,87 -202,135zm201 -599c-8,45 -111,106 -294,162l0 0c-237,73 -608,141 -1079,161 -24,1 -48,2 -72,3 -20,1 -40,1 -61,2 -55,1 -112,2 -170,2 -58,0 -114,-1 -170,-2 -20,-1 -40,-1 -60,-2 -24,-1 -49,-2 -73,-3 -470,-21 -841,-88 -1079,-161l0 0c-177,-55 -279,-113 -292,-158 20,7 41,14 62,21 2,0 4,1 6,2 18,5 37,10 56,16 7,2 14,4 22,6 10,3 21,5 32,8 244,63 556,107 893,127 0,0 0,0 0,0 0,0 0,0 0,0 104,6 210,10 318,11 28,1 56,1 84,1 37,0 75,-1 113,-1 98,-2 195,-5 289,-11 0,0 0,0 1,0 0,0 0,0 0,0 115,-7 227,-17 334,-29 0,0 0,0 1,0 1,0 2,-1 4,-1 119,-14 232,-30 337,-50 21,-4 43,-8 64,-12 4,-1 9,-2 14,-3 198,-41 369,-94 487,-159 6,-3 12,-7 18,-10 8,-5 15,-9 22,-14 6,-4 14,-8 19,-12 133,47 169,89 174,106zm1 -876l0 -320c79,-28 147,-59 201,-93l0 278c0,37 -71,87 -201,135z"/>
   <g>
   </g>
   <g>
   </g>
   <g>
   </g>
   <g>
   </g>
   <g>
   </g>
   <g>
   </g>
   <g>
   </g>
   <g>
   </g>
   <g>
   </g>
   <g>
   </g>
   <g>
   </g>
   <g>
   </g>
   <g>
   </g>
   <g>
   </g>
   <g>
   </g>
  </g>
 </g>
</svg>
