<svg xmlns="http://www.w3.org/2000/svg" xml:space="preserve" width="71px" height="71px" version="1.1" style="shape-rendering:geometricPrecision; text-rendering:geometricPrecision; image-rendering:optimizeQuality; fill-rule:evenodd; clip-rule:evenodd"
viewBox="0 0 1234 1234"
 xmlns:xlink="http://www.w3.org/1999/xlink">
 <defs>
  <style type="text/css">
   <![CDATA[
    .fil1 {fill:#49984C}
    .fil0 {fill:#429A44;fill-rule:nonzero}
   ]]>
  </style>
 </defs>
<symbol id="Fm1-60-0" viewBox="24312 31440 9894 947">
 <path class="fil0" d="M24312 31457l96 0 0 310 380 0 0 -310 96 0 0 722 -96 0 0 -331 -380 0 0 331 -96 0 0 -722zm860 733c-23,0 -45,-3 -66,-8 -21,-5 -40,-13 -55,-25 -16,-12 -29,-27 -38,-46 -9,-18 -13,-41 -13,-67 0,-29 5,-54 15,-72 10,-19 23,-35 40,-47 16,-11 35,-20 56,-26 21,-6 43,-11 65,-15 24,-5 46,-9 68,-11 21,-3 39,-6 56,-10 16,-5 29,-11 38,-19 9,-9 14,-21 14,-37 0,-19 -3,-34 -11,-46 -7,-11 -16,-20 -27,-26 -11,-6 -23,-10 -37,-12 -14,-2 -27,-3 -41,-3 -36,0 -67,7 -91,20 -24,14 -37,41 -39,79l-86 0c1,-32 8,-60 20,-82 12,-22 28,-40 49,-54 20,-14 43,-24 69,-30 26,-6 53,-9 83,-9 24,0 47,2 70,5 24,4 45,10 63,21 19,10 35,25 46,44 11,19 17,43 17,74l0 268c0,21 1,35 4,45 2,9 10,14 23,14 6,0 15,-2 27,-5l0 67c-15,8 -36,13 -62,13 -22,0 -40,-7 -53,-19 -13,-12 -20,-33 -20,-61 -23,28 -51,49 -82,61 -31,12 -65,19 -102,19zm19 -75c29,0 53,-4 73,-12 20,-7 37,-17 50,-29 13,-12 22,-25 28,-39 6,-13 9,-26 9,-38l0 -88c-11,9 -25,15 -42,18 -18,3 -36,6 -55,9 -19,3 -39,5 -58,8 -20,3 -38,8 -53,14 -15,7 -28,17 -38,29 -10,13 -14,30 -14,51 0,14 2,26 8,36 6,10 13,18 22,24 9,6 20,10 32,13 12,3 25,4 38,4zm379 -459l86 0 0 427 247 -427 110 0 0 523 -86 0 0 -427 -247 427 -110 0 0 -523zm221 -77c-20,0 -39,-3 -56,-9 -17,-6 -33,-14 -46,-26 -13,-11 -24,-25 -31,-42 -8,-16 -12,-35 -12,-57l72 0c1,50 25,75 73,75 23,0 41,-7 54,-20 12,-13 18,-31 18,-55l72 0c0,20 -4,39 -11,56 -7,17 -17,31 -30,42 -13,12 -28,20 -46,27 -17,6 -36,9 -57,9zm478 153l-187 0 0 -76 459 0 0 76 -187 0 0 447 -85 0 0 -447zm341 -76l86 0 0 427 246 -427 110 0 0 523 -86 0 0 -427 -246 427 -110 0 0 -523zm853 0l86 0 0 250 239 -250 114 0 -231 226 259 297 -111 0 -218 -249 -52 52 0 197 -86 0 0 -523zm585 731c-10,0 -20,-1 -30,-2 -11,-2 -20,-4 -30,-7l0 -79c8,2 17,5 25,8 8,2 17,4 26,4 17,0 31,-4 42,-12 11,-8 20,-20 28,-36l36 -88 -207 -519 97 0 152 428 2 0 147 -428 91 0 -228 591c-10,26 -20,48 -29,65 -10,18 -21,32 -33,43 -12,11 -25,19 -39,24 -15,5 -31,8 -50,8zm454 -731l86 0 0 71 2 0c14,-29 37,-50 67,-63 30,-13 64,-20 100,-20 40,0 76,8 106,22 30,15 55,35 74,60 20,26 35,55 45,88 10,33 16,68 16,105 0,38 -5,73 -15,106 -10,32 -25,61 -44,85 -20,25 -45,45 -75,59 -30,14 -65,21 -105,21 -13,0 -28,-2 -43,-4 -16,-3 -31,-7 -47,-13 -15,-6 -30,-15 -44,-25 -14,-11 -25,-24 -35,-39l-2 0 0 269 -86 0 0 -722zm248 459c29,0 53,-6 74,-17 20,-12 36,-27 48,-46 12,-19 21,-40 26,-64 6,-25 8,-50 8,-75 0,-25 -3,-48 -9,-71 -7,-24 -16,-44 -29,-63 -13,-18 -30,-32 -51,-43 -20,-11 -44,-16 -72,-16 -29,0 -54,6 -74,17 -20,11 -36,26 -49,45 -13,19 -22,39 -28,63 -6,24 -9,47 -9,72 0,25 4,50 10,74 6,24 15,45 28,63 13,18 30,33 51,44 21,11 46,17 76,17zm565 75c-40,0 -75,-7 -106,-19 -30,-13 -56,-31 -77,-55 -20,-24 -36,-52 -46,-84 -11,-32 -16,-68 -16,-108 0,-39 5,-76 15,-110 10,-34 26,-63 47,-89 20,-25 46,-45 76,-59 31,-15 67,-22 109,-22 29,0 57,4 83,11 26,7 49,18 69,32 20,15 36,34 49,57 13,22 21,49 24,80l-89 0c-6,-33 -21,-59 -42,-77 -22,-18 -51,-27 -87,-27 -31,0 -57,6 -78,17 -21,11 -38,27 -50,46 -12,18 -21,40 -27,65 -5,24 -8,50 -8,76 0,24 3,48 9,71 5,23 14,43 27,61 12,18 27,32 47,43 19,11 42,16 70,16 42,0 75,-11 99,-33 24,-23 39,-54 44,-94l88 0c-9,65 -33,115 -71,150 -39,34 -92,52 -159,52zm832 0c-41,0 -78,-7 -109,-21 -32,-14 -58,-33 -80,-58 -21,-24 -37,-53 -48,-86 -11,-33 -16,-69 -16,-107 0,-38 5,-74 16,-108 11,-33 27,-62 48,-87 22,-24 48,-44 80,-58 31,-14 68,-21 109,-21 41,0 78,7 109,21 32,14 59,34 80,58 22,25 38,54 49,87 10,34 16,70 16,108 0,38 -6,74 -16,107 -11,33 -27,62 -49,86 -21,25 -48,44 -80,58 -31,14 -68,21 -109,21zm0 -75c22,0 44,-4 63,-13 20,-9 38,-22 53,-38 14,-17 26,-37 34,-62 8,-24 13,-52 13,-84 0,-32 -5,-60 -13,-84 -8,-25 -20,-46 -34,-63 -15,-17 -33,-29 -53,-38 -19,-9 -41,-13 -63,-13 -22,0 -43,4 -63,13 -20,9 -37,21 -52,38 -15,17 -26,38 -35,63 -8,24 -12,52 -12,84 0,32 4,60 12,84 9,25 20,45 35,62 15,16 32,29 52,38 20,9 41,13 63,13zm588 75c-67,0 -121,-17 -163,-52 -41,-34 -67,-87 -78,-160 -4,-28 -6,-59 -6,-94 0,-25 0,-51 2,-78 2,-27 5,-54 9,-80 5,-26 11,-51 19,-76 7,-24 17,-46 30,-65 23,-36 51,-63 84,-80 33,-17 75,-27 125,-31 32,-2 60,-5 82,-9 22,-3 35,-12 38,-25l85 0c-1,26 -6,47 -16,61 -10,14 -25,24 -43,32 -18,7 -41,11 -67,14 -26,2 -57,5 -92,7 -29,2 -54,9 -75,20 -22,12 -40,27 -55,46 -16,19 -28,42 -37,68 -10,26 -17,54 -21,85l3 0c15,-34 38,-62 70,-84 31,-22 69,-34 113,-34 74,0 132,23 174,69 42,46 64,112 64,198 0,44 -6,82 -18,115 -12,34 -28,62 -50,84 -21,23 -47,40 -77,52 -30,11 -63,17 -100,17zm1 -73c21,0 40,-4 59,-13 19,-8 35,-20 49,-37 14,-16 26,-36 35,-60 9,-23 13,-51 13,-83 0,-61 -14,-109 -42,-145 -29,-35 -67,-52 -116,-52 -48,0 -87,18 -116,53 -28,35 -42,84 -42,145 0,59 14,106 42,140 29,35 68,52 118,52zm398 270c-10,0 -20,-1 -30,-2 -10,-2 -20,-4 -29,-7l0 -79c8,2 16,5 24,8 9,2 17,4 26,4 18,0 32,-4 43,-12 10,-8 20,-20 28,-36l35 -88 -207 -519 97 0 153 428 2 0 146 -428 91 0 -227 591c-10,26 -20,48 -30,65 -10,18 -21,32 -32,43 -12,11 -25,19 -40,24 -14,5 -31,8 -50,8zm765 -421c-16,7 -37,14 -64,20 -28,6 -57,9 -88,9 -64,0 -110,-14 -138,-42 -28,-28 -41,-67 -41,-118l0 -179 86 0 0 165c0,34 8,60 23,76 16,17 45,25 87,25 25,0 51,-3 76,-8 25,-6 44,-12 59,-18l0 -240 86 0 0 523 -86 0 0 -213zm438 224c-42,0 -79,-7 -110,-21 -31,-13 -57,-32 -78,-56 -21,-24 -37,-53 -47,-87 -11,-34 -16,-70 -16,-110 0,-39 6,-75 18,-109 12,-33 29,-62 51,-86 22,-24 48,-43 78,-57 30,-13 63,-20 98,-20 47,0 86,10 116,29 31,19 55,44 74,73 19,30 31,62 38,97 8,35 10,68 9,100l-391 0c-1,23 2,45 8,65 6,21 16,39 29,55 14,16 31,28 52,38 21,9 45,14 73,14 37,0 67,-9 90,-25 23,-17 38,-43 46,-77l85 0c-12,59 -37,103 -76,133 -39,29 -88,44 -147,44zm140 -323c-2,-20 -6,-39 -14,-57 -7,-18 -18,-34 -31,-47 -13,-13 -29,-24 -46,-31 -18,-8 -38,-12 -59,-12 -23,0 -43,4 -61,12 -18,7 -33,18 -46,31 -13,14 -23,30 -30,47 -7,18 -12,37 -13,57l300 0zm180 -211l86 0 0 208 264 0 0 -208 86 0 0 523 -86 0 0 -241 -264 0 0 241 -86 0 0 -523zm566 0l86 0 0 427 246 -427 110 0 0 523 -86 0 0 -427 -246 427 -110 0 0 -523zm682 318c-37,-5 -68,-22 -91,-50 -24,-28 -36,-64 -36,-107 0,-49 15,-88 44,-117 30,-29 69,-44 120,-44l265 0 0 523 -86 0 0 -201 -114 0 -160 201 -114 0 172 -205zm216 -70l0 -172 -152 0c-36,0 -62,8 -79,23 -16,16 -24,37 -24,63 0,27 8,48 24,63 17,15 43,23 79,23l152 0z"/>
</symbol>
 <g id="Layer-71">
  <metadata id="CorelCorpID_0Corel-Layer"/>
  <g id="_2097292067776">
   <g>
    <g>
     <g>
      <path class="fil1" d="M141 103l473 61c1,0 2,1 3,1 1,0 2,-1 3,-1l450 -58 0 71c-13,15 -42,51 -42,90 0,46 37,62 62,62 25,0 62,-16 62,-62 0,-39 -28,-75 -41,-90l0 -95c0,-2 -1,-5 -2,-7 0,-1 -1,-2 -1,-3 -1,-1 -2,-3 -3,-4 -1,-1 -2,-1 -2,-2 -2,-1 -3,-1 -4,-2 -1,-1 -2,-1 -3,-1 -1,0 -2,-1 -3,-1l-473 -62c-2,0 -4,0 -6,0l-473 62c-10,1 -18,10 -18,20 0,11 8,19 18,21zm970 164c0,17 -11,21 -21,21 -9,0 -20,-4 -20,-21 0,-17 10,-36 20,-50 10,14 21,33 21,50zm-494 -226l314 41 -314 41 -314 -41 314 -41z"/>
      <path class="fil1" d="M740 617c42,0 76,-31 82,-71l75 -56c9,-7 11,-20 4,-29 -7,-9 -20,-11 -29,-4l-52 39c-8,-25 -31,-44 -59,-44l-82 0c-34,0 -62,28 -62,62 0,-34 -28,-62 -62,-62l-82 0c-28,0 -51,19 -59,44l-52 -39c-9,-7 -22,-5 -29,4 -7,9 -5,22 4,29l76 56c5,40 39,71 81,71l41 0c45,0 82,-37 82,-82 0,45 37,82 82,82l41 0zm-164 -82c0,22 -19,41 -41,41l-41 0c-23,0 -42,-19 -42,-41l0 -21c0,-11 10,-20 21,-20l82 0c12,0 21,9 21,20l0 21 0 0zm82 0l0 -21c0,-11 9,-20 21,-20l82 0c11,0 21,9 21,20l0 21c0,22 -19,41 -42,41l-41 0c-22,0 -41,-19 -41,-41z"/>
      <path class="fil1" d="M945 1044c0,-2 -1,-3 -1,-4 -1,-1 -1,-2 -1,-2 -1,-1 -1,-1 -1,-1 -1,-1 -2,-2 -3,-3 -1,-1 -2,-2 -3,-3 -1,0 -1,0 -1,0l-83 -42c-6,-3 -14,-2 -20,2l-124 82c-5,4 -9,10 -9,17l0 73c-12,10 -42,30 -82,30 -40,0 -70,-20 -82,-30l0 -73c0,-7 -4,-13 -9,-17l-124 -82c-6,-4 -14,-5 -20,-2l-83 42c0,0 0,0 -1,0 -1,1 -2,2 -3,3 -1,1 -2,2 -3,3 0,0 0,0 -1,1 0,0 0,1 -1,2 0,1 -1,2 -1,4 -1,1 -1,2 -1,4 0,1 0,2 0,4 1,1 1,2 1,4 1,0 1,1 1,2 0,0 1,1 1,1 1,1 1,2 2,3 1,1 2,2 3,3 1,0 1,1 1,1l124 82c3,3 7,4 11,4 7,0 13,-3 17,-9 6,-10 4,-23 -6,-29l-94 -63 40 -19 105 69 0 71c0,6 2,11 6,15 2,2 48,47 117,47 69,0 116,-45 117,-47 4,-4 6,-9 6,-15l0 -71 105 -69 40 19 -94 63c-10,6 -12,19 -6,29 4,6 11,9 17,9 4,0 8,-1 12,-4l123 -82c0,0 0,-1 1,-1 1,-1 2,-2 3,-3 1,-1 2,-2 2,-3 0,0 1,0 1,-1 0,-1 0,-2 1,-2 0,-2 1,-3 1,-4 0,-2 0,-3 0,-4 0,-2 0,-3 -1,-4z"/>
      <path class="fil1" d="M1030 974c3,8 11,13 19,13 3,0 5,0 8,-1 10,-4 15,-16 11,-27 0,-1 -40,-101 -40,-198l0 -165c0,-175 -89,-222 -93,-224 -7,-3 -14,-2 -20,1 -6,4 -10,11 -10,18l0 82c0,78 -60,238 -80,279 -19,37 -116,153 -208,153 -92,0 -189,-116 -208,-153 -20,-41 -80,-201 -80,-279l0 -82c0,-7 -4,-14 -10,-18 -6,-3 -13,-4 -20,-1 -3,2 -93,49 -93,224l0 165c0,97 -40,197 -40,198 -4,11 1,23 12,27 10,4 22,-1 26,-12 2,-4 43,-107 43,-213l0 -165c0,-83 22,-131 41,-158l0 35c0,88 65,258 84,297 25,50 135,176 245,176 110,0 220,-126 245,-176 19,-39 84,-209 84,-297l0 -35c20,27 41,75 41,158l0 165c0,106 41,209 43,213z"/>
      <path class="fil1" d="M664 746c0,1 -16,15 -47,15 -31,0 -46,-14 -47,-15 -8,-8 -21,-8 -29,0 -8,8 -8,21 0,30 3,2 28,26 76,26 48,0 74,-24 76,-26 8,-8 8,-21 0,-29 -7,-8 -20,-8 -29,-1z"/>
      <path class="fil1" d="M1233 1207c-2,-5 -47,-135 -220,-178 -11,-3 -22,4 -25,15 -3,11 4,22 15,25 151,38 189,146 191,151 3,9 11,14 20,14 2,0 4,0 6,-1 11,-4 17,-15 13,-26z"/>
      <path class="fil1" d="M946 309l0 -144c0,-12 -9,-21 -20,-21 -12,0 -21,9 -21,21l0 130c-34,15 -142,55 -288,55 -146,0 -254,-40 -288,-55l0 -130c0,-12 -9,-21 -20,-21 -12,0 -21,9 -21,21l0 144c0,7 4,14 11,18 6,3 130,64 318,64 188,0 313,-61 318,-64 7,-4 11,-11 11,-18z"/>
      <path class="fil1" d="M221 1029c-173,43 -218,173 -220,178 -4,11 2,22 13,26 2,1 4,1 7,1 8,0 16,-5 19,-14 0,-1 39,-113 191,-151 11,-3 18,-14 15,-25 -3,-11 -14,-18 -25,-15z"/>
     </g>
    </g>
   </g>
   <g>
   </g>
   <g>
   </g>
   <g>
   </g>
   <g>
   </g>
   <g>
   </g>
   <g>
   </g>
   <g>
   </g>
   <g>
   </g>
   <g>
   </g>
   <g>
   </g>
   <g>
   </g>
   <g>
   </g>
   <g>
   </g>
   <g>
   </g>
   <g>
   </g>
  </g>
 </g>
</svg>
