<svg xmlns="http://www.w3.org/2000/svg" xml:space="preserve" width="60px" height="60px" version="1.1" style="shape-rendering:geometricPrecision; text-rendering:geometricPrecision; image-rendering:optimizeQuality; fill-rule:evenodd; clip-rule:evenodd"
viewBox="0 0 485 485"
 xmlns:xlink="http://www.w3.org/1999/xlink">
 <defs>
  <style type="text/css">
   <![CDATA[
    .fil1 {fill:#399C3A}
    .fil0 {fill:#429A44;fill-rule:nonzero}
   ]]>
  </style>
 </defs>
<symbol id="Fm1-60-0" viewBox="10024 14649 4625 443">
 <path class="fil0" d="M10024 14657l45 0 0 145 178 0 0 -145 45 0 0 338 -45 0 0 -155 -178 0 0 155 -45 0 0 -338zm402 343c-11,0 -21,-1 -31,-4 -10,-2 -18,-6 -26,-12 -7,-5 -13,-12 -17,-21 -4,-9 -6,-19 -6,-31 0,-14 2,-25 7,-34 4,-9 11,-16 18,-22 8,-5 17,-9 27,-12 10,-3 20,-5 30,-7 11,-3 22,-4 32,-5 9,-1 18,-3 26,-5 7,-2 13,-5 18,-9 4,-4 6,-10 6,-17 0,-9 -1,-16 -5,-21 -3,-6 -7,-10 -12,-13 -6,-3 -11,-4 -18,-5 -6,-1 -13,-2 -19,-2 -17,0 -31,3 -42,10 -12,6 -18,19 -19,36l-40 0c1,-15 4,-27 10,-38 5,-10 13,-19 22,-25 10,-7 20,-11 32,-14 13,-3 26,-4 39,-4 11,0 22,1 33,2 11,2 21,5 30,10 9,5 16,11 21,20 5,9 8,21 8,35l0 125c0,10 1,17 2,21 1,5 5,7 11,7 3,0 7,-1 12,-3l0 32c-7,4 -16,6 -29,6 -10,0 -18,-3 -25,-9 -6,-6 -9,-15 -9,-29 -11,14 -24,23 -38,29 -15,6 -31,9 -48,9zm9 -35c13,0 25,-2 34,-6 10,-3 17,-8 23,-13 6,-6 11,-12 14,-18 2,-7 4,-13 4,-18l0 -42c-5,5 -12,7 -20,9 -8,2 -17,3 -26,4 -9,1 -18,3 -27,4 -9,1 -17,4 -24,7 -8,3 -14,7 -18,13 -5,6 -7,14 -7,24 0,7 1,12 4,17 3,4 6,8 10,11 5,3 10,5 15,6 6,1 12,2 18,2zm177 -215l40 0 0 200 116 -200 51 0 0 245 -40 0 0 -200 -115 200 -52 0 0 -245zm104 -35c-10,0 -19,-2 -27,-5 -8,-3 -15,-7 -21,-12 -6,-5 -11,-12 -15,-20 -3,-7 -5,-16 -5,-26l33 0c1,23 12,35 34,35 11,0 20,-3 26,-10 5,-6 8,-14 8,-25l34 0c0,9 -2,18 -5,26 -4,8 -9,14 -15,20 -6,5 -13,9 -21,12 -8,3 -17,5 -26,5zm223 71l-88 0 0 -36 215 0 0 36 -87 0 0 209 -40 0 0 -209zm159 -36l40 0 0 200 116 -200 51 0 0 245 -40 0 0 -200 -115 200 -52 0 0 -245zm399 0l40 0 0 117 112 -117 53 0 -108 106 121 139 -51 0 -102 -117 -25 25 0 92 -40 0 0 -245zm273 342c-4,0 -9,0 -14,-1 -4,-1 -9,-2 -13,-3l0 -37c3,1 7,2 11,4 4,1 8,1 12,1 8,0 15,-1 20,-5 5,-4 9,-10 13,-17l17 -41 -97 -243 45 0 72 200 1 0 68 -200 43 0 -107 277c-4,12 -9,22 -14,30 -4,8 -9,15 -15,20 -5,5 -11,9 -18,11 -7,3 -15,4 -24,4zm213 -342l40 0 0 33 1 0c7,-13 17,-23 31,-29 14,-6 30,-9 47,-9 19,0 35,3 49,10 14,7 26,16 35,28 10,12 17,26 21,41 5,15 7,32 7,49 0,18 -2,34 -6,50 -5,15 -12,28 -21,40 -9,11 -21,20 -35,27 -14,6 -31,10 -49,10 -6,0 -13,-1 -20,-2 -8,-1 -15,-3 -22,-6 -7,-3 -14,-7 -21,-12 -6,-5 -12,-11 -16,-18l-1 0 0 126 -40 0 0 -338zm116 215c13,0 25,-3 34,-8 10,-6 17,-13 23,-21 6,-9 10,-19 12,-31 3,-11 4,-23 4,-35 0,-11 -2,-22 -5,-33 -3,-11 -7,-20 -13,-29 -6,-8 -14,-15 -24,-20 -9,-5 -21,-8 -34,-8 -13,0 -25,3 -34,8 -10,6 -17,12 -23,21 -6,9 -11,19 -13,30 -3,11 -4,22 -4,33 0,12 1,24 4,35 3,11 7,21 13,30 7,8 14,15 24,20 10,5 22,8 36,8zm264 35c-19,0 -35,-3 -50,-9 -14,-6 -26,-15 -36,-26 -9,-11 -16,-24 -21,-39 -5,-15 -8,-32 -8,-50 0,-19 3,-36 7,-52 5,-16 12,-29 22,-41 10,-12 22,-21 36,-28 14,-7 31,-10 51,-10 13,0 26,1 39,5 12,3 23,8 32,15 9,7 17,16 23,26 6,11 9,23 11,38l-42 0c-3,-16 -9,-28 -19,-36 -10,-9 -24,-13 -41,-13 -15,0 -27,3 -36,8 -10,6 -18,13 -24,21 -6,9 -10,19 -12,31 -3,11 -4,23 -4,36 0,11 1,22 4,33 3,10 7,20 12,28 6,9 13,15 22,20 9,5 20,8 33,8 20,0 36,-5 47,-16 11,-10 18,-25 20,-44l41 0c-4,31 -15,54 -33,70 -18,17 -43,25 -74,25zm389 0c-20,0 -37,-3 -51,-10 -15,-6 -27,-15 -37,-27 -11,-11 -18,-25 -23,-40 -5,-16 -8,-32 -8,-50 0,-18 3,-35 8,-51 5,-15 12,-29 23,-40 10,-12 22,-21 37,-27 14,-7 31,-10 51,-10 19,0 36,3 51,10 15,6 27,15 37,27 10,11 18,25 23,40 5,16 7,33 7,51 0,18 -2,34 -7,50 -5,15 -13,29 -23,40 -10,12 -22,21 -37,27 -15,7 -32,10 -51,10zm0 -35c10,0 20,-2 29,-6 10,-4 18,-10 25,-18 7,-8 12,-17 16,-29 4,-11 6,-24 6,-39 0,-15 -2,-28 -6,-40 -4,-11 -9,-21 -16,-29 -7,-8 -15,-14 -25,-18 -9,-4 -19,-6 -29,-6 -11,0 -20,2 -30,6 -9,4 -17,10 -24,18 -7,8 -12,18 -16,29 -4,12 -6,25 -6,40 0,15 2,28 6,39 4,12 9,21 16,29 7,8 15,14 24,18 10,4 19,6 30,6zm275 35c-32,0 -57,-8 -77,-24 -19,-16 -31,-41 -36,-75 -2,-13 -3,-28 -3,-44 0,-12 0,-24 1,-37 1,-12 2,-25 4,-37 2,-12 5,-24 9,-35 4,-12 8,-22 14,-31 11,-17 24,-29 40,-37 15,-8 34,-13 58,-15 15,-1 28,-2 38,-4 11,-1 17,-5 18,-12l40 0c-1,13 -3,22 -8,29 -5,6 -11,11 -20,15 -8,3 -19,5 -31,6 -12,1 -27,3 -43,4 -14,1 -25,4 -35,9 -11,5 -19,13 -26,22 -7,9 -13,19 -17,31 -5,12 -8,26 -10,40l2 0c6,-16 17,-29 32,-39 15,-11 32,-16 53,-16 34,0 61,11 81,32 20,21 30,52 30,93 0,20 -3,38 -8,54 -6,15 -14,28 -24,39 -10,10 -22,18 -36,24 -14,5 -29,8 -46,8zm0 -34c10,0 19,-2 28,-6 8,-4 16,-10 23,-17 6,-8 12,-17 16,-28 4,-12 6,-25 6,-39 0,-29 -7,-52 -20,-68 -13,-16 -31,-25 -54,-25 -22,0 -41,9 -54,25 -13,17 -20,39 -20,68 0,28 7,50 20,66 13,16 32,24 55,24zm186 126c-4,0 -9,0 -14,-1 -5,-1 -9,-2 -14,-3l0 -37c4,1 8,2 12,4 4,1 8,1 12,1 8,0 15,-1 20,-5 5,-4 9,-10 13,-17l16 -41 -96 -243 45 0 71 200 1 0 69 -200 42 0 -106 277c-5,12 -9,22 -14,30 -4,8 -10,15 -15,20 -6,5 -12,9 -18,11 -7,3 -15,4 -24,4zm358 -197c-8,3 -18,7 -30,9 -13,3 -27,5 -41,5 -30,0 -52,-7 -65,-20 -13,-13 -19,-31 -19,-55l0 -84 40 0 0 77c0,16 4,28 11,36 7,8 21,12 40,12 12,0 24,-2 36,-4 12,-3 21,-6 28,-9l0 -112 40 0 0 245 -40 0 0 -100zm204 105c-19,0 -36,-3 -51,-10 -15,-6 -27,-15 -37,-26 -9,-11 -17,-25 -22,-41 -5,-15 -7,-33 -7,-51 0,-18 3,-35 9,-51 5,-16 13,-29 23,-40 11,-12 23,-21 37,-27 14,-6 29,-9 46,-9 22,0 40,4 54,13 14,9 26,21 34,34 9,14 15,29 18,46 4,16 5,32 4,47l-182 0c-1,10 1,20 3,30 3,10 8,18 14,26 6,7 14,13 24,17 10,5 21,7 35,7 17,0 31,-4 41,-12 11,-8 18,-20 22,-36l40 0c-6,28 -18,49 -36,62 -18,14 -41,21 -69,21zm66 -151c-1,-9 -3,-18 -6,-27 -4,-8 -9,-16 -15,-22 -6,-6 -14,-11 -22,-14 -8,-4 -17,-6 -27,-6 -11,0 -20,2 -29,6 -8,3 -15,8 -21,14 -6,7 -11,14 -14,22 -4,9 -6,18 -6,27l140 0zm84 -99l40 0 0 98 124 0 0 -98 40 0 0 245 -40 0 0 -113 -124 0 0 113 -40 0 0 -245zm264 0l41 0 0 200 115 -200 51 0 0 245 -40 0 0 -200 -115 200 -52 0 0 -245zm319 149c-17,-2 -31,-10 -42,-23 -11,-14 -17,-30 -17,-50 0,-23 7,-42 21,-55 13,-14 32,-21 56,-21l123 0 0 245 -40 0 0 -94 -53 0 -75 94 -53 0 80 -96zm101 -33l0 -80 -71 0c-17,0 -29,4 -36,11 -8,7 -12,17 -12,29 0,13 4,22 12,30 7,7 19,10 36,10l71 0z"/>
</symbol>
 <g id="Layer-80">
  <metadata id="CorelCorpID_0Corel-Layer"/>
  <g id="_2096942850432">
   <g>
    <g>
     <path class="fil1" d="M376 259l-53 -67c19,-19 30,-44 32,-71l81 0 0 9c-18,4 -32,20 -32,40 0,22 18,40 40,40 23,0 41,-18 41,-40 0,-20 -14,-36 -32,-40l0 -17c0,-4 -4,-8 -9,-8l-89 0c-1,-22 -10,-44 -23,-61l11 -12 95 0c4,13 18,20 31,15 12,-4 19,-18 15,-31 -5,-12 -19,-19 -31,-15 -7,3 -13,8 -15,15l-99 0c-2,0 -4,1 -5,3l-13 13c-45,-44 -117,-42 -160,3 -18,19 -29,44 -31,70l-68 0 -27 -59c12,-7 17,-21 11,-33 -7,-12 -21,-16 -33,-10 -12,6 -16,21 -10,33 3,6 9,10 16,12l30 68c2,3 4,5 8,5l73 0c2,27 13,51 31,70l-68 69c-44,-7 -85,23 -92,67 -7,45 24,86 68,92 1,0 2,1 4,1l0 41c0,4 3,8 8,8l74 0c5,12 18,19 31,14 13,-4 19,-18 15,-31 -5,-12 -19,-19 -31,-14 -7,2 -12,8 -15,14l-66 0 0 -32c44,-5 77,-44 72,-89 -3,-30 -22,-55 -50,-67l62 -62c41,32 98,32 138,1l45 57c-62,8 -105,66 -96,127 8,62 66,106 127,97 62,-9 105,-66 97,-128 -8,-54 -53,-95 -108,-97zm93 -89c0,13 -11,24 -25,24 -13,0 -24,-11 -24,-24 0,-14 11,-25 24,-25 14,0 25,11 25,25zm-8 -154c4,0 8,4 8,8 0,5 -4,8 -8,8 -5,0 -8,-3 -8,-8 0,-4 3,-8 8,-8zm-437 16c-4,0 -8,-3 -8,-8 0,-4 4,-8 8,-8 5,0 8,4 8,8 0,5 -3,8 -8,8zm154 420c4,0 8,4 8,9 0,4 -4,8 -8,8 -5,0 -8,-4 -8,-8 0,-5 3,-9 8,-9zm-65 -57c-20,12 -44,12 -64,0l0 -15c0,-18 14,-33 32,-33 18,0 32,15 32,33l0 15zm-48 -80c0,-9 7,-16 16,-16 9,0 16,7 16,16 0,9 -7,16 -16,16 -9,0 -16,-7 -16,-16zm64 -19c11,12 17,28 17,43 0,16 -6,31 -17,43l0 -2c0,-18 -9,-34 -25,-43 13,-13 12,-33 -1,-45 -13,-13 -33,-12 -45,1 -12,12 -12,32 0,44 -16,9 -26,25 -26,43l0 2c-23,-27 -21,-68 6,-91 27,-24 68,-21 91,5zm170 -104c-34,24 -79,24 -113,0l0 -20c0,-15 12,-27 27,-27l18 0 -12 30c-1,3 -1,6 2,8l16 17c3,3 8,3 11,0l16 -17c3,-2 3,-5 2,-8l-12 -30 18 0c15,0 27,12 27,27l0 20zm-55 -132c-1,1 -1,2 -1,2 -4,12 -26,17 -40,18 2,-27 14,-40 39,-40 23,0 36,11 40,34l-27 -16c-4,-3 -9,-1 -11,2zm10 16l29 17c-4,20 -28,36 -41,36 -18,-3 -33,-15 -39,-32 14,-2 39,-6 51,-21zm-5 100l-7 6 -6 -6 6 -17 7 17zm29 -46c12,-10 20,-25 21,-41 0,-54 -31,-65 -57,-65 -25,0 -56,11 -56,65 1,16 9,31 21,41 -21,2 -37,21 -37,42l0 5c-36,-40 -32,-101 8,-137 41,-35 102,-31 137,9 33,36 33,91 0,128l0 -5c0,-21 -16,-40 -37,-42zm150 320c-33,25 -79,25 -113,0l0 -19c0,-15 12,-27 27,-27l18 0 -12 29c-1,3 0,7 2,9l16 16c3,3 8,3 11,0l17 -16c2,-2 3,-6 1,-9l-11 -29 18 0c14,0 26,12 26,27l0 19zm-45 -116l0 0 29 18c-3,20 -28,36 -40,36 -18,-3 -33,-16 -40,-33 14,-1 39,-5 51,-21zm-51 5l0 0c2,-27 15,-40 40,-40 23,0 35,11 39,33l-27 -16c-4,-2 -9,-1 -11,3 0,1 -1,1 -1,2 -4,12 -26,17 -40,18zm46 95l-6 7 -7 -7 7 -16 6 16zm66 2l0 -5c1,-22 -16,-40 -37,-43 13,-10 20,-25 21,-41 0,-53 -30,-64 -56,-64 -26,0 -57,11 -57,64 1,16 9,31 22,41 -22,3 -38,21 -38,43l0 5c-35,-41 -31,-102 9,-137 40,-36 101,-32 137,9 15,17 24,40 24,64 0,23 -9,46 -25,64z"/>
    </g>
   </g>
   <g>
   </g>
   <g>
   </g>
   <g>
   </g>
   <g>
   </g>
   <g>
   </g>
   <g>
   </g>
   <g>
   </g>
   <g>
   </g>
   <g>
   </g>
   <g>
   </g>
   <g>
   </g>
   <g>
   </g>
   <g>
   </g>
   <g>
   </g>
   <g>
   </g>
  </g>
 </g>
</svg>
