<svg xmlns="http://www.w3.org/2000/svg" xml:space="preserve" width="67px" height="71px" version="1.1" style="shape-rendering:geometricPrecision; text-rendering:geometricPrecision; image-rendering:optimizeQuality; fill-rule:evenodd; clip-rule:evenodd"
viewBox="0 0 789 845"
 xmlns:xlink="http://www.w3.org/1999/xlink">
 <defs>
  <style type="text/css">
   <![CDATA[
    .fil1 {fill:#49984C}
    .fil0 {fill:#429A44;fill-rule:nonzero}
   ]]>
  </style>
 </defs>
<symbol id="Fm1-60-0" viewBox="22435 24135 6777 649">
 <path class="fil0" d="M22435 24147l66 0 0 212 260 0 0 -212 66 0 0 494 -66 0 0 -226 -260 0 0 226 -66 0 0 -494zm589 502c-16,0 -31,-2 -46,-6 -14,-3 -27,-9 -38,-17 -10,-8 -19,-18 -25,-31 -6,-13 -10,-28 -10,-46 0,-20 4,-37 11,-50 7,-13 16,-23 27,-31 12,-9 24,-15 39,-19 14,-4 29,-7 45,-10 16,-3 31,-6 46,-8 14,-1 27,-3 38,-6 11,-3 20,-8 26,-14 7,-5 10,-14 10,-25 0,-13 -2,-23 -7,-31 -5,-8 -11,-14 -19,-18 -8,-4 -16,-7 -25,-8 -10,-2 -19,-2 -28,-2 -25,0 -46,4 -63,14 -17,9 -26,27 -27,54l-59 0c1,-23 6,-41 14,-57 9,-15 20,-27 33,-37 14,-9 30,-16 48,-20 18,-4 37,-6 57,-6 16,0 32,1 48,3 16,3 30,7 43,14 13,8 24,18 31,31 8,13 12,29 12,50l0 184c0,14 1,24 3,31 1,6 7,9 16,9 4,0 10,-1 18,-3l0 46c-10,6 -24,9 -42,9 -16,0 -28,-5 -37,-13 -9,-9 -13,-23 -13,-42 -16,19 -35,33 -57,42 -21,8 -44,13 -69,13zm13 -52c19,0 36,-2 50,-8 14,-5 25,-12 34,-20 8,-8 15,-17 19,-26 4,-10 6,-18 6,-27l0 -60c-7,6 -17,10 -29,13 -12,2 -24,4 -37,6 -13,2 -27,4 -40,5 -14,2 -26,6 -36,10 -11,5 -19,11 -26,20 -7,8 -10,20 -10,35 0,9 2,18 6,24 3,7 9,13 15,17 6,4 13,7 22,9 8,1 17,2 26,2zm259 -314l59 0 0 292 169 -292 76 0 0 358 -59 0 0 -292 -169 292 -76 0 0 -358zm152 -52c-14,0 -27,-3 -39,-7 -12,-4 -22,-10 -31,-18 -9,-7 -16,-17 -22,-28 -5,-12 -8,-25 -8,-39l49 0c1,34 18,51 50,51 16,0 29,-5 37,-14 9,-9 13,-21 13,-37l49 0c0,13 -2,26 -7,38 -5,11 -12,21 -21,29 -9,7 -19,14 -31,18 -12,4 -25,7 -39,7zm327 104l-128 0 0 -52 314 0 0 52 -127 0 0 306 -59 0 0 -306zm234 -52l58 0 0 292 169 -292 76 0 0 358 -59 0 0 -292 -169 292 -75 0 0 -358zm584 0l59 0 0 171 164 -171 78 0 -159 155 177 203 -75 0 -150 -170 -35 35 0 135 -59 0 0 -358zm400 501c-6,0 -13,-1 -20,-2 -7,-1 -14,-2 -20,-5l0 -54c5,2 11,4 17,6 5,2 11,3 17,3 12,0 22,-3 29,-9 8,-5 14,-13 20,-24l24 -60 -142 -356 66 0 105 293 1 0 101 -293 62 0 -156 405c-7,17 -13,32 -20,44 -7,12 -14,22 -22,30 -8,7 -17,13 -27,16 -10,4 -22,6 -35,6zm312 -501l59 0 0 49 1 0c10,-20 25,-35 46,-44 21,-9 43,-13 68,-13 28,0 52,5 73,15 20,10 37,24 51,41 13,18 24,37 31,60 6,23 10,47 10,72 0,26 -3,50 -10,72 -7,23 -17,42 -30,59 -14,17 -31,30 -52,40 -20,10 -44,15 -71,15 -10,0 -19,-1 -30,-3 -11,-2 -21,-5 -32,-9 -11,-4 -21,-10 -30,-17 -9,-7 -18,-16 -24,-27l-1 0 0 184 -59 0 0 -494zm169 314c20,0 37,-4 51,-11 14,-8 25,-19 33,-32 8,-13 14,-27 18,-44 4,-17 6,-34 6,-51 0,-17 -3,-33 -7,-49 -4,-16 -11,-30 -20,-43 -9,-12 -21,-22 -34,-29 -15,-8 -31,-11 -50,-11 -20,0 -37,4 -50,11 -14,8 -26,19 -34,31 -9,13 -16,27 -19,43 -4,17 -6,33 -6,50 0,17 2,34 6,50 4,17 11,31 20,44 9,12 20,22 34,30 15,7 32,11 52,11zm387 52c-27,0 -51,-5 -72,-14 -21,-8 -39,-21 -53,-37 -14,-16 -24,-35 -31,-57 -8,-23 -11,-47 -11,-74 0,-27 3,-52 10,-76 7,-23 18,-43 32,-61 14,-17 31,-30 52,-40 21,-10 46,-15 75,-15 20,0 39,2 57,7 18,5 33,13 47,23 13,10 25,22 33,38 9,15 15,34 17,55l-61 0c-4,-22 -14,-40 -29,-53 -15,-12 -35,-18 -60,-18 -21,0 -38,4 -53,11 -14,8 -26,19 -34,32 -9,13 -15,28 -18,44 -4,17 -6,35 -6,53 0,16 2,32 6,48 4,16 10,30 18,42 9,12 19,22 32,29 14,8 30,11 49,11 29,0 51,-7 68,-23 16,-15 26,-36 30,-64l60 0c-6,45 -23,79 -49,103 -26,24 -63,36 -109,36zm570 0c-28,0 -53,-5 -75,-15 -21,-9 -39,-22 -54,-39 -15,-17 -26,-37 -33,-59 -8,-23 -11,-47 -11,-74 0,-26 3,-50 11,-73 7,-23 18,-43 33,-60 15,-17 33,-30 54,-40 22,-9 47,-14 75,-14 29,0 54,5 75,14 22,10 40,23 55,40 15,17 26,37 33,60 7,23 11,47 11,73 0,27 -4,51 -11,74 -7,22 -18,42 -33,59 -15,17 -33,30 -55,39 -21,10 -46,15 -75,15zm0 -52c16,0 30,-3 44,-9 13,-6 25,-14 35,-26 10,-11 18,-25 24,-42 6,-17 9,-36 9,-58 0,-21 -3,-41 -9,-57 -6,-17 -14,-31 -24,-43 -10,-12 -22,-20 -35,-26 -14,-6 -28,-9 -44,-9 -15,0 -29,3 -43,9 -13,6 -25,14 -35,26 -10,12 -19,26 -24,43 -6,16 -9,36 -9,57 0,22 3,41 9,58 5,17 14,31 24,42 10,12 22,20 35,26 14,6 28,9 43,9zm403 52c-46,0 -83,-12 -112,-36 -28,-23 -46,-60 -53,-109 -3,-20 -4,-41 -4,-65 0,-17 0,-35 1,-53 2,-19 4,-37 7,-55 3,-18 7,-35 12,-52 6,-17 12,-32 21,-45 16,-24 35,-42 58,-54 22,-12 51,-19 85,-21 22,-2 41,-4 57,-7 15,-2 23,-8 25,-17l59 0c-1,18 -5,32 -12,42 -7,9 -16,16 -29,21 -12,5 -28,8 -45,10 -18,2 -39,4 -64,5 -19,2 -37,6 -51,14 -15,8 -28,18 -38,31 -10,14 -19,29 -25,47 -7,18 -12,37 -14,58l2 0c10,-23 26,-43 47,-58 22,-15 48,-22 78,-22 50,0 90,15 119,46 29,32 44,77 44,136 0,30 -4,56 -12,79 -8,23 -20,42 -35,58 -14,15 -32,27 -53,35 -20,8 -43,12 -68,12zm1 -50c14,0 27,-3 40,-9 13,-6 24,-14 34,-25 10,-11 17,-25 24,-41 6,-17 9,-36 9,-57 0,-42 -10,-75 -29,-100 -20,-23 -46,-35 -79,-35 -34,0 -60,12 -80,36 -19,24 -29,57 -29,99 0,41 10,73 29,96 19,24 46,36 81,36zm273 185c-7,0 -14,-1 -21,-2 -7,-1 -14,-2 -20,-5l0 -54c5,2 11,4 17,6 5,2 11,3 17,3 12,0 22,-3 30,-9 7,-5 13,-13 19,-24l24 -60 -142 -356 67 0 104 293 1 0 101 -293 62 0 -156 405c-7,17 -13,32 -20,44 -7,12 -14,22 -22,30 -8,7 -17,13 -27,16 -10,4 -21,6 -34,6zm523 -288c-10,4 -25,9 -44,13 -19,4 -39,6 -59,6 -45,0 -76,-10 -95,-29 -19,-19 -29,-46 -29,-80l0 -123 59 0 0 113c0,23 6,41 16,52 11,11 31,17 60,17 17,0 35,-2 52,-6 17,-3 30,-7 40,-12l0 -164 59 0 0 358 -59 0 0 -145zm300 153c-29,0 -54,-5 -75,-14 -21,-10 -39,-22 -54,-39 -14,-17 -25,-36 -32,-60 -7,-23 -11,-48 -11,-75 0,-27 5,-52 13,-74 8,-23 20,-43 35,-60 15,-16 32,-29 53,-38 21,-10 43,-14 68,-14 32,0 58,6 79,20 21,13 38,30 50,50 13,20 22,42 27,66 5,24 7,47 6,69l-268 0c-1,15 1,30 5,44 4,14 11,27 20,38 10,10 21,19 36,26 14,6 31,9 50,9 25,0 46,-5 61,-17 16,-12 27,-29 32,-53l58 0c-8,41 -25,71 -52,91 -27,21 -60,31 -101,31zm96 -221c-1,-14 -4,-27 -9,-40 -5,-12 -13,-23 -22,-32 -9,-9 -19,-16 -31,-21 -13,-6 -26,-8 -41,-8 -15,0 -29,2 -41,8 -12,5 -23,12 -32,22 -8,9 -15,20 -20,32 -5,12 -8,25 -9,39l205 0zm123 -145l59 0 0 143 181 0 0 -143 59 0 0 358 -59 0 0 -165 -181 0 0 165 -59 0 0 -358zm388 0l59 0 0 292 169 -292 75 0 0 358 -59 0 0 -292 -169 292 -75 0 0 -358zm467 218c-25,-4 -46,-15 -62,-34 -16,-20 -24,-44 -24,-74 0,-33 10,-60 30,-80 20,-20 47,-30 82,-30l181 0 0 358 -59 0 0 -138 -78 0 -109 138 -78 0 117 -140zm148 -48l0 -118 -104 0c-24,0 -42,5 -54,16 -11,11 -16,25 -16,43 0,18 5,33 16,43 12,11 30,16 54,16l104 0z"/>
</symbol>
 <g id="Layer-73">
  <metadata id="CorelCorpID_0Corel-Layer"/>
  <g id="_2097292053120">
   <g>
    <g>
     <g>
      <path class="fil1" d="M479 296c0,7 6,14 14,14l141 0c8,0 14,-7 14,-14 0,-8 -6,-14 -14,-14l-141 0c-8,0 -14,6 -14,14z"/>
      <path class="fil1" d="M564 380c0,8 6,14 14,14l84 0c8,0 14,-6 14,-14 0,-8 -6,-14 -14,-14l-84 0c-8,0 -14,6 -14,14z"/>
      <path class="fil1" d="M550 225c7,0 14,-6 14,-14 0,-8 -7,-14 -14,-14l-29 0c-7,0 -14,6 -14,14 0,8 7,14 14,14l29 0z"/>
      <path class="fil1" d="M381 366c-8,0 -15,6 -15,14 0,8 7,14 15,14l140 0c8,0 15,-6 15,-14 0,-8 -7,-14 -15,-14l-140 0z"/>
      <path class="fil1" d="M451 761l-268 0c-23,0 -42,-19 -42,-43l0 -648c0,-8 -6,-14 -14,-14 -39,0 -71,32 -71,71 0,7 7,14 14,14 8,0 15,-7 15,-14 0,-19 11,-35 28,-40l0 631c0,39 31,71 70,71l268 0c8,0 14,-6 14,-14 0,-8 -6,-14 -14,-14z"/>
      <path class="fil1" d="M240 310l197 0c8,0 14,-7 14,-14 0,-8 -6,-14 -14,-14l-197 0c-8,0 -15,6 -15,14 0,7 7,14 15,14z"/>
      <path class="fil1" d="M240 225l56 0c8,0 14,-6 14,-14 0,-8 -6,-14 -14,-14l-56 0c-8,0 -15,6 -15,14 0,8 7,14 15,14z"/>
      <path class="fil1" d="M465 197l-113 0c-7,0 -14,6 -14,14 0,8 7,14 14,14l113 0c8,0 14,-6 14,-14 0,-8 -6,-14 -14,-14z"/>
      <path class="fil1" d="M662 0l-535 0c-70,0 -127,57 -127,126l0 1 0 0 0 0 0 0c0,45 24,87 63,109 7,4 16,2 20,-5 4,-6 1,-15 -5,-19 -31,-18 -50,-50 -50,-85 0,-55 44,-99 99,-99l535 0c55,0 99,44 99,99l0 592c0,7 -2,14 -6,20 -4,7 -1,16 5,20 3,1 5,2 7,2 5,0 10,-3 13,-7 6,-11 9,-23 9,-35l0 -592c0,-70 -57,-127 -127,-127z"/>
      <path class="fil1" d="M705 648c0,-47 -38,-85 -85,-85 -47,0 -84,38 -84,85 0,47 37,85 84,85 47,0 85,-38 85,-85zm-85 56c-31,0 -56,-25 -56,-56 0,-31 25,-56 56,-56 31,0 56,25 56,56 0,31 -25,56 -56,56z"/>
      <path class="fil1" d="M595 747c-7,-4 -16,-2 -20,5l-30 52 -5 -7c-2,-4 -6,-6 -11,-6l-8 -1 30 -53c4,-7 2,-15 -5,-19 -6,-4 -15,-2 -19,5l-42 73c-3,4 -3,9 0,14 2,4 6,7 11,7l25 2 13 20c3,4 7,6 12,6l0 0c5,0 10,-3 12,-7l42 -72c4,-7 1,-15 -5,-19z"/>
      <path class="fil1" d="M714 723c-4,-6 -13,-9 -20,-5 -6,4 -9,13 -5,20l31 52 -9 1c-5,0 -9,2 -11,6l-5 7 -30 -52c-4,-7 -13,-9 -19,-5 -7,4 -9,12 -5,19l41 72c3,4 7,7 12,7l0 0c5,0 10,-2 12,-6l14 -20 24 -2c5,0 9,-3 12,-7 2,-5 2,-10 -1,-14l-41 -73z"/>
      <path class="fil1" d="M240 394l84 0c8,0 14,-6 14,-14 0,-8 -6,-14 -14,-14l-84 0c-8,0 -15,6 -15,14 0,8 7,14 15,14z"/>
      <path class="fil1" d="M240 479l169 0c8,0 14,-6 14,-14 0,-8 -6,-14 -14,-14l-169 0c-8,0 -15,6 -15,14 0,8 7,14 15,14z"/>
      <path class="fil1" d="M241 654c4,7 12,10 19,7 7,-4 10,-12 6,-19 -14,-28 -17,-53 -8,-67 4,-8 13,-12 24,-12 7,0 9,3 11,5 10,15 0,61 -10,89 -3,6 0,13 5,17 6,3 13,3 18,-2 6,-6 12,-12 18,-17l0 7c0,6 4,11 9,13 5,2 11,1 15,-3 7,-6 14,-13 20,-17 0,0 0,0 0,1 -2,4 -2,9 1,13 2,5 7,7 12,7l56 0c8,0 14,-6 14,-14 0,-8 -6,-14 -14,-14l-37 0c1,-7 1,-14 -2,-19 -4,-6 -10,-9 -17,-9 -9,0 -19,5 -29,12 -1,-6 -4,-12 -10,-14 -3,-1 -8,-3 -20,4 5,-25 6,-53 -6,-70 -5,-8 -16,-17 -34,-17 -21,0 -38,9 -48,25 -14,23 -12,57 7,94z"/>
      <path class="fil1" d="M620 465c0,-8 -6,-14 -14,-14l-141 0c-8,0 -14,6 -14,14 0,8 6,14 14,14l141 0c8,0 14,-6 14,-14z"/>
     </g>
    </g>
   </g>
   <g>
   </g>
   <g>
   </g>
   <g>
   </g>
   <g>
   </g>
   <g>
   </g>
   <g>
   </g>
   <g>
   </g>
   <g>
   </g>
   <g>
   </g>
   <g>
   </g>
   <g>
   </g>
   <g>
   </g>
   <g>
   </g>
   <g>
   </g>
   <g>
   </g>
  </g>
 </g>
</svg>
