<svg xmlns="http://www.w3.org/2000/svg" xml:space="preserve" width="65px" height="65px" version="1.1" style="shape-rendering:geometricPrecision; text-rendering:geometricPrecision; image-rendering:optimizeQuality; fill-rule:evenodd; clip-rule:evenodd"
viewBox="0 0 1869 1869"
 xmlns:xlink="http://www.w3.org/1999/xlink">
 <defs>
  <style type="text/css">
   <![CDATA[
    .fil1 {fill:#399C3A}
    .fil0 {fill:#429A44;fill-rule:nonzero}
   ]]>
  </style>
 </defs>
<symbol id="Fm1-60-0" viewBox="49543 58339 16439 1573">
 <path class="fil0" d="M49543 58368l160 0 0 515 631 0 0 -515 159 0 0 1198 -159 0 0 -549 -631 0 0 549 -160 0 0 -1198zm1429 1217c-39,0 -76,-5 -111,-13 -35,-8 -65,-22 -92,-42 -26,-20 -47,-45 -61,-76 -16,-31 -23,-68 -23,-111 0,-49 8,-89 25,-121 17,-31 39,-57 67,-76 27,-20 58,-35 93,-45 35,-10 72,-18 108,-25 40,-8 77,-14 112,-18 35,-4 66,-10 93,-17 27,-7 48,-17 64,-32 16,-13 23,-34 23,-60 0,-32 -5,-57 -17,-76 -12,-19 -27,-34 -45,-44 -19,-10 -39,-17 -62,-20 -24,-3 -46,-5 -68,-5 -61,0 -111,11 -152,34 -40,23 -62,67 -65,131l-143 0c3,-54 14,-99 34,-137 20,-36 47,-66 81,-89 33,-23 71,-40 114,-50 44,-10 90,-15 139,-15 39,0 78,3 117,8 38,6 73,17 105,35 31,17 56,41 75,73 19,31 29,72 29,123l0 446c0,34 2,58 5,74 4,15 18,24 40,24 10,0 25,-3 44,-9l0 111c-25,15 -59,22 -103,22 -37,0 -66,-11 -88,-32 -22,-20 -33,-54 -33,-101 -39,47 -85,81 -136,101 -52,21 -109,32 -169,32zm31 -124c48,0 88,-7 121,-20 34,-13 61,-29 83,-49 21,-19 37,-40 47,-64 10,-23 15,-44 15,-64l0 -146c-18,15 -41,25 -70,30 -29,6 -60,11 -92,15 -32,4 -64,9 -96,13 -33,5 -62,13 -88,24 -26,11 -47,27 -63,48 -16,21 -24,49 -24,85 0,23 5,43 14,59 9,17 22,30 37,40 15,10 33,18 53,22 20,4 41,7 63,7zm630 -763l143 0 0 709 409 -709 183 0 0 868 -143 0 0 -708 -409 708 -183 0 0 -868zm367 -127c-33,0 -64,-6 -93,-15 -29,-10 -55,-25 -77,-44 -21,-19 -39,-42 -52,-70 -13,-27 -19,-59 -19,-94l119 0c2,82 42,124 121,124 39,0 69,-11 90,-33 20,-22 31,-52 31,-91l119 0c0,33 -6,64 -18,92 -13,28 -29,51 -51,70 -21,19 -46,34 -75,45 -29,10 -61,16 -95,16zm793 253l-311 0 0 -126 764 0 0 126 -310 0 0 742 -143 0 0 -742zm567 -126l143 0 0 709 409 -709 183 0 0 868 -142 0 0 -708 -410 708 -183 0 0 -868zm1417 0l143 0 0 415 398 -415 189 0 -384 376 430 492 -183 0 -363 -413 -87 86 0 327 -143 0 0 -868zm972 1214c-16,0 -33,-1 -50,-3 -17,-3 -33,-6 -49,-12l0 -131c14,4 28,9 41,13 14,5 28,7 43,7 29,0 53,-7 71,-20 18,-14 33,-33 47,-59l58 -146 -344 -863 162 0 253 710 3 0 244 -710 151 0 -378 982c-17,43 -33,79 -49,108 -17,29 -35,53 -54,71 -20,19 -42,32 -65,41 -25,8 -52,12 -84,12zm756 -1214l142 0 0 118 4 0c23,-48 60,-83 111,-105 50,-22 105,-33 166,-33 67,0 125,13 175,37 50,25 92,58 124,100 33,42 58,90 75,145 17,55 25,113 25,175 0,62 -8,121 -24,175 -16,54 -41,102 -74,143 -33,41 -74,73 -124,97 -50,23 -108,35 -174,35 -22,0 -46,-3 -72,-7 -26,-4 -51,-12 -77,-22 -26,-10 -50,-24 -73,-41 -23,-17 -43,-39 -58,-64l-4 0 0 446 -142 0 0 -1199zm411 763c48,0 89,-10 122,-29 34,-19 61,-44 81,-76 20,-31 35,-67 44,-107 9,-41 13,-82 13,-124 0,-41 -5,-80 -16,-119 -11,-38 -27,-73 -48,-103 -22,-30 -50,-54 -84,-72 -34,-18 -74,-27 -120,-27 -48,0 -89,9 -123,28 -33,19 -61,44 -82,75 -21,31 -37,66 -46,105 -10,39 -14,79 -14,119 0,43 5,84 15,123 10,40 25,76 47,106 22,30 50,54 85,72 35,19 77,29 126,29zm939 124c-67,0 -125,-11 -176,-32 -51,-22 -93,-52 -128,-91 -34,-39 -60,-86 -77,-139 -17,-54 -26,-114 -26,-180 0,-65 9,-125 25,-182 17,-57 43,-106 77,-148 34,-42 77,-75 127,-99 51,-24 111,-36 181,-36 49,0 95,6 138,18 44,12 82,30 114,54 33,25 60,56 82,93 21,38 35,82 40,134l-148 0c-11,-55 -34,-97 -70,-128 -36,-30 -84,-45 -145,-45 -51,0 -94,9 -129,28 -34,19 -63,45 -83,76 -20,31 -35,68 -44,108 -9,41 -14,83 -14,127 0,41 5,80 15,118 9,38 24,72 44,101 20,30 46,54 78,71 32,18 71,28 117,28 70,0 125,-19 165,-56 40,-37 64,-89 73,-156l146 0c-16,108 -55,192 -119,249 -64,58 -152,87 -263,87zm1382 0c-69,0 -130,-12 -182,-35 -51,-23 -96,-55 -131,-96 -36,-40 -63,-88 -81,-143 -18,-55 -27,-114 -27,-178 0,-64 9,-123 27,-179 18,-55 45,-103 81,-144 35,-41 80,-73 131,-97 52,-23 113,-35 182,-35 69,0 129,12 182,35 52,24 97,56 132,97 36,41 63,89 81,144 18,56 27,115 27,179 0,64 -9,123 -27,178 -18,55 -45,103 -81,143 -35,41 -80,73 -132,96 -53,23 -113,35 -182,35zm0 -124c37,0 73,-8 105,-22 33,-15 62,-36 87,-64 24,-27 44,-61 58,-102 13,-40 21,-87 21,-140 0,-53 -8,-99 -21,-140 -14,-41 -34,-75 -58,-103 -25,-29 -54,-49 -87,-64 -32,-15 -68,-22 -105,-22 -36,0 -72,7 -104,22 -33,15 -62,35 -87,64 -24,28 -44,62 -58,103 -13,41 -21,87 -21,140 0,53 8,100 21,140 14,41 34,75 58,102 25,28 54,49 87,64 32,14 68,22 104,22zm978 124c-112,0 -203,-29 -272,-86 -69,-57 -112,-146 -129,-265 -8,-48 -11,-100 -11,-158 0,-41 1,-85 4,-129 3,-45 8,-89 16,-133 7,-43 17,-85 30,-126 13,-40 29,-76 51,-109 38,-59 85,-103 139,-132 55,-28 124,-45 207,-51 55,-4 101,-9 137,-15 37,-5 58,-20 63,-42l142 0c-2,44 -11,78 -28,101 -17,23 -41,41 -71,53 -30,12 -67,19 -110,23 -44,4 -95,9 -154,13 -48,3 -90,14 -125,33 -36,19 -66,44 -92,76 -25,32 -45,70 -61,113 -16,43 -27,90 -34,142l5 0c25,-57 63,-104 116,-141 51,-37 114,-55 188,-55 122,0 218,38 289,114 70,76 106,186 106,329 0,73 -10,136 -30,192 -19,55 -47,101 -83,139 -35,38 -78,66 -128,85 -50,19 -105,29 -165,29zm1 -121c34,0 66,-7 98,-21 31,-14 59,-34 82,-61 23,-28 42,-61 57,-100 15,-40 22,-86 22,-139 0,-102 -23,-182 -71,-240 -47,-58 -111,-87 -191,-87 -81,0 -145,29 -193,88 -47,58 -71,139 -71,241 0,99 24,176 71,233 47,57 112,86 196,86zm661 448c-16,0 -33,-1 -50,-3 -17,-3 -33,-6 -49,-12l0 -131c14,4 28,9 41,13 14,5 28,7 43,7 29,0 53,-7 71,-20 18,-14 33,-33 47,-59l58 -146 -344 -863 162 0 253 710 4 0 243 -710 151 0 -378 982c-16,43 -33,79 -49,108 -16,29 -35,53 -54,71 -20,19 -41,32 -65,41 -25,8 -52,12 -84,12zm1271 -698c-26,11 -61,21 -107,31 -46,10 -94,16 -145,16 -107,0 -183,-24 -230,-70 -46,-46 -69,-112 -69,-195l0 -298 143 0 0 274c0,57 13,99 40,126 26,28 74,42 143,42 43,0 85,-5 126,-14 42,-9 75,-19 99,-30l0 -398 143 0 0 868 -143 0 0 -352zm727 371c-69,0 -130,-12 -182,-34 -52,-22 -95,-53 -130,-94 -35,-40 -61,-88 -78,-144 -18,-56 -26,-117 -26,-183 0,-65 10,-125 30,-181 20,-55 48,-103 85,-143 36,-41 79,-72 129,-94 50,-23 104,-34 163,-34 78,0 142,16 193,48 51,32 92,73 122,122 31,49 52,102 64,160 12,59 17,114 14,167l-649 0c-1,38 3,74 13,108 10,34 26,65 49,91 22,26 51,47 85,63 35,15 76,24 123,24 60,0 110,-15 149,-43 38,-28 63,-70 76,-127l141 0c-19,98 -61,172 -126,220 -65,49 -147,74 -245,74zm233 -536c-2,-33 -9,-65 -22,-96 -13,-30 -31,-56 -53,-78 -21,-21 -47,-39 -77,-52 -29,-12 -62,-19 -98,-19 -37,0 -70,7 -100,19 -30,13 -55,31 -76,53 -22,23 -38,49 -50,78 -13,30 -20,62 -22,95l498 0zm299 -351l143 0 0 346 439 0 0 -346 143 0 0 868 -143 0 0 -400 -439 0 0 400 -143 0 0 -868zm940 0l143 0 0 709 409 -709 183 0 0 868 -142 0 0 -708 -410 708 -183 0 0 -868zm1133 529c-61,-9 -112,-37 -151,-84 -39,-47 -59,-106 -59,-178 0,-81 25,-146 74,-194 48,-48 114,-73 199,-73l439 0 0 868 -143 0 0 -334 -189 0 -265 334 -190 0 285 -339zm359 -118l0 -285 -251 0c-61,0 -104,13 -131,39 -27,26 -41,60 -41,104 0,45 14,80 41,105 27,25 70,37 131,37l251 0z"/>
</symbol>
 <g id="Layer-77">
  <metadata id="CorelCorpID_0Corel-Layer"/>
  <g id="_2096942839872">
   <g>
    <g>
     <g>
      <path class="fil1" d="M1838 1806l-156 0 0 -965c0,-17 -14,-31 -31,-31l-187 0c-17,0 -31,14 -31,31l0 965 -63 0 0 -529c0,-17 -14,-31 -31,-31l-184 0c-17,0 -31,14 -31,31l0 529 -65 0 0 -716c0,-17 -14,-31 -31,-31l-187 0c-17,0 -31,14 -31,31l0 716 -63 0 0 -591c0,-18 -13,-31 -31,-31l-187 0c-17,0 -31,13 -31,31l0 591 -62 0 0 -342c0,-17 -14,-31 -31,-31l-187 0c-17,0 -31,14 -31,31l0 342 -156 0c-17,0 -31,14 -31,32 0,17 14,31 31,31l187 0c17,0 31,-14 31,-31l0 -343 125 0 0 343c0,17 14,31 31,31l124 0c18,0 32,-14 32,-31l0 -592 124 0 0 592c0,17 14,31 31,31l125 0c17,0 31,-14 31,-31l0 -717 125 0 0 717c0,17 14,31 31,31l127 0c17,0 31,-14 31,-31l0 -530 122 0 0 530c0,17 14,31 31,31l125 0c17,0 31,-14 31,-31l0 -966 125 0 0 966c0,17 13,31 31,31l187 0c17,0 31,-14 31,-31 0,-18 -14,-32 -31,-32z"/>
      <path class="fil1" d="M125 1184c68,0 124,-56 124,-125 0,-15 -3,-29 -8,-42l612 -612c22,19 50,31 81,31 23,0 45,-7 63,-18l142 142c-11,18 -18,40 -18,63 0,69 56,124 125,124 69,0 124,-55 124,-124 0,-23 -6,-44 -17,-63l328 -328c19,10 40,17 63,17 69,0 125,-56 125,-124 0,-69 -56,-125 -125,-125 -69,0 -124,56 -124,125 0,23 6,44 17,62l-328 329c-19,-11 -40,-18 -63,-18 -23,0 -44,7 -63,18l-142 -142c11,-18 18,-40 18,-63 0,-68 -56,-124 -125,-124 -68,0 -124,56 -124,124 0,15 3,29 7,42l-611 612c-22,-19 -50,-31 -81,-31 -69,0 -125,56 -125,125 0,69 56,125 125,125zm1619 -1122c34,0 62,28 62,63 0,34 -28,62 -62,62 -17,0 -32,-7 -43,-18 -1,0 -1,0 -1,0 0,-1 0,-1 0,-1 -11,-11 -18,-26 -18,-43 0,-35 28,-63 62,-63zm-498 499c34,0 62,28 62,62 0,34 -28,62 -62,62 -35,0 -62,-28 -62,-62 0,-34 27,-62 62,-62zm-312 -312c35,0 63,28 63,62 0,35 -28,63 -63,63 -34,0 -62,-28 -62,-63 0,-34 28,-62 62,-62zm-809 748c34,0 62,28 62,62 0,34 -28,62 -62,62 -35,0 -63,-28 -63,-62 0,-34 28,-62 63,-62z"/>
     </g>
    </g>
   </g>
   <g>
   </g>
   <g>
   </g>
   <g>
   </g>
   <g>
   </g>
   <g>
   </g>
   <g>
   </g>
   <g>
   </g>
   <g>
   </g>
   <g>
   </g>
   <g>
   </g>
   <g>
   </g>
   <g>
   </g>
   <g>
   </g>
   <g>
   </g>
   <g>
   </g>
  </g>
 </g>
</svg>
