<svg xmlns="http://www.w3.org/2000/svg" xml:space="preserve" width="71px" height="71px" version="1.1" style="shape-rendering:geometricPrecision; text-rendering:geometricPrecision; image-rendering:optimizeQuality; fill-rule:evenodd; clip-rule:evenodd"
viewBox="0 0 5605 5605"
 xmlns:xlink="http://www.w3.org/1999/xlink">
 <defs>
  <style type="text/css">
   <![CDATA[
    .fil1 {fill:#49984C}
    .fil0 {fill:#429A44;fill-rule:nonzero}
   ]]>
  </style>
 </defs>
<symbol id="Fm1-60-0" viewBox="123011 160051 44943 4301">
 <path class="fil0" d="M123011 160129l436 0 0 1409 1726 0 0 -1409 436 0 0 3277 -436 0 0 -1501 -1726 0 0 1501 -436 0 0 -3277zm3905 3328c-107,0 -207,-12 -302,-34 -95,-24 -179,-63 -251,-116 -71,-53 -129,-122 -169,-207 -42,-84 -62,-186 -62,-304 0,-134 23,-245 69,-331 45,-86 106,-156 182,-209 74,-53 160,-94 256,-121 96,-27 195,-51 295,-69 108,-22 210,-38 306,-50 96,-10 181,-26 255,-45 73,-20 131,-48 174,-87 43,-38 64,-94 64,-167 0,-86 -16,-155 -48,-207 -33,-52 -73,-92 -124,-119 -50,-28 -106,-46 -169,-55 -64,-9 -125,-14 -186,-14 -165,0 -303,31 -414,93 -110,64 -170,183 -179,357l-389 0c6,-147 36,-271 92,-372 55,-100 128,-182 220,-246 91,-62 195,-108 314,-135 118,-28 244,-41 378,-41 108,0 215,8 320,23 106,15 201,46 286,93 86,48 155,115 207,201 52,85 78,197 78,335l0 1220c0,93 6,159 16,202 10,43 47,65 108,65 27,0 68,-8 120,-23l0 303c-68,40 -162,60 -281,60 -101,0 -181,-29 -241,-86 -60,-56 -90,-149 -90,-277 -106,128 -231,221 -373,277 -142,57 -297,86 -462,86zm87 -340c129,0 238,-18 331,-53 92,-35 166,-80 225,-133 58,-53 101,-112 128,-176 28,-62 42,-121 42,-175l0 -400c-49,41 -113,68 -192,82 -80,16 -163,30 -250,42 -87,12 -176,25 -264,36 -90,13 -169,36 -240,65 -70,30 -127,75 -171,131 -45,57 -67,135 -67,232 0,64 13,119 39,163 25,44 59,81 100,108 42,27 90,48 146,60 55,12 112,18 173,18zm1721 -2084l391 0 0 1937 1118 -1937 501 0 0 2373 -390 0 0 -1937 -1120 1937 -500 0 0 -2373zm1005 -349c-92,0 -177,-14 -257,-41 -79,-28 -149,-67 -208,-119 -60,-52 -108,-115 -143,-191 -35,-74 -53,-161 -53,-259l326 0c7,227 116,340 331,340 106,0 188,-30 246,-90 55,-60 84,-143 84,-250l325 0c0,93 -17,176 -49,253 -34,76 -79,140 -138,192 -59,52 -128,93 -207,121 -79,30 -165,44 -257,44zm2167 694l-850 0 0 -345 2088 0 0 345 -848 0 0 2028 -390 0 0 -2028zm1550 -345l391 0 0 1937 1118 -1937 501 0 0 2373 -390 0 0 -1937 -1120 1937 -500 0 0 -2373zm3874 0l391 0 0 1133 1087 -1133 518 0 -1050 1028 1175 1345 -501 0 -991 -1129 -238 234 0 895 -391 0 0 -2373zm2658 3319c-45,0 -92,-3 -138,-10 -45,-6 -89,-16 -132,-32l0 -358c36,12 74,25 111,37 38,11 77,18 118,18 79,0 144,-18 193,-55 48,-38 91,-91 128,-161l160 -399 -941 -2359 441 0 694 1941 9 0 665 -1941 413 0 -1033 2685c-45,116 -91,215 -135,294 -44,79 -94,144 -147,195 -53,51 -113,87 -178,111 -67,22 -142,34 -228,34zm2065 -3319l390 0 0 321 9 0c64,-131 165,-227 303,-287 138,-59 289,-89 454,-89 184,0 344,34 480,101 137,67 250,158 340,273 89,116 158,247 204,397 45,149 69,309 69,477 0,172 -22,332 -66,480 -45,148 -112,278 -202,390 -90,112 -203,201 -340,264 -136,64 -295,97 -476,97 -61,0 -126,-7 -196,-19 -70,-11 -141,-32 -211,-59 -71,-28 -138,-66 -200,-114 -63,-46 -116,-105 -159,-175l-9 0 0 1220 -390 0 0 -3277zm1125 2084c131,0 242,-26 334,-78 93,-52 165,-121 221,-207 55,-86 94,-183 119,-294 24,-110 36,-224 36,-339 0,-111 -14,-219 -43,-324 -30,-106 -74,-199 -132,-283 -60,-82 -137,-148 -229,-197 -94,-48 -203,-73 -330,-73 -131,0 -243,26 -334,78 -92,52 -166,120 -225,204 -58,85 -100,180 -126,286 -26,108 -39,216 -39,327 0,116 14,229 42,337 27,109 70,205 130,287 59,82 136,149 231,199 95,51 210,77 345,77zm2565 340c-181,0 -339,-29 -478,-88 -140,-58 -257,-140 -350,-248 -94,-107 -164,-234 -211,-381 -48,-147 -72,-310 -72,-491 0,-178 24,-343 69,-498 46,-155 116,-289 210,-404 92,-115 209,-205 348,-271 140,-65 303,-98 493,-98 134,0 261,16 379,49 118,32 222,81 312,148 90,67 164,152 223,255 58,103 95,224 109,365l-403 0c-30,-149 -95,-266 -193,-350 -98,-82 -230,-123 -395,-123 -141,0 -258,26 -353,78 -95,52 -172,121 -228,207 -56,86 -96,184 -121,295 -24,112 -36,228 -36,347 0,111 13,218 39,322 25,104 65,196 121,277 55,82 126,147 213,195 87,49 194,74 319,74 193,0 343,-51 453,-152 108,-100 174,-243 199,-427l399 0c-43,297 -151,524 -325,682 -174,157 -415,237 -721,237zm3781 0c-189,0 -356,-32 -497,-95 -142,-63 -263,-150 -361,-262 -97,-110 -171,-242 -220,-391 -49,-150 -74,-313 -74,-487 0,-174 25,-337 74,-489 49,-152 123,-284 220,-396 98,-110 219,-199 361,-262 141,-64 308,-97 497,-97 187,0 352,33 497,97 143,63 264,152 361,262 98,112 172,244 221,396 48,152 73,315 73,489 0,174 -25,337 -73,487 -49,149 -123,281 -221,391 -97,112 -218,199 -361,262 -145,63 -310,95 -497,95zm0 -340c101,0 197,-19 287,-60 90,-40 169,-97 237,-173 66,-74 120,-168 157,-280 38,-110 57,-238 57,-382 0,-144 -19,-272 -57,-384 -37,-112 -91,-205 -157,-282 -68,-77 -147,-134 -237,-174 -90,-41 -186,-60 -287,-60 -101,0 -197,19 -287,60 -89,40 -169,97 -235,174 -68,77 -121,170 -159,282 -37,112 -57,240 -57,384 0,144 20,272 57,382 38,112 91,206 159,280 66,76 146,133 235,173 90,41 186,60 287,60zm2672 340c-306,0 -553,-78 -742,-235 -189,-156 -307,-398 -355,-725 -20,-129 -29,-272 -29,-431 0,-113 4,-232 12,-354 8,-122 22,-243 42,-363 19,-118 48,-233 83,-343 35,-111 81,-210 139,-298 104,-163 232,-282 381,-361 150,-78 338,-124 565,-140 149,-12 276,-26 376,-42 100,-14 157,-53 170,-114l389 0c-6,120 -31,212 -77,276 -45,63 -110,112 -192,144 -83,33 -185,53 -303,64 -120,12 -259,23 -419,35 -131,9 -246,39 -344,91 -97,52 -180,121 -249,208 -69,87 -125,190 -168,308 -43,119 -74,248 -92,388l14 0c66,-156 172,-285 315,-385 141,-100 313,-151 515,-151 334,0 597,104 789,311 193,208 289,509 289,900 0,199 -26,374 -79,525 -53,152 -130,278 -228,381 -97,102 -214,180 -351,233 -137,52 -286,78 -451,78zm3 -331c93,0 181,-19 267,-57 86,-38 161,-94 225,-168 64,-74 116,-165 156,-273 41,-108 60,-234 60,-379 0,-278 -64,-497 -192,-657 -129,-158 -305,-238 -525,-238 -219,0 -395,81 -525,241 -130,160 -195,380 -195,660 0,269 65,481 194,637 128,156 307,234 535,234zm1809 1226c-46,0 -93,-3 -138,-10 -46,-6 -90,-16 -133,-32l0 -358c37,12 74,25 112,37 38,11 77,18 117,18 79,0 144,-18 194,-55 48,-38 91,-91 127,-161l160 -399 -940 -2359 441 0 693 1941 9 0 665 -1941 414 0 -1033 2685c-46,116 -91,215 -135,294 -45,79 -94,144 -147,195 -54,51 -114,87 -179,111 -66,22 -141,34 -227,34zm3473 -1910c-70,30 -168,60 -293,87 -126,27 -257,42 -395,42 -293,0 -502,-64 -628,-192 -127,-126 -189,-304 -189,-533l0 -813 390 0 0 748c0,156 37,272 108,346 72,76 203,113 393,113 116,0 232,-13 345,-37 113,-25 203,-53 269,-82l0 -1088 390 0 0 2373 -390 0 0 -964zm1988 1015c-190,0 -357,-32 -498,-93 -142,-61 -261,-145 -356,-256 -95,-111 -166,-242 -213,-396 -48,-152 -71,-318 -71,-499 0,-178 27,-342 83,-494 54,-151 131,-281 231,-392 99,-111 216,-196 353,-258 136,-61 285,-91 447,-91 212,0 388,43 527,130 139,88 250,200 335,334 84,134 141,281 174,439 32,160 45,311 39,456l-1776 0c-4,104 9,202 37,295 27,93 71,177 132,248 61,72 140,129 234,172 95,43 206,65 335,65 165,0 302,-39 407,-116 105,-76 174,-192 208,-348l386 0c-52,269 -166,471 -344,603 -178,134 -401,201 -670,201zm637 -1465c-6,-91 -26,-178 -61,-262 -35,-82 -83,-153 -143,-213 -60,-59 -130,-107 -211,-142 -80,-35 -170,-53 -268,-53 -101,0 -192,18 -273,53 -82,35 -151,83 -209,145 -59,61 -104,132 -137,213 -34,82 -53,168 -60,259l1362 0zm817 -959l390 0 0 946 1202 0 0 -946 391 0 0 2373 -391 0 0 -1093 -1202 0 0 1093 -390 0 0 -2373zm2571 0l390 0 0 1937 1119 -1937 501 0 0 2373 -391 0 0 -1937 -1120 1937 -499 0 0 -2373zm3097 1445c-168,-24 -306,-100 -412,-229 -108,-128 -162,-290 -162,-486 0,-223 67,-401 201,-532 132,-132 313,-198 544,-198l1202 0 0 2373 -391 0 0 -913 -517 0 -726 913 -518 0 779 -928zm982 -321l0 -779 -688 0c-165,0 -284,35 -358,105 -74,70 -110,165 -110,285 0,122 36,217 110,286 74,69 193,103 358,103l688 0z"/>
</symbol>
 <g id="Layer-72">
  <metadata id="CorelCorpID_0Corel-Layer"/>
  <g id="_2097292061184">
   <g>
    <g>
     <g>
      <path class="fil1" d="M2803 2429c118,0 220,-44 280,-77 60,33 162,77 280,77 174,0 369,-99 452,-228 8,-13 202,-310 202,-800 0,-360 -293,-654 -654,-654 -105,0 -202,39 -280,80 -78,-41 -175,-80 -280,-80 -361,0 -654,294 -654,654 0,554 172,769 209,809 85,106 258,219 445,219zm0 -1495c83,0 168,43 233,81 29,17 65,17 94,0 65,-38 150,-81 233,-81 258,0 467,210 467,467 0,430 -169,694 -172,697 -43,68 -175,144 -295,144 -120,0 -224,-74 -224,-75 -17,-12 -36,-18 -56,-18 -20,0 -39,6 -56,18 -1,1 -104,75 -224,75 -119,0 -244,-77 -300,-150 -2,-3 -5,-6 -7,-9 -2,-1 -160,-175 -160,-682 0,-257 209,-467 467,-467z"/>
      <path class="fil1" d="M3003 609c17,29 48,45 80,45 16,0 33,-4 48,-13 44,-27 59,-84 32,-129l-280 -467c-27,-44 -84,-58 -128,-32 -45,27 -59,84 -32,129l280 467z"/>
      <path class="fil1" d="M3295 595c6,2 66,22 145,22l0 0c111,0 209,-39 280,-110 171,-171 93,-416 89,-426 -9,-28 -31,-50 -59,-60 -7,-2 -66,-21 -145,-21 -112,0 -209,38 -281,110 -171,171 -92,416 -89,426 10,28 32,50 60,59zm161 -353c37,-36 87,-55 149,-55 13,0 25,1 36,2 6,51 4,129 -53,185 -36,37 -86,56 -148,56 -13,0 -26,-1 -37,-2 -6,-51 -3,-129 53,-186z"/>
      <path class="fil1" d="M5325 2616l-4484 0c-155,0 -281,126 -281,280l0 374c0,51 42,93 94,93 52,0 93,-42 93,-93l0 -374c0,-51 42,-93 94,-93l280 0 0 467c0,51 42,93 93,93 52,0 94,-42 94,-93l0 -467 2429 0 0 467c0,51 42,93 93,93 52,0 94,-42 94,-93l0 -467 934 0 0 467c0,51 42,93 93,93 52,0 94,-42 94,-93l0 -467 280 0c52,0 94,42 94,93l0 654 -281 0c-51,0 -93,42 -93,94l0 840 -94 0c-51,0 -93,42 -93,94 0,51 42,93 93,93l281 0 0 654c0,52 -42,94 -94,94l-2896 0 0 -467c0,-52 -42,-94 -93,-94 -52,0 -94,42 -94,94l0 467 -186 0 0 -467c0,-52 -42,-94 -94,-94 -52,0 -93,42 -93,94l0 467 -187 0 0 -467c0,-52 -42,-94 -94,-94 -51,0 -93,42 -93,94l0 467 -841 0c-51,0 -93,-42 -93,-94l0 -373c0,-52 -42,-94 -94,-94 -51,0 -93,42 -93,94l0 373c0,155 126,280 280,280l4671 0c155,0 281,-125 281,-280l0 -654c0,-121 -97,-187 -187,-187l0 -747 187 0c90,0 186,-66 186,-187l0 -654c0,-154 -125,-280 -280,-280z"/>
      <path class="fil1" d="M3644 4671c51,0 93,-42 93,-93 0,-52 -42,-94 -93,-94l-1028 0 0 -747 1308 0 0 1401c0,35 19,67 49,83 30,16 67,14 96,-5l229 -152 228 152c16,11 34,16 52,16 15,0 30,-4 44,-11 30,-16 49,-48 49,-83l0 -1401 94 0c51,0 93,-42 93,-93 0,-52 -42,-94 -93,-94l-4485 0c-157,0 -280,123 -280,280l0 561c0,155 126,280 280,280l3364 0 0 0zm467 -934l373 0 0 1227 -135 -90c-31,-21 -72,-21 -103,0l-135 90 0 -1227 0 0zm-2990 0l1308 0 0 747 -1308 0 0 -747zm-934 654l0 -561c0,-53 40,-93 93,-93l654 0 0 747 -654 0c-52,0 -93,-41 -93,-93z"/>
      <path class="fil1" d="M1962 3924c-52,0 -93,42 -93,93l0 187c0,52 41,94 93,94 51,0 93,-42 93,-94l0 -187c0,-51 -42,-93 -93,-93z"/>
      <path class="fil1" d="M1588 3924c-51,0 -93,42 -93,93l0 187c0,52 42,94 93,94 52,0 94,-42 94,-94l0 -187c0,-51 -42,-93 -94,-93z"/>
     </g>
    </g>
   </g>
   <g>
   </g>
   <g>
   </g>
   <g>
   </g>
   <g>
   </g>
   <g>
   </g>
   <g>
   </g>
   <g>
   </g>
   <g>
   </g>
   <g>
   </g>
   <g>
   </g>
   <g>
   </g>
   <g>
   </g>
   <g>
   </g>
   <g>
   </g>
   <g>
   </g>
  </g>
 </g>
</svg>
