<svg xmlns="http://www.w3.org/2000/svg" xml:space="preserve" width="66px" height="66px" version="1.1" style="shape-rendering:geometricPrecision; text-rendering:geometricPrecision; image-rendering:optimizeQuality; fill-rule:evenodd; clip-rule:evenodd"
viewBox="0 0 414 414"
 xmlns:xlink="http://www.w3.org/1999/xlink">
 <defs>
  <style type="text/css">
   <![CDATA[
    .fil1 {fill:#49984C}
    .fil0 {fill:#429A44;fill-rule:nonzero}
   ]]>
  </style>
 </defs>
<symbol id="Fm1-60-0" viewBox="6811 12762 3590 344">
 <path class="fil0" d="M6811 12768l34 0 0 113 138 0 0 -113 35 0 0 262 -35 0 0 -120 -138 0 0 120 -34 0 0 -262zm312 266c-9,0 -17,-1 -25,-2 -7,-2 -14,-5 -20,-10 -5,-4 -10,-9 -13,-16 -3,-7 -5,-15 -5,-25 0,-10 2,-19 5,-26 4,-7 9,-12 15,-17 6,-4 13,-7 20,-9 8,-3 16,-4 24,-6 9,-2 17,-3 24,-4 8,-1 15,-2 21,-3 6,-2 10,-4 14,-7 3,-3 5,-8 5,-14 0,-7 -1,-12 -4,-16 -3,-4 -6,-8 -10,-10 -4,-2 -8,-3 -13,-4 -6,-1 -10,-1 -15,-1 -13,0 -25,2 -33,7 -9,5 -14,15 -15,29l-31 0c1,-12 3,-22 8,-30 4,-8 10,-15 17,-20 7,-5 16,-8 25,-10 10,-3 20,-4 30,-4 9,0 18,1 26,2 8,1 16,4 23,8 7,3 12,9 16,16 5,6 7,15 7,26l0 98c0,7 0,13 1,16 1,3 4,5 9,5 2,0 5,0 9,-2l0 24c-5,4 -13,5 -22,5 -8,0 -15,-2 -20,-7 -4,-4 -7,-11 -7,-22 -8,11 -18,18 -30,22 -11,5 -23,7 -36,7zm6 -27c11,0 20,-1 27,-4 7,-3 13,-6 18,-11 5,-4 8,-9 10,-14 2,-5 3,-9 3,-14l0 -32c-3,4 -9,6 -15,7 -6,1 -13,2 -20,3 -7,1 -14,2 -21,3 -7,1 -13,3 -19,5 -6,3 -10,6 -14,11 -3,4 -5,10 -5,18 0,5 1,10 3,13 2,4 5,7 8,9 3,2 7,4 12,5 4,1 9,1 13,1zm138 -166l31 0 0 154 90 -154 40 0 0 189 -32 0 0 -155 -89 155 -40 0 0 -189zm80 -28c-7,0 -14,-1 -20,-4 -7,-2 -12,-5 -17,-9 -5,-4 -9,-9 -11,-15 -3,-6 -5,-13 -5,-21l26 0c1,18 10,27 27,27 8,0 15,-2 20,-7 4,-5 6,-11 6,-20l26 0c0,7 -1,14 -4,20 -2,6 -6,11 -11,16 -4,4 -10,7 -16,9 -7,3 -13,4 -21,4zm173 55l-68 0 0 -27 167 0 0 27 -67 0 0 162 -32 0 0 -162zm124 -27l31 0 0 154 90 -154 40 0 0 189 -31 0 0 -155 -90 155 -40 0 0 -189zm310 0l31 0 0 90 87 -90 41 0 -84 82 94 107 -40 0 -79 -90 -19 19 0 71 -31 0 0 -189zm212 265c-4,0 -7,0 -11,-1 -4,0 -7,-1 -11,-3l0 -28c3,1 6,2 9,3 3,1 6,1 10,1 6,0 11,-1 15,-4 4,-3 7,-7 10,-13l13 -32 -75 -188 35 0 56 155 0 0 53 -155 34 0 -83 214c-4,9 -7,17 -11,24 -3,6 -7,11 -12,15 -4,4 -9,7 -14,9 -5,2 -11,3 -18,3zm165 -265l31 0 0 25 1 0c5,-10 13,-18 24,-23 11,-4 23,-7 36,-7 15,0 28,3 39,8 11,6 20,13 27,22 7,9 12,20 16,32 4,12 6,25 6,38 0,14 -2,26 -6,38 -3,12 -9,23 -16,31 -7,9 -16,16 -27,22 -11,5 -23,7 -38,7 -5,0 -10,0 -16,-1 -5,-1 -11,-3 -16,-5 -6,-2 -11,-5 -16,-9 -5,-4 -10,-8 -13,-14l-1 0 0 97 -31 0 0 -261zm90 166c10,0 19,-2 27,-6 7,-4 13,-10 17,-17 5,-6 8,-14 10,-23 2,-9 3,-18 3,-27 0,-9 -2,-18 -4,-26 -2,-9 -6,-16 -10,-23 -5,-6 -11,-12 -19,-15 -7,-4 -16,-6 -26,-6 -11,0 -19,2 -27,6 -7,4 -13,10 -18,16 -4,7 -8,15 -10,23 -2,9 -3,17 -3,26 0,9 1,19 3,27 3,9 6,17 11,23 5,7 11,12 18,16 8,4 17,6 28,6zm205 27c-15,0 -27,-2 -38,-7 -12,-4 -21,-11 -28,-20 -8,-8 -14,-18 -17,-30 -4,-12 -6,-25 -6,-39 0,-14 2,-28 6,-40 3,-12 9,-23 16,-32 8,-9 17,-17 28,-22 11,-5 24,-8 39,-8 11,0 21,2 31,4 9,3 18,7 25,12 7,5 13,12 17,20 5,9 8,18 9,30l-32 0c-2,-12 -8,-22 -15,-28 -8,-7 -19,-10 -32,-10 -11,0 -21,2 -28,6 -8,4 -14,10 -18,16 -5,7 -8,15 -10,24 -2,9 -3,18 -3,28 0,9 1,17 3,25 2,9 5,16 10,23 4,6 10,11 17,15 7,4 15,6 25,6 16,0 28,-4 37,-12 8,-8 13,-19 15,-34l32 0c-3,24 -12,42 -26,54 -14,13 -33,19 -57,19zm302 0c-15,0 -29,-2 -40,-7 -11,-5 -21,-12 -29,-21 -8,-9 -13,-20 -17,-31 -4,-12 -6,-25 -6,-39 0,-14 2,-27 6,-39 4,-13 9,-23 17,-32 8,-9 18,-16 29,-21 11,-5 25,-8 40,-8 15,0 28,3 39,8 12,5 22,12 29,21 8,9 14,19 18,32 4,12 6,25 6,39 0,14 -2,27 -6,39 -4,11 -10,22 -18,31 -7,9 -17,16 -29,21 -11,5 -24,7 -39,7zm0 -27c8,0 16,-1 23,-5 7,-3 13,-7 19,-13 5,-6 9,-14 12,-23 3,-9 5,-19 5,-30 0,-12 -2,-22 -5,-31 -3,-9 -7,-16 -12,-23 -6,-6 -12,-10 -19,-13 -7,-4 -15,-5 -23,-5 -8,0 -16,1 -23,5 -7,3 -14,7 -19,13 -5,7 -10,14 -13,23 -3,9 -4,19 -4,31 0,11 1,21 4,30 3,9 8,17 13,23 5,6 12,10 19,13 7,4 15,5 23,5zm213 27c-24,0 -44,-6 -59,-18 -15,-13 -25,-32 -28,-58 -2,-11 -3,-22 -3,-35 0,-9 1,-18 1,-28 1,-10 2,-20 4,-29 1,-10 3,-19 6,-28 3,-8 7,-16 11,-23 9,-13 19,-23 31,-29 12,-6 27,-10 45,-11 12,-1 22,-2 30,-4 8,-1 13,-4 14,-9l31 0c-1,10 -3,17 -6,22 -4,5 -9,9 -16,12 -7,2 -15,4 -24,5 -10,1 -21,2 -34,3 -10,0 -19,3 -27,7 -8,4 -14,10 -20,17 -5,7 -10,15 -13,24 -4,10 -6,20 -8,31l1 0c6,-12 14,-23 26,-31 11,-8 25,-12 41,-12 26,0 47,9 63,25 15,17 23,41 23,72 0,16 -2,30 -6,42 -5,12 -11,22 -19,30 -7,9 -17,15 -28,19 -11,4 -23,6 -36,6zm1 -26c7,0 14,-2 21,-5 7,-3 13,-7 18,-13 5,-6 9,-13 12,-22 4,-9 5,-19 5,-30 0,-22 -5,-40 -15,-53 -11,-12 -25,-19 -42,-19 -18,0 -32,7 -42,20 -11,12 -16,30 -16,52 0,22 5,39 16,51 10,13 24,19 43,19zm144 98c-4,0 -7,0 -11,-1 -4,0 -7,-1 -11,-3l0 -28c3,1 6,2 9,3 3,1 6,1 10,1 6,0 11,-1 15,-4 4,-3 7,-7 10,-13l13 -32 -75 -188 35 0 56 155 0 0 53 -155 33 0 -82 214c-4,9 -7,17 -11,24 -3,6 -7,11 -12,15 -4,4 -9,7 -14,9 -5,2 -11,3 -18,3zm277 -153c-5,3 -13,5 -23,7 -10,2 -20,3 -32,3 -23,0 -40,-5 -50,-15 -10,-10 -15,-24 -15,-42l0 -65 31 0 0 59c0,13 3,22 9,28 6,6 16,9 31,9 10,0 19,-1 28,-3 9,-2 16,-4 21,-6l0 -87 32 0 0 189 -32 0 0 -77zm159 81c-15,0 -28,-2 -40,-7 -11,-5 -20,-12 -28,-21 -7,-8 -13,-19 -17,-31 -4,-12 -6,-26 -6,-40 0,-14 3,-27 7,-40 4,-12 10,-22 18,-31 8,-9 18,-16 29,-20 11,-5 22,-8 35,-8 17,0 31,4 42,11 12,7 20,16 27,26 7,11 12,23 14,35 3,13 4,25 3,37l-142 0c0,8 1,16 3,23 2,8 6,15 11,20 5,6 11,11 19,14 7,3 16,5 26,5 13,0 24,-3 33,-9 8,-6 14,-15 16,-28l31 0c-4,22 -13,38 -27,48 -14,11 -32,16 -54,16zm51 -117c0,-7 -2,-14 -5,-21 -3,-6 -6,-12 -11,-17 -5,-4 -11,-8 -17,-11 -6,-3 -14,-4 -21,-4 -8,0 -16,1 -22,4 -7,3 -12,7 -17,12 -5,4 -8,10 -11,17 -3,6 -4,13 -5,20l109 0zm65 -76l32 0 0 75 96 0 0 -75 31 0 0 189 -31 0 0 -87 -96 0 0 87 -32 0 0 -189zm206 0l31 0 0 154 89 -154 40 0 0 189 -31 0 0 -155 -89 155 -40 0 0 -189zm247 115c-13,-2 -24,-8 -33,-18 -8,-10 -13,-23 -13,-39 0,-18 6,-32 16,-43 11,-10 25,-15 44,-15l96 0 0 189 -31 0 0 -73 -42 0 -58 73 -41 0 62 -74zm79 -26l0 -62 -55 0c-13,0 -23,3 -29,9 -6,5 -9,13 -9,22 0,10 3,18 9,23 6,6 16,8 29,8l55 0z"/>
</symbol>
 <g id="Layer-75">
  <metadata id="CorelCorpID_0Corel-Layer"/>
  <g id="_2096655244608">
   <g>
    <g>
     <g>
      <path class="fil1" d="M269 373l-21 0 0 -35c0,-4 -3,-7 -7,-7 -3,0 -6,3 -6,7l0 41c0,4 3,7 6,7l28 0c8,0 16,7 19,14l-162 0c3,-7 11,-14 19,-14l69 0c4,0 7,-3 7,-7 0,-3 -3,-6 -7,-6l-35 0 0 -35c0,-4 -3,-7 -7,-7 -3,0 -6,3 -6,7l0 35 -21 0c-18,0 -35,16 -35,34 0,4 3,7 7,7l180 0c3,0 7,-3 7,-7 0,-18 -17,-34 -35,-34z"/>
      <path class="fil1" d="M366 110c1,0 3,0 5,-2 2,-2 2,-7 0,-9l-56 -56c-2,-2 -7,-2 -9,0 -3,3 -3,7 0,10l55 55c1,2 3,2 5,2z"/>
      <path class="fil1" d="M304 241c0,-3 -4,-6 -7,-6l-290 0c-4,0 -7,3 -7,6l0 42c0,18 17,34 34,34l263 0c3,0 7,-3 7,-7 0,-3 -4,-6 -7,-6l-263 0c-10,0 -20,-11 -20,-21l0 -35 283 0c3,0 7,-3 7,-7z"/>
      <path class="fil1" d="M193 276c0,8 6,14 14,14 8,0 14,-6 14,-14 0,-8 -6,-14 -14,-14 -8,0 -14,6 -14,14z"/>
      <path class="fil1" d="M393 235l-55 0c-11,0 -21,9 -21,20l0 138c0,12 10,21 21,21l55 0c12,0 21,-9 21,-21l0 -138c0,-11 -9,-20 -21,-20zm7 158c0,4 -3,7 -7,7l-55 0c-4,0 -7,-3 -7,-7l0 -138c0,-4 3,-7 7,-7l55 0c4,0 7,3 7,7l0 138z"/>
      <path class="fil1" d="M379 0l-345 0c-17,0 -34,17 -34,34l0 180c0,4 3,7 7,7 4,0 7,-3 7,-7l0 -180c0,-10 10,-20 20,-20l345 0c10,0 21,10 21,20l0 180c0,4 3,7 7,7 4,0 7,-3 7,-7l0 -180c0,-17 -17,-34 -35,-34z"/>
      <path class="fil1" d="M366 373l0 0c-4,0 -7,3 -7,6 0,4 3,7 7,7 4,0 7,-3 7,-7 0,-3 -3,-6 -7,-6z"/>
      <path class="fil1" d="M366 69c1,0 3,-1 5,-2 2,-3 2,-7 0,-10l-14 -14c-3,-2 -7,-2 -10,0 -3,3 -3,7 0,10l14 14c1,1 3,2 5,2z"/>
     </g>
    </g>
   </g>
   <g>
   </g>
   <g>
   </g>
   <g>
   </g>
   <g>
   </g>
   <g>
   </g>
   <g>
   </g>
   <g>
   </g>
   <g>
   </g>
   <g>
   </g>
   <g>
   </g>
   <g>
   </g>
   <g>
   </g>
   <g>
   </g>
   <g>
   </g>
   <g>
   </g>
  </g>
 </g>
</svg>
