<svg xmlns="http://www.w3.org/2000/svg" xml:space="preserve" width="71px" height="56px" version="1.1" style="shape-rendering:geometricPrecision; text-rendering:geometricPrecision; image-rendering:optimizeQuality; fill-rule:evenodd; clip-rule:evenodd"
viewBox="0 0 693 547"
 xmlns:xlink="http://www.w3.org/1999/xlink">
 <defs>
  <style type="text/css">
   <![CDATA[
    .fil1 {fill:#399C3A}
    .fil0 {fill:#429A44;fill-rule:nonzero}
   ]]>
  </style>
 </defs>
<symbol id="Fm1-60-0" viewBox="12155 19783 5577 534">
 <path class="fil0" d="M12155 19793l54 0 0 175 215 0 0 -175 54 0 0 407 -54 0 0 -187 -215 0 0 187 -54 0 0 -407zm485 413c-13,0 -26,-2 -38,-4 -11,-3 -22,-8 -31,-15 -9,-6 -16,-15 -21,-25 -5,-11 -8,-23 -8,-38 0,-17 3,-30 9,-41 6,-11 13,-20 23,-26 9,-7 19,-12 31,-15 12,-4 25,-6 37,-9 13,-2 26,-4 38,-6 12,-1 22,-3 32,-5 9,-3 16,-6 21,-11 6,-5 8,-12 8,-21 0,-11 -2,-19 -6,-26 -4,-6 -9,-11 -15,-14 -6,-4 -13,-6 -21,-7 -8,-1 -16,-2 -23,-2 -21,0 -38,4 -52,12 -13,7 -21,22 -22,44l-48 0c1,-18 4,-34 11,-46 7,-13 16,-23 28,-31 11,-8 24,-13 39,-17 14,-3 30,-5 47,-5 13,0 26,1 39,3 13,2 25,6 36,12 10,6 19,14 25,25 7,10 10,24 10,41l0 152c0,11 1,19 2,25 1,5 6,8 13,8 4,0 9,-1 15,-3l0 37c-8,5 -20,8 -35,8 -12,0 -22,-4 -29,-11 -8,-7 -12,-18 -12,-34 -13,16 -28,27 -46,34 -17,7 -37,11 -57,11zm11 -42c16,0 29,-3 41,-7 11,-4 20,-10 28,-16 7,-7 12,-14 16,-22 3,-8 5,-15 5,-22l0 -49c-6,5 -14,8 -24,10 -10,2 -20,3 -31,5 -11,1 -22,3 -33,4 -11,2 -21,5 -30,8 -8,4 -15,10 -21,17 -5,7 -8,16 -8,28 0,8 1,15 5,21 3,5 7,10 12,13 5,3 11,6 18,7 7,2 14,3 22,3zm213 -259l49 0 0 240 138 -240 63 0 0 295 -49 0 0 -241 -139 241 -62 0 0 -295zm125 -43c-11,0 -22,-2 -32,-5 -10,-4 -19,-9 -26,-15 -7,-6 -13,-14 -18,-24 -4,-9 -6,-20 -6,-32l40 0c1,28 15,42 41,42 14,0 24,-3 31,-11 7,-7 10,-18 10,-31l41 0c0,12 -2,22 -6,31 -5,10 -10,18 -18,24 -7,7 -15,12 -25,15 -10,4 -21,6 -32,6zm269 86l-106 0 0 -43 259 0 0 43 -105 0 0 252 -48 0 0 -252zm192 -43l49 0 0 240 138 -240 63 0 0 295 -49 0 0 -241 -139 241 -62 0 0 -295zm481 0l48 0 0 141 135 -141 65 0 -131 128 146 167 -62 0 -123 -141 -30 30 0 111 -48 0 0 -295zm330 412c-6,0 -12,0 -17,-1 -6,-1 -12,-2 -17,-4l0 -45c5,2 9,3 14,5 5,1 10,2 15,2 9,0 17,-2 24,-7 6,-4 11,-11 15,-20l20 -49 -116 -293 54 0 86 241 1 0 83 -241 51 0 -128 333c-6,15 -11,27 -17,37 -5,10 -11,18 -18,24 -7,6 -14,11 -22,14 -8,2 -18,4 -28,4zm256 -412l48 0 0 40 1 0c8,-16 21,-28 38,-36 17,-7 36,-11 56,-11 23,0 43,5 60,13 17,8 31,19 42,34 11,14 20,30 25,49 6,18 9,38 9,59 0,21 -3,41 -8,60 -6,18 -14,34 -25,48 -11,14 -25,25 -42,33 -17,8 -37,12 -59,12 -8,0 -16,-1 -25,-2 -9,-2 -17,-4 -26,-8 -9,-3 -17,-8 -25,-14 -8,-6 -14,-13 -20,-22l-1 0 0 152 -48 0 0 -407zm140 259c16,0 30,-3 41,-10 11,-6 21,-15 27,-26 7,-10 12,-22 15,-36 3,-14 5,-28 5,-42 0,-14 -2,-27 -6,-40 -3,-14 -9,-25 -16,-35 -8,-11 -17,-19 -29,-25 -11,-6 -25,-9 -40,-9 -17,0 -31,3 -42,10 -11,6 -21,15 -28,25 -7,10 -12,22 -15,36 -4,13 -5,26 -5,40 0,14 1,28 5,42 3,13 9,25 16,36 7,10 17,18 29,24 12,7 26,10 43,10zm318 42c-23,0 -42,-4 -60,-11 -17,-7 -31,-17 -43,-31 -12,-13 -20,-29 -26,-47 -6,-18 -9,-38 -9,-61 0,-22 3,-43 9,-62 5,-19 14,-36 26,-50 11,-14 26,-25 43,-34 17,-8 37,-12 61,-12 17,0 32,2 47,6 15,4 28,10 39,19 11,8 20,19 27,31 8,13 12,28 14,46l-50 0c-4,-19 -12,-33 -24,-44 -12,-10 -29,-15 -49,-15 -18,0 -32,3 -44,10 -12,6 -21,15 -28,25 -7,11 -12,23 -15,37 -3,14 -5,28 -5,43 0,14 2,27 5,40 3,13 8,24 15,34 7,10 16,19 27,25 11,6 24,9 39,9 24,0 43,-7 56,-19 14,-13 22,-30 25,-53l50 0c-6,37 -19,65 -41,84 -21,20 -51,30 -89,30zm469 0c-23,0 -44,-4 -62,-12 -17,-8 -32,-18 -44,-32 -12,-14 -22,-30 -28,-49 -6,-19 -9,-39 -9,-60 0,-22 3,-42 9,-61 6,-19 16,-35 28,-49 12,-14 27,-25 44,-33 18,-8 39,-12 62,-12 23,0 44,4 62,12 17,8 32,19 45,33 12,14 21,30 27,49 6,19 9,39 9,61 0,21 -3,41 -9,60 -6,19 -15,35 -27,49 -13,14 -28,24 -45,32 -18,8 -39,12 -62,12zm0 -42c13,0 25,-3 36,-8 11,-5 21,-12 29,-21 8,-9 15,-21 20,-35 4,-14 7,-29 7,-47 0,-18 -3,-34 -7,-48 -5,-14 -12,-25 -20,-35 -8,-10 -18,-17 -29,-22 -11,-5 -23,-7 -36,-7 -12,0 -24,2 -36,7 -11,5 -21,12 -29,22 -8,10 -15,21 -19,35 -5,14 -8,30 -8,48 0,18 3,33 8,47 4,14 11,26 19,35 8,9 18,16 29,21 12,5 24,8 36,8zm332 42c-38,0 -69,-10 -92,-29 -24,-20 -39,-50 -45,-90 -2,-16 -3,-34 -3,-54 0,-14 0,-28 1,-44 1,-15 3,-30 6,-45 2,-14 6,-29 10,-42 4,-14 10,-26 17,-37 13,-20 29,-35 47,-45 19,-10 42,-15 71,-17 18,-2 34,-4 46,-6 13,-1 20,-6 21,-14l49 0c-1,15 -4,27 -10,34 -6,8 -14,14 -24,18 -10,4 -23,7 -37,8 -15,2 -33,3 -52,5 -17,1 -31,5 -43,11 -12,6 -22,15 -31,26 -9,11 -16,23 -21,38 -5,15 -9,31 -11,48l1 0c9,-19 22,-35 40,-48 17,-12 38,-18 63,-18 42,0 75,13 98,38 24,26 36,63 36,112 0,25 -3,46 -10,65 -6,19 -16,35 -28,47 -12,13 -26,23 -43,29 -17,7 -36,10 -56,10zm0 -41c12,0 22,-3 33,-7 11,-5 20,-12 28,-21 8,-9 14,-21 19,-34 5,-13 8,-29 8,-47 0,-34 -8,-62 -24,-81 -16,-20 -38,-30 -65,-30 -27,0 -49,10 -65,30 -16,20 -25,47 -25,82 0,33 9,59 25,79 16,19 38,29 66,29zm224 152c-5,0 -11,0 -17,-1 -5,-1 -11,-2 -16,-4l0 -45c4,2 9,3 14,5 4,1 9,2 14,2 10,0 18,-2 24,-7 6,-4 12,-11 16,-20l20 -49 -117 -293 55 0 86 241 1 0 83 -241 51 0 -128 333c-6,15 -11,27 -17,37 -5,10 -12,18 -18,24 -7,6 -14,11 -22,14 -9,2 -18,4 -29,4zm431 -237c-8,4 -20,7 -36,11 -16,3 -32,5 -49,5 -36,0 -62,-8 -78,-24 -16,-15 -23,-38 -23,-66l0 -101 48 0 0 93c0,19 5,34 14,43 8,9 25,14 48,14 15,0 29,-2 43,-5 14,-3 25,-6 33,-10l0 -135 49 0 0 295 -49 0 0 -120zm247 126c-23,0 -44,-4 -62,-12 -17,-7 -32,-18 -44,-31 -12,-14 -20,-30 -26,-49 -6,-19 -9,-40 -9,-62 0,-23 3,-43 10,-62 7,-19 16,-35 29,-48 12,-14 27,-25 44,-32 17,-8 35,-12 55,-12 27,0 48,6 66,16 17,11 31,25 41,42 11,16 18,35 22,54 4,20 5,39 5,57l-221 0c0,13 1,25 5,37 3,11 9,21 16,30 8,9 17,16 29,22 12,5 26,8 42,8 20,0 37,-5 50,-15 13,-9 22,-24 26,-43l48 0c-6,34 -21,59 -43,75 -22,17 -49,25 -83,25zm79 -182c-1,-11 -3,-22 -7,-32 -5,-11 -11,-19 -18,-27 -8,-7 -16,-13 -26,-17 -10,-5 -21,-7 -34,-7 -12,0 -23,2 -33,7 -11,4 -19,10 -26,18 -8,7 -13,16 -17,26 -5,10 -7,21 -8,32l169 0zm102 -119l48 0 0 117 149 0 0 -117 49 0 0 295 -49 0 0 -136 -149 0 0 136 -48 0 0 -295zm319 0l48 0 0 240 139 -240 62 0 0 295 -48 0 0 -241 -139 241 -62 0 0 -295zm384 179c-21,-3 -38,-12 -51,-28 -14,-16 -20,-36 -20,-60 0,-28 8,-50 25,-66 16,-17 39,-25 67,-25l149 0 0 295 -48 0 0 -114 -64 0 -91 114 -64 0 97 -116zm122 -39l0 -97 -86 0c-20,0 -35,4 -44,13 -9,9 -14,20 -14,35 0,16 5,27 14,36 9,8 24,13 44,13l86 0z"/>
</symbol>
 <g id="Layer-79">
  <metadata id="CorelCorpID_0Corel-Layer"/>
  <g id="_2096942855648">
   <g>
    <path class="fil1" d="M328 17c-11,-6 -25,-6 -36,0 0,1 -1,1 -1,1l-157 133 -122 0c-7,0 -12,5 -12,11l0 220c0,3 1,6 3,8 3,2 5,3 9,3l122 0 156 144c1,0 2,1 2,1 6,4 12,5 19,5 5,0 11,-1 17,-4 11,-7 18,-19 18,-32l0 -458c0,-14 -7,-26 -18,-32zm-5 490c0,5 -2,9 -6,12 -2,1 -7,3 -12,0l-155 -142 0 -53c0,-6 -5,-12 -11,-12 -7,0 -12,6 -12,12l0 46 -104 0 0 -196 104 0 0 46c0,6 5,12 12,12 6,0 11,-6 11,-12l0 -52 155 -131c5,-3 10,-1 12,0 4,2 6,7 6,12l0 458z"/>
    <path class="fil1" d="M601 272c0,-96 -62,-182 -153,-213 -6,-2 -13,1 -15,7 -2,6 1,13 8,15 81,28 137,105 137,191 0,86 -55,163 -137,191 -6,2 -9,9 -7,15 1,5 6,8 11,8 1,0 2,-1 3,-1 91,-31 153,-117 153,-213z"/>
    <path class="fil1" d="M513 1c-6,-3 -12,0 -15,6 -2,6 0,13 6,15 101,43 166,141 166,250 0,113 -68,212 -174,253 -6,2 -9,9 -6,15 1,5 6,7 10,7 2,0 3,0 5,0 114,-45 188,-152 188,-275 0,-118 -71,-225 -180,-271z"/>
    <path class="fil1" d="M497 272c0,-69 -47,-130 -113,-150 -6,-1 -12,2 -14,8 -2,6 2,13 8,15 56,16 96,68 96,127 0,59 -40,111 -96,128 -6,1 -10,8 -8,14 1,5 6,8 11,8 1,0 2,0 3,0 66,-19 113,-81 113,-150z"/>
   </g>
   <g>
   </g>
   <g>
   </g>
   <g>
   </g>
   <g>
   </g>
   <g>
   </g>
   <g>
   </g>
   <g>
   </g>
   <g>
   </g>
   <g>
   </g>
   <g>
   </g>
   <g>
   </g>
   <g>
   </g>
   <g>
   </g>
   <g>
   </g>
   <g>
   </g>
  </g>
 </g>
</svg>
