<svg xmlns="http://www.w3.org/2000/svg" xml:space="preserve" width="62px" height="71px" version="1.1" style="shape-rendering:geometricPrecision; text-rendering:geometricPrecision; image-rendering:optimizeQuality; fill-rule:evenodd; clip-rule:evenodd"
viewBox="0 0 444 512"
 xmlns:xlink="http://www.w3.org/1999/xlink">
 <defs>
  <style type="text/css">
   <![CDATA[
    .fil1 {fill:#49984C}
    .fil0 {fill:#429A44;fill-rule:nonzero}
   ]]>
  </style>
 </defs>
<symbol id="Fm1-60-0" viewBox="14666 13051 4107 393">
 <path class="fil0" d="M14666 13059l40 0 0 128 158 0 0 -128 40 0 0 299 -40 0 0 -137 -158 0 0 137 -40 0 0 -299zm357 304c-10,0 -19,-1 -27,-3 -9,-3 -17,-6 -23,-11 -7,-5 -12,-11 -16,-19 -4,-8 -5,-17 -5,-28 0,-12 2,-22 6,-30 4,-8 10,-14 16,-19 7,-5 15,-9 24,-11 9,-3 18,-5 27,-6 10,-2 19,-4 28,-5 9,-1 16,-2 23,-4 7,-2 12,-4 16,-8 4,-3 6,-9 6,-15 0,-8 -2,-14 -5,-19 -2,-5 -6,-9 -11,-11 -4,-3 -10,-4 -15,-5 -6,-1 -12,-1 -17,-1 -15,0 -28,2 -38,8 -10,6 -16,17 -16,33l-36 0c1,-14 3,-25 8,-34 5,-9 12,-17 21,-23 8,-5 17,-10 28,-12 11,-3 23,-4 35,-4 10,0 19,1 29,2 10,2 18,5 26,9 8,4 14,10 19,18 5,8 7,18 7,31l0 111c0,9 1,15 2,19 1,4 4,6 9,6 3,0 7,-1 11,-2l0 27c-6,4 -14,6 -25,6 -9,0 -17,-3 -22,-8 -6,-5 -8,-14 -8,-25 -10,11 -22,20 -35,25 -13,5 -27,8 -42,8zm8 -31c12,0 22,-2 30,-5 9,-3 16,-7 21,-12 5,-5 9,-11 12,-16 2,-6 4,-11 4,-16l0 -37c-5,4 -11,6 -18,8 -7,1 -15,2 -23,3 -8,1 -16,3 -24,4 -8,1 -15,3 -22,6 -6,2 -12,6 -16,12 -4,5 -6,12 -6,21 0,6 2,11 4,15 2,4 5,7 9,10 4,2 8,4 13,5 5,1 11,2 16,2zm157 -191l36 0 0 177 102 -177 46 0 0 217 -36 0 0 -177 -102 177 -46 0 0 -217zm92 -32c-8,0 -16,-1 -23,-3 -7,-3 -14,-7 -19,-11 -6,-5 -10,-11 -13,-18 -3,-7 -5,-15 -5,-23l30 0c0,20 10,31 30,31 10,0 17,-3 22,-9 5,-5 8,-13 8,-22l30 0c0,8 -2,16 -5,23 -3,7 -7,12 -12,17 -6,5 -12,9 -19,11 -7,3 -15,4 -24,4zm198 64l-77 0 0 -32 191 0 0 32 -78 0 0 185 -36 0 0 -185zm142 -32l36 0 0 177 102 -177 46 0 0 217 -36 0 0 -177 -102 177 -46 0 0 -217zm354 0l36 0 0 104 99 -104 47 0 -95 94 107 123 -46 0 -90 -103 -22 21 0 82 -36 0 0 -217zm243 303c-4,0 -8,0 -13,0 -4,-1 -8,-2 -12,-3l0 -33c4,1 7,2 10,3 4,1 7,2 11,2 7,0 13,-2 18,-5 4,-3 8,-8 12,-15l14 -36 -86 -216 41 0 63 178 1 0 60 -178 38 0 -94 246c-4,10 -8,19 -13,26 -4,8 -8,14 -13,18 -5,5 -10,8 -16,10 -6,2 -13,3 -21,3zm189 -303l35 0 0 30 1 0c6,-12 15,-21 28,-27 12,-5 26,-8 41,-8 17,0 32,3 44,9 13,7 23,15 31,25 8,11 15,23 19,37 4,13 6,28 6,43 0,16 -2,31 -6,44 -4,14 -10,26 -18,36 -8,10 -19,18 -31,24 -13,6 -27,9 -44,9 -5,0 -11,-1 -18,-2 -6,-1 -13,-3 -19,-5 -7,-3 -13,-6 -18,-11 -6,-4 -11,-9 -15,-16l-1 0 0 112 -35 0 0 -300zm102 191c12,0 23,-3 31,-7 8,-5 15,-12 20,-19 5,-8 9,-17 11,-27 2,-10 3,-21 3,-31 0,-10 -1,-20 -4,-30 -2,-10 -6,-18 -12,-26 -5,-7 -12,-13 -21,-18 -8,-4 -18,-6 -30,-6 -12,0 -22,2 -30,7 -9,4 -15,11 -21,18 -5,8 -9,17 -11,27 -3,9 -4,19 -4,29 0,11 1,21 4,31 2,10 6,19 12,26 5,8 12,14 21,19 9,4 19,7 31,7zm235 31c-17,0 -31,-3 -44,-8 -13,-6 -23,-13 -32,-23 -8,-10 -15,-21 -19,-35 -4,-13 -7,-28 -7,-45 0,-16 3,-31 7,-45 4,-14 10,-27 19,-37 8,-11 19,-19 32,-25 12,-6 27,-9 45,-9 12,0 24,2 34,5 11,3 21,7 29,13 8,6 15,14 20,23 6,10 9,21 10,34l-37 0c-2,-14 -8,-25 -17,-32 -9,-8 -21,-11 -36,-11 -13,0 -24,2 -33,7 -8,4 -15,11 -20,19 -6,7 -9,17 -11,27 -3,10 -4,20 -4,31 0,10 1,20 4,30 2,9 6,18 11,25 5,8 11,13 19,18 8,4 18,7 29,7 18,0 32,-5 42,-14 10,-9 16,-22 18,-39l37 0c-4,27 -14,48 -30,62 -16,14 -38,22 -66,22zm345 0c-17,0 -32,-3 -45,-9 -13,-6 -24,-14 -33,-24 -9,-10 -16,-22 -20,-36 -5,-13 -7,-28 -7,-44 0,-16 2,-31 7,-45 4,-14 11,-26 20,-36 9,-10 20,-18 33,-24 13,-6 28,-9 45,-9 18,0 33,3 46,9 13,6 24,14 33,24 9,10 16,22 20,36 4,14 7,29 7,45 0,16 -3,31 -7,44 -4,14 -11,26 -20,36 -9,10 -20,18 -33,24 -13,6 -28,9 -46,9zm0 -31c10,0 18,-2 27,-6 8,-4 15,-9 21,-16 6,-6 11,-15 15,-25 3,-10 5,-22 5,-35 0,-13 -2,-25 -5,-35 -4,-10 -9,-19 -15,-26 -6,-7 -13,-12 -21,-16 -9,-4 -17,-5 -27,-5 -9,0 -18,1 -26,5 -8,4 -15,9 -21,16 -6,7 -11,16 -15,26 -3,10 -5,22 -5,35 0,13 2,25 5,35 4,10 9,19 15,25 6,7 13,12 21,16 8,4 17,6 26,6zm245 31c-28,0 -51,-7 -68,-22 -17,-14 -28,-36 -33,-66 -1,-12 -2,-25 -2,-39 0,-11 0,-22 1,-33 1,-11 2,-22 4,-33 1,-11 4,-21 7,-31 3,-10 8,-19 13,-28 9,-14 21,-25 35,-32 13,-8 31,-12 51,-13 14,-1 26,-3 35,-4 9,-1 14,-5 15,-11l36 0c-1,11 -3,20 -7,26 -4,5 -10,10 -18,13 -7,3 -17,5 -27,6 -11,1 -24,2 -39,3 -12,1 -22,3 -31,8 -9,5 -17,11 -23,19 -6,8 -11,18 -15,28 -4,11 -7,23 -9,36l2 0c6,-14 15,-26 28,-35 13,-10 29,-14 47,-14 31,0 55,9 73,28 17,19 26,47 26,83 0,18 -2,34 -7,47 -5,14 -12,26 -21,35 -9,10 -20,17 -32,22 -13,4 -26,7 -41,7zm0 -31c8,0 16,-1 24,-5 8,-3 15,-8 21,-15 6,-7 10,-15 14,-25 4,-10 6,-21 6,-35 0,-25 -6,-45 -18,-60 -12,-14 -28,-21 -48,-21 -20,0 -36,7 -48,22 -12,14 -18,34 -18,60 0,24 6,44 18,58 12,14 28,21 49,21zm165 112c-4,0 -8,0 -12,0 -5,-1 -9,-2 -13,-3l0 -33c4,1 7,2 11,3 3,1 7,2 10,2 8,0 14,-2 18,-5 5,-3 8,-8 12,-15l14 -36 -86 -216 41 0 63 178 1 0 61 -178 37 0 -94 246c-4,10 -8,19 -12,26 -4,8 -9,14 -14,18 -5,5 -10,8 -16,10 -6,2 -13,3 -21,3zm318 -174c-7,3 -16,5 -27,8 -12,2 -24,4 -36,4 -27,0 -46,-6 -58,-18 -11,-11 -17,-28 -17,-48l0 -75 36 0 0 69c0,14 3,24 10,31 6,7 18,11 36,11 10,0 21,-2 31,-4 10,-2 19,-5 25,-7l0 -100 35 0 0 217 -35 0 0 -88zm181 93c-17,0 -32,-3 -45,-9 -13,-5 -24,-13 -33,-23 -8,-10 -15,-22 -19,-36 -5,-14 -7,-29 -7,-46 0,-16 3,-31 8,-45 5,-14 12,-26 21,-36 9,-10 20,-18 32,-23 13,-6 26,-9 41,-9 20,0 36,4 48,12 13,8 23,18 31,31 8,12 13,25 16,40 3,14 4,28 3,41l-162 0c0,10 1,19 3,27 3,9 7,16 13,23 5,7 12,12 21,16 9,4 19,6 30,6 16,0 28,-4 38,-11 9,-7 16,-18 19,-32l35 0c-5,25 -15,43 -31,55 -17,13 -37,19 -62,19zm59 -134c-1,-9 -3,-16 -6,-24 -3,-8 -8,-14 -13,-20 -6,-5 -12,-9 -19,-13 -8,-3 -16,-4 -25,-4 -9,0 -17,1 -25,4 -7,4 -14,8 -19,14 -5,5 -9,12 -12,19 -4,8 -5,15 -6,24l125 0zm74 -88l36 0 0 87 110 0 0 -87 35 0 0 217 -35 0 0 -100 -110 0 0 100 -36 0 0 -217zm235 0l36 0 0 177 102 -177 46 0 0 217 -36 0 0 -177 -102 177 -46 0 0 -217zm283 132c-15,-2 -28,-9 -37,-21 -10,-11 -15,-26 -15,-44 0,-20 6,-37 18,-49 12,-12 29,-18 50,-18l110 0 0 217 -36 0 0 -83 -47 0 -67 83 -47 0 71 -85zm90 -29l0 -71 -63 0c-15,0 -26,3 -33,9 -6,7 -10,15 -10,26 0,12 4,20 10,27 7,6 18,9 33,9l63 0z"/>
</symbol>
 <g id="Layer-68">
  <metadata id="CorelCorpID_0Corel-Layer"/>
  <g id="_2097292043968">
   <g>
    <g>
     <g>
      <path class="fil1" d="M94 376l51 0c5,0 9,-4 9,-9 0,-5 -4,-8 -9,-8l-51 0c-5,0 -9,3 -9,8 0,5 4,9 9,9z"/>
      <path class="fil1" d="M94 427l102 0c5,0 9,-4 9,-9 0,-4 -4,-8 -9,-8l-102 0c-5,0 -9,4 -9,8 0,5 4,9 9,9z"/>
      <path class="fil1" d="M127 241c4,1 6,4 8,8 1,3 5,5 8,5 1,0 2,-1 3,-1 5,-2 6,-7 4,-12 -3,-6 -8,-12 -15,-16 -4,-2 -9,0 -11,4 -3,4 -1,10 3,12z"/>
      <path class="fil1" d="M273 367c0,-5 -4,-8 -8,-8l-86 0c-4,0 -8,3 -8,8 0,5 4,9 8,9l86 0c4,0 8,-4 8,-9z"/>
      <path class="fil1" d="M127 87c4,2 6,5 8,8 1,3 5,5 8,5 1,0 2,0 3,-1 5,-2 6,-7 4,-11 -3,-7 -8,-13 -15,-16 -4,-2 -9,0 -11,4 -3,4 -1,9 3,11z"/>
      <path class="fil1" d="M65 144c-6,6 -14,17 -14,35 0,19 8,30 14,36 -9,12 -14,26 -14,41 0,17 7,33 17,45l0 32c0,5 4,9 9,9 5,0 8,-4 8,-9l0 -18c10,6 22,9 35,9 37,0 68,-30 68,-68 0,-38 -31,-68 -68,-68 -17,0 -31,5 -43,15 -4,-4 -9,-11 -9,-24 0,-12 5,-20 9,-23 12,9 26,15 43,15 37,0 68,-31 68,-69 0,-37 -31,-68 -68,-68 -13,0 -25,4 -35,9l0 -26 227 0 83 83c2,2 4,2 6,2 2,0 5,0 6,-2 4,-3 4,-9 0,-12l-85 -85c-2,-2 -4,-3 -6,-3l-239 0c-5,0 -9,4 -9,9l0 48c-10,12 -17,28 -17,45 0,16 5,30 14,42zm55 -93c28,0 51,23 51,51 0,29 -23,52 -51,52 -29,0 -52,-23 -52,-52 0,-28 23,-51 52,-51zm0 154c28,0 51,23 51,51 0,28 -23,51 -51,51 -29,0 -52,-23 -52,-51 0,-28 23,-51 52,-51z"/>
      <path class="fil1" d="M359 367c0,-5 -4,-8 -9,-8l-51 0c-5,0 -9,3 -9,8 0,5 4,9 9,9l51 0c5,0 9,-4 9,-9z"/>
      <path class="fil1" d="M350 205l-68 0c-5,0 -9,4 -9,8 0,5 4,9 9,9l68 0c5,0 9,-4 9,-9 0,-4 -4,-8 -9,-8z"/>
      <path class="fil1" d="M231 427l85 0c5,0 8,-4 8,-9 0,-4 -3,-8 -8,-8l-85 0c-5,0 -9,4 -9,8 0,5 4,9 9,9z"/>
      <path class="fil1" d="M435 120l-85 0c-14,0 -26,-12 -26,-26l0 -43c0,-4 -3,-8 -8,-8 -5,0 -9,4 -9,8l0 43c0,23 20,43 43,43l77 0 0 333c0,14 -11,25 -26,25l-358 0c-14,0 -26,-11 -26,-25l0 -427c0,-14 12,-26 26,-26 4,0 8,-4 8,-8 0,-5 -4,-9 -8,-9 -24,0 -43,19 -43,43l0 427c0,23 19,42 43,42l358 0c24,0 43,-18 43,-42l0 -342c0,-5 -4,-8 -9,-8z"/>
      <path class="fil1" d="M196 316c0,5 4,8 9,8l128 0c5,0 9,-3 9,-8 0,-5 -4,-9 -9,-9l-128 0c-5,0 -9,4 -9,9z"/>
      <path class="fil1" d="M213 265c0,4 4,8 9,8l43 0c4,0 8,-4 8,-8 0,-5 -4,-9 -8,-9l-43 0c-5,0 -9,4 -9,9z"/>
      <path class="fil1" d="M333 273c5,0 9,-4 9,-8 0,-5 -4,-9 -9,-9l-34 0c-5,0 -9,4 -9,9 0,4 4,8 9,8l34 0z"/>
      <path class="fil1" d="M248 205l-35 0c-4,0 -8,4 -8,8 0,5 4,9 8,9l35 0c4,0 8,-4 8,-9 0,-4 -4,-8 -8,-8z"/>
     </g>
    </g>
   </g>
   <g>
   </g>
   <g>
   </g>
   <g>
   </g>
   <g>
   </g>
   <g>
   </g>
   <g>
   </g>
   <g>
   </g>
   <g>
   </g>
   <g>
   </g>
   <g>
   </g>
   <g>
   </g>
   <g>
   </g>
   <g>
   </g>
   <g>
   </g>
   <g>
   </g>
  </g>
 </g>
</svg>
