<svg xmlns="http://www.w3.org/2000/svg" xml:space="preserve" width="71px" height="71px" version="1.1" style="shape-rendering:geometricPrecision; text-rendering:geometricPrecision; image-rendering:optimizeQuality; fill-rule:evenodd; clip-rule:evenodd"
viewBox="0 0 912 912"
 xmlns:xlink="http://www.w3.org/1999/xlink">
 <defs>
  <style type="text/css">
   <![CDATA[
    .fil1 {fill:#49984C}
    .fil0 {fill:#429A44;fill-rule:nonzero}
   ]]>
  </style>
 </defs>
<symbol id="Fm1-60-0" viewBox="24139 23238 7311 700">
 <path class="fil0" d="M24139 23251l71 0 0 229 281 0 0 -229 70 0 0 533 -70 0 0 -244 -281 0 0 244 -71 0 0 -533zm635 541c-17,0 -33,-1 -49,-5 -15,-4 -29,-10 -41,-19 -11,-9 -21,-20 -27,-34 -7,-13 -10,-30 -10,-49 0,-22 3,-40 11,-54 7,-14 17,-25 29,-34 12,-9 26,-15 42,-20 16,-4 32,-8 48,-11 18,-3 34,-6 50,-8 16,-2 29,-4 41,-7 12,-3 22,-8 29,-14 7,-7 10,-16 10,-27 0,-14 -2,-26 -8,-34 -5,-9 -12,-15 -20,-20 -8,-4 -17,-7 -27,-8 -11,-2 -21,-3 -31,-3 -27,0 -49,5 -67,15 -18,11 -28,30 -29,58l-63 0c1,-24 6,-44 15,-60 9,-16 20,-30 35,-40 15,-10 32,-18 51,-22 20,-5 40,-7 62,-7 18,0 35,2 52,4 17,2 33,8 47,15 14,8 25,19 33,33 9,14 13,32 13,54l0 199c0,15 1,26 2,33 2,7 8,10 18,10 4,0 11,-1 20,-4l0 50c-11,6 -27,9 -46,9 -17,0 -30,-4 -39,-14 -10,-9 -15,-24 -15,-45 -17,21 -38,36 -61,45 -23,10 -48,14 -75,14zm14 -55c21,0 39,-3 54,-8 15,-6 27,-13 37,-22 9,-9 16,-18 21,-29 4,-10 6,-19 6,-28l0 -65c-8,6 -18,11 -31,13 -13,3 -26,5 -41,7 -14,2 -28,4 -42,6 -15,2 -28,6 -39,10 -12,5 -21,13 -28,22 -8,9 -11,22 -11,38 0,10 2,19 6,26 4,7 10,13 17,18 6,4 14,7 23,9 9,2 18,3 28,3zm280 -339l64 0 0 315 182 -315 81 0 0 386 -63 0 0 -315 -182 315 -82 0 0 -386zm164 -57c-15,0 -29,-2 -42,-6 -13,-5 -24,-11 -34,-20 -10,-8 -17,-18 -23,-31 -6,-12 -9,-26 -9,-42l53 0c1,37 19,55 54,55 17,0 31,-4 40,-14 9,-10 14,-23 14,-41l53 0c0,15 -3,29 -8,41 -6,13 -13,23 -23,32 -9,8 -20,15 -33,19 -13,5 -27,7 -42,7zm352 113l-138 0 0 -56 340 0 0 56 -138 0 0 330 -64 0 0 -330zm253 -56l63 0 0 315 182 -315 82 0 0 386 -64 0 0 -315 -182 315 -81 0 0 -386zm630 0l63 0 0 185 177 -185 84 0 -170 167 191 219 -82 0 -161 -183 -39 38 0 145 -63 0 0 -386zm432 540c-7,0 -15,0 -22,-1 -8,-1 -15,-3 -22,-6l0 -58c6,2 12,4 18,6 6,2 13,3 19,3 13,0 24,-3 32,-9 8,-6 15,-15 21,-26l26 -65 -153 -384 71 0 113 316 2 0 108 -316 67 0 -168 437c-7,19 -15,35 -22,48 -7,13 -15,23 -24,32 -9,8 -18,14 -29,18 -11,3 -23,5 -37,5zm336 -540l63 0 0 52 2 0c10,-21 27,-37 49,-46 23,-10 47,-15 74,-15 30,0 56,6 78,17 22,11 41,25 55,44 15,19 26,40 34,65 7,24 11,50 11,77 0,28 -4,54 -11,78 -7,24 -18,46 -33,64 -14,18 -33,32 -55,43 -22,10 -48,15 -77,15 -10,0 -21,-1 -32,-3 -12,-1 -23,-5 -35,-9 -11,-5 -22,-11 -32,-19 -10,-7 -19,-17 -26,-28l-2 0 0 198 -63 0 0 -533zm183 339c21,0 39,-4 54,-12 15,-9 27,-20 36,-34 9,-14 16,-30 20,-48 4,-18 6,-36 6,-55 0,-18 -3,-36 -7,-53 -5,-17 -12,-32 -22,-46 -10,-13 -22,-24 -37,-32 -15,-8 -33,-12 -54,-12 -21,0 -39,4 -54,13 -15,8 -27,19 -37,33 -9,14 -16,29 -20,47 -5,17 -7,35 -7,53 0,19 3,37 7,55 5,17 12,33 21,46 10,14 22,24 38,33 15,8 34,12 56,12zm417 55c-29,0 -55,-4 -78,-14 -22,-9 -41,-23 -56,-40 -16,-17 -27,-38 -35,-62 -8,-24 -11,-51 -11,-80 0,-29 3,-56 11,-81 7,-25 19,-47 34,-66 15,-18 34,-33 57,-44 22,-10 49,-16 80,-16 22,0 42,3 61,8 20,5 37,13 51,24 15,11 27,25 36,42 10,16 16,36 18,59l-65 0c-5,-24 -16,-43 -32,-57 -16,-13 -37,-20 -64,-20 -23,0 -42,4 -57,13 -16,8 -28,20 -37,34 -10,13 -16,30 -20,48 -4,18 -6,37 -6,56 0,18 2,35 6,52 4,17 11,32 20,45 9,14 20,24 35,32 14,8 31,12 52,12 31,0 55,-8 73,-25 18,-16 29,-39 33,-69l64 0c-6,48 -24,85 -52,111 -29,26 -68,38 -118,38zm615 0c-30,0 -57,-5 -81,-15 -23,-10 -42,-24 -58,-43 -16,-18 -28,-39 -36,-63 -8,-25 -12,-51 -12,-79 0,-29 4,-55 12,-80 8,-25 20,-46 36,-64 16,-18 35,-33 58,-43 24,-10 51,-16 81,-16 31,0 58,6 81,16 23,10 43,25 59,43 16,18 28,39 36,64 8,25 12,51 12,80 0,28 -4,54 -12,79 -8,24 -20,45 -36,63 -16,19 -36,33 -59,43 -23,10 -50,15 -81,15zm0 -55c17,0 33,-3 47,-10 15,-6 28,-15 39,-28 10,-12 19,-27 25,-45 6,-18 10,-39 10,-62 0,-24 -4,-45 -10,-63 -6,-18 -15,-33 -25,-46 -11,-12 -24,-22 -39,-28 -14,-7 -30,-10 -47,-10 -16,0 -32,3 -46,10 -15,6 -28,16 -39,28 -11,13 -19,28 -25,46 -6,18 -10,39 -10,63 0,23 4,44 10,62 6,18 14,33 25,45 11,13 24,22 39,28 14,7 30,10 46,10zm435 55c-50,0 -90,-12 -121,-38 -30,-25 -50,-64 -57,-118 -4,-21 -5,-44 -5,-70 0,-18 1,-37 2,-57 1,-20 3,-40 7,-59 3,-20 7,-38 13,-56 6,-18 13,-34 23,-49 17,-26 37,-46 62,-58 24,-13 55,-21 92,-23 24,-2 45,-4 61,-7 16,-2 25,-9 28,-19l63 0c-1,20 -5,35 -13,45 -7,11 -18,18 -31,24 -14,5 -30,8 -49,10 -20,2 -42,4 -68,6 -22,1 -40,6 -56,15 -16,8 -30,19 -41,34 -11,14 -20,30 -27,50 -7,19 -12,40 -15,63l2 0c11,-26 28,-47 51,-63 23,-16 51,-24 84,-24 54,0 97,16 129,50 31,34 47,83 47,147 0,32 -5,60 -13,85 -9,25 -22,45 -37,62 -16,17 -35,29 -58,38 -22,8 -46,12 -73,12zm1 -53c15,0 29,-3 43,-10 14,-6 26,-15 37,-27 10,-12 18,-27 25,-44 7,-18 10,-38 10,-62 0,-45 -11,-81 -32,-107 -20,-26 -49,-39 -85,-39 -36,0 -64,14 -85,40 -21,26 -32,61 -32,107 0,44 11,78 31,104 21,25 50,38 88,38zm294 199c-8,0 -15,0 -23,-1 -7,-1 -14,-3 -21,-6l0 -58c6,2 12,4 18,6 6,2 12,3 19,3 13,0 24,-3 32,-9 7,-6 14,-15 20,-26l26 -65 -153 -384 72 0 113 316 1 0 108 -316 68 0 -168 437c-8,19 -15,35 -22,48 -7,13 -15,23 -24,32 -9,8 -19,14 -29,18 -11,3 -23,5 -37,5zm565 -311c-12,5 -27,10 -48,15 -20,4 -42,6 -64,6 -48,0 -82,-10 -102,-31 -21,-20 -31,-49 -31,-87l0 -132 63 0 0 122c0,25 6,44 18,56 12,12 33,19 64,19 19,0 38,-3 56,-7 18,-4 33,-8 44,-13l0 -177 63 0 0 386 -63 0 0 -157zm323 165c-31,0 -58,-5 -81,-15 -23,-10 -42,-23 -58,-41 -15,-18 -27,-40 -34,-65 -8,-24 -12,-51 -12,-81 0,-29 4,-56 14,-80 8,-25 21,-46 37,-64 16,-18 35,-32 58,-42 22,-10 46,-15 72,-15 35,0 63,7 86,21 23,15 41,33 55,55 13,21 23,45 28,71 5,26 7,51 6,74l-289 0c0,17 2,33 6,48 5,16 12,29 22,41 10,11 22,21 38,28 15,7 33,10 54,10 27,0 49,-6 67,-19 17,-12 28,-31 33,-56l63 0c-8,43 -27,76 -56,98 -29,22 -65,32 -109,32zm104 -238c-1,-15 -4,-29 -10,-42 -6,-14 -14,-25 -23,-35 -10,-10 -21,-17 -35,-23 -13,-6 -27,-9 -43,-9 -17,0 -32,3 -45,9 -13,6 -24,13 -34,23 -9,10 -17,22 -22,35 -5,13 -9,27 -10,42l222 0zm133 -156l63 0 0 154 196 0 0 -154 63 0 0 386 -63 0 0 -178 -196 0 0 178 -63 0 0 -386zm418 0l63 0 0 315 182 -315 82 0 0 386 -64 0 0 -315 -182 315 -81 0 0 -386zm504 235c-27,-4 -50,-16 -67,-37 -18,-21 -26,-47 -26,-79 0,-36 10,-65 32,-87 22,-21 51,-32 89,-32l195 0 0 386 -63 0 0 -148 -85 0 -118 148 -84 0 127 -151zm160 -52l0 -127 -112 0c-27,0 -46,6 -58,17 -13,12 -18,27 -18,47 0,20 5,35 18,46 12,12 31,17 58,17l112 0z"/>
</symbol>
 <g id="Layer-70">
  <metadata id="CorelCorpID_0Corel-Layer"/>
  <g id="_2097292092032">
   <g>
    <g>
     <g>
      <path class="fil1" d="M91 794c2,0 4,-1 6,-1 48,-22 130,-32 243,-33l11 22c4,7 13,10 21,7 7,-4 10,-13 6,-21l-15 -30c-2,-5 -8,-8 -13,-8 -124,0 -211,11 -265,35 -8,3 -12,12 -8,20 2,5 8,9 14,9z"/>
      <path class="fil1" d="M881 821l-30 0 0 -76c0,-4 -2,-8 -4,-11l-92 -91c3,-6 5,-13 5,-20 0,-25 -21,-45 -46,-45 -25,0 -45,20 -45,45 0,25 20,46 45,46 7,0 14,-2 20,-5l87 87 0 70 -791 0c-16,0 -30,13 -30,30l0 46c0,8 7,15 15,15 9,0 15,-7 15,-15l0 -46 851 0 0 46c0,8 7,15 16,15 8,0 15,-7 15,-15l0 -46c0,-17 -14,-30 -31,-30zm-167 -183c-8,0 -15,-6 -15,-15 0,-8 7,-15 15,-15 9,0 16,7 16,15 0,9 -7,15 -16,15z"/>
      <path class="fil1" d="M217 455c11,28 48,121 74,161l3 4c19,30 52,79 162,79 110,0 143,-49 162,-79l3 -4c26,-40 63,-133 74,-161 20,-5 35,-23 35,-45l0 -60c0,-20 -13,-37 -31,-43l0 -79c0,-60 -31,-171 -148,-182 -1,-7 -3,-13 -6,-17 -15,-24 -56,-29 -89,-29 -270,0 -274,256 -274,258 0,9 7,16 16,16l0 0c8,0 15,-7 15,-16 0,-9 3,-228 243,-228 43,0 60,10 64,15 0,1 1,3 -2,9 -2,5 -2,10 1,15 3,4 8,7 13,7 135,0 137,146 137,152l0 91c0,9 7,15 15,15 8,0 15,7 15,16l0 60c0,9 -7,16 -15,16 -6,0 -12,3 -14,9 -1,2 -46,121 -75,164l-2 4c-18,28 -43,66 -137,66 -94,0 -119,-38 -137,-66l-2 -4c-29,-43 -74,-162 -75,-164 -2,-6 -8,-9 -14,-9 -8,0 -15,-7 -15,-16l0 -60c0,-5 1,-8 4,-11 6,12 17,24 36,25l52 39c4,30 29,53 60,53l30 0c34,0 61,-27 61,-61 0,34 27,61 61,61l30 0c31,0 56,-23 60,-53l56 -41c6,-5 8,-15 3,-22 -5,-6 -15,-8 -22,-3l-38 29c-6,-18 -23,-32 -44,-32l-60 0c-26,0 -46,21 -46,46 0,-25 -21,-46 -46,-46l-60 0c-21,0 -38,14 -44,32l-29 -21c12,-29 23,-72 26,-102 48,-1 187,-7 248,-45 14,54 59,99 61,102 6,5 16,5 22,0 6,-6 6,-16 0,-22 -1,-1 -56,-57 -56,-111 0,-7 -5,-13 -12,-14 -6,-2 -13,1 -17,6 -22,37 -165,54 -260,54 -9,0 -15,7 -15,15 0,25 -12,74 -24,104 -5,-3 -7,-8 -7,-13 0,-8 -7,-15 -15,-15 -25,0 -46,20 -46,46l0 60c0,22 15,40 35,45zm269 -75c0,-8 7,-15 16,-15l60 0c9,0 16,7 16,15l0 15c0,17 -14,31 -31,31l-30 0c-17,0 -31,-14 -31,-31l0 -15 0 0zm-152 0c0,-8 7,-15 16,-15l60 0c9,0 16,7 16,15l0 15c0,17 -14,31 -31,31l-30 0c-17,0 -31,-14 -31,-31l0 -15z"/>
      <path class="fil1" d="M532 547c0,-8 -7,-15 -15,-15 0,0 -28,0 -54,-14 -5,-2 -10,-2 -14,0 -26,14 -54,14 -54,14 -8,0 -15,7 -15,15 0,9 7,15 15,15 1,0 30,0 61,-13 31,13 59,13 61,13 8,0 15,-6 15,-15z"/>
      <path class="fil1" d="M562 730c-5,0 -11,3 -13,8l-15 30c-4,8 -1,17 6,21 2,1 5,1 7,1 6,0 11,-3 14,-8l11 -21c83,0 150,6 199,18 8,2 16,-3 18,-11 2,-8 -3,-16 -11,-18 -53,-14 -126,-20 -216,-20z"/>
      <path class="fil1" d="M441 745l0 30c0,9 7,15 15,15 8,0 15,-6 15,-15l0 -30c0,-9 -7,-15 -15,-15 -8,0 -15,6 -15,15z"/>
      <path class="fil1" d="M441 578c-9,0 -15,6 -15,15 0,8 6,15 15,15l30 0c9,0 15,-7 15,-15 0,-9 -6,-15 -15,-15l-30 0z"/>
     </g>
    </g>
   </g>
   <g>
   </g>
   <g>
   </g>
   <g>
   </g>
   <g>
   </g>
   <g>
   </g>
   <g>
   </g>
   <g>
   </g>
   <g>
   </g>
   <g>
   </g>
   <g>
   </g>
   <g>
   </g>
   <g>
   </g>
   <g>
   </g>
   <g>
   </g>
   <g>
   </g>
  </g>
 </g>
</svg>
