<svg xmlns="http://www.w3.org/2000/svg" xml:space="preserve" width="63px" height="63px" version="1.1" style="shape-rendering:geometricPrecision; text-rendering:geometricPrecision; image-rendering:optimizeQuality; fill-rule:evenodd; clip-rule:evenodd"
viewBox="0 0 1776 1776"
 xmlns:xlink="http://www.w3.org/1999/xlink">
 <defs>
  <style type="text/css">
   <![CDATA[
    .fil1 {fill:#399C3A}
    .fil0 {fill:#429A44;fill-rule:nonzero}
   ]]>
  </style>
 </defs>
<symbol id="Fm1-60-0" viewBox="48206 50950 16000 1531">
 <path class="fil0" d="M48206 50978l155 0 0 502 614 0 0 -502 156 0 0 1167 -156 0 0 -535 -614 0 0 535 -155 0 0 -1167zm1390 1185c-38,0 -74,-5 -107,-12 -34,-9 -64,-23 -90,-42 -25,-19 -46,-43 -60,-73 -15,-30 -22,-66 -22,-109 0,-47 8,-87 24,-117 17,-31 38,-56 65,-75 27,-19 57,-33 91,-43 35,-10 70,-18 106,-24 38,-8 74,-14 108,-18 35,-4 65,-9 91,-16 26,-7 47,-17 62,-31 15,-14 23,-34 23,-60 0,-30 -6,-55 -17,-73 -12,-19 -26,-33 -44,-43 -18,-10 -38,-16 -60,-19 -23,-3 -45,-5 -67,-5 -58,0 -108,11 -147,33 -39,23 -61,65 -64,127l-138 0c2,-52 13,-96 33,-133 19,-35 45,-64 78,-87 32,-22 69,-39 111,-48 43,-10 88,-15 135,-15 39,0 77,3 114,8 38,6 71,17 102,34 31,17 55,40 74,71 18,31 27,70 27,119l0 435c0,33 2,56 6,72 4,15 17,23 38,23 10,0 25,-3 43,-9l0 108c-24,15 -57,22 -100,22 -36,0 -64,-11 -86,-31 -21,-20 -32,-53 -32,-99 -38,46 -82,79 -133,99 -50,20 -105,31 -164,31zm31 -121c46,0 85,-7 118,-19 33,-13 59,-28 80,-47 21,-19 36,-40 46,-63 9,-22 15,-43 15,-62l0 -143c-18,15 -41,24 -69,30 -28,5 -58,10 -89,14 -31,4 -62,9 -94,13 -32,5 -60,13 -85,23 -25,11 -46,27 -61,47 -16,20 -24,48 -24,83 0,22 5,42 14,58 9,15 21,28 36,38 14,10 32,17 52,21 19,4 39,7 61,7zm613 -742l139 0 0 689 398 -689 178 0 0 845 -139 0 0 -690 -398 690 -178 0 0 -845zm357 -124c-32,0 -63,-5 -91,-15 -28,-10 -53,-24 -74,-42 -21,-19 -38,-41 -51,-68 -12,-27 -19,-58 -19,-92l116 0c3,80 42,120 118,120 38,0 67,-10 87,-32 20,-21 31,-50 31,-88l115 0c0,32 -6,62 -17,89 -12,28 -29,50 -49,69 -21,18 -46,33 -74,43 -28,11 -59,16 -92,16zm772 247l-303 0 0 -123 744 0 0 123 -302 0 0 722 -139 0 0 -722zm552 -123l139 0 0 689 398 -689 178 0 0 845 -139 0 0 -690 -398 690 -178 0 0 -845zm1379 0l139 0 0 403 387 -403 184 0 -373 366 418 479 -178 0 -353 -402 -85 83 0 319 -139 0 0 -845zm946 1181c-16,0 -33,-1 -49,-3 -16,-2 -32,-6 -47,-12l0 -127c13,4 26,9 40,13 13,4 27,7 41,7 29,0 52,-7 69,-20 18,-13 33,-32 46,-57l57 -143 -335 -839 157 0 247 691 3 0 237 -691 147 0 -368 956c-16,41 -32,76 -48,104 -16,29 -33,52 -52,70 -19,18 -41,31 -64,39 -23,8 -50,12 -81,12zm735 -1181l139 0 0 114 3 0c23,-47 59,-81 108,-102 49,-21 103,-32 162,-32 65,0 122,12 171,36 48,24 89,57 121,97 32,42 56,88 72,142 17,53 25,110 25,170 0,61 -8,118 -24,170 -15,53 -40,100 -72,139 -31,40 -72,72 -120,94 -49,23 -106,35 -170,35 -22,0 -45,-3 -70,-7 -25,-4 -50,-11 -75,-21 -25,-10 -49,-23 -71,-40 -22,-17 -41,-38 -57,-63l-3 0 0 434 -139 0 0 -1166zm401 742c47,0 86,-9 119,-28 33,-19 59,-43 78,-74 20,-30 34,-65 43,-104 8,-40 13,-80 13,-121 0,-40 -5,-78 -16,-116 -10,-37 -26,-70 -47,-100 -21,-29 -49,-53 -81,-70 -34,-18 -73,-26 -118,-26 -46,0 -86,9 -119,27 -32,19 -59,43 -80,73 -21,30 -35,64 -45,102 -9,38 -14,77 -14,116 0,42 6,82 15,120 10,39 25,73 47,103 21,29 48,52 82,70 34,19 75,28 123,28zm913 121c-64,0 -121,-11 -170,-31 -50,-21 -92,-50 -125,-89 -33,-38 -58,-83 -75,-136 -17,-52 -25,-110 -25,-174 0,-64 8,-122 24,-177 16,-56 41,-103 75,-145 32,-40 74,-72 124,-96 49,-23 108,-35 175,-35 48,0 93,6 135,18 42,11 79,29 111,52 32,24 59,55 79,91 21,37 34,80 39,130l-143 0c-11,-53 -34,-95 -69,-124 -35,-30 -82,-44 -141,-44 -50,0 -91,9 -125,27 -34,19 -61,44 -81,74 -20,31 -34,66 -43,105 -9,40 -13,81 -13,124 0,39 4,77 14,114 8,37 23,70 43,99 19,29 45,52 76,69 31,18 69,27 113,27 69,0 122,-18 161,-54 39,-36 62,-87 71,-152l142 0c-15,105 -53,186 -115,242 -62,56 -148,85 -257,85zm1346 0c-67,0 -127,-11 -177,-34 -51,-22 -94,-53 -128,-93 -35,-40 -62,-86 -79,-140 -17,-53 -26,-111 -26,-173 0,-62 9,-120 26,-174 17,-54 44,-101 79,-141 34,-39 77,-71 128,-93 50,-23 110,-35 177,-35 67,0 125,12 177,35 51,22 94,54 128,93 35,40 62,87 79,141 17,54 26,112 26,174 0,62 -9,120 -26,173 -17,54 -44,100 -79,140 -34,40 -77,71 -128,93 -52,23 -110,34 -177,34zm0 -121c36,0 70,-7 102,-22 32,-14 60,-34 84,-61 24,-27 43,-60 56,-100 14,-39 21,-84 21,-136 0,-51 -7,-97 -21,-136 -13,-40 -32,-74 -56,-101 -24,-27 -52,-48 -84,-62 -32,-14 -66,-21 -102,-21 -36,0 -70,7 -102,21 -32,14 -60,35 -84,62 -24,27 -43,61 -56,101 -14,39 -21,85 -21,136 0,52 7,97 21,136 13,40 32,73 56,100 24,27 52,47 84,61 32,15 66,22 102,22zm951 121c-109,0 -197,-28 -264,-84 -67,-55 -109,-141 -126,-258 -7,-46 -11,-97 -11,-153 0,-41 2,-83 5,-126 2,-44 7,-87 14,-130 7,-42 18,-82 30,-122 13,-39 29,-74 50,-106 37,-58 82,-100 135,-128 54,-28 121,-45 201,-50 54,-4 99,-9 134,-15 36,-5 56,-19 61,-41l138 0c-2,43 -11,76 -27,98 -16,23 -39,40 -69,52 -29,11 -65,19 -107,22 -43,5 -93,9 -150,13 -46,3 -87,14 -122,32 -35,19 -64,43 -89,75 -24,31 -44,67 -60,109 -15,42 -26,88 -32,138l5 0c23,-55 61,-101 112,-137 50,-35 111,-54 183,-54 119,0 213,38 281,111 69,74 103,181 103,321 0,70 -9,133 -28,186 -19,54 -46,99 -81,136 -35,37 -77,64 -125,83 -49,18 -102,28 -161,28zm1 -118c33,0 65,-7 95,-20 31,-14 58,-34 80,-60 23,-27 42,-59 56,-97 14,-39 21,-84 21,-135 0,-99 -22,-177 -68,-234 -46,-56 -109,-85 -187,-85 -78,0 -141,29 -187,86 -46,57 -69,135 -69,235 0,96 23,171 69,227 45,55 109,83 190,83zm644 436c-16,0 -33,-1 -49,-3 -16,-2 -32,-6 -47,-12l0 -127c13,4 26,9 40,13 13,4 27,7 41,7 29,0 52,-7 69,-20 17,-13 33,-32 46,-57l57 -143 -335 -839 157 0 247 691 3 0 237 -691 147 0 -368 956c-16,41 -32,76 -48,104 -16,29 -33,52 -52,70 -19,18 -41,31 -64,39 -23,8 -50,12 -81,12zm1237 -680c-25,11 -60,22 -105,31 -44,10 -91,15 -140,15 -105,0 -179,-22 -224,-68 -45,-45 -67,-108 -67,-190l0 -289 139 0 0 266c0,56 13,97 38,123 26,27 72,41 140,41 41,0 83,-5 123,-14 40,-9 72,-18 96,-29l0 -387 139 0 0 845 -139 0 0 -344zm707 362c-67,0 -127,-11 -177,-33 -51,-22 -93,-52 -126,-91 -34,-40 -60,-87 -76,-141 -18,-54 -26,-114 -26,-178 0,-64 10,-122 30,-176 19,-54 47,-100 82,-139 35,-40 77,-70 126,-92 48,-22 101,-33 159,-33 75,0 138,16 188,47 49,31 88,71 119,118 30,48 50,100 62,157 11,57 16,110 14,162l-633 0c-1,37 4,72 13,105 10,33 26,63 48,88 21,26 49,46 83,62 34,15 73,23 119,23 59,0 107,-14 145,-41 37,-28 62,-69 74,-125l138 0c-19,96 -60,168 -123,215 -64,48 -143,72 -239,72zm227 -522c-2,-32 -9,-63 -22,-93 -12,-29 -29,-55 -50,-76 -22,-21 -47,-38 -75,-50 -29,-13 -61,-19 -96,-19 -36,0 -68,6 -97,19 -29,12 -54,29 -75,51 -21,22 -37,47 -48,76 -12,29 -19,60 -22,92l485 0zm291 -341l139 0 0 337 428 0 0 -337 139 0 0 845 -139 0 0 -389 -428 0 0 389 -139 0 0 -845zm915 0l139 0 0 689 398 -689 179 0 0 845 -139 0 0 -690 -399 690 -178 0 0 -845zm1103 514c-60,-8 -109,-35 -147,-81 -38,-46 -57,-103 -57,-173 0,-80 23,-143 71,-190 47,-47 112,-70 194,-70l427 0 0 845 -138 0 0 -326 -185 0 -258 326 -185 0 278 -331zm350 -114l0 -277 -245 0c-59,0 -101,12 -128,37 -26,25 -39,59 -39,102 0,43 13,77 39,101 27,25 69,37 128,37l245 0z"/>
</symbol>
 <g id="Layer-76">
  <metadata id="CorelCorpID_0Corel-Layer"/>
  <g id="_2097292077088">
   <g>
    <g>
     <path class="fil1" d="M1687 887l-80 -10c-25,-60 -60,-115 -104,-163l60 -251c2,-10 0,-21 -7,-30 -7,-8 -17,-13 -27,-13l-8 0c0,0 0,0 0,0 -98,0 -187,62 -222,153 -24,-10 -50,-18 -76,-24 -18,-5 -37,7 -41,26 -5,18 7,37 26,41 88,21 167,66 229,128 2,3 5,6 8,9 45,47 81,104 104,168 5,12 16,21 29,22l101 13c15,2 27,16 27,32l0 174c0,16 -12,30 -27,32l-94 12c-13,1 -25,11 -29,24 -28,88 -80,167 -153,227 -8,6 -12,16 -12,26l0 192c0,17 -14,31 -31,31l-202 0c-17,0 -31,-14 -31,-31l0 -73c0,-19 -15,-35 -34,-35l-292 0c-19,0 -35,16 -35,35l0 73c0,17 -14,31 -31,31l-201 0c-17,0 -31,-14 -31,-31l0 -135c0,-13 -7,-25 -18,-31 -156,-84 -253,-247 -253,-424 0,-265 217,-482 482,-482l44 0c19,0 35,-15 35,-34 0,-19 -16,-35 -35,-35l-44 0c-257,0 -474,178 -534,416l-26 0c-47,0 -85,-38 -85,-84 0,-47 38,-85 85,-85 20,0 35,-16 35,-35 0,-19 -15,-35 -35,-35 -85,0 -154,69 -154,155 0,85 69,154 154,154l13 0c-3,21 -4,43 -4,65 0,196 103,376 271,475l0 115c0,56 45,101 100,101l201 0c56,0 101,-45 101,-101l0 -38 222 0 0 38c0,56 45,101 100,101l202 0c55,0 100,-45 100,-101l0 -176c71,-61 124,-140 155,-227l72 -9c51,-7 89,-50 89,-101l0 -174c0,-51 -38,-94 -89,-101zm-242 -228c-26,-21 -54,-40 -83,-56 20,-55 66,-96 122,-109l-39 165z"/>
    </g>
   </g>
   <g>
    <g>
     <path class="fil1" d="M1381 881c-7,-7 -16,-10 -25,-10 -9,0 -18,3 -24,10 -7,6 -11,15 -11,24 0,9 4,18 11,25 6,6 15,10 24,10 9,0 18,-4 25,-10 6,-7 10,-16 10,-25 0,-9 -4,-18 -10,-24z"/>
    </g>
   </g>
   <g>
    <g>
     <path class="fil1" d="M1017 202c-19,0 -35,16 -35,35l0 138c0,19 16,34 35,34 19,0 35,-15 35,-34l0 -138c0,-19 -16,-35 -35,-35z"/>
    </g>
   </g>
   <g>
    <g>
     <path class="fil1" d="M1042 87c-7,-7 -16,-11 -25,-11 -9,0 -18,4 -24,11 -7,6 -11,15 -11,24 0,9 4,18 11,25 6,6 15,10 24,10 9,0 18,-4 25,-10 6,-7 10,-16 10,-25 0,-9 -4,-18 -10,-24z"/>
    </g>
   </g>
   <g>
    <g>
     <path class="fil1" d="M735 0c-19,0 -34,16 -34,35l0 59c0,19 15,34 34,34 19,0 35,-15 35,-34l0 -59c0,-19 -16,-35 -35,-35z"/>
    </g>
   </g>
   <g>
    <g>
     <path class="fil1" d="M395 1085c0,-19 -15,-34 -34,-34 -20,0 -35,15 -35,34l0 2c0,19 15,35 35,35 0,0 0,0 0,0 19,0 34,-16 34,-35l0 -2z"/>
    </g>
   </g>
   <g>
    <g>
     <path class="fil1" d="M549 1358c-61,-36 -108,-93 -133,-158 -7,-18 -27,-27 -45,-20 -17,7 -26,27 -20,44 31,80 88,149 162,194 5,3 12,5 18,5 11,0 23,-6 29,-17 10,-16 5,-38 -11,-48z"/>
    </g>
   </g>
   <g>
    <g>
     <path class="fil1" d="M735 167c-80,0 -145,65 -145,145 0,81 65,146 145,146 81,0 146,-65 146,-146 0,-80 -65,-145 -146,-145zm0 222c-42,0 -76,-35 -76,-77 0,-42 34,-76 76,-76 42,0 77,34 77,76 0,42 -35,77 -77,77z"/>
    </g>
   </g>
   <g>
    <g>
     <path class="fil1" d="M1172 735l-31 0c14,-22 22,-48 22,-76 0,-80 -66,-146 -146,-146 -80,0 -146,66 -146,146 0,28 8,54 22,76l-172 0c-19,0 -34,16 -34,35 0,19 15,35 34,35l451 0c19,0 35,-16 35,-35 0,-19 -16,-35 -35,-35zm-155 0c-42,0 -76,-34 -76,-76 0,-42 34,-76 76,-76 42,0 76,34 76,76 0,42 -34,76 -76,76z"/>
    </g>
   </g>
   <g>
   </g>
   <g>
   </g>
   <g>
   </g>
   <g>
   </g>
   <g>
   </g>
   <g>
   </g>
   <g>
   </g>
   <g>
   </g>
   <g>
   </g>
   <g>
   </g>
   <g>
   </g>
   <g>
   </g>
   <g>
   </g>
   <g>
   </g>
   <g>
   </g>
  </g>
 </g>
</svg>
