<svg xmlns="http://www.w3.org/2000/svg" xml:space="preserve" width="265px" height="34px" version="1.1" style="shape-rendering:geometricPrecision; text-rendering:geometricPrecision; image-rendering:optimizeQuality; fill-rule:evenodd; clip-rule:evenodd"
viewBox="0 0 9024 1158"
 xmlns:xlink="http://www.w3.org/1999/xlink">
 <defs>
  <style type="text/css">
   <![CDATA[
    .fil1 {fill:#49984c;fill-rule:nonzero}
    .fil0 {fill:#429A44;fill-rule:nonzero}
   ]]>
  </style>
 </defs>
<symbol id="Fm1-60-0" viewBox="68056 -128298 19462 1862">
 <path class="fil0" d="M68056 -128264l189 0 0 610 747 0 0 -610 189 0 0 1419 -189 0 0 -650 -747 0 0 650 -189 0 0 -1419zm1691 1441c-46,0 -89,-5 -130,-15 -41,-10 -78,-27 -109,-50 -31,-23 -56,-53 -73,-89 -18,-37 -27,-81 -27,-132 0,-58 10,-106 30,-143 19,-37 46,-68 78,-91 32,-23 70,-41 111,-52 42,-12 85,-22 128,-30 47,-10 91,-17 133,-22 41,-4 78,-11 110,-19 32,-9 57,-21 76,-38 18,-16 27,-41 27,-72 0,-37 -7,-67 -21,-90 -14,-22 -31,-40 -53,-52 -22,-11 -46,-19 -73,-23 -28,-4 -55,-6 -81,-6 -72,0 -131,13 -179,40 -48,28 -74,79 -78,154l-168 0c2,-63 15,-117 40,-161 23,-43 55,-79 95,-106 39,-27 84,-47 136,-59 51,-12 106,-17 164,-17 46,0 92,3 138,9 46,7 87,21 124,41 37,21 67,50 90,87 22,37 33,85 33,145l0 528c0,40 3,69 7,88 5,18 20,28 47,28 12,0 29,-3 52,-10l0 131c-30,18 -70,26 -122,26 -43,0 -78,-12 -104,-37 -26,-24 -39,-64 -39,-120 -46,56 -100,96 -162,120 -61,25 -128,37 -200,37zm38 -147c56,0 103,-8 143,-23 40,-15 72,-35 98,-58 25,-23 44,-48 55,-76 12,-27 18,-52 18,-76l0 -173c-21,18 -49,30 -83,36 -34,7 -70,13 -108,18 -38,5 -76,11 -114,16 -39,5 -74,15 -104,28 -31,13 -55,32 -74,56 -20,25 -29,59 -29,101 0,28 5,51 17,70 10,20 25,35 43,47 18,12 39,21 63,26 24,5 49,8 75,8zm745 -903l169 0 0 839 485 -839 217 0 0 1028 -169 0 0 -839 -485 839 -217 0 0 -1028zm435 -150c-39,0 -76,-7 -111,-19 -34,-11 -64,-28 -90,-51 -26,-22 -47,-50 -62,-83 -15,-32 -23,-69 -23,-112l141 0c3,98 51,147 144,147 46,0 81,-13 106,-39 24,-25 37,-62 37,-108l141 0c0,40 -8,76 -22,110 -15,33 -34,60 -60,83 -25,22 -55,40 -89,52 -35,13 -72,20 -112,20zm939 300l-368 0 0 -150 904 0 0 150 -367 0 0 878 -169 0 0 -878zm671 -150l169 0 0 839 485 -839 217 0 0 1028 -169 0 0 -839 -485 839 -217 0 0 -1028zm1678 0l169 0 0 491 471 -491 224 0 -455 446 509 582 -217 0 -429 -489 -103 101 0 388 -169 0 0 -1028zm1151 1438c-20,0 -40,-2 -60,-4 -20,-3 -39,-8 -57,-14l0 -155c15,5 32,10 48,15 16,5 33,8 51,8 34,0 62,-8 84,-23 21,-17 39,-40 55,-70l69 -173 -407 -1022 191 0 300 841 4 0 288 -841 179 0 -447 1163c-20,50 -40,93 -59,128 -19,34 -40,62 -63,84 -24,22 -49,38 -78,48 -28,9 -61,15 -98,15zm894 -1438l169 0 0 140 4 0c27,-57 71,-99 131,-125 60,-25 125,-38 197,-38 79,0 148,14 207,43 60,29 109,69 148,118 38,51 68,108 88,172 20,65 30,134 30,207 0,74 -10,144 -29,208 -19,64 -48,120 -87,169 -39,48 -88,87 -147,114 -59,28 -128,42 -206,42 -27,0 -55,-3 -86,-8 -30,-5 -60,-14 -91,-26 -31,-12 -59,-28 -87,-49 -27,-20 -50,-45 -68,-76l-4 0 0 529 -169 0 0 -1420zm487 903c57,0 105,-11 145,-34 40,-22 71,-52 96,-89 23,-38 40,-80 51,-128 11,-48 16,-97 16,-147 0,-48 -7,-94 -19,-140 -13,-46 -32,-86 -57,-122 -26,-36 -60,-65 -100,-86 -40,-21 -87,-31 -142,-31 -57,0 -105,11 -145,33 -40,23 -72,52 -97,89 -26,36 -44,78 -55,124 -11,46 -17,93 -17,141 0,50 6,99 18,146 12,47 31,89 57,125 25,35 59,64 100,86 41,22 91,33 149,33zm1111 147c-78,0 -147,-12 -207,-38 -61,-25 -111,-61 -152,-107 -40,-47 -71,-102 -91,-165 -21,-64 -31,-135 -31,-213 0,-77 10,-149 30,-216 19,-67 50,-125 90,-175 40,-49 91,-88 151,-117 61,-28 132,-42 214,-42 58,0 113,7 164,21 51,14 96,35 135,64 39,29 71,66 96,110 26,45 42,97 48,159l-175 0c-13,-65 -41,-116 -83,-152 -43,-35 -100,-53 -172,-53 -60,0 -111,11 -152,33 -41,23 -75,53 -99,90 -24,37 -41,80 -52,128 -11,48 -16,98 -16,150 0,48 6,94 17,139 11,45 28,85 52,120 24,36 55,64 93,85 37,21 84,32 138,32 83,0 148,-22 196,-66 47,-43 75,-105 86,-185l173 0c-19,129 -65,227 -141,295 -75,69 -180,103 -312,103zm1637 0c-82,0 -154,-14 -215,-41 -62,-27 -114,-65 -156,-113 -42,-48 -75,-105 -95,-170 -22,-65 -33,-135 -33,-211 0,-75 11,-146 33,-211 20,-66 53,-123 95,-172 42,-48 94,-86 156,-113 61,-28 133,-42 215,-42 81,0 153,14 215,42 62,27 115,65 157,113 42,49 74,106 96,172 20,65 31,136 31,211 0,76 -11,146 -31,211 -22,65 -54,122 -96,170 -42,48 -95,86 -157,113 -62,27 -134,41 -215,41zm0 -147c44,0 86,-9 125,-26 38,-17 73,-42 102,-75 29,-32 52,-73 68,-121 17,-48 25,-103 25,-166 0,-62 -8,-117 -25,-166 -16,-48 -39,-89 -68,-122 -29,-33 -64,-58 -102,-76 -39,-17 -81,-25 -125,-25 -43,0 -85,8 -124,25 -39,18 -73,43 -102,76 -29,33 -52,74 -69,122 -16,49 -24,104 -24,166 0,63 8,118 24,166 17,48 40,89 69,121 29,33 63,58 102,75 39,17 81,26 124,26zm1157 147c-132,0 -239,-34 -321,-101 -82,-68 -133,-173 -154,-315 -8,-56 -12,-118 -12,-186 0,-49 2,-101 5,-153 3,-53 9,-106 18,-158 8,-51 21,-100 36,-148 15,-48 35,-91 60,-129 45,-71 101,-123 165,-156 65,-34 147,-54 245,-61 65,-5 119,-12 163,-18 43,-6 68,-23 73,-50l169 0c-3,52 -14,92 -33,120 -20,27 -48,48 -84,62 -36,14 -80,23 -131,28 -52,5 -112,10 -181,15 -57,4 -107,17 -149,39 -42,23 -78,53 -108,90 -30,38 -54,83 -73,134 -19,51 -32,107 -40,168l6 0c29,-68 75,-123 137,-167 61,-43 135,-65 223,-65 144,0 258,45 342,134 83,91 125,221 125,390 0,86 -12,162 -35,227 -23,66 -56,121 -98,165 -43,45 -93,79 -152,101 -60,23 -124,34 -196,34zm2 -143c40,0 78,-9 115,-25 37,-16 70,-40 98,-73 27,-32 50,-71 67,-118 18,-47 26,-101 26,-164 0,-120 -27,-215 -83,-284 -56,-69 -132,-103 -227,-103 -95,0 -171,35 -228,104 -56,69 -84,164 -84,285 0,117 28,209 84,276 55,68 133,102 232,102zm783 531c-20,0 -40,-2 -60,-4 -20,-3 -39,-8 -57,-14l0 -155c15,5 32,10 48,15 16,5 33,8 51,8 34,0 62,-8 84,-23 21,-17 39,-40 55,-70l69 -173 -407 -1022 191 0 300 841 4 0 288 -841 179 0 -447 1163c-20,50 -40,93 -59,128 -19,34 -40,62 -63,84 -23,22 -49,38 -78,48 -28,9 -61,15 -98,15zm1504 -827c-30,13 -73,25 -127,37 -54,12 -111,18 -171,18 -127,0 -217,-27 -272,-82 -55,-55 -82,-132 -82,-231l0 -353 169 0 0 324c0,68 16,118 47,150 31,33 88,49 170,49 50,0 100,-5 149,-16 49,-11 88,-23 117,-36l0 -471 169 0 0 1028 -169 0 0 -417zm861 439c-83,0 -155,-14 -216,-40 -61,-27 -113,-63 -154,-111 -41,-48 -72,-105 -92,-171 -21,-66 -31,-138 -31,-217 0,-77 12,-148 36,-214 24,-65 57,-121 100,-169 43,-48 94,-85 153,-112 59,-26 123,-39 194,-39 91,0 167,18 228,56 60,38 108,86 145,144 36,58 61,122 75,191 14,69 20,134 17,197l-769 0c-2,45 4,88 16,128 12,40 31,76 57,107 27,31 60,56 102,75 41,18 89,28 144,28 72,0 131,-17 177,-50 45,-33 75,-84 90,-151l167 0c-22,116 -72,204 -149,261 -77,58 -174,87 -290,87zm276 -634c-3,-40 -12,-78 -27,-114 -15,-35 -36,-66 -62,-92 -26,-25 -56,-46 -91,-61 -35,-16 -74,-23 -116,-23 -44,0 -83,7 -118,23 -36,15 -66,36 -91,62 -25,27 -45,58 -59,93 -15,35 -23,72 -26,112l590 0zm354 -416l169 0 0 410 520 0 0 -410 169 0 0 1028 -169 0 0 -473 -520 0 0 473 -169 0 0 -1028zm1113 0l169 0 0 839 484 -839 217 0 0 1028 -169 0 0 -839 -485 839 -216 0 0 -1028zm1341 626c-73,-10 -132,-43 -179,-99 -46,-56 -69,-125 -69,-210 0,-97 28,-174 86,-231 58,-57 136,-86 236,-86l520 0 0 1028 -169 0 0 -395 -224 0 -314 395 -224 0 337 -402zm425 -139l0 -337 -298 0c-71,0 -123,15 -155,45 -32,31 -47,72 -47,124 0,53 15,94 47,124 32,30 84,44 155,44l298 0z"/>
</symbol>
 <g id="Слой_x0020_1">
  <metadata id="CorelCorpID_0Corel-Layer"/>
  <path class="fil1" d="M330 103l0 408 -72 0 0 -183 -186 0 0 183 -72 0 0 -408 72 0 0 162 186 0 0 -162 72 0zm261 -10c57,0 104,20 140,60 37,39 55,91 55,154 0,64 -19,115 -55,155 -36,39 -83,59 -141,59 -59,0 -106,-20 -142,-59 -36,-39 -54,-91 -54,-155 0,-62 17,-113 53,-153 35,-40 83,-61 144,-61zm-1 61c-38,0 -68,13 -90,41 -23,28 -34,65 -34,111 0,47 11,85 33,113 23,28 53,42 92,42 37,0 66,-14 89,-42 22,-29 33,-66 33,-112 0,-47 -11,-84 -33,-112 -23,-28 -53,-41 -90,-41zm260 -51l186 0c43,0 75,9 98,28 23,18 34,43 34,75 0,19 -5,37 -16,52 -10,16 -25,27 -42,34 24,5 42,17 56,34 14,17 21,39 21,65 0,36 -12,65 -36,87 -24,22 -55,33 -93,33l-208 0 0 -408zm70 58l0 112 97 0c28,0 48,-4 61,-13 13,-8 19,-23 19,-43 0,-23 -7,-38 -20,-45 -14,-7 -33,-11 -58,-11l-99 0zm0 164l0 128 107 0c27,0 49,-5 65,-14 15,-9 23,-26 23,-50 0,-13 -2,-24 -7,-33 -5,-9 -12,-16 -21,-20 -9,-4 -18,-7 -28,-9 -9,-1 -20,-2 -33,-2l-106 0zm642 59c0,41 -12,72 -36,94 -24,22 -58,33 -103,33l-169 0 0 -408 72 0 0 156 97 0c45,0 79,11 103,33 24,21 36,52 36,92zm-71 2c0,-21 -6,-38 -19,-50 -13,-12 -30,-19 -53,-19l-93 0 0 136 94 0c47,0 71,-22 71,-67zm120 -283l71 0 0 408 -71 0 0 -408zm414 -103c-3,27 -12,48 -28,61 -15,13 -37,20 -66,20 -29,0 -51,-7 -67,-20 -15,-13 -24,-34 -27,-61l33 0c7,29 28,44 61,44 33,0 53,-15 61,-44l33 0zm-259 511l0 -408 72 0 0 313 175 -313 83 0 0 408 -72 0 0 -313 -175 313 -83 0zm908 -127c0,41 -13,72 -37,94 -24,22 -58,33 -103,33l-193 0 0 -408 300 0 0 62 -229 0 0 94 122 0c45,0 79,11 103,33 25,21 37,52 37,92zm-72 2c0,-21 -6,-38 -19,-50 -13,-12 -30,-19 -53,-19l-118 0 0 136 119 0c47,0 71,-22 71,-67zm140 125l0 -408 72 0 0 313 175 -313 83 0 0 408 -71 0 0 -313 -176 313 -83 0zm718 -118c0,14 -3,28 -8,42 -6,14 -15,27 -26,40 -12,13 -28,24 -49,33 -21,8 -45,12 -73,12 -51,0 -92,-12 -124,-36 -32,-25 -47,-61 -47,-108l70 0c0,30 10,52 29,66 20,14 45,22 76,22 26,0 46,-7 60,-19 14,-12 21,-30 21,-53 0,-21 -7,-38 -21,-49 -13,-11 -32,-16 -56,-16l-49 0 0 -56 49 0c19,0 35,-6 47,-18 13,-12 19,-27 19,-46 0,-18 -7,-32 -19,-42 -13,-10 -31,-15 -53,-15 -55,0 -85,24 -89,72l-68 0c1,-44 16,-76 44,-97 28,-21 64,-32 108,-32 43,0 78,10 106,28 27,19 41,46 41,83 0,21 -6,39 -20,56 -13,17 -28,27 -45,32l0 1c23,5 41,16 56,34 14,19 21,40 21,66zm397 -290l0 408 -71 0 0 -183 -187 0 0 183 -72 0 0 -408 72 0 0 162 187 0 0 -162 71 0zm379 0l0 60 -223 0 0 109 206 0 0 57 -206 0 0 121 226 0 0 61 -297 0 0 -408 294 0zm417 253c-4,50 -22,90 -54,120 -32,30 -73,45 -124,45 -58,0 -104,-20 -139,-59 -34,-39 -52,-90 -52,-155 0,-39 8,-74 23,-106 14,-32 37,-58 67,-78 29,-19 64,-29 104,-29 44,0 81,12 113,36 32,24 52,58 58,103l-71 0c-5,-24 -16,-43 -34,-57 -18,-14 -40,-21 -67,-21 -27,0 -50,7 -69,23 -19,15 -32,34 -40,56 -8,22 -12,47 -12,73 0,20 3,39 7,56 5,18 12,34 21,49 9,14 22,26 37,35 16,9 35,13 56,13 60,0 95,-35 104,-104l72 0zm318 41l-141 -294 79 0 99 219 101 -219 77 0 -159 325c-16,34 -34,58 -52,72 -19,14 -40,21 -64,21 -17,0 -33,-4 -48,-10l0 -61c11,7 26,11 46,11 12,0 22,-5 31,-15 8,-9 18,-25 31,-48l0 -1zm584 -294l0 408 -71 0 0 -183 -187 0 0 183 -72 0 0 -408 72 0 0 162 187 0 0 -162 71 0zm84 408l0 -408 71 0 0 313 176 -313 83 0 0 408 -72 0 0 -313 -175 313 -83 0zm414 -408l186 0c43,0 76,9 99,28 22,18 34,43 34,75 0,19 -6,37 -16,52 -11,16 -25,27 -43,34 24,5 43,17 56,34 14,17 21,39 21,65 0,36 -12,65 -36,87 -24,22 -55,33 -93,33l-208 0 0 -408zm70 58l0 112 97 0c28,0 48,-4 61,-13 13,-8 20,-23 20,-43 0,-23 -7,-38 -21,-45 -13,-7 -33,-11 -57,-11l-100 0zm0 164l0 128 107 0c28,0 49,-5 65,-14 15,-9 23,-26 23,-50 0,-13 -2,-24 -7,-33 -5,-9 -12,-16 -20,-20 -9,-4 -19,-7 -28,-9 -10,-1 -21,-2 -34,-2l-106 0zm627 -222l0 60 -223 0 0 109 207 0 0 57 -207 0 0 121 227 0 0 61 -298 0 0 -408 294 0zm69 0l177 0c44,0 79,11 104,31 26,21 38,52 38,93 0,39 -12,70 -35,93 -24,23 -56,34 -97,34l-115 0 0 157 -72 0 0 -408zm72 60l0 133 99 0c52,0 78,-22 78,-67 0,-44 -28,-66 -84,-66l-93 0zm659 193c-4,50 -22,90 -54,120 -32,30 -73,45 -124,45 -58,0 -104,-20 -139,-59 -34,-39 -52,-90 -52,-155 0,-39 8,-74 23,-106 14,-32 37,-58 67,-78 29,-19 64,-29 104,-29 44,0 81,12 113,36 32,24 52,58 58,103l-71 0c-5,-24 -16,-43 -34,-57 -18,-14 -40,-21 -67,-21 -27,0 -50,7 -69,23 -19,15 -32,34 -40,56 -8,22 -12,47 -12,73 0,20 3,39 7,56 5,18 12,34 21,49 9,14 22,26 37,35 16,9 35,13 56,13 60,0 95,-35 104,-104l72 0zm63 155l0 -408 71 0 0 313 176 -313 83 0 0 408 -72 0 0 -313 -175 313 -83 0zm707 -408l0 62 -130 0 0 346 -71 0 0 -346 -130 0 0 -62 331 0zm341 0l0 60 -223 0 0 109 207 0 0 57 -207 0 0 121 226 0 0 61 -297 0 0 -408 294 0zm360 0l0 62 -130 0 0 346 -72 0 0 -346 -130 0 0 -62 332 0zm-9020 638l59 0 216 331 0 -331 52 0 0 408 -61 0 -214 -327 0 327 -52 0 0 -408zm741 0l0 47 -228 0 0 128 213 0 0 45 -213 0 0 141 231 0 0 47 -285 0 0 -408 282 0zm73 0l56 0 81 341 92 -341 59 0 91 341 84 -341 54 0 -109 408 -57 0 -94 -342 -95 342 -57 0 -105 -408zm1009 0l174 0c38,0 69,8 94,24 24,17 36,43 36,78 0,20 -5,38 -16,54 -11,16 -25,27 -44,34 26,5 45,17 59,35 13,18 20,41 20,68 0,76 -52,115 -155,115l-168 0 0 -408zm53 46l0 129 97 0c11,0 20,-1 28,-1 8,-1 17,-2 27,-5 10,-2 18,-5 24,-10 6,-4 11,-10 15,-19 4,-8 7,-18 7,-30 0,-12 -2,-22 -6,-30 -4,-8 -8,-15 -14,-19 -5,-4 -13,-8 -22,-10 -9,-2 -18,-4 -25,-4 -8,-1 -17,-1 -29,-1l-102 0zm0 171l0 146 108 0c13,0 24,-1 32,-1 9,-1 18,-2 29,-5 10,-3 19,-7 25,-12 6,-5 11,-13 15,-22 4,-10 6,-22 6,-35 0,-12 -1,-22 -4,-30 -3,-9 -8,-15 -14,-20 -7,-5 -13,-9 -19,-12 -6,-3 -15,-6 -26,-7 -11,-1 -19,-1 -25,-2 -7,0 -16,0 -29,0l-98 0zm380 -217l54 0 0 257c0,40 9,69 26,87 17,19 45,28 84,28 40,0 68,-10 85,-28 17,-19 25,-48 25,-87l0 -257 55 0 0 243c0,59 -13,103 -38,131 -25,28 -67,42 -127,42 -58,0 -100,-13 -126,-41 -26,-27 -38,-69 -38,-126l0 -249zm748 120l-52 0c-6,-56 -40,-83 -102,-83 -29,0 -52,5 -68,17 -16,12 -24,29 -24,50 0,8 1,14 3,20 3,6 7,11 12,15 6,5 11,8 16,12 5,3 13,6 23,9 11,3 20,5 26,6 7,2 17,4 30,7 17,3 31,6 42,9 11,3 25,8 40,14 15,7 27,14 36,22 9,8 17,18 24,31 6,13 10,28 10,44 0,29 -8,53 -24,72 -16,19 -36,33 -59,41 -23,7 -48,11 -76,11 -51,0 -92,-12 -123,-36 -31,-25 -46,-60 -46,-108l52 0c1,35 13,60 35,76 22,16 51,24 87,24 27,0 51,-6 71,-18 20,-11 30,-30 30,-57 0,-12 -3,-22 -8,-31 -5,-8 -14,-15 -25,-21 -12,-6 -23,-10 -35,-13 -11,-4 -26,-8 -45,-12 -3,0 -4,-1 -6,-1 -42,-10 -69,-17 -82,-23 -40,-17 -60,-47 -60,-89 0,-39 15,-68 44,-87 28,-20 63,-29 104,-29 45,0 81,11 107,32 27,21 41,53 43,96zm181 -120l0 408 -54 0 0 -408 54 0zm133 0l59 0 215 331 0 -331 52 0 0 408 -60 0 -215 -327 0 327 -51 0 0 -408zm741 0l0 47 -229 0 0 128 214 0 0 45 -214 0 0 141 232 0 0 47 -286 0 0 -408 283 0zm399 120l-52 0c-6,-56 -40,-83 -101,-83 -30,0 -53,5 -69,17 -16,12 -24,29 -24,50 0,8 1,14 4,20 2,6 6,11 11,15 6,5 11,8 16,12 5,3 13,6 24,9 10,3 19,5 26,6 6,2 16,4 30,7 17,3 31,6 42,9 11,3 24,8 39,14 16,7 28,14 37,22 9,8 16,18 23,31 7,13 10,28 10,44 0,29 -8,53 -24,72 -16,19 -35,33 -58,41 -23,7 -49,11 -77,11 -51,0 -92,-12 -122,-36 -31,-25 -47,-60 -47,-108l53 0c1,35 12,60 35,76 22,16 50,24 86,24 28,0 52,-6 72,-18 20,-11 29,-30 29,-57 0,-12 -2,-22 -8,-31 -5,-8 -13,-15 -25,-21 -11,-6 -23,-10 -34,-13 -12,-4 -27,-8 -45,-12 -3,0 -5,-1 -6,-1 -42,-10 -70,-17 -83,-23 -39,-17 -59,-47 -59,-89 0,-39 14,-68 43,-87 29,-20 64,-29 105,-29 44,0 80,11 107,32 26,21 41,53 42,96zm414 0l-52 0c-6,-56 -39,-83 -101,-83 -30,0 -53,5 -69,17 -16,12 -24,29 -24,50 0,8 1,14 4,20 2,6 6,11 12,15 5,5 10,8 15,12 5,3 13,6 24,9 10,3 19,5 26,6 6,2 16,4 30,7 17,3 31,6 42,9 11,3 24,8 39,14 16,7 28,14 37,22 9,8 16,18 23,31 7,13 10,28 10,44 0,29 -8,53 -24,72 -16,19 -35,33 -58,41 -23,7 -49,11 -77,11 -51,0 -92,-12 -122,-36 -31,-25 -47,-60 -47,-108l53 0c1,35 12,60 35,76 22,16 51,24 86,24 28,0 52,-6 72,-18 20,-11 30,-30 30,-57 0,-12 -3,-22 -9,-31 -5,-8 -13,-15 -25,-21 -11,-6 -23,-10 -34,-13 -12,-4 -27,-8 -45,-12 -3,0 -5,-1 -6,-1 -42,-10 -70,-17 -83,-23 -39,-17 -59,-47 -59,-89 0,-39 14,-68 43,-87 29,-20 64,-29 105,-29 44,0 80,11 107,32 27,21 41,53 42,96zm521 -120l54 0 0 257c0,40 9,69 26,87 17,19 45,28 84,28 40,0 69,-10 85,-28 17,-19 25,-48 25,-87l0 -257 55 0 0 243c0,59 -13,103 -38,131 -24,28 -67,42 -127,42 -58,0 -100,-13 -126,-41 -25,-27 -38,-69 -38,-126l0 -249zm457 0l59 0 215 331 0 -331 52 0 0 408 -60 0 -215 -327 0 327 -51 0 0 -408zm515 0l0 408 -54 0 0 -408 54 0zm88 0l60 0 117 355 119 -355 57 0 -146 408 -62 0 -145 -408zm722 0l0 47 -229 0 0 128 214 0 0 45 -214 0 0 141 232 0 0 47 -286 0 0 -408 283 0zm110 0l180 0c91,0 137,37 137,113 0,23 -7,44 -20,63 -12,18 -29,30 -50,36 13,3 25,7 33,13 8,6 14,14 18,24 4,10 7,20 8,28 1,8 2,20 3,35 0,2 0,5 0,11 1,6 1,10 1,12 0,2 0,6 1,12 0,5 1,9 1,12 0,2 1,6 2,10 1,5 1,9 3,12 1,2 2,6 4,9 1,4 3,7 5,10 2,3 4,6 6,8l-62 0c-2,-4 -5,-9 -6,-14 -2,-6 -3,-13 -4,-21 -1,-8 -1,-14 -2,-19 0,-5 -1,-11 -1,-21 0,-9 -1,-14 -1,-15 -1,-35 -9,-58 -21,-69 -12,-12 -37,-18 -74,-18l-107 0 0 177 -54 0 0 -408zm54 46l0 142 102 0c12,0 23,0 31,-1 9,-1 18,-2 29,-5 10,-3 18,-6 25,-11 6,-5 11,-12 15,-22 5,-9 7,-20 7,-33 0,-27 -9,-46 -25,-56 -17,-9 -39,-14 -68,-14l-116 0zm670 74l-52 0c-6,-56 -39,-83 -101,-83 -30,0 -52,5 -68,17 -16,12 -24,29 -24,50 0,8 1,14 3,20 2,6 6,11 12,15 5,5 11,8 15,12 5,3 13,6 24,9 11,3 19,5 26,6 6,2 16,4 30,7 17,3 31,6 42,9 11,3 24,8 39,14 16,7 28,14 37,22 9,8 17,18 23,31 7,13 10,28 10,44 0,29 -8,53 -24,72 -16,19 -35,33 -58,41 -23,7 -48,11 -76,11 -52,0 -92,-12 -123,-36 -31,-25 -46,-60 -46,-108l52 0c1,35 13,60 35,76 22,16 51,24 86,24 28,0 52,-6 72,-18 20,-11 30,-30 30,-57 0,-12 -3,-22 -8,-31 -6,-8 -14,-15 -26,-21 -11,-6 -22,-10 -34,-13 -11,-4 -27,-8 -45,-12 -3,0 -5,-1 -6,-1 -42,-10 -69,-17 -82,-23 -40,-17 -60,-47 -60,-89 0,-39 14,-68 43,-87 29,-20 64,-29 105,-29 44,0 80,11 107,32 27,21 41,53 42,96zm182 -120l0 408 -54 0 0 -408 54 0zm418 0l0 47 -137 0 0 361 -54 0 0 -361 -137 0 0 -47 328 0zm414 0l-157 241 0 167 -53 0 0 -167 -159 -241 65 0 122 194 121 -194 61 0z"/>
 </g>
</svg>
