<svg xmlns="http://www.w3.org/2000/svg" xml:space="preserve" width="82px" height="82px" version="1.1" fill="red" style="shape-rendering:geometricPrecision; text-rendering:geometricPrecision; image-rendering:optimizeQuality; fill-rule:evenodd; clip-rule:evenodd"
viewBox="0 0 794 794"
 xmlns:xlink="http://www.w3.org/1999/xlink">
 <defs>
  <style type="text/css">
   <![CDATA[
    .fil0 {fill:#429A44;fill-rule:nonzero}
    .fil1 {fill:url(#id0)}
   ]]>
  </style>
  <linearGradient id="id0" gradientUnits="userSpaceOnUse" x1="0.0221826" y1="835.196" x2="1670.37" y2="835.196">
   <stop offset="0" style="stop-opacity:1; stop-color:#69C925"/>
   <stop offset="1" style="stop-opacity:1; stop-color:#399C3A"/>
  </linearGradient>
 </defs>
<symbol id="Fm1-60-0" viewBox="19612 34599 5508 527">
 <path class="fil0" d="M19612 34609l53 0 0 172 212 0 0 -172 53 0 0 401 -53 0 0 -184 -212 0 0 184 -53 0 0 -401zm478 407c-13,0 -25,-1 -37,-4 -11,-3 -22,-7 -31,-14 -8,-6 -15,-15 -20,-25 -5,-11 -8,-23 -8,-38 0,-16 3,-29 8,-40 6,-11 14,-19 23,-26 9,-6 19,-11 31,-14 12,-4 24,-7 36,-9 14,-3 26,-5 38,-6 12,-1 22,-3 31,-6 9,-2 16,-5 21,-10 6,-5 8,-12 8,-21 0,-10 -2,-19 -6,-25 -4,-6 -9,-11 -15,-15 -6,-3 -13,-5 -20,-6 -8,-2 -16,-2 -23,-2 -21,0 -37,4 -51,11 -14,8 -21,23 -22,44l-48 0c1,-18 5,-33 12,-46 6,-12 15,-22 27,-30 11,-7 24,-13 38,-16 15,-4 30,-5 46,-5 14,0 27,1 40,2 13,2 24,6 35,12 10,6 19,14 25,25 6,10 10,24 10,41l0 149c0,12 0,20 2,25 1,5 5,8 13,8 3,0 8,-1 14,-3l0 37c-8,5 -19,7 -34,7 -12,0 -22,-3 -29,-10 -8,-7 -11,-18 -11,-34 -14,16 -29,27 -46,34 -18,7 -37,10 -57,10zm11 -41c16,0 29,-2 40,-7 12,-4 21,-9 28,-16 7,-6 12,-14 16,-21 3,-8 5,-15 5,-22l0 -49c-6,5 -14,8 -24,10 -10,2 -20,4 -30,5 -11,2 -22,3 -33,5 -11,1 -20,4 -29,8 -9,3 -16,9 -21,16 -6,7 -8,16 -8,28 0,8 1,15 4,20 4,6 8,10 13,13 5,4 11,6 18,8 6,1 13,2 21,2zm211 -256l48 0 0 238 137 -238 61 0 0 291 -48 0 0 -237 -137 237 -61 0 0 -291zm123 -42c-11,0 -22,-2 -32,-5 -9,-4 -18,-9 -25,-15 -7,-6 -13,-14 -18,-23 -4,-9 -6,-20 -6,-32l40 0c1,28 14,42 40,42 13,0 23,-4 31,-11 6,-8 10,-18 10,-31l40 0c0,11 -2,21 -6,31 -4,9 -10,17 -17,23 -7,7 -16,12 -26,15 -9,4 -20,6 -31,6zm265 85l-104 0 0 -43 256 0 0 43 -104 0 0 248 -48 0 0 -248zm191 -43l47 0 0 238 137 -238 62 0 0 291 -48 0 0 -237 -137 237 -61 0 0 -291zm474 0l48 0 0 139 133 -139 64 0 -129 126 144 165 -61 0 -122 -138 -29 29 0 109 -48 0 0 -291zm326 407c-6,0 -11,0 -17,-1 -5,-1 -11,-2 -16,-4l0 -44c4,2 9,3 14,5 4,1 9,2 14,2 10,0 18,-2 24,-7 6,-4 11,-11 15,-20l20 -48 -115 -290 54 0 85 238 1 0 81 -238 51 0 -127 330c-5,14 -11,26 -16,36 -6,9 -12,17 -18,23 -7,7 -14,11 -22,14 -8,3 -17,4 -28,4zm253 -407l48 0 0 40 1 0c8,-16 20,-28 37,-35 17,-8 36,-11 56,-11 22,0 42,4 59,12 16,8 30,19 41,34 11,14 20,30 25,48 6,18 9,38 9,59 0,21 -3,40 -8,58 -6,19 -14,35 -25,48 -11,14 -25,25 -42,33 -16,8 -36,11 -58,11 -8,0 -16,0 -24,-2 -9,-1 -17,-4 -26,-7 -9,-3 -17,-8 -25,-14 -7,-6 -14,-13 -19,-21l-1 0 0 149 -48 0 0 -402zm138 256c16,0 30,-3 41,-10 11,-6 20,-15 27,-25 7,-11 12,-23 15,-36 3,-14 4,-27 4,-42 0,-13 -2,-26 -5,-39 -4,-13 -9,-25 -16,-35 -8,-10 -17,-18 -29,-24 -11,-6 -24,-9 -40,-9 -16,0 -30,3 -41,9 -11,7 -20,15 -27,25 -8,11 -13,22 -16,36 -3,13 -5,26 -5,40 0,14 2,28 5,41 4,13 9,25 16,35 8,10 17,18 29,24 11,7 25,10 42,10zm314 41c-22,0 -41,-3 -58,-10 -17,-7 -32,-17 -43,-31 -12,-13 -20,-28 -26,-46 -6,-18 -9,-38 -9,-60 0,-22 3,-43 9,-62 5,-19 14,-35 25,-49 12,-14 26,-25 43,-33 17,-8 37,-12 61,-12 16,0 31,2 46,6 14,4 27,10 38,18 11,8 20,18 27,31 8,13 12,28 14,45l-50 0c-3,-18 -11,-33 -23,-43 -12,-10 -28,-15 -49,-15 -17,0 -31,3 -43,9 -11,7 -21,15 -28,26 -7,10 -12,22 -15,36 -3,14 -4,28 -4,43 0,13 2,26 5,39 3,13 8,24 15,34 6,10 15,18 26,24 10,6 23,9 39,9 23,0 42,-6 55,-19 14,-12 22,-30 25,-52l49 0c-6,36 -19,64 -40,83 -22,20 -51,29 -89,29zm464 0c-23,0 -44,-3 -61,-11 -18,-8 -32,-18 -44,-32 -12,-14 -21,-30 -27,-48 -6,-19 -9,-38 -9,-60 0,-21 3,-41 9,-60 6,-18 15,-35 27,-48 12,-14 26,-25 44,-32 17,-8 38,-12 61,-12 23,0 43,4 61,12 17,7 32,18 44,32 12,13 21,30 27,48 6,19 9,39 9,60 0,22 -3,41 -9,60 -6,18 -15,34 -27,48 -12,14 -27,24 -44,32 -18,8 -38,11 -61,11zm0 -41c12,0 24,-3 35,-7 11,-5 21,-12 29,-22 8,-9 15,-20 19,-34 5,-13 7,-29 7,-47 0,-18 -2,-33 -7,-47 -4,-14 -11,-25 -19,-34 -8,-10 -18,-17 -29,-22 -11,-5 -23,-7 -35,-7 -13,0 -24,2 -35,7 -11,5 -21,12 -29,22 -8,9 -15,20 -20,34 -4,14 -7,29 -7,47 0,18 3,34 7,47 5,14 12,25 20,34 8,10 18,17 29,22 11,4 22,7 35,7zm327 41c-37,0 -68,-9 -91,-28 -23,-19 -37,-49 -43,-89 -3,-16 -4,-33 -4,-53 0,-14 1,-28 2,-43 1,-15 2,-30 5,-45 2,-14 6,-28 10,-42 4,-13 10,-26 17,-36 13,-20 29,-35 47,-45 18,-9 41,-15 69,-17 18,-1 34,-3 46,-5 12,-2 19,-6 21,-14l48 0c-1,15 -4,26 -10,34 -5,8 -13,14 -23,18 -11,4 -23,6 -37,7 -15,2 -32,3 -52,5 -16,1 -30,4 -42,11 -12,6 -22,15 -31,25 -8,11 -15,24 -20,38 -5,15 -9,30 -11,48l1 0c8,-19 21,-35 39,-48 17,-12 38,-18 63,-18 41,0 73,13 97,38 23,26 35,62 35,110 0,25 -3,46 -9,65 -7,18 -16,34 -28,46 -12,13 -27,23 -43,29 -17,6 -36,9 -56,9zm1 -40c11,0 22,-2 32,-7 11,-5 20,-11 28,-21 8,-9 14,-20 19,-33 5,-13 7,-29 7,-46 0,-35 -7,-61 -23,-81 -16,-19 -37,-29 -64,-29 -27,0 -49,10 -65,29 -16,20 -24,47 -24,81 0,33 8,59 24,78 16,19 38,29 66,29zm221 150c-5,0 -11,0 -17,-1 -5,-1 -11,-2 -16,-4l0 -44c5,2 9,3 14,5 5,1 9,2 14,2 10,0 18,-2 24,-7 6,-4 11,-11 16,-20l19 -48 -115 -290 54 0 85 238 1 0 82 -238 50 0 -126 330c-6,14 -11,26 -17,36 -5,9 -11,17 -18,23 -6,7 -14,11 -22,14 -8,3 -17,4 -28,4zm426 -234c-9,4 -21,7 -36,11 -15,3 -31,5 -48,5 -36,0 -62,-8 -77,-24 -16,-15 -23,-37 -23,-65l0 -100 47 0 0 92c0,19 5,33 14,43 8,9 24,13 48,13 14,0 28,-1 42,-4 14,-3 25,-7 33,-10l0 -134 48 0 0 291 -48 0 0 -118zm244 124c-24,0 -44,-3 -61,-11 -18,-7 -32,-18 -44,-31 -12,-14 -20,-30 -26,-49 -6,-18 -9,-39 -9,-61 0,-22 3,-42 10,-61 7,-18 16,-34 29,-48 12,-13 26,-24 43,-31 17,-8 35,-11 55,-11 26,0 47,5 64,16 17,10 31,24 41,41 11,16 18,34 22,53 4,20 5,39 4,56l-217 0c-1,13 1,25 4,36 4,12 9,22 17,31 7,9 17,16 28,21 12,5 25,8 41,8 20,0 37,-5 50,-14 13,-10 22,-24 26,-43l47 0c-6,33 -20,58 -42,74 -22,16 -49,24 -82,24zm78 -179c-1,-11 -3,-22 -8,-32 -4,-10 -10,-19 -17,-26 -8,-7 -16,-13 -26,-18 -10,-4 -21,-6 -33,-6 -12,0 -24,2 -33,6 -10,5 -19,11 -26,18 -7,8 -13,16 -17,26 -4,10 -6,21 -7,32l167 0zm100 -118l48 0 0 116 147 0 0 -116 48 0 0 291 -48 0 0 -134 -147 0 0 134 -48 0 0 -291zm315 0l48 0 0 238 137 -238 61 0 0 291 -48 0 0 -237 -137 237 -61 0 0 -291zm380 178c-21,-3 -38,-13 -51,-28 -13,-16 -20,-36 -20,-60 0,-27 8,-49 25,-65 16,-16 38,-25 66,-25l148 0 0 291 -48 0 0 -112 -64 0 -88 112 -64 0 96 -113zm120 -40l0 -95 -84 0c-21,0 -35,4 -44,13 -9,8 -14,20 -14,35 0,15 5,26 14,35 9,8 23,12 44,12l84 0z"/>
</symbol>
 <g id="Layer-45">
  <metadata id="CorelCorpID_0Corel-Layer"/>
  <path class="fil1" d="M602 179c-22,0 -39,-17 -39,-38 0,-21 17,-39 39,-39 21,0 38,18 38,39 0,21 -17,38 -38,38zm-512 -77c-22,0 -39,18 -39,39 0,21 17,38 39,38 21,0 38,-17 38,-38 0,-21 -17,-39 -38,-39zm0 52c-7,0 -13,-6 -13,-13 0,-7 6,-13 13,-13 7,0 12,6 12,13 0,7 -5,13 -12,13zm243 -13c0,-21 -17,-39 -39,-39 -21,0 -38,18 -38,39 0,21 17,38 38,38 22,0 39,-17 39,-38zm-39 13c-7,0 -12,-6 -12,-13 0,-7 5,-13 12,-13 7,0 13,6 13,13 0,7 -6,13 -13,13zm-102 -52c-21,0 -38,18 -38,39 0,21 17,38 38,38 21,0 38,-17 38,-38 0,-21 -17,-39 -38,-39zm0 52c-7,0 -13,-6 -13,-13 0,-7 6,-13 13,-13 7,0 13,6 13,13 0,7 -6,13 -13,13zm538 -154l-256 0c-36,0 -64,29 -64,64l0 142c-5,-1 -9,-1 -13,-1 -5,0 -9,0 -13,1l0 -142c0,-35 -29,-64 -64,-64l-256 0c-35,0 -64,29 -64,64l0 154c0,35 29,64 64,64l13 0 0 72 144 -72 67 0c-4,12 -6,25 -6,38l0 51c0,36 16,69 43,90l-22 0c-17,0 -33,6 -45,19l-7 6 -21 0c0,-14 -11,-25 -25,-25l-26 0c-14,0 -25,11 -25,25l-154 0 0 180 154 0c0,14 11,25 25,25l26 0c14,0 25,-11 25,-25l21 0 7 6c12,13 28,19 45,19l38 0 4 78c1,14 12,25 26,25l52 0c14,0 25,-11 26,-25l3 -78 22 0c21,0 38,-17 38,-38 0,-10 -4,-19 -10,-26 6,-7 10,-16 10,-25 0,-10 -4,-19 -10,-26 6,-7 10,-16 10,-26 0,-9 -4,-18 -10,-25 6,-7 10,-16 10,-26 0,-21 -17,-38 -38,-38l-5 0c26,-21 43,-54 43,-90l0 -51c0,-13 -2,-26 -7,-38l68 0 144 72 0 -72 13 0c35,0 64,-29 64,-64l0 -154c0,-35 -29,-64 -64,-64zm-704 640l0 -128 128 0 0 128 -128 0zm179 26l-26 0 0 -180 26 0 0 180zm192 -436c45,0 82,34 88,77l-24 0 0 -25 -26 0 0 25 -77 0 0 -25 -25 0 0 25 -25 0c6,-43 44,-77 89,-77zm-182 26l-113 56 0 -56 -38 0c-21,0 -38,-17 -38,-38l0 -154c0,-21 17,-38 38,-38l256 0c21,0 38,17 38,38l0 148c-23,8 -43,24 -57,44l-86 0zm88 410c-10,0 -20,-5 -27,-12l-15 -14 -31 0 0 -128 31 0 15 -14c7,-8 17,-12 27,-12l119 0c7,0 13,6 13,13l0 51c0,7 -6,13 -13,13 -7,0 -12,-6 -12,-13l0 -38 -78 0 8 154 -37 0zm183 -116c0,7 -5,13 -12,13l-16 0c2,-4 3,-8 3,-13l0 -12 13 0c7,0 12,5 12,12l0 0zm0 52c0,7 -5,12 -12,12l-52 0c-7,0 -12,-5 -12,-12 0,-7 5,-13 12,-13l52 0c7,0 12,6 12,13l0 0zm-63 166l-52 0 -12 -230 25 0 0 12c0,10 4,19 10,26 -6,7 -10,16 -10,26 0,9 4,18 10,25 -6,7 -10,16 -10,26 0,21 17,38 38,38l5 0 -4 77zm51 -102l-52 0c-7,0 -12,-6 -12,-13 0,-7 5,-13 12,-13l52 0c7,0 12,6 12,13 0,7 -5,13 -12,13l0 0zm12 -167c0,7 -5,13 -12,13l-13 0 0 -13c0,-4 -1,-9 -3,-13l16 0c7,0 12,6 12,13l0 0zm-89 -38c-45,0 -83,-34 -89,-77l25 0 0 26 25 0 0 -26 77 0 0 26 26 0 0 -26 24 0c-6,43 -43,77 -88,77zm89 -103l-179 0 0 -25 179 0 0 25zm282 -140c0,21 -17,38 -38,38l-39 0 0 56 -112 -56 -86 0c-14,-20 -34,-36 -58,-44l0 -148c0,-21 17,-38 39,-38l256 0c21,0 38,17 38,38l0 154zm-269 -39c-21,0 -38,-17 -38,-38 0,-21 17,-39 38,-39 21,0 39,18 39,39 0,21 -18,38 -39,38zm0 -51c-7,0 -13,6 -13,13 0,7 6,13 13,13 7,0 13,-6 13,-13 0,-7 -6,-13 -13,-13zm205 51c-21,0 -38,-17 -38,-38 0,-21 17,-39 38,-39 21,0 38,18 38,39 0,21 -17,38 -38,38zm0 -51c-7,0 -13,6 -13,13 0,7 6,13 13,13 7,0 13,-6 13,-13 0,-7 -6,-13 -13,-13zm-102 0c-7,0 -13,6 -13,13 0,7 6,13 13,13 7,0 12,-6 12,-13 0,-7 -5,-13 -12,-13z"/>
 </g>
</svg>
