<svg xmlns="http://www.w3.org/2000/svg" xml:space="preserve" width="89px" height="89px" version="1.1" style="shape-rendering:geometricPrecision; text-rendering:geometricPrecision; image-rendering:optimizeQuality; fill-rule:evenodd; clip-rule:evenodd"
viewBox="0 0 1670 1670"
 xmlns:xlink="http://www.w3.org/1999/xlink">
 <defs>
  <style type="text/css">
   <![CDATA[
    .fil0 {fill:#429A44;fill-rule:nonzero}
    .fil1 {fill:url(#id0)}
   ]]>
  </style>
  <linearGradient id="id0" gradientUnits="userSpaceOnUse" x1="0.0221826" y1="835.196" x2="1670.37" y2="835.196">
   <stop offset="0" style="stop-opacity:1; stop-color:#69C925"/>
   <stop offset="1" style="stop-opacity:1; stop-color:#399C3A"/>
  </linearGradient>
 </defs>
<symbol id="Fm1-60-0" viewBox="34664 67501 10729 1027">
 <path class="fil0" d="M34664 67519l104 0 0 336 412 0 0 -336 104 0 0 782 -104 0 0 -358 -412 0 0 358 -104 0 0 -782zm932 795c-26,0 -49,-3 -72,-9 -23,-5 -43,-14 -60,-27 -17,-13 -31,-29 -40,-50 -10,-20 -15,-44 -15,-72 0,-32 5,-59 16,-79 11,-21 26,-37 44,-50 17,-13 38,-22 61,-29 23,-7 46,-12 70,-16 26,-6 50,-9 73,-12 23,-3 43,-6 61,-11 18,-5 31,-12 42,-21 10,-9 15,-22 15,-40 0,-20 -4,-37 -12,-49 -7,-12 -17,-22 -29,-29 -12,-6 -26,-10 -40,-13 -16,-2 -30,-3 -45,-3 -39,0 -72,7 -99,22 -26,15 -40,44 -42,85l-93 0c1,-35 8,-64 22,-88 13,-24 30,-44 52,-59 22,-15 47,-26 75,-32 28,-7 58,-10 90,-10 26,0 52,2 77,5 25,4 48,11 68,23 21,11 37,27 50,47 12,21 18,48 18,81l0 291c0,22 1,38 4,48 2,10 11,15 26,15 6,0 16,-1 28,-5l0 72c-16,10 -38,15 -67,15 -24,0 -43,-7 -57,-21 -15,-13 -22,-35 -22,-66 -25,31 -55,53 -89,66 -34,14 -71,21 -110,21zm21 -82c30,0 57,-4 79,-12 22,-9 39,-19 53,-32 14,-13 25,-27 31,-42 7,-15 10,-29 10,-42l0 -95c-12,10 -27,16 -46,19 -19,4 -39,8 -60,10 -20,3 -41,6 -63,9 -21,3 -40,8 -57,16 -17,7 -30,17 -41,31 -10,13 -16,32 -16,55 0,15 4,29 10,39 6,11 14,19 24,26 10,6 21,11 34,14 13,3 27,4 42,4zm411 -497l93 0 0 462 267 -462 119 0 0 566 -93 0 0 -462 -267 462 -119 0 0 -566zm239 -83c-21,0 -42,-4 -61,-10 -19,-7 -36,-16 -50,-28 -14,-13 -25,-28 -34,-46 -8,-18 -12,-39 -12,-62l78 0c1,54 27,81 78,81 26,0 45,-7 59,-21 13,-15 20,-34 20,-60l78 0c0,22 -4,42 -12,60 -8,19 -19,34 -33,46 -14,13 -30,22 -49,29 -19,7 -40,11 -62,11zm518 165l-203 0 0 -82 498 0 0 82 -202 0 0 484 -93 0 0 -484zm370 -82l93 0 0 462 267 -462 120 0 0 566 -93 0 0 -462 -268 462 -119 0 0 -566zm925 0l93 0 0 270 260 -270 123 0 -250 245 280 321 -120 0 -236 -269 -57 56 0 213 -93 0 0 -566zm634 792c-11,0 -22,0 -33,-2 -11,-2 -21,-4 -31,-8l0 -85c8,3 17,6 26,9 9,2 19,4 28,4 19,0 35,-4 47,-13 11,-9 21,-22 30,-39l38 -95 -224 -563 105 0 165 463 3 0 158 -463 99 0 -247 641c-10,28 -21,51 -32,70 -10,19 -22,35 -35,47 -13,12 -27,21 -42,26 -16,5 -34,8 -55,8zm493 -792l93 0 0 77 2 0c16,-32 40,-55 73,-69 33,-14 69,-21 108,-21 44,0 82,8 115,24 32,16 59,38 81,65 21,28 38,59 49,95 10,35 16,74 16,114 0,41 -5,79 -16,114 -10,36 -27,67 -48,94 -21,26 -48,47 -81,63 -33,15 -71,23 -114,23 -14,0 -30,-2 -47,-5 -16,-3 -33,-8 -50,-14 -17,-7 -33,-16 -48,-27 -15,-11 -27,-25 -38,-42l-2 0 0 291 -93 0 0 -782zm269 497c31,0 57,-6 80,-18 22,-13 39,-29 52,-50 13,-20 23,-43 29,-70 5,-26 8,-53 8,-81 0,-26 -3,-52 -10,-77 -7,-25 -18,-48 -32,-67 -14,-20 -32,-36 -54,-48 -23,-11 -49,-17 -79,-17 -31,0 -58,6 -80,19 -22,12 -39,28 -53,48 -14,20 -24,43 -31,69 -6,25 -9,51 -9,78 0,27 4,54 10,80 7,26 17,49 31,69 14,19 33,35 55,47 23,12 50,18 83,18zm612 82c-43,0 -81,-7 -114,-21 -33,-14 -61,-34 -84,-60 -22,-25 -39,-55 -50,-91 -12,-35 -17,-73 -17,-117 0,-42 5,-82 16,-119 11,-37 28,-69 50,-96 22,-28 50,-49 84,-65 33,-15 72,-23 117,-23 32,0 62,4 91,11 28,8 53,20 74,36 22,16 39,36 53,61 14,24 23,53 26,87l-96 0c-7,-36 -23,-64 -46,-84 -23,-19 -55,-29 -94,-29 -34,0 -62,6 -84,19 -23,12 -41,28 -55,49 -13,20 -23,44 -29,70 -6,27 -8,55 -8,83 0,27 3,52 9,77 6,25 15,47 29,66 13,20 30,35 51,47 21,12 46,17 76,17 46,0 82,-12 108,-36 26,-24 42,-58 47,-102l96 0c-10,71 -36,125 -78,163 -41,38 -99,57 -172,57zm903 0c-45,0 -85,-8 -119,-23 -34,-15 -63,-36 -86,-63 -23,-26 -41,-57 -53,-93 -11,-36 -17,-75 -17,-116 0,-42 6,-81 17,-117 12,-36 30,-68 53,-94 23,-27 52,-48 86,-63 34,-15 74,-23 119,-23 44,0 84,8 118,23 34,15 63,36 87,63 23,26 41,58 52,94 12,36 18,75 18,117 0,41 -6,80 -18,116 -11,36 -29,67 -52,93 -24,27 -53,48 -87,63 -34,15 -74,23 -118,23zm0 -82c24,0 47,-4 68,-14 22,-9 41,-23 57,-41 16,-18 28,-40 37,-67 9,-26 14,-57 14,-91 0,-35 -5,-65 -14,-92 -9,-27 -21,-49 -37,-67 -16,-19 -35,-32 -57,-42 -21,-9 -44,-14 -68,-14 -24,0 -47,5 -69,14 -21,10 -40,23 -56,42 -16,18 -29,40 -38,67 -9,27 -14,57 -14,92 0,34 5,65 14,91 9,27 22,49 38,67 16,18 35,32 56,41 22,10 45,14 69,14zm637 82c-73,0 -132,-19 -177,-56 -45,-38 -73,-95 -84,-174 -5,-30 -7,-65 -7,-102 0,-27 1,-56 3,-85 1,-29 5,-58 10,-87 4,-28 11,-55 19,-82 9,-26 20,-50 34,-71 25,-38 55,-67 91,-86 35,-18 80,-30 134,-33 36,-3 66,-6 90,-10 24,-4 38,-13 41,-27l93 0c-2,28 -8,50 -19,65 -10,16 -26,27 -46,35 -19,8 -44,13 -72,15 -28,3 -62,6 -100,8 -31,3 -59,10 -82,22 -23,13 -43,29 -60,50 -16,21 -29,45 -40,73 -10,29 -17,59 -22,93l4 0c16,-37 41,-68 75,-92 34,-24 75,-36 123,-36 80,0 142,25 188,74 46,50 69,122 69,215 0,48 -6,89 -19,125 -12,37 -31,67 -54,91 -23,25 -51,43 -84,56 -32,12 -68,19 -108,19zm1 -79c22,0 44,-5 64,-14 21,-9 39,-22 54,-40 15,-18 27,-40 37,-65 10,-26 14,-56 14,-91 0,-66 -15,-118 -46,-156 -30,-38 -72,-57 -125,-57 -52,0 -94,19 -125,57 -31,38 -47,91 -47,158 0,64 16,114 46,152 31,37 74,56 128,56zm432 292c-11,0 -22,0 -33,-2 -11,-2 -21,-4 -32,-8l0 -85c9,3 18,6 27,9 9,2 19,4 28,4 19,0 35,-4 46,-13 12,-9 22,-22 31,-39l38 -95 -224 -563 105 0 165 463 2 0 159 -463 99 0 -247 641c-11,28 -21,51 -32,70 -11,19 -22,35 -35,47 -13,12 -27,21 -43,26 -15,5 -33,8 -54,8zm829 -456c-17,7 -40,15 -70,21 -30,7 -61,10 -94,10 -70,0 -120,-15 -150,-46 -30,-30 -45,-72 -45,-127l0 -194 93 0 0 179c0,37 9,64 26,82 17,18 48,27 94,27 27,0 55,-3 82,-9 27,-6 48,-12 64,-19l0 -260 93 0 0 566 -93 0 0 -230zm475 243c-46,0 -85,-8 -119,-23 -34,-14 -62,-34 -85,-61 -23,-26 -40,-57 -51,-94 -11,-36 -17,-76 -17,-119 0,-43 7,-82 20,-118 13,-36 31,-67 55,-94 24,-26 52,-47 84,-61 33,-15 68,-22 107,-22 51,0 93,10 126,31 33,21 60,47 80,79 20,32 34,68 41,105 8,39 11,75 10,109l-424 0c-1,25 2,49 9,71 6,22 17,42 31,59 15,17 33,31 56,41 23,10 49,15 80,15 39,0 72,-9 97,-27 25,-18 42,-46 50,-83l92 0c-12,64 -40,112 -82,144 -43,32 -96,48 -160,48zm152 -350c-2,-22 -6,-43 -15,-63 -8,-19 -20,-36 -34,-51 -14,-13 -31,-25 -50,-33 -19,-9 -41,-13 -64,-13 -24,0 -46,4 -65,13 -20,8 -36,20 -50,34 -14,15 -25,32 -33,51 -8,20 -13,40 -14,62l325 0zm195 -229l93 0 0 226 287 0 0 -226 93 0 0 566 -93 0 0 -260 -287 0 0 260 -93 0 0 -566zm614 0l93 0 0 462 267 -462 119 0 0 566 -93 0 0 -462 -267 462 -119 0 0 -566zm739 345c-40,-6 -73,-24 -98,-55 -26,-30 -39,-69 -39,-116 0,-53 16,-95 48,-127 32,-31 75,-47 130,-47l287 0 0 566 -93 0 0 -218 -124 0 -173 218 -124 0 186 -221zm235 -77l0 -186 -165 0c-39,0 -67,9 -85,25 -18,17 -27,40 -27,68 0,30 9,52 27,69 18,16 46,24 85,24l165 0z"/>
</symbol>
 <g id="Layer-42">
  <metadata id="CorelCorpID_0Corel-Layer"/>
  <path class="fil1" d="M1670 700l-60 0 -90 48c-11,-6 -21,-10 -33,-13l-113 -29 0 -13c50,-35 81,-92 81,-154l0 -47c0,-105 -82,-193 -183,-196 -5,0 -10,0 -15,1l29 -69 -142 -143 -85 55c-31,-18 -65,-32 -100,-42l-21 -98 -205 0 -21 98c-35,10 -69,24 -101,42l-84 -55 -143 143 29 69c-1,0 -2,-1 -3,-1 -52,-1 -100,18 -137,54 -37,35 -57,83 -57,135l0 54c0,62 30,119 80,154l0 13 -74 19 -134 -78 -88 0 0 558 265 88 52 0 6 -22 81 48c2,45 37,80 81,82 2,44 37,79 81,80 2,44 37,80 81,81 2,45 38,81 84,81 17,0 33,-5 47,-14l24 21c15,13 34,20 54,20l5 0c45,0 81,-36 82,-81 44,0 80,-36 81,-80 44,-1 80,-37 80,-81 45,-1 81,-38 81,-83 0,-3 0,-5 0,-8l485 -243 0 -394zm-269 -208l0 47c0,48 -26,92 -67,116l-14 8 0 85 135 34 -297 156 0 -73c0,-36 -14,-69 -38,-93l92 -24 0 -85 -13 -8c-42,-24 -67,-68 -67,-116l0 -54c0,-37 14,-71 40,-97 27,-25 62,-39 98,-38 72,2 131,66 131,142l0 0zm-525 425l-122 -39c-56,-18 -116,-21 -173,-8l-15 3 0 -8c0,-37 25,-69 61,-78l154 -39 0 -85 -13 -8c-42,-24 -68,-68 -68,-116l0 -54c0,-37 15,-71 41,-97 27,-25 62,-39 98,-38 72,2 131,66 131,142l0 47c0,48 -26,92 -68,116l-13 8 0 85 154 39c36,9 62,41 62,78l0 101 -7 4 -17 0 -165 -47c-13,-4 -27,-6 -40,-6zm-304 -514c50,-98 152,-161 263,-161 110,0 211,62 262,159 -12,26 -19,54 -19,84l0 54c0,62 30,119 80,154l0 13 -107 27 -108 -27 0 -13c50,-35 81,-92 81,-154l0 -47c0,-105 -82,-193 -183,-196 -52,-1 -100,18 -137,54 -37,35 -57,83 -57,135l0 54c0,62 30,119 80,154l0 13 -107 27 -108 -27 0 -13c50,-35 81,-92 81,-154l0 -47c0,-32 -8,-62 -21,-89l0 0zm-124 -163l86 -86 76 50 14 -9c37,-23 76,-39 117,-49l16 -4 19 -88 118 0 19 88 16 4c42,10 81,26 117,49l15 9 75 -50 86 86 -30 72c-21,9 -40,21 -57,38 -1,1 -2,2 -3,3 -64,-101 -176,-164 -297,-164 -122,0 -234,64 -297,165 -17,-17 -38,-32 -60,-42l-30 -72zm-98 508l0 -85 -13 -8c-42,-24 -68,-68 -68,-116l0 -54c0,-37 15,-71 41,-97 27,-25 62,-39 98,-38 72,2 131,66 131,142l0 47c0,48 -26,92 -68,116l-13 8 0 85 92 24c-23,24 -38,57 -38,93l0 20 -84 19 2 -8 1 -49 -142 -83 61 -16zm-296 -48l20 0 193 114 -97 391 -116 -39 0 -466zm220 539l-53 -17 95 -380 61 36 0 7 -101 354 -2 0zm184 78c0,-8 3,-16 9,-21l47 -48c6,-5 14,-9 22,-9 16,0 30,14 30,31 0,7 -3,15 -9,21l-47 47c-6,6 -14,9 -22,9 -16,0 -30,-13 -30,-30zm81 81c0,-8 3,-16 9,-22l47 -47c6,-6 13,-9 21,-9 17,0 31,14 31,30 0,8 -4,16 -9,22l-48 47c-5,6 -13,9 -21,9 -17,0 -30,-14 -30,-30zm81 81c0,-8 3,-16 8,-22l48 -47c5,-6 13,-9 21,-9 17,0 30,14 30,30 0,8 -3,16 -8,22l-48 47c-5,6 -13,9 -21,9 -17,0 -30,-14 -30,-30zm111 111c-17,0 -31,-14 -31,-31 0,-8 4,-15 9,-21l48 -47c5,-6 13,-9 21,-9 17,0 30,13 30,30 0,8 -3,16 -9,21l-47 48c-6,5 -13,9 -21,9zm130 26l-5 0c-7,0 -13,-2 -19,-7l-20 -17 21 -21c7,-7 12,-15 16,-25l25 21c6,5 10,13 10,21 0,16 -13,28 -28,28l0 0zm242 -242l-5 0c-7,0 -13,-2 -19,-7l-146 -121 -34 41 142 118c6,6 10,13 10,22 0,15 -13,28 -28,28l-6 0c-7,0 -13,-2 -18,-7l-147 -122 -34 42 142 118c6,5 10,13 10,22 0,15 -13,28 -28,28 -11,0 -21,-4 -29,-11l-60 -50c-13,-27 -40,-46 -72,-47 -2,-44 -37,-79 -81,-81 -1,-44 -37,-79 -81,-80 -1,-45 -38,-82 -83,-82 -23,0 -44,9 -60,25l-47 47c-3,3 -5,6 -8,10l-83 -50 73 -254 182 -40c48,-11 98,-9 144,6l40 13 -134 67c-31,16 -50,46 -50,81l0 5c0,50 40,90 90,90 16,0 32,-4 46,-12l101 -61c20,-12 47,-9 64,7l228 204c6,6 10,14 10,22 0,16 -13,29 -29,29l0 0zm513 -313l-453 227c-2,-2 -3,-3 -5,-5l-228 -204c-20,-18 -45,-28 -72,-28 -20,0 -39,5 -56,15l-100 60c-6,4 -12,6 -19,6 -20,0 -36,-17 -36,-37l0 -5c0,-14 7,-26 20,-33l150 -75c26,-13 56,-16 84,-8l169 49 41 1 505 -266 0 303zm0 0z"/>
 </g>
</svg>
