<svg xmlns="http://www.w3.org/2000/svg" xml:space="preserve" width="72px" height="72px" version="1.1" style="shape-rendering:geometricPrecision; text-rendering:geometricPrecision; image-rendering:optimizeQuality; fill-rule:evenodd; clip-rule:evenodd"
viewBox="0 0 384 384"
 xmlns:xlink="http://www.w3.org/1999/xlink">
 <defs>
  <style type="text/css">
   <![CDATA[
    .fil0 {fill:#429A44;fill-rule:nonzero}
    .fil1 {fill:url(#id0)}
   ]]>
  </style>
  <linearGradient id="id0" gradientUnits="userSpaceOnUse" x1="-0" y1="192.016" x2="384.044" y2="192.016">
   <stop offset="0" style="stop-opacity:1; stop-color:#69C925"/>
   <stop offset="1" style="stop-opacity:1; stop-color:#399C3A"/>
  </linearGradient>
 </defs>
<symbol id="Fm1-60-0" viewBox="12159 19103 3039 291">
 <path class="fil0" d="M12159 19108l29 0 0 96 117 0 0 -96 30 0 0 222 -30 0 0 -102 -117 0 0 102 -29 0 0 -222zm264 225c-7,0 -14,0 -20,-2 -7,-2 -13,-4 -17,-8 -5,-3 -9,-8 -12,-14 -3,-6 -4,-12 -4,-20 0,-9 2,-17 5,-23 3,-6 7,-10 12,-14 5,-4 11,-6 17,-8 7,-2 13,-4 20,-5 8,-1 14,-2 21,-3 6,-1 12,-2 17,-3 5,-1 9,-3 12,-6 3,-3 4,-6 4,-11 0,-6 -1,-11 -3,-14 -2,-4 -5,-7 -8,-8 -4,-2 -8,-3 -12,-4 -4,-1 -8,-1 -12,-1 -12,0 -21,2 -28,6 -8,5 -12,13 -13,24l-26 0c1,-10 3,-18 6,-25 4,-7 9,-12 15,-16 6,-5 13,-8 21,-10 8,-1 17,-2 26,-2 7,0 15,0 22,1 7,1 13,3 19,7 6,3 11,7 14,13 4,6 5,13 5,23l0 82c0,7 1,11 1,14 1,3 4,4 8,4 2,0 4,0 8,-1l0 20c-5,3 -11,4 -19,4 -7,0 -12,-2 -16,-6 -5,-3 -7,-10 -7,-18 -7,8 -15,15 -25,18 -9,4 -20,6 -31,6zm6 -23c9,0 16,-1 22,-3 6,-3 11,-6 15,-9 4,-4 7,-8 9,-12 2,-4 3,-8 3,-12l0 -27c-3,3 -8,5 -13,6 -5,1 -11,2 -17,2 -6,1 -12,2 -18,3 -6,1 -11,2 -16,4 -5,2 -9,5 -12,9 -3,4 -4,9 -4,16 0,4 1,8 3,11 1,3 4,5 6,7 3,2 6,3 10,4 4,1 8,1 12,1zm116 -141l27 0 0 131 75 -131 34 0 0 161 -26 0 0 -131 -76 131 -34 0 0 -161zm68 -23c-6,0 -12,-1 -17,-3 -6,-2 -10,-4 -14,-8 -4,-4 -8,-8 -10,-13 -2,-5 -4,-11 -4,-17l23 0c0,15 7,23 22,23 7,0 13,-2 17,-7 3,-4 5,-9 5,-16l22 0c0,6 -1,11 -3,17 -2,5 -5,9 -9,13 -4,3 -9,6 -14,8 -6,2 -12,3 -18,3zm147 47l-58 0 0 -24 141 0 0 24 -57 0 0 137 -26 0 0 -137zm105 -24l26 0 0 131 76 -131 34 0 0 161 -27 0 0 -131 -76 131 -33 0 0 -161zm262 0l26 0 0 77 74 -77 35 0 -71 70 79 91 -34 0 -67 -76 -16 15 0 61 -26 0 0 -161zm179 225c-3,0 -6,0 -9,-1 -3,0 -6,-1 -9,-2l0 -24c2,1 5,1 8,2 2,1 5,2 8,2 5,0 9,-2 13,-4 3,-3 6,-6 8,-11l11 -27 -64 -160 30 0 47 132 1 0 45 -132 28 0 -70 182c-3,8 -6,14 -9,20 -3,5 -7,10 -10,13 -4,3 -8,6 -12,8 -5,1 -10,2 -16,2zm140 -225l26 0 0 22 1 0c4,-9 11,-15 20,-19 10,-4 20,-6 31,-6 13,0 23,2 33,6 9,5 17,11 23,19 6,8 10,17 13,27 3,10 5,21 5,32 0,12 -1,23 -4,33 -3,10 -8,18 -14,26 -6,7 -14,13 -23,18 -9,4 -20,6 -32,6 -4,0 -9,0 -14,-1 -4,-1 -9,-2 -14,-4 -5,-2 -9,-4 -13,-8 -5,-3 -8,-7 -11,-12l-1 0 0 83 -26 0 0 -222zm76 141c9,0 16,-1 23,-5 6,-3 11,-8 15,-14 3,-6 6,-12 8,-20 1,-7 2,-15 2,-23 0,-7 -1,-15 -3,-22 -2,-7 -5,-13 -9,-19 -4,-5 -9,-10 -15,-13 -7,-3 -14,-5 -23,-5 -8,0 -16,2 -22,5 -6,4 -11,8 -15,14 -4,6 -7,12 -9,19 -2,8 -3,15 -3,22 0,8 1,16 3,23 2,8 5,14 9,20 4,5 9,10 16,13 6,4 14,5 23,5zm174 23c-13,0 -23,-2 -33,-6 -9,-4 -17,-9 -24,-16 -6,-8 -11,-16 -14,-26 -3,-10 -5,-21 -5,-33 0,-12 2,-24 5,-34 3,-11 8,-20 14,-27 6,-8 14,-14 24,-19 9,-4 20,-6 33,-6 9,0 18,1 26,3 8,2 15,6 21,10 6,5 11,10 15,17 4,7 6,15 7,25l-27 0c-2,-10 -6,-18 -13,-24 -7,-5 -16,-8 -27,-8 -9,0 -17,2 -24,5 -6,4 -11,8 -15,14 -4,6 -6,13 -8,20 -2,8 -3,16 -3,24 0,7 1,14 3,21 2,7 4,14 8,19 4,6 9,10 15,13 6,4 13,5 21,5 13,0 23,-3 31,-10 7,-7 12,-16 13,-29l27 0c-3,20 -10,36 -22,46 -12,11 -28,16 -48,16zm255 0c-13,0 -24,-2 -33,-6 -10,-4 -18,-10 -25,-18 -6,-7 -11,-16 -15,-26 -3,-10 -5,-21 -5,-33 0,-12 2,-23 5,-33 4,-11 9,-19 15,-27 7,-7 15,-13 25,-18 9,-4 20,-6 33,-6 13,0 24,2 34,6 9,5 18,11 24,18 7,8 12,16 15,27 3,10 5,21 5,33 0,12 -2,23 -5,33 -3,10 -8,19 -15,26 -6,8 -15,14 -24,18 -10,4 -21,6 -34,6zm0 -23c7,0 14,-1 20,-4 6,-2 11,-6 16,-11 4,-5 8,-12 10,-19 3,-8 4,-16 4,-26 0,-10 -1,-19 -4,-26 -2,-8 -6,-14 -10,-19 -5,-5 -10,-9 -16,-12 -6,-3 -13,-4 -20,-4 -7,0 -13,1 -19,4 -6,3 -12,7 -16,12 -5,5 -8,11 -11,19 -2,7 -4,16 -4,26 0,10 2,18 4,26 3,7 6,14 11,19 4,5 10,9 16,11 6,3 12,4 19,4zm181 23c-21,0 -38,-5 -50,-16 -13,-10 -21,-26 -24,-49 -2,-8 -2,-18 -2,-29 0,-7 0,-15 1,-24 0,-8 1,-16 2,-24 2,-8 4,-16 6,-23 2,-8 5,-15 9,-21 7,-11 16,-19 26,-24 10,-5 23,-8 38,-9 11,-1 19,-2 26,-3 7,-1 10,-4 11,-8l27 0c-1,8 -2,14 -6,19 -3,4 -7,7 -13,9 -5,3 -12,4 -20,5 -8,0 -18,1 -28,2 -9,1 -17,3 -24,6 -6,4 -12,8 -17,14 -4,6 -8,13 -11,21 -3,8 -5,17 -6,26l1 0c4,-10 11,-19 21,-26 10,-6 21,-10 35,-10 23,0 40,7 53,21 13,14 20,35 20,61 0,13 -2,25 -5,35 -4,11 -9,19 -16,26 -6,7 -14,12 -24,16 -9,4 -19,5 -30,5zm0 -22c6,0 12,-1 18,-4 6,-2 11,-6 15,-11 5,-5 8,-11 11,-19 3,-7 4,-16 4,-25 0,-19 -4,-34 -13,-45 -9,-11 -21,-16 -35,-16 -15,0 -27,6 -36,16 -9,11 -13,26 -13,45 0,18 4,33 13,43 9,11 21,16 36,16zm122 83c-3,0 -6,0 -9,-1 -3,0 -6,-1 -9,-2l0 -24c3,1 5,1 8,2 2,1 5,2 8,2 5,0 9,-2 13,-4 3,-3 6,-6 8,-11l11 -27 -63 -160 29 0 47 132 1 0 45 -132 28 0 -70 182c-3,8 -6,14 -9,20 -3,5 -7,10 -10,13 -4,3 -8,6 -12,8 -5,1 -10,2 -16,2zm235 -129c-4,2 -11,4 -19,6 -9,1 -18,2 -27,2 -20,0 -34,-4 -43,-13 -8,-8 -12,-20 -12,-36l0 -55 26 0 0 51c0,11 2,18 7,23 5,5 14,8 27,8 8,0 15,-1 23,-3 8,-1 14,-3 18,-5l0 -74 27 0 0 161 -27 0 0 -65zm135 68c-13,0 -24,-2 -34,-6 -10,-4 -18,-10 -24,-17 -6,-8 -11,-17 -14,-27 -4,-10 -5,-22 -5,-34 0,-12 2,-23 5,-33 4,-10 9,-19 16,-27 7,-7 15,-13 24,-17 9,-4 19,-6 30,-6 14,0 26,3 36,9 9,5 17,13 22,22 6,9 10,19 12,30 2,11 3,21 3,31l-120 0c-1,7 0,13 2,20 2,6 5,11 9,16 4,5 10,9 16,12 6,3 14,4 23,4 11,0 20,-2 27,-7 7,-6 12,-14 14,-24l26 0c-3,18 -11,32 -23,41 -12,9 -27,13 -45,13zm43 -99c-1,-6 -2,-12 -4,-17 -3,-6 -6,-11 -10,-15 -4,-4 -9,-7 -14,-9 -6,-3 -12,-4 -18,-4 -7,0 -13,1 -19,4 -5,2 -10,5 -14,9 -4,4 -7,9 -9,15 -3,5 -4,11 -4,17l92 0zm55 -65l26 0 0 64 82 0 0 -64 26 0 0 161 -26 0 0 -74 -82 0 0 74 -26 0 0 -161zm174 0l26 0 0 131 76 -131 34 0 0 161 -27 0 0 -131 -75 131 -34 0 0 -161zm209 98c-11,-2 -20,-7 -27,-15 -8,-9 -11,-20 -11,-33 0,-15 4,-27 13,-36 9,-9 21,-14 37,-14l81 0 0 161 -26 0 0 -62 -35 0 -49 62 -35 0 52 -63zm67 -22l0 -52 -47 0c-11,0 -19,2 -24,7 -5,5 -7,11 -7,19 0,8 2,15 7,19 5,5 13,7 24,7l47 0z"/>
</symbol>
 <g id="Layer-44">
  <metadata id="CorelCorpID_0Corel-Layer"/>
  <path class="fil1" d="M254 0c-72,0 -130,58 -130,130 0,29 10,56 26,78l-22 22 -10 -10 -108 109c-7,6 -10,14 -10,23 0,17 15,32 32,32 9,0 17,-3 23,-9l109 -109 -10 -9 22 -23c22,16 49,26 78,26 72,0 130,-58 130,-130 0,-72 -58,-130 -130,-130zm-81 279l13 0 0 -13 12 0 0 13 13 0 0 12 -13 0 0 13 -12 0 0 -13 -13 0 0 -12zm13 0l0 12 12 0 0 -12 -12 0zm49 80l13 0 0 -12 12 0 0 12 13 0 0 13 -13 0 0 12 -12 0 0 -12 -13 0 0 -13zm13 0l0 13 12 0 0 -13 -12 0zm99 -62l12 0 0 -12 13 0 0 12 12 0 0 13 -12 0 0 12 -13 0 0 -12 -12 0 0 -13zm12 0l0 13 13 0 0 -13 -13 0zm-291 -111l13 0 0 -13 12 0 0 13 12 0 0 12 -12 0 0 13 -12 0 0 -13 -13 0 0 -12zm13 0l0 12 12 0 0 -12 -12 0zm-81 -87l12 0 0 -12 13 0 0 12 -13 0 0 13 13 0 0 -13 12 0 0 13 -12 0 0 12 -13 0 0 -12 -12 0 0 -13zm74 -87l13 0 0 -12 12 0 0 12 13 0 0 13 -13 0 0 12 -12 0 0 -12 -13 0 0 -13zm13 0l0 13 12 0 0 -13 -12 0zm101 52c35,-34 91,-36 127,-3l9 -10c-42,-37 -105,-35 -144,5 -40,39 -42,102 -5,144l9 -8c-32,-37 -30,-93 4,-128l0 0zm145 -4l-9 9c32,36 30,92 -4,127 -35,34 -91,36 -127,4l-9 9c20,18 45,26 70,26 27,0 54,-10 74,-30 40,-40 42,-103 5,-145l0 0zm-296 293c0,3 -3,6 -6,6 -3,0 -6,-3 -6,-6 0,-3 3,-6 6,-6 3,0 6,3 6,6zm177 -228c-13,4 -22,16 -22,30l0 31 124 0 0 -31c0,-14 -9,-26 -23,-30l-20 -6 0 -1c7,-6 12,-15 12,-25l0 -11c0,-17 -12,-31 -28,-32 -9,-1 -18,2 -24,8 -6,6 -10,14 -10,23l0 12c0,10 5,19 12,25l0 1 -21 6zm31 -16c-6,-3 -10,-9 -10,-16l0 -12c0,-6 3,-11 6,-14 4,-4 9,-5 15,-5 9,1 17,10 17,20l0 11c0,7 -4,13 -10,16l-3 2 0 18 30 8c8,2 14,10 14,18l0 18 -100 0 0 -18c0,-8 6,-16 14,-18l30 -8 0 -18 -3 -2zm-198 257c-4,4 -9,6 -15,6 -11,0 -20,-9 -20,-20 0,-6 2,-11 6,-15l100 -99 28 28 -99 100zm98 -118l-9 -9 22 -22c3,3 6,6 9,9l-22 22zm109 0c-65,0 -118,-53 -118,-118 0,-65 53,-118 118,-118 65,0 118,53 118,118 0,65 -53,118 -118,118z"/>
 </g>
</svg>
