<svg xmlns="http://www.w3.org/2000/svg" xml:space="preserve" width="75px" height="75px" version="1.1" style="shape-rendering:geometricPrecision; text-rendering:geometricPrecision; image-rendering:optimizeQuality; fill-rule:evenodd; clip-rule:evenodd"
viewBox="0 0 1837 1837"
 xmlns:xlink="http://www.w3.org/1999/xlink">
 <defs>
  <style type="text/css">
   <![CDATA[
    .fil0 {fill:#429A44;fill-rule:nonzero}
    .fil1 {fill:url(#id0)}
   ]]>
  </style>
  <linearGradient id="id0" gradientUnits="userSpaceOnUse" x1="-0" y1="918.672" x2="1837.34" y2="918.672">
   <stop offset="0" style="stop-opacity:1; stop-color:#69C925"/>
   <stop offset="1" style="stop-opacity:1; stop-color:#399C3A"/>
  </linearGradient>
 </defs>
<symbol id="Fm1-60-0" viewBox="35627 87862 13983 1338">
 <path class="fil0" d="M35627 87886l135 0 0 439 537 0 0 -439 136 0 0 1020 -136 0 0 -467 -537 0 0 467 -135 0 0 -1020zm1215 1036c-33,0 -65,-4 -94,-11 -30,-7 -56,-19 -78,-36 -23,-16 -40,-38 -53,-64 -13,-26 -19,-58 -19,-95 0,-42 7,-76 21,-103 14,-26 33,-48 57,-65 23,-16 50,-29 79,-37 30,-9 61,-16 92,-22 34,-7 66,-12 95,-15 30,-4 57,-8 80,-14 22,-7 41,-15 54,-28 13,-11 20,-29 20,-51 0,-27 -5,-49 -15,-65 -10,-16 -23,-28 -39,-37 -15,-8 -33,-14 -52,-17 -20,-3 -39,-4 -58,-4 -51,0 -94,9 -129,29 -34,20 -53,56 -56,111l-121 0c2,-46 12,-85 29,-116 17,-31 40,-57 69,-77 28,-19 60,-33 97,-42 37,-8 76,-12 118,-12 33,0 67,2 99,7 33,4 63,14 89,29 27,15 49,35 65,62 16,27 24,62 24,105l0 379c0,29 2,50 5,63 3,13 15,20 34,20 8,0 21,-2 37,-7l0 94c-21,13 -50,19 -88,19 -31,0 -56,-9 -75,-27 -18,-17 -27,-46 -27,-86 -34,40 -73,69 -117,86 -44,18 -92,27 -143,27zm27 -106c40,0 74,-6 103,-16 28,-11 51,-25 70,-42 18,-16 31,-35 40,-54 8,-20 13,-38 13,-55l0 -124c-16,12 -36,21 -60,25 -25,5 -51,10 -78,13 -27,4 -55,8 -82,12 -28,4 -53,10 -75,20 -21,9 -39,23 -53,40 -14,18 -21,42 -21,73 0,19 4,36 12,50 8,14 19,25 32,34 13,8 28,15 45,18 17,4 35,6 54,6zm535 -648l122 0 0 602 348 -602 156 0 0 738 -122 0 0 -603 -348 603 -156 0 0 -738zm313 -109c-29,0 -55,-4 -80,-13 -25,-8 -47,-20 -65,-37 -18,-16 -33,-36 -44,-59 -11,-23 -17,-50 -17,-81l102 0c2,71 36,106 103,106 33,0 58,-9 76,-28 17,-18 26,-44 26,-78l102 0c0,29 -6,55 -16,79 -10,24 -25,44 -43,60 -18,16 -39,29 -64,38 -25,9 -52,13 -80,13zm674 216l-264 0 0 -107 649 0 0 107 -264 0 0 631 -121 0 0 -631zm482 -107l122 0 0 602 348 -602 156 0 0 738 -122 0 0 -603 -348 603 -156 0 0 -738zm1206 0l121 0 0 352 339 -352 161 0 -327 319 366 419 -156 0 -309 -351 -74 73 0 278 -121 0 0 -738zm827 1032c-14,0 -29,-1 -43,-3 -14,-2 -28,-5 -42,-10l0 -111c12,4 24,8 35,11 12,4 24,6 37,6 24,0 45,-6 60,-17 15,-12 28,-28 40,-50l49 -124 -292 -734 137 0 216 604 3 0 206 -604 129 0 -321 835c-14,36 -29,67 -42,92 -14,24 -29,45 -46,60 -17,16 -35,27 -55,35 -21,7 -45,10 -71,10zm642 -1032l121 0 0 100 3 0c20,-41 52,-71 95,-90 42,-18 89,-27 141,-27 57,0 107,10 149,31 43,21 78,49 106,85 28,36 49,77 63,123 15,47 22,97 22,149 0,53 -7,103 -21,149 -14,46 -35,87 -63,122 -28,34 -63,62 -105,82 -43,20 -92,30 -148,30 -19,0 -40,-2 -61,-6 -22,-4 -44,-10 -66,-19 -22,-8 -43,-20 -62,-35 -20,-14 -36,-33 -50,-54l-3 0 0 379 -121 0 0 -1019zm350 648c41,0 75,-8 104,-24 29,-16 52,-38 69,-65 17,-26 29,-57 37,-91 7,-34 11,-70 11,-106 0,-34 -4,-68 -13,-100 -10,-33 -23,-62 -42,-88 -18,-26 -42,-46 -71,-62 -29,-15 -63,-22 -102,-22 -41,0 -76,8 -104,24 -29,16 -52,37 -70,63 -18,27 -31,56 -39,89 -9,34 -13,68 -13,102 0,36 5,71 13,105 9,34 22,64 41,89 18,26 42,46 72,62 29,16 65,24 107,24zm798 106c-56,0 -105,-9 -149,-27 -43,-19 -79,-44 -109,-78 -29,-33 -51,-73 -65,-118 -15,-46 -22,-97 -22,-153 0,-55 7,-107 21,-155 14,-48 36,-90 65,-126 29,-35 65,-63 109,-84 43,-20 94,-30 153,-30 42,0 81,5 118,15 37,10 69,25 97,46 28,21 51,47 69,79 18,32 30,70 34,114l-125 0c-10,-47 -30,-83 -60,-109 -31,-25 -72,-38 -123,-38 -44,0 -80,8 -110,24 -29,16 -53,38 -71,64 -17,27 -30,58 -37,92 -8,35 -12,71 -12,108 0,35 4,68 12,100 8,33 21,61 38,86 17,26 39,46 66,61 28,15 61,23 100,23 60,0 106,-16 140,-47 34,-31 55,-76 62,-133l125 0c-14,92 -47,163 -102,212 -54,49 -129,74 -224,74zm1176 0c-58,0 -110,-10 -154,-30 -44,-19 -82,-46 -112,-81 -31,-35 -54,-75 -69,-122 -15,-46 -23,-97 -23,-151 0,-55 8,-105 23,-153 15,-47 38,-88 69,-123 30,-34 68,-61 112,-81 44,-20 96,-30 154,-30 59,0 110,10 155,30 45,20 82,47 113,81 30,35 53,76 68,123 15,48 23,98 23,153 0,54 -8,105 -23,151 -15,47 -38,87 -68,122 -31,35 -68,62 -113,81 -45,20 -96,30 -155,30zm0 -106c32,0 62,-6 90,-18 28,-13 52,-31 74,-54 20,-23 37,-53 49,-87 11,-35 17,-74 17,-119 0,-45 -6,-85 -17,-120 -12,-35 -29,-64 -49,-88 -22,-23 -46,-41 -74,-54 -28,-12 -58,-18 -90,-18 -31,0 -61,6 -89,18 -28,13 -52,31 -73,54 -21,24 -38,53 -49,88 -12,35 -18,75 -18,120 0,45 6,84 18,119 11,34 28,64 49,87 21,23 45,41 73,54 28,12 58,18 89,18zm832 106c-95,0 -172,-25 -231,-73 -59,-49 -95,-124 -110,-226 -7,-40 -9,-85 -9,-134 0,-35 1,-72 3,-110 3,-38 7,-76 13,-113 6,-37 15,-72 26,-107 11,-34 25,-65 43,-92 33,-51 73,-88 119,-113 47,-24 105,-38 176,-43 46,-4 86,-8 117,-13 31,-5 49,-17 53,-36l121 0c-2,37 -10,66 -24,86 -14,20 -35,35 -60,45 -26,10 -58,16 -94,20 -38,3 -81,7 -131,11 -41,2 -76,12 -107,28 -30,16 -56,38 -77,65 -22,27 -39,59 -52,96 -14,37 -24,77 -29,120l4 0c21,-48 54,-88 98,-120 44,-31 98,-46 160,-46 104,0 186,32 246,96 60,65 90,159 90,280 0,62 -8,117 -25,163 -16,48 -40,87 -71,119 -30,32 -66,56 -109,72 -42,17 -89,25 -140,25zm1 -103c29,0 56,-6 83,-18 27,-12 50,-29 70,-52 20,-23 36,-51 49,-85 12,-34 18,-73 18,-118 0,-86 -20,-154 -60,-204 -40,-50 -94,-74 -163,-74 -68,0 -123,25 -163,75 -41,49 -61,118 -61,205 0,84 20,150 60,198 40,49 96,73 167,73zm563 381c-15,0 -29,-1 -43,-3 -15,-2 -28,-5 -42,-10l0 -111c12,4 23,8 35,11 12,4 24,6 37,6 24,0 45,-6 60,-17 15,-12 28,-28 40,-50l49 -124 -292 -734 137 0 216 604 3 0 206 -604 129 0 -321 835c-14,36 -29,67 -42,92 -14,24 -30,45 -46,60 -17,16 -35,27 -56,35 -20,7 -44,10 -70,10zm1080 -594c-22,9 -52,19 -91,27 -39,9 -80,13 -123,13 -91,0 -156,-20 -195,-59 -40,-40 -59,-95 -59,-166l0 -253 121 0 0 232c0,49 12,85 34,108 22,24 63,35 122,35 36,0 72,-4 107,-11 36,-8 64,-17 84,-26l0 -338 122 0 0 738 -122 0 0 -300zm619 316c-59,0 -111,-10 -155,-29 -44,-19 -81,-45 -111,-80 -29,-34 -52,-75 -66,-123 -15,-47 -22,-99 -22,-155 0,-56 8,-107 25,-154 17,-47 41,-87 72,-122 31,-34 68,-61 110,-80 43,-19 89,-28 139,-28 66,0 121,13 164,40 44,27 78,62 104,104 27,42 44,87 55,137 10,49 14,96 12,141l-553 0c-1,33 3,63 12,92 8,29 22,55 41,77 19,23 43,41 73,54 29,13 64,20 104,20 51,0 94,-12 126,-36 33,-24 55,-60 65,-108l120 0c-16,83 -51,146 -107,187 -55,42 -125,63 -208,63zm198 -456c-2,-28 -8,-55 -19,-81 -11,-26 -26,-48 -45,-67 -18,-18 -40,-33 -65,-44 -25,-11 -53,-16 -84,-16 -31,0 -59,5 -85,16 -25,11 -46,26 -65,45 -18,19 -32,41 -42,66 -11,26 -17,53 -19,81l424 0zm254 -298l122 0 0 294 374 0 0 -294 121 0 0 738 -121 0 0 -340 -374 0 0 340 -122 0 0 -738zm800 0l121 0 0 602 348 -602 156 0 0 738 -121 0 0 -603 -349 603 -155 0 0 -738zm964 449c-53,-7 -96,-31 -129,-71 -33,-40 -50,-90 -50,-151 0,-69 21,-125 62,-166 42,-41 98,-61 170,-61l374 0 0 738 -122 0 0 -284 -161 0 -226 284 -161 0 243 -289zm305 -100l0 -242 -214 0c-51,0 -88,11 -111,33 -23,22 -35,51 -35,88 0,38 12,68 35,89 23,22 60,32 111,32l214 0z"/>
</symbol>
 <g id="Layer-43">
  <metadata id="CorelCorpID_0Corel-Layer"/>
  <path class="fil1" d="M622 593l195 0c15,27 41,47 72,55l0 182 -59 0c-49,0 -89,40 -89,89l0 89 355 0 0 -89c0,-49 -39,-89 -88,-89l-60 0 0 -182c31,-8 57,-28 73,-55l194 0 0 -89c0,-66 -44,-124 -107,-142l-100 -29 0 -8c36,-27 59,-71 59,-118l0 -53c0,-79 -59,-147 -135,-153 -42,-4 -83,10 -113,38 -31,28 -48,68 -48,109l0 59c0,47 22,91 59,118l0 8 -101 29c-63,18 -107,76 -107,142l0 89zm30 1126l237 0 0 -178 -237 0 0 178zm59 -119l119 0 0 60 -119 0 0 -60zm237 119l237 0 0 -178 -237 0 0 178zm60 -119l118 0 0 60 -118 0 0 -60zm-119 -533l-237 0 0 178 237 0 0 -178zm-59 118l-119 0 0 -59 119 0 0 59zm355 -118l-237 0 0 178 237 0 0 -178zm-59 118l-118 0 0 -59 118 0 0 59zm534 -948l59 0 0 59 -59 0 0 -59zm-356 0l296 0 0 59 -296 0 0 -59zm0 -118l415 0 0 59 -415 0 0 -59zm444 -119l-474 0c-49,0 -89,40 -89,89l0 237c0,49 40,89 89,89l178 0 0 144 216 -144 80 0c49,0 89,-40 89,-89l0 -237c0,-49 -40,-89 -89,-89zm30 326c0,16 -13,30 -30,30l-97 0 -140 92 0 -92 -237 0c-16,0 -29,-14 -29,-30l0 -237c0,-16 13,-30 29,-30l474 0c17,0 30,14 30,30l0 237zm-1659 -89l296 0 0 59 -296 0 0 -59zm355 0l59 0 0 59 -59 0 0 -59zm-355 -118l414 0 0 59 -414 0 0 -59zm-30 296l80 0 216 144 0 -144 178 0c49,0 89,-40 89,-89l0 -237c0,-49 -40,-89 -89,-89l-474 0c-49,0 -89,40 -89,89l0 237c0,49 40,89 89,89zm-30 -326c0,-16 14,-30 30,-30l474 0c16,0 30,14 30,30l0 237c0,16 -14,30 -30,30l-237 0 0 92 -139 -92 -98 0c-16,0 -30,-14 -30,-30l0 -237zm1671 866l-100 -29 0 -8c37,-28 59,-72 59,-118l0 -53c0,-80 -59,-147 -135,-154 -41,-3 -83,11 -113,39 -31,28 -48,67 -48,109l0 59c0,46 22,90 59,118l0 8 -100 29c-18,5 -34,13 -48,24l0 -268 -296 0 0 60 237 0 0 1007 -652 0 0 -1007 237 0 0 -60 -297 0 0 268c-14,-11 -30,-19 -47,-24l-101 -29 0 -8c37,-28 60,-72 60,-118l0 -53c0,-80 -60,-147 -135,-154 -42,-3 -83,11 -114,39 -30,28 -48,67 -48,109l0 59c0,46 23,90 59,118l0 8 -100 29c-63,18 -107,76 -107,141l0 30 533 0 0 446c-14,-11 -30,-20 -47,-25l-101 -28 0 -8c37,-28 60,-72 60,-118l0 -53c0,-80 -60,-147 -135,-154 -42,-4 -83,10 -114,38 -30,28 -48,68 -48,110l0 59c0,46 23,90 59,118l0 8 -100 28c-63,18 -107,77 -107,142l0 30 533 0 0 118 771 0 0 -118 533 0 0 -30c0,-65 -44,-124 -107,-142l-100 -28 0 -8c37,-28 59,-72 59,-118l0 -53c0,-80 -59,-147 -135,-154 -41,-4 -83,10 -113,38 -31,28 -48,68 -48,110l0 59c0,46 22,90 59,118l0 8 -100 28c-18,5 -34,14 -48,25l0 -446 533 0 0 -30c0,-65 -44,-123 -107,-141l0 0zm-1666 112c10,-26 31,-47 59,-55l144 -41 0 -86 -15 -8c-28,-17 -45,-45 -45,-77l0 -59c0,-25 11,-49 29,-66 19,-17 43,-25 68,-23 46,4 81,46 81,95l0 53c0,32 -16,60 -44,77l-15 8 0 86 143 41c28,8 50,29 59,55l-464 0zm0 593c10,-27 31,-48 59,-56l144 -41 0 -85 -15 -9c-28,-16 -45,-44 -45,-76l0 -59c0,-25 11,-49 29,-66 19,-17 43,-25 68,-23 46,4 81,46 81,95l0 53c0,32 -16,60 -44,76l-15 9 0 85 143 41c28,8 50,29 59,56l-464 0zm1304 -56l143 -41 0 -85 -14 -9c-28,-16 -45,-44 -45,-76l0 -59c0,-25 11,-49 29,-66 19,-17 43,-25 68,-23 45,4 81,46 81,95l0 53c0,32 -17,60 -45,76l-14 9 0 85 143 41c28,8 49,29 59,56l-464 0c10,-27 31,-48 59,-56zm-59 -537c10,-26 31,-47 59,-55l143 -41 0 -86 -14 -8c-28,-17 -45,-45 -45,-77l0 -59c0,-25 11,-49 29,-66 19,-17 43,-25 68,-23 45,4 81,46 81,95l0 53c0,32 -17,60 -45,77l-14 8 0 86 143 41c28,8 49,29 59,55l-464 0zm-272 -148l0 29 -237 0 0 -29c0,-17 13,-30 30,-30l178 0c16,0 29,13 29,30l0 0zm-118 -326c-33,0 -60,-27 -60,-60 0,-32 27,-59 60,-59 32,0 59,27 59,59 0,33 -27,60 -59,60zm-237 -89c0,-39 26,-74 64,-85l143 -41 0 -85 -15 -9c-28,-16 -44,-45 -44,-77l0 -59c0,-25 10,-49 29,-65 18,-17 42,-26 68,-23 45,4 81,45 81,94l0 53c0,32 -17,61 -45,77l-15 9 0 85 144 41c37,11 64,46 64,85l0 29 -119 0c0,-65 -53,-118 -118,-118 -66,0 -119,53 -119,118l-118 0 0 -29z"/>
 </g>
</svg>
