<svg xmlns="http://www.w3.org/2000/svg" xml:space="preserve" width="69px" height="64px" version="1.1" style="shape-rendering:geometricPrecision; text-rendering:geometricPrecision; image-rendering:optimizeQuality; fill-rule:evenodd; clip-rule:evenodd"
viewBox="0 0 668 624"
 xmlns:xlink="http://www.w3.org/1999/xlink">
 <defs>
  <style type="text/css">
   <![CDATA[
    .fil1 {fill:#69C925}
    .fil0 {fill:#429A44;fill-rule:nonzero}
   ]]>
  </style>
 </defs>
<symbol id="Fm1-60-0" viewBox="19015 -27544 5527 529">
 <path class="fil0" d="M19015 -27535l54 0 0 173 212 0 0 -173 54 0 0 403 -54 0 0 -184 -212 0 0 184 -54 0 0 -403zm481 409c-13,0 -26,-1 -37,-4 -12,-3 -23,-7 -31,-14 -9,-7 -16,-15 -21,-25 -5,-11 -8,-23 -8,-38 0,-16 3,-30 9,-40 5,-11 13,-20 22,-26 9,-7 20,-12 32,-15 11,-3 24,-6 36,-9 13,-2 26,-4 38,-6 11,-1 22,-3 31,-5 9,-3 16,-6 21,-11 6,-5 8,-12 8,-20 0,-11 -2,-20 -6,-26 -4,-6 -9,-11 -15,-15 -6,-3 -13,-5 -21,-6 -8,-1 -15,-2 -23,-2 -20,0 -37,4 -51,11 -13,8 -20,23 -22,44l-47 0c0,-18 4,-33 11,-46 7,-12 16,-22 27,-30 11,-7 24,-13 39,-16 14,-4 30,-5 46,-5 13,0 26,1 39,2 13,2 25,6 36,12 10,6 19,14 25,25 6,10 10,24 10,41l0 150c0,11 0,19 2,25 1,5 5,8 13,8 3,0 8,-1 15,-3l0 37c-9,5 -20,7 -35,7 -12,0 -22,-3 -30,-10 -7,-7 -11,-18 -11,-34 -13,16 -28,27 -46,34 -17,7 -36,10 -56,10zm10 -41c16,0 30,-3 41,-7 11,-4 21,-10 28,-16 7,-7 12,-14 16,-22 3,-7 5,-15 5,-21l0 -50c-6,5 -14,9 -24,11 -10,1 -20,3 -31,5 -10,1 -21,3 -32,4 -11,2 -21,4 -30,8 -8,4 -15,9 -21,16 -5,7 -8,17 -8,29 0,8 2,14 5,20 3,5 7,10 12,13 5,3 11,6 18,7 7,2 14,3 21,3zm212 -257l48 0 0 239 138 -239 61 0 0 292 -48 0 0 -238 -137 238 -62 0 0 -292zm124 -43c-12,0 -22,-1 -32,-5 -10,-3 -18,-8 -26,-14 -7,-7 -13,-14 -17,-24 -4,-9 -7,-20 -7,-32l40 0c1,28 15,42 41,42 13,0 23,-3 30,-11 7,-7 11,-17 11,-31l40 0c0,12 -2,22 -6,31 -4,10 -10,18 -17,24 -7,7 -16,12 -26,15 -9,4 -20,5 -31,5zm266 86l-104 0 0 -43 256 0 0 43 -104 0 0 249 -48 0 0 -249zm191 -43l48 0 0 239 137 -239 62 0 0 292 -48 0 0 -238 -138 238 -61 0 0 -292zm476 0l48 0 0 140 134 -140 64 0 -129 127 144 165 -62 0 -121 -139 -30 29 0 110 -48 0 0 -292zm327 409c-5,0 -11,-1 -17,-2 -5,0 -11,-2 -16,-4l0 -44c4,2 9,3 14,5 4,1 9,2 14,2 10,0 18,-2 24,-7 6,-4 11,-11 16,-19l19 -50 -115 -290 54 0 85 239 1 0 82 -239 51 0 -127 331c-6,14 -11,26 -17,36 -5,10 -11,18 -18,24 -6,6 -14,10 -22,13 -8,3 -17,5 -28,5zm254 -409l48 0 0 40 1 0c8,-16 21,-28 37,-35 17,-8 36,-11 56,-11 23,0 43,4 59,12 17,8 31,19 42,34 11,14 20,30 25,48 6,19 9,38 9,59 0,21 -3,41 -8,59 -6,18 -14,34 -25,48 -11,14 -25,25 -42,33 -17,7 -36,11 -59,11 -7,0 -15,0 -24,-2 -8,-1 -17,-4 -26,-7 -8,-4 -17,-8 -24,-14 -8,-6 -15,-13 -20,-22l-1 0 0 150 -48 0 0 -403zm138 257c17,0 30,-4 42,-10 11,-6 20,-15 27,-25 6,-11 11,-23 14,-37 3,-13 5,-27 5,-41 0,-14 -2,-27 -5,-40 -4,-13 -10,-25 -17,-35 -7,-10 -17,-18 -28,-24 -11,-6 -25,-9 -40,-9 -17,0 -30,3 -42,9 -11,7 -20,15 -27,26 -7,10 -13,22 -16,35 -3,13 -5,26 -5,40 0,14 2,28 6,41 3,14 8,26 16,36 7,10 16,18 28,24 12,6 26,10 42,10zm316 41c-22,0 -42,-3 -59,-10 -17,-7 -31,-18 -43,-31 -11,-13 -20,-29 -26,-47 -6,-18 -9,-38 -9,-60 0,-22 3,-42 9,-61 5,-19 14,-36 26,-50 11,-14 25,-25 42,-33 18,-8 38,-12 61,-12 17,0 32,2 47,6 14,4 27,10 38,18 11,8 20,19 27,31 8,13 12,28 14,45l-50 0c-3,-18 -11,-33 -23,-43 -12,-10 -29,-15 -49,-15 -17,0 -32,3 -43,9 -12,7 -22,15 -28,26 -7,10 -12,23 -15,36 -3,14 -5,28 -5,43 0,14 2,27 5,39 3,13 8,25 15,35 7,10 15,18 26,24 11,6 24,9 39,9 24,0 43,-7 56,-19 13,-12 21,-30 24,-53l50 0c-6,37 -19,65 -40,84 -22,20 -51,29 -89,29zm465 0c-23,0 -44,-3 -61,-11 -18,-8 -33,-19 -45,-32 -12,-14 -21,-30 -27,-49 -6,-18 -9,-38 -9,-59 0,-22 3,-42 9,-61 6,-18 15,-34 27,-48 12,-14 27,-25 45,-33 17,-7 38,-11 61,-11 23,0 43,4 61,11 18,8 32,19 44,33 12,14 22,30 28,48 6,19 9,39 9,61 0,21 -3,41 -9,59 -6,19 -16,35 -28,49 -12,13 -26,24 -44,32 -18,8 -38,11 -61,11zm0 -41c12,0 24,-3 35,-8 11,-5 21,-12 29,-21 9,-9 15,-21 20,-34 4,-14 7,-30 7,-47 0,-18 -3,-34 -7,-48 -5,-13 -11,-25 -20,-34 -8,-10 -18,-17 -29,-22 -11,-5 -23,-7 -35,-7 -12,0 -24,2 -35,7 -11,5 -21,12 -29,22 -9,9 -15,21 -20,34 -4,14 -7,30 -7,48 0,17 3,33 7,47 5,13 11,25 20,34 8,9 18,16 29,21 11,5 23,8 35,8zm329 41c-38,0 -68,-9 -92,-28 -23,-20 -37,-49 -43,-90 -3,-15 -4,-33 -4,-53 0,-14 1,-28 2,-43 1,-15 2,-30 5,-45 2,-14 6,-28 10,-42 4,-14 10,-26 17,-37 13,-20 29,-34 47,-44 18,-10 42,-15 69,-17 19,-2 34,-3 47,-5 12,-2 19,-7 21,-14l47 0c0,14 -3,26 -9,33 -6,8 -14,14 -24,18 -10,4 -22,7 -37,8 -15,2 -32,3 -52,4 -16,2 -30,5 -42,12 -12,6 -22,14 -30,25 -9,11 -16,24 -21,38 -5,15 -9,31 -11,48l1 0c8,-19 21,-35 39,-48 17,-12 39,-18 63,-18 41,0 74,13 97,38 24,26 36,63 36,111 0,24 -3,46 -10,64 -6,19 -16,35 -28,47 -12,13 -26,22 -43,29 -17,6 -35,9 -55,9zm0 -40c11,0 22,-3 33,-7 10,-5 20,-12 27,-21 8,-9 15,-20 20,-33 5,-14 7,-29 7,-47 0,-34 -8,-61 -24,-81 -15,-19 -37,-29 -64,-29 -27,0 -49,10 -65,29 -16,20 -24,47 -24,82 0,33 8,59 24,78 16,19 38,29 66,29zm222 151c-5,0 -11,-1 -17,-2 -5,0 -11,-2 -16,-4l0 -44c5,2 9,3 14,5 5,1 9,2 14,2 10,0 18,-2 24,-7 6,-4 11,-11 16,-19l19 -50 -115 -290 54 0 85 239 1 0 82 -239 51 0 -127 331c-6,14 -11,26 -17,36 -5,10 -11,18 -18,24 -6,6 -14,10 -22,13 -8,3 -17,5 -28,5zm428 -235c-9,3 -21,7 -36,10 -16,4 -32,5 -49,5 -36,0 -62,-7 -77,-23 -16,-16 -24,-37 -24,-66l0 -100 48 0 0 92c0,20 5,34 14,43 9,9 25,14 48,14 14,0 29,-2 42,-5 14,-3 25,-6 34,-10l0 -134 48 0 0 292 -48 0 0 -118zm244 124c-23,0 -44,-3 -61,-11 -18,-7 -32,-18 -44,-31 -12,-14 -20,-30 -26,-49 -6,-19 -9,-39 -9,-62 0,-21 3,-42 10,-60 7,-19 16,-35 29,-48 12,-14 26,-25 43,-32 17,-8 35,-11 55,-11 26,0 48,5 65,16 17,10 31,24 41,41 10,16 18,34 22,54 4,19 5,38 4,56l-218 0c-1,12 1,25 4,36 4,12 9,22 17,31 7,8 17,15 29,21 11,5 25,8 41,8 20,0 37,-5 50,-15 13,-9 21,-23 25,-42l48 0c-7,33 -21,57 -43,74 -21,16 -49,24 -82,24zm78 -180c0,-11 -3,-22 -7,-32 -4,-10 -10,-19 -18,-26 -7,-7 -16,-13 -26,-18 -10,-4 -21,-6 -33,-6 -12,0 -23,2 -33,6 -10,5 -19,11 -26,18 -7,8 -13,17 -17,26 -4,11 -6,21 -7,32l167 0zm101 -118l48 0 0 117 148 0 0 -117 48 0 0 292 -48 0 0 -134 -148 0 0 134 -48 0 0 -292zm316 0l48 0 0 239 138 -239 61 0 0 292 -48 0 0 -238 -138 238 -61 0 0 -292zm381 178c-21,-3 -38,-12 -51,-28 -13,-16 -20,-36 -20,-60 0,-27 9,-49 25,-65 16,-16 39,-25 67,-25l148 0 0 292 -48 0 0 -112 -64 0 -89 112 -64 0 96 -114zm121 -39l0 -96 -85 0c-20,0 -35,4 -44,13 -9,8 -13,20 -13,35 0,15 4,26 13,35 9,8 24,13 44,13l85 0z"/>
</symbol>
 <g id="Layer-358">
  <metadata id="CorelCorpID_0Corel-Layer"/>
  <g id="_2096992724816">
   <g>
    <g>
     <g>
      <path class="fil1" d="M470 557c-6,-1 -12,2 -13,8l-11 45c-2,6 2,12 8,13 1,1 2,1 3,1 5,0 9,-4 10,-9l12 -44c1,-6 -3,-12 -9,-14z"/>
      <path class="fil1" d="M334 334c2,0 3,0 4,-1l123 -50c6,-3 8,-9 6,-15 -2,-6 -9,-8 -15,-6l-118 49 -312 -129 0 -4c0,-6 -5,-11 -11,-11 -6,0 -11,5 -11,11l0 11c0,5 3,9 7,11l323 133c1,1 3,1 4,1z"/>
      <path class="fil1" d="M467 448c-3,-5 -10,-8 -15,-5 -21,11 -57,23 -107,24l0 -99c0,-7 -5,-12 -11,-12 -6,0 -11,5 -11,12l0 99c-138,-4 -183,-88 -189,-102l0 -75c0,-7 -5,-12 -11,-12 -7,0 -12,5 -12,12l0 78c0,1 1,2 1,4 2,4 50,118 222,118 60,0 103,-15 128,-27 5,-3 7,-9 5,-15z"/>
      <path class="fil1" d="M501 568c-6,0 -11,5 -11,11l0 34c0,6 5,11 11,11 6,0 11,-5 11,-11l0 -34c0,-6 -5,-11 -11,-11z"/>
      <path class="fil1" d="M657 167c-6,0 -11,5 -11,11l0 4 -134 55 0 -20 149 -62c5,-2 7,-6 7,-10 0,-5 -2,-9 -7,-11l-323 -133c-2,-1 -5,-1 -8,0l-323 133c-4,2 -7,6 -7,11 0,4 3,8 7,10l323 134c1,0 3,1 4,1 2,0 3,-1 4,-1l117 -49c6,-2 9,-8 6,-14 -2,-6 -9,-9 -14,-6l-113 46 -294 -121 294 -122 294 122 -128 53 -122 -46c0,-2 1,-5 1,-7 0,-19 -20,-34 -45,-34 -25,0 -44,15 -44,34 0,19 19,33 44,33 11,0 21,-3 29,-8l127 48 0 35 0 0 0 239c-13,5 -22,17 -22,31 0,19 15,34 33,34 19,0 34,-15 34,-34 0,-14 -10,-26 -23,-31l0 -63c32,-24 44,-56 44,-58 1,-1 1,-2 1,-3l0 -78c0,-7 -5,-12 -11,-12 -6,0 -11,5 -11,12l0 75c-2,5 -9,20 -23,34l0 -138 149 -61c5,-2 7,-6 7,-11l0 -11c0,-6 -5,-11 -11,-11zm-323 -11c-13,0 -22,-7 -22,-11 0,-5 9,-11 22,-11 14,0 22,6 22,11 0,4 -8,11 -22,11zm167 379c-6,0 -11,-5 -11,-12 0,-6 5,-11 11,-11 6,0 11,5 11,11 0,7 -5,12 -11,12z"/>
      <path class="fil1" d="M545 565c-1,-6 -7,-9 -13,-8 -6,2 -10,8 -8,14l11 44c1,5 6,9 11,9 1,0 2,0 2,-1 6,-1 10,-7 9,-13l-12 -45z"/>
     </g>
    </g>
   </g>
   <g>
   </g>
   <g>
   </g>
   <g>
   </g>
   <g>
   </g>
   <g>
   </g>
   <g>
   </g>
   <g>
   </g>
   <g>
   </g>
   <g>
   </g>
   <g>
   </g>
   <g>
   </g>
   <g>
   </g>
   <g>
   </g>
   <g>
   </g>
   <g>
   </g>
  </g>
 </g>
</svg>
