<svg xmlns="http://www.w3.org/2000/svg" xml:space="preserve" width="53px" height="62px" version="1.1" style="shape-rendering:geometricPrecision; text-rendering:geometricPrecision; image-rendering:optimizeQuality; fill-rule:evenodd; clip-rule:evenodd"
viewBox="0 0 5030 5804"
 xmlns:xlink="http://www.w3.org/1999/xlink">
 <defs>
  <style type="text/css">
   <![CDATA[
    .fil1 {fill:#69C925}
    .fil0 {fill:#429A44;fill-rule:nonzero}
   ]]>
  </style>
 </defs>
<symbol id="Fm1-60-0" viewBox="154376 -268598 53879 5156">
 <path class="fil0" d="M154376 -268504l523 0 0 1689 2069 0 0 -1689 523 0 0 3928 -523 0 0 -1800 -2069 0 0 1800 -523 0 0 -3928zm4682 3989c-128,0 -248,-14 -362,-41 -114,-28 -215,-74 -301,-138 -86,-64 -154,-147 -203,-248 -49,-102 -74,-223 -74,-365 0,-161 28,-293 82,-396 55,-103 128,-187 219,-251 89,-64 191,-113 307,-145 115,-33 234,-61 354,-83 129,-27 251,-45 366,-59 116,-13 217,-32 306,-55 87,-23 158,-58 209,-104 51,-46 76,-113 76,-200 0,-103 -18,-186 -57,-248 -39,-62 -88,-111 -148,-144 -61,-32 -128,-54 -203,-65 -77,-11 -150,-17 -223,-17 -198,0 -364,37 -496,112 -133,77 -204,218 -215,427l-467 0c8,-176 44,-324 111,-446 66,-120 153,-218 264,-294 109,-75 234,-130 376,-163 141,-32 293,-48 453,-48 130,0 258,9 384,27 126,18 240,56 343,112 103,58 186,137 248,240 62,103 94,237 94,402l0 1463c0,111 6,191 18,242 13,51 56,78 130,78 33,0 81,-9 143,-28l0 363c-81,49 -193,72 -337,72 -120,0 -216,-34 -288,-103 -72,-67 -108,-178 -108,-332 -128,154 -277,265 -447,332 -170,69 -356,103 -554,103zm105 -407c154,0 285,-22 396,-64 110,-42 199,-95 269,-159 71,-64 122,-134 155,-211 33,-74 50,-145 50,-210l0 -479c-60,48 -136,81 -231,98 -95,19 -195,36 -299,50 -105,14 -211,30 -317,44 -108,16 -203,42 -287,78 -84,36 -153,89 -206,156 -53,68 -79,162 -79,279 0,76 15,142 46,195 30,53 71,97 120,129 50,33 108,58 175,72 66,14 134,22 208,22zm2063 -2498l468 0 0 2322 1341 -2322 600 0 0 2844 -468 0 0 -2322 -1342 2322 -599 0 0 -2844zm1204 -418c-109,0 -212,-18 -307,-50 -96,-33 -180,-80 -250,-142 -72,-63 -129,-139 -172,-229 -42,-89 -63,-194 -63,-311l391 0c8,272 139,407 396,407 128,0 226,-36 295,-107 67,-72 101,-172 101,-300l390 0c0,111 -20,211 -59,303 -41,92 -95,168 -165,231 -71,62 -153,110 -248,145 -96,35 -199,53 -309,53zm2598 831l-1018 0 0 -413 2503 0 0 413 -1017 0 0 2431 -468 0 0 -2431zm1859 -413l468 0 0 2322 1341 -2322 600 0 0 2844 -467 0 0 -2322 -1343 2322 -599 0 0 -2844zm4644 0l468 0 0 1358 1304 -1358 621 0 -1259 1232 1408 1612 -600 0 -1188 -1353 -286 280 0 1073 -468 0 0 -2844zm3186 3978c-54,0 -110,-3 -165,-11 -54,-8 -107,-20 -159,-39l0 -429c44,14 89,30 134,44 45,14 92,22 141,22 95,0 173,-22 232,-66 58,-45 109,-109 153,-193l192 -479 -1128 -2827 529 0 831 2326 11 0 797 -2326 496 0 -1239 3218c-54,139 -109,258 -162,353 -53,95 -112,173 -176,234 -64,61 -136,104 -214,132 -79,27 -170,41 -273,41zm2475 -3978l468 0 0 385 11 0c77,-158 198,-273 364,-345 165,-70 346,-106 544,-106 220,0 412,41 575,120 164,81 300,190 407,328 108,138 191,296 245,475 55,180 83,372 83,573 0,206 -27,397 -80,575 -53,178 -134,334 -241,468 -108,134 -244,240 -407,317 -164,76 -354,115 -571,115 -74,0 -152,-8 -236,-22 -84,-14 -168,-39 -252,-72 -86,-32 -166,-78 -241,-135 -74,-56 -138,-127 -190,-211l-11 0 0 1463 -468 0 0 -3928zm1349 2498c158,0 290,-31 401,-94 111,-62 198,-145 265,-248 66,-102 113,-219 142,-352 30,-133 44,-268 44,-407 0,-133 -17,-262 -52,-388 -35,-127 -88,-239 -159,-339 -71,-98 -163,-178 -274,-237 -112,-58 -243,-87 -395,-87 -157,0 -291,31 -400,93 -111,63 -200,144 -270,245 -70,102 -120,215 -152,343 -31,130 -46,259 -46,392 0,139 17,274 50,404 32,131 84,246 156,344 71,99 163,178 277,239 114,61 251,92 413,92zm3076 407c-217,0 -407,-34 -574,-104 -167,-71 -307,-169 -420,-298 -112,-128 -196,-281 -252,-457 -58,-177 -86,-371 -86,-588 0,-214 28,-412 83,-598 54,-185 138,-346 251,-485 110,-137 251,-244 418,-324 167,-78 363,-117 591,-117 160,0 312,19 454,58 142,39 266,98 374,178 107,81 196,182 267,305 70,123 113,268 131,438l-484 0c-36,-179 -114,-319 -231,-419 -117,-98 -276,-148 -474,-148 -168,0 -309,31 -422,93 -114,63 -206,145 -273,248 -67,103 -116,222 -145,354 -30,134 -44,273 -44,417 0,132 16,260 47,385 29,125 78,235 145,332 65,98 151,176 256,234 104,59 232,89 382,89 230,0 411,-61 542,-182 130,-121 209,-292 239,-512l479 0c-52,356 -181,628 -390,817 -209,189 -498,284 -864,284zm4532 0c-226,0 -426,-37 -596,-114 -170,-75 -315,-179 -432,-313 -117,-133 -206,-290 -263,-470 -60,-179 -89,-374 -89,-583 0,-209 29,-404 89,-586 57,-183 146,-340 263,-474 117,-133 262,-239 432,-316 170,-76 370,-115 596,-115 224,0 423,39 596,115 171,77 316,183 433,316 117,134 206,291 265,474 58,182 88,377 88,586 0,209 -30,404 -88,583 -59,180 -148,337 -265,470 -117,134 -262,238 -433,313 -173,77 -372,114 -596,114zm0 -407c122,0 237,-23 345,-72 107,-48 202,-117 283,-207 80,-89 144,-201 189,-335 45,-133 69,-286 69,-459 0,-173 -24,-326 -69,-460 -45,-134 -109,-246 -189,-338 -81,-92 -176,-161 -283,-209 -108,-49 -223,-72 -345,-72 -120,0 -236,23 -343,72 -108,48 -203,117 -282,209 -82,92 -146,204 -191,338 -45,134 -68,287 -68,460 0,173 23,326 68,459 45,134 109,246 191,335 79,90 174,159 282,207 107,49 223,72 343,72zm3203 407c-366,0 -663,-94 -889,-281 -226,-187 -368,-477 -426,-870 -23,-154 -34,-326 -34,-516 0,-136 5,-278 14,-424 10,-147 27,-292 50,-435 24,-142 58,-280 100,-412 42,-133 97,-251 167,-357 125,-195 277,-339 457,-432 179,-94 405,-150 677,-169 179,-14 330,-31 450,-50 120,-17 189,-64 205,-137l466 0c-8,144 -38,254 -92,331 -55,76 -133,134 -231,173 -100,39 -221,64 -363,76 -144,14 -311,28 -502,42 -158,11 -295,47 -412,110 -117,62 -217,145 -300,249 -82,105 -149,228 -201,370 -51,142 -89,296 -111,464l18 0c79,-187 205,-341 377,-461 170,-120 376,-181 618,-181 400,0 715,125 946,373 231,249 346,609 346,1079 0,238 -31,447 -95,628 -64,183 -156,334 -273,457 -117,123 -257,217 -421,279 -163,63 -343,94 -541,94zm5 -396c111,0 217,-23 320,-69 103,-45 193,-112 269,-201 77,-89 139,-198 188,-327 48,-130 71,-281 71,-454 0,-334 -76,-596 -231,-788 -154,-190 -364,-285 -628,-285 -264,0 -474,96 -630,288 -156,192 -234,456 -234,791 0,323 78,577 232,764 155,187 368,281 643,281zm2168 1469c-55,0 -111,-3 -166,-11 -54,-8 -107,-20 -159,-39l0 -429c44,14 89,30 134,44 46,14 92,22 141,22 95,0 173,-22 232,-66 58,-45 109,-109 153,-193l192 -479 -1128 -2827 529 0 831 2326 11 0 797 -2326 496 0 -1238 3218c-55,139 -110,258 -163,353 -53,95 -112,173 -176,234 -64,61 -135,104 -213,132 -80,27 -170,41 -273,41zm4164 -2289c-85,35 -202,71 -351,104 -152,33 -309,50 -474,50 -351,0 -602,-76 -754,-229 -151,-152 -226,-365 -226,-640l0 -974 468 0 0 896c0,187 44,326 130,415 85,91 243,136 471,136 138,0 277,-16 413,-45 135,-30 243,-63 323,-99l0 -1303 467 0 0 2844 -467 0 0 -1155zm2383 1216c-228,0 -428,-37 -598,-111 -170,-73 -312,-174 -425,-307 -114,-133 -200,-290 -256,-474 -58,-183 -86,-382 -86,-599 0,-214 33,-410 100,-593 65,-180 157,-336 277,-469 119,-133 259,-235 423,-309 164,-73 342,-109 537,-109 254,0 464,52 631,156 167,105 300,239 401,399 101,161 170,337 209,527 39,192 55,373 47,546l-2129 0c-5,125 11,244 44,354 32,113 85,212 159,298 73,86 167,155 280,206 114,51 247,78 401,78 198,0 362,-47 488,-139 127,-92 209,-231 250,-418l463 0c-62,323 -200,565 -413,724 -214,160 -481,240 -803,240zm764 -1756c-8,-109 -31,-214 -74,-313 -42,-99 -99,-185 -171,-256 -72,-70 -156,-128 -253,-170 -96,-42 -204,-64 -321,-64 -122,0 -231,22 -327,64 -99,42 -181,100 -252,173 -70,73 -124,159 -163,256 -41,98 -64,201 -72,310l1633 0zm979 -1149l468 0 0 1133 1441 0 0 -1133 468 0 0 2844 -468 0 0 -1310 -1441 0 0 1310 -468 0 0 -2844zm3082 0l468 0 0 2322 1341 -2322 600 0 0 2844 -468 0 0 -2322 -1342 2322 -599 0 0 -2844zm3713 1732c-201,-29 -366,-120 -494,-274 -130,-155 -194,-348 -194,-584 0,-266 80,-480 241,-637 159,-158 375,-237 651,-237l1441 0 0 2844 -467 0 0 -1095 -621 0 -870 1095 -621 0 934 -1112zm1178 -385l0 -934 -825 0c-199,0 -340,42 -429,126 -89,84 -133,198 -133,342 0,146 44,260 133,343 89,82 230,123 429,123l825 0z"/>
</symbol>
 <g id="Layer-359">
  <metadata id="CorelCorpID_0Corel-Layer"/>
  <g id="_2096992716112">
   <g>
    <g>
     <g>
      <path class="fil1" d="M2031 2709l581 0c53,0 97,-44 97,-97 0,-54 -44,-97 -97,-97l-581 0c-53,0 -96,43 -96,97 0,53 43,97 96,97z"/>
      <path class="fil1" d="M4934 774l-2903 0c-53,0 -96,43 -96,97 0,53 43,96 96,96l2806 0 0 4353c0,155 -136,291 -290,291l-4063 0c-155,0 -291,-136 -291,-291l0 -4441c63,42 131,66 194,78l0 4363c0,54 43,97 97,97 53,0 96,-43 96,-97l0 -4449c0,-53 -43,-97 -96,-97 -48,-1 -291,-17 -291,-290l0 -97c0,-107 87,-194 194,-194l4547 0c53,0 96,-43 96,-96 0,-54 -43,-97 -96,-97l-4547 0c-213,0 -387,174 -387,387l0 4933c0,263 222,484 484,484l4063 0c262,0 483,-221 483,-484l0 -4449c0,-54 -43,-97 -96,-97z"/>
      <path class="fil1" d="M4837 484c0,-54 -44,-97 -97,-97l-3095 0c-54,0 -97,43 -97,97l0 927 -222 -222c-38,-38 -99,-38 -137,0l-222 222 0 -927c0,-54 -43,-97 -96,-97l-387 0c-54,0 -97,43 -97,97 0,53 43,96 97,96l290 0 0 1065c0,39 23,74 60,89 36,15 77,7 105,-21l319 -319 318 319c19,18 43,28 69,28 12,0 25,-2 37,-7 36,-15 59,-50 59,-89l0 -1065 2999 0c53,0 97,-43 97,-96z"/>
      <path class="fil1" d="M1354 2031l0 1548c0,54 44,97 97,97l2128 0c54,0 97,-43 97,-97l0 -1548c0,-53 -43,-96 -97,-96l-2128 0c-53,0 -97,43 -97,96zm194 97l1934 0 0 1354 -1934 0 0 -1354z"/>
      <path class="fil1" d="M2999 2902l-968 0c-53,0 -96,43 -96,97 0,53 43,97 96,97l968 0c53,0 97,-44 97,-97 0,-54 -44,-97 -97,-97z"/>
     </g>
    </g>
   </g>
   <g>
   </g>
   <g>
   </g>
   <g>
   </g>
   <g>
   </g>
   <g>
   </g>
   <g>
   </g>
   <g>
   </g>
   <g>
   </g>
   <g>
   </g>
   <g>
   </g>
   <g>
   </g>
   <g>
   </g>
   <g>
   </g>
   <g>
   </g>
   <g>
   </g>
  </g>
 </g>
</svg>
