<svg xmlns="http://www.w3.org/2000/svg" xml:space="preserve" width="62px" height="62px" version="1.1" style="shape-rendering:geometricPrecision; text-rendering:geometricPrecision; image-rendering:optimizeQuality; fill-rule:evenodd; clip-rule:evenodd"
viewBox="0 0 672 672"
 xmlns:xlink="http://www.w3.org/1999/xlink">
 <defs>
  <style type="text/css">
   <![CDATA[
    .fil1 {fill:#69C925}
    .fil0 {fill:#429A44;fill-rule:nonzero}
   ]]>
  </style>
 </defs>
<symbol id="Fm1-60-0" viewBox="14286 -30795 6174 591">
 <path class="fil0" d="M14286 -30784l60 0 0 193 237 0 0 -193 60 0 0 450 -60 0 0 -206 -237 0 0 206 -60 0 0 -450zm537 457c-15,0 -29,-2 -42,-5 -13,-3 -25,-8 -34,-16 -10,-7 -18,-16 -24,-28 -5,-12 -8,-26 -8,-42 0,-18 3,-33 9,-45 6,-12 15,-22 25,-29 10,-7 22,-13 35,-17 14,-3 27,-7 41,-9 15,-3 29,-5 42,-7 13,-1 25,-3 35,-6 10,-3 18,-7 24,-12 6,-5 9,-13 9,-23 0,-12 -2,-21 -7,-28 -4,-7 -10,-13 -17,-17 -7,-4 -15,-6 -23,-7 -9,-2 -17,-2 -26,-2 -22,0 -41,4 -56,13 -16,8 -24,25 -25,49l-54 0c1,-21 5,-38 13,-52 8,-13 18,-25 30,-33 13,-9 27,-15 43,-19 17,-4 34,-5 52,-5 15,0 30,1 44,3 15,2 28,6 40,12 11,7 21,16 28,28 7,12 11,27 11,46l0 168c0,12 1,22 2,27 1,6 6,9 15,9 4,0 9,-1 16,-3l0 42c-9,5 -22,8 -38,8 -14,0 -25,-4 -33,-12 -9,-7 -13,-20 -13,-38 -14,18 -32,31 -51,38 -20,8 -41,12 -63,12zm11 -47c18,0 33,-2 46,-7 13,-5 23,-11 31,-18 8,-8 14,-16 17,-24 4,-9 6,-17 6,-24l0 -55c-7,5 -15,9 -26,11 -11,2 -23,4 -35,6 -12,1 -24,3 -36,5 -12,1 -23,4 -33,9 -9,4 -17,10 -23,17 -6,8 -9,19 -9,32 0,9 1,17 5,23 3,6 8,11 14,15 5,3 12,6 20,8 7,1 15,2 23,2zm237 -286l54 0 0 266 153 -266 69 0 0 326 -54 0 0 -266 -153 266 -69 0 0 -326zm138 -48c-13,0 -24,-2 -35,-6 -11,-3 -21,-9 -29,-16 -8,-7 -15,-16 -20,-26 -4,-10 -7,-22 -7,-36l45 0c1,31 16,47 45,47 15,0 26,-4 34,-12 8,-9 12,-20 12,-35l44 0c0,13 -2,24 -6,35 -5,11 -11,19 -19,26 -8,8 -18,13 -29,17 -11,4 -22,6 -35,6zm298 95l-117 0 0 -47 287 0 0 47 -117 0 0 279 -53 0 0 -279zm213 -47l53 0 0 266 154 -266 69 0 0 326 -54 0 0 -266 -154 266 -68 0 0 -326zm532 0l53 0 0 156 150 -156 71 0 -144 141 161 185 -69 0 -136 -155 -33 32 0 123 -53 0 0 -326zm365 456c-6,0 -13,0 -19,-1 -6,-1 -12,-3 -18,-5l0 -49c5,2 10,3 15,5 5,2 11,3 16,3 11,0 20,-3 27,-8 6,-5 12,-12 17,-22l22 -55 -129 -324 61 0 95 267 1 0 91 -267 57 0 -142 369c-6,16 -12,29 -18,40 -6,11 -13,20 -20,27 -8,7 -16,12 -25,15 -9,3 -19,5 -31,5zm283 -456l54 0 0 44 1 0c9,-18 23,-31 42,-39 19,-8 40,-12 62,-12 26,0 48,4 66,13 19,10 35,22 47,38 12,16 22,34 28,54 6,21 9,43 9,66 0,24 -3,46 -9,66 -6,20 -15,38 -27,54 -13,15 -28,27 -47,36 -19,9 -41,13 -65,13 -9,0 -18,-1 -27,-2 -10,-2 -20,-5 -29,-9 -10,-3 -19,-9 -28,-15 -8,-7 -16,-15 -22,-24l-1 0 0 167 -54 0 0 -450zm155 286c18,0 33,-3 46,-10 13,-8 23,-17 30,-29 8,-12 13,-25 17,-40 3,-15 5,-31 5,-47 0,-15 -2,-30 -6,-44 -4,-15 -10,-28 -18,-39 -9,-11 -19,-20 -32,-27 -13,-7 -28,-10 -45,-10 -18,0 -34,3 -46,10 -13,8 -23,17 -31,29 -8,11 -14,24 -17,39 -4,15 -6,30 -6,45 0,16 2,31 6,46 4,15 10,28 18,39 8,12 19,21 32,28 13,7 28,10 47,10zm352 47c-24,0 -46,-4 -65,-12 -19,-8 -35,-19 -48,-34 -13,-15 -23,-32 -29,-52 -7,-21 -10,-43 -10,-68 0,-24 3,-47 9,-68 7,-22 16,-40 29,-56 13,-16 29,-28 48,-37 19,-9 42,-13 68,-13 18,0 35,2 52,6 16,5 30,11 43,21 12,9 22,20 30,35 8,14 13,30 15,50l-55 0c-4,-21 -13,-37 -27,-48 -13,-12 -31,-17 -54,-17 -19,0 -35,3 -48,10 -13,8 -24,17 -32,29 -7,12 -13,25 -16,40 -4,16 -5,32 -5,48 0,15 1,30 5,44 3,15 9,27 17,38 7,12 17,21 29,27 12,7 27,10 44,10 26,0 47,-7 62,-21 15,-13 24,-33 27,-58l55 0c-6,41 -21,72 -45,93 -23,22 -57,33 -99,33zm520 0c-26,0 -49,-4 -68,-13 -20,-9 -37,-21 -50,-36 -13,-15 -24,-33 -30,-54 -7,-20 -10,-43 -10,-67 0,-24 3,-46 10,-67 6,-21 17,-39 30,-54 13,-15 30,-27 50,-36 19,-9 42,-13 68,-13 26,0 48,4 68,13 20,9 36,21 50,36 13,15 23,33 30,54 7,21 10,43 10,67 0,24 -3,47 -10,67 -7,21 -17,39 -30,54 -14,15 -30,27 -50,36 -20,9 -42,13 -68,13zm0 -47c14,0 27,-2 39,-8 13,-5 24,-13 33,-24 9,-10 16,-23 21,-38 6,-15 8,-33 8,-53 0,-19 -2,-37 -8,-52 -5,-16 -12,-29 -21,-39 -9,-11 -20,-18 -33,-24 -12,-6 -25,-8 -39,-8 -14,0 -27,2 -40,8 -12,6 -23,13 -32,24 -9,10 -16,23 -22,39 -5,15 -8,33 -8,52 0,20 3,38 8,53 6,15 13,28 22,38 9,11 20,19 32,24 13,6 26,8 40,8zm367 47c-42,0 -76,-11 -102,-32 -26,-22 -42,-55 -49,-100 -2,-18 -4,-37 -4,-59 0,-16 1,-32 2,-49 1,-16 3,-33 6,-49 2,-17 6,-32 11,-48 5,-15 11,-28 19,-41 14,-22 32,-38 53,-49 20,-11 46,-17 77,-19 21,-2 38,-4 52,-6 13,-2 21,-7 23,-16l54 0c-1,17 -5,29 -11,38 -6,9 -15,15 -26,20 -12,4 -26,7 -42,9 -17,1 -36,3 -58,4 -18,2 -33,6 -47,13 -13,7 -25,17 -34,29 -10,12 -17,26 -23,42 -6,16 -10,34 -13,53l2 0c9,-21 24,-39 43,-53 20,-13 43,-20 71,-20 46,0 82,14 109,42 26,29 39,70 39,124 0,27 -3,51 -11,72 -7,21 -17,38 -31,52 -13,14 -29,25 -48,32 -19,7 -39,11 -62,11zm0 -45c13,0 25,-3 37,-8 12,-5 22,-13 31,-23 9,-10 16,-23 21,-38 6,-15 9,-32 9,-52 0,-38 -9,-68 -27,-90 -18,-22 -42,-33 -72,-33 -30,0 -54,11 -72,33 -18,22 -27,52 -27,91 0,37 9,66 27,87 17,22 42,33 73,33zm249 168c-6,0 -13,0 -19,-1 -6,-1 -12,-3 -18,-5l0 -49c5,2 10,3 15,5 5,2 11,3 16,3 11,0 20,-3 27,-8 6,-5 12,-12 17,-22l22 -55 -129 -324 61 0 95 267 1 0 91 -267 57 0 -142 369c-6,16 -12,29 -18,40 -6,11 -13,20 -20,27 -8,7 -16,12 -25,15 -9,3 -19,5 -31,5zm477 -262c-10,4 -23,8 -40,12 -18,3 -36,5 -55,5 -40,0 -69,-8 -86,-26 -17,-17 -26,-42 -26,-73l0 -112 54 0 0 103c0,21 5,37 15,47 9,11 27,16 54,16 15,0 31,-2 47,-5 15,-4 28,-7 37,-12l0 -149 54 0 0 326 -54 0 0 -132zm273 139c-26,0 -49,-4 -68,-13 -20,-8 -36,-20 -49,-35 -13,-15 -23,-33 -30,-54 -6,-21 -9,-44 -9,-69 0,-24 3,-47 11,-68 8,-20 18,-38 32,-54 13,-15 30,-27 48,-35 19,-8 39,-12 62,-12 29,0 53,5 72,17 19,12 34,28 46,46 12,19 20,39 24,61 4,22 6,42 5,62l-244 0c0,14 2,28 5,41 4,13 10,24 19,34 8,10 19,18 32,23 13,6 28,9 46,9 22,0 41,-5 56,-16 14,-10 24,-26 28,-47l53 0c-7,37 -22,64 -47,82 -24,19 -55,28 -92,28zm88 -201c-1,-13 -4,-25 -9,-36 -5,-11 -11,-21 -19,-29 -9,-8 -18,-15 -29,-20 -12,-5 -24,-7 -37,-7 -14,0 -27,2 -38,7 -11,5 -21,12 -29,20 -8,8 -14,18 -18,29 -5,11 -8,23 -9,36l188 0zm112 -132l53 0 0 130 166 0 0 -130 53 0 0 326 -53 0 0 -150 -166 0 0 150 -53 0 0 -326zm353 0l54 0 0 266 153 -266 69 0 0 326 -54 0 0 -266 -153 266 -69 0 0 -326zm425 199c-23,-4 -42,-14 -56,-32 -15,-18 -22,-40 -22,-67 0,-30 9,-55 27,-73 18,-18 43,-27 75,-27l165 0 0 326 -54 0 0 -125 -71 0 -100 125 -71 0 107 -127zm135 -45l0 -107 -94 0c-23,0 -39,5 -49,15 -11,10 -16,23 -16,39 0,17 5,30 16,39 10,10 26,14 49,14l94 0z"/>
</symbol>
 <g id="Layer-360">
  <metadata id="CorelCorpID_0Corel-Layer"/>
  <g id="_2096992763088">
   <g>
    <g>
     <g>
      <path class="fil1" d="M403 336c23,0 41,-17 44,-39l41 -31c5,-3 6,-10 2,-15 -3,-5 -10,-6 -15,-2l-29 21c-4,-14 -17,-24 -32,-24l-45 0c-18,0 -33,15 -33,34 0,-19 -15,-34 -34,-34l-44 0c-16,0 -28,10 -32,24l-29 -21c-5,-4 -12,-3 -16,2 -3,5 -2,12 3,15l41 31c3,22 21,39 44,39l22 0c25,0 45,-20 45,-45 0,25 20,45 45,45l22 0zm-89 -45c0,12 -11,23 -23,23l-22 0c-13,0 -23,-11 -23,-23l0 -11c0,-6 5,-11 12,-11l44 0c6,0 12,5 12,11l0 11 0 0zm44 0l0 -11c0,-6 5,-11 11,-11l45 0c6,0 11,5 11,11l0 11c0,12 -10,23 -22,23l-22 0c-13,0 -23,-11 -23,-23z"/>
      <path class="fil1" d="M671 658l-11 -46c-6,-17 -40,-73 -235,-74l0 -12c0,-6 -5,-11 -11,-11 -6,0 -11,5 -11,11l0 23c0,0 0,0 0,0 0,0 0,0 0,0 0,7 -2,67 -67,67 -65,0 -67,-61 -67,-67l0 -23c0,-6 -5,-11 -11,-11 -7,0 -12,5 -12,11l0 12c-145,1 -217,24 -234,75l-12 45c-1,6 2,12 8,13 6,2 13,-2 14,-8l11 -44c13,-39 83,-58 214,-59 4,32 26,78 89,78 63,0 85,-46 89,-78 153,1 207,38 214,59l11 44c1,5 6,9 11,9 0,0 1,0 2,-1 6,-1 10,-7 8,-13z"/>
      <path class="fil1" d="M77 56l257 33c1,1 1,1 2,1 0,0 1,0 1,-1l245 -31 0 38c-7,8 -22,28 -22,50 0,24 20,33 33,33 14,0 34,-9 34,-33 0,-22 -15,-42 -22,-50l0 -51c0,-2 -1,-3 -1,-4 0,-1 -1,-1 -1,-2 0,0 -1,-1 -1,-2 -1,0 -1,-1 -2,-1 0,0 -1,-1 -2,-1 0,-1 -1,-1 -2,-1 0,0 -1,0 -1,0l-258 -34c-1,0 -2,0 -3,0l-257 34c-6,0 -10,5 -10,11 0,5 4,10 10,11zm528 90c0,8 -6,11 -12,11 -5,0 -11,-3 -11,-11 0,-10 6,-20 11,-28 6,8 12,18 12,28zm-269 -124l171 23 -171 22 -171 -22 171 -23z"/>
      <path class="fil1" d="M362 406c-1,1 -9,8 -26,8 -17,0 -25,-7 -26,-8 -4,-4 -11,-4 -16,0 -4,5 -4,12 0,16 2,2 16,15 42,15 26,0 40,-13 41,-15 5,-4 5,-11 0,-15 -4,-5 -11,-5 -15,-1z"/>
      <path class="fil1" d="M157 226c-13,4 -23,17 -23,32l0 44c0,16 11,29 26,33 6,17 22,65 32,84 17,36 68,96 144,96 76,0 126,-60 144,-96 10,-19 26,-67 32,-84 15,-4 25,-17 25,-33l0 -44c0,-15 -9,-28 -22,-32l0 -13c0,-6 -5,-11 -11,-11 -6,0 -11,5 -11,11l0 22c0,6 5,11 11,11 6,0 11,5 11,12l0 44c0,6 -5,12 -11,12 -5,0 -9,3 -11,7 0,1 -22,67 -33,88 -1,4 -42,84 -124,84 -82,0 -123,-80 -124,-84 -11,-21 -33,-87 -33,-88 -2,-4 -6,-7 -11,-7 -6,0 -11,-6 -11,-12l0 -44c0,-7 5,-12 11,-12 6,0 11,-5 11,-11l0 -22c0,-6 -5,-11 -11,-11 -6,0 -11,5 -11,11l0 13z"/>
      <path class="fil1" d="M168 78c-6,0 -11,5 -11,12l0 78c0,4 2,8 6,10 3,1 71,35 173,35 102,0 170,-34 173,-35 4,-2 6,-6 6,-10l0 -78c0,-7 -5,-12 -11,-12 -6,0 -11,5 -11,12l0 71c-19,8 -77,29 -157,29 -80,0 -138,-21 -157,-29l0 -71c0,-7 -5,-12 -11,-12z"/>
     </g>
    </g>
   </g>
   <g>
   </g>
   <g>
   </g>
   <g>
   </g>
   <g>
   </g>
   <g>
   </g>
   <g>
   </g>
   <g>
   </g>
   <g>
   </g>
   <g>
   </g>
   <g>
   </g>
   <g>
   </g>
   <g>
   </g>
   <g>
   </g>
   <g>
   </g>
   <g>
   </g>
  </g>
 </g>
</svg>
