<svg xmlns="http://www.w3.org/2000/svg" xml:space="preserve" width="58px" height="63px" version="1.1" style="shape-rendering:geometricPrecision; text-rendering:geometricPrecision; image-rendering:optimizeQuality; fill-rule:evenodd; clip-rule:evenodd"
viewBox="0 0 486 520"
 xmlns:xlink="http://www.w3.org/1999/xlink">
 <defs>
  <style type="text/css">
   <![CDATA[
    .fil1 {fill:#69C925}
    .fil0 {fill:#429A44;fill-rule:nonzero}
   ]]>
  </style>
 </defs>
<symbol id="Fm1-60-0" viewBox="16277 -25245 4750 455">
 <path class="fil0" d="M16277 -25236l46 0 0 148 183 0 0 -148 46 0 0 346 -46 0 0 -159 -183 0 0 159 -46 0 0 -346zm413 351c-11,0 -22,-1 -32,-3 -10,-3 -19,-7 -26,-13 -8,-5 -14,-12 -18,-21 -5,-9 -7,-20 -7,-33 0,-14 3,-25 7,-34 5,-10 12,-17 20,-23 8,-5 17,-10 27,-12 10,-3 20,-6 31,-8 11,-2 22,-4 32,-5 11,-1 19,-3 27,-5 8,-2 14,-5 19,-9 4,-4 6,-10 6,-18 0,-9 -1,-16 -5,-21 -3,-6 -7,-10 -13,-13 -5,-3 -11,-5 -18,-6 -6,-1 -13,-1 -19,-1 -18,0 -32,3 -44,10 -12,6 -18,19 -19,37l-41 0c1,-15 4,-28 10,-39 6,-11 13,-19 23,-26 10,-7 21,-12 33,-14 13,-3 26,-5 40,-5 12,0 23,1 34,3 11,1 21,5 30,10 9,5 17,12 22,21 6,9 8,21 8,35l0 129c0,10 1,17 2,22 1,4 5,6 11,6 3,0 8,0 13,-2l0 32c-7,4 -17,6 -30,6 -10,0 -19,-3 -25,-9 -6,-6 -10,-15 -10,-29 -11,14 -24,23 -39,29 -15,6 -31,9 -49,9zm9 -36c14,0 25,-2 35,-5 10,-4 18,-9 24,-14 6,-6 11,-12 14,-19 3,-6 4,-13 4,-18l0 -43c-5,5 -12,8 -20,9 -9,2 -17,3 -27,4 -9,2 -18,3 -28,4 -9,2 -17,4 -25,7 -7,3 -13,8 -18,14 -5,6 -7,14 -7,25 0,6 1,12 4,17 3,4 6,8 11,11 4,3 9,5 15,6 6,2 12,2 18,2zm182 -220l41 0 0 205 119 -205 53 0 0 251 -42 0 0 -205 -118 205 -53 0 0 -251zm106 -37c-9,0 -18,-1 -27,-4 -8,-3 -16,-7 -22,-13 -6,-5 -11,-12 -15,-20 -4,-8 -5,-17 -5,-27l34 0c1,24 12,36 35,36 11,0 20,-3 26,-10 6,-6 9,-15 9,-26l34 0c0,10 -2,18 -5,26 -4,9 -8,15 -15,21 -6,5 -13,10 -21,13 -9,3 -18,4 -28,4zm229 74l-89 0 0 -37 220 0 0 37 -89 0 0 214 -42 0 0 -214zm164 -37l42 0 0 205 118 -205 53 0 0 251 -41 0 0 -205 -119 205 -53 0 0 -251zm410 0l41 0 0 120 115 -120 55 0 -111 109 124 142 -53 0 -105 -119 -25 24 0 95 -41 0 0 -251zm281 351c-5,0 -10,0 -15,-1 -5,-1 -9,-2 -14,-4l0 -37c4,1 8,2 12,4 4,1 8,1 12,1 9,0 16,-1 21,-5 5,-4 9,-10 13,-17l17 -43 -99 -249 46 0 74 205 1 0 70 -205 44 0 -109 284c-5,12 -10,23 -15,31 -4,8 -10,15 -15,21 -6,5 -12,9 -19,11 -7,3 -15,4 -24,4zm218 -351l41 0 0 34 1 0c7,-14 18,-24 32,-30 15,-6 31,-10 48,-10 20,0 37,4 51,11 14,7 26,17 36,29 9,12 17,26 21,42 5,16 8,32 8,50 0,18 -3,35 -7,51 -5,16 -12,29 -22,41 -9,12 -21,21 -35,28 -15,7 -32,10 -51,10 -6,0 -13,0 -21,-2 -7,-1 -14,-3 -22,-6 -7,-3 -14,-7 -21,-12 -7,-5 -12,-11 -17,-18l-1 0 0 128 -41 0 0 -346zm119 220c14,0 25,-2 35,-8 10,-5 18,-13 24,-22 5,-9 10,-19 12,-31 3,-11 4,-23 4,-36 0,-11 -2,-23 -5,-34 -3,-11 -7,-21 -14,-30 -6,-8 -14,-15 -24,-21 -10,-5 -21,-7 -35,-7 -13,0 -25,2 -35,8 -10,5 -17,13 -24,21 -6,9 -10,19 -13,31 -3,11 -4,23 -4,34 0,12 1,24 4,36 3,11 8,22 14,30 6,9 14,16 24,21 11,6 23,8 37,8zm271 36c-19,0 -36,-3 -51,-9 -14,-6 -27,-15 -37,-26 -9,-11 -17,-25 -22,-40 -5,-16 -7,-33 -7,-52 0,-19 2,-37 7,-53 5,-16 12,-31 22,-43 10,-12 22,-21 37,-28 15,-7 32,-11 52,-11 14,0 28,2 40,5 13,4 24,9 33,16 10,7 17,16 24,27 6,11 10,24 11,39l-43 0c-3,-16 -10,-28 -20,-37 -10,-9 -24,-13 -42,-13 -15,0 -27,2 -37,8 -10,5 -18,13 -24,22 -6,9 -10,19 -13,31 -2,12 -4,24 -4,37 0,11 2,23 5,34 2,11 6,20 12,29 6,9 14,15 23,21 9,5 20,7 34,7 20,0 36,-5 47,-16 12,-10 19,-25 21,-45l43 0c-5,32 -16,56 -35,72 -18,17 -44,25 -76,25zm400 0c-20,0 -38,-3 -53,-10 -15,-6 -28,-16 -38,-27 -10,-12 -18,-26 -23,-42 -5,-16 -8,-33 -8,-51 0,-19 3,-36 8,-52 5,-16 13,-30 23,-42 10,-11 23,-21 38,-27 15,-7 33,-11 53,-11 19,0 37,4 52,11 15,6 28,16 38,27 11,12 19,26 24,42 5,16 7,33 7,52 0,18 -2,35 -7,51 -5,16 -13,30 -24,42 -10,11 -23,21 -38,27 -15,7 -33,10 -52,10zm0 -36c10,0 21,-2 30,-6 10,-4 18,-10 25,-18 7,-8 13,-18 17,-30 4,-11 6,-25 6,-40 0,-15 -2,-29 -6,-41 -4,-12 -10,-21 -17,-30 -7,-8 -15,-14 -25,-18 -9,-4 -20,-6 -30,-6 -11,0 -21,2 -31,6 -9,4 -17,10 -24,18 -8,9 -13,18 -17,30 -4,12 -6,26 -6,41 0,15 2,29 6,40 4,12 9,22 17,30 7,8 15,14 24,18 10,4 20,6 31,6zm282 36c-32,0 -58,-8 -78,-24 -20,-17 -33,-43 -38,-77 -2,-14 -3,-29 -3,-46 0,-12 1,-24 1,-37 1,-13 3,-26 5,-38 2,-13 5,-25 9,-37 3,-11 8,-22 14,-31 11,-17 25,-30 41,-38 15,-9 35,-14 59,-15 16,-1 29,-3 40,-5 11,-1 17,-5 18,-12l41 0c-1,13 -3,23 -8,29 -5,7 -12,12 -20,16 -9,3 -20,5 -32,6 -13,2 -28,3 -45,4 -14,1 -26,4 -36,10 -10,5 -19,13 -26,22 -8,9 -14,20 -18,32 -5,13 -8,27 -10,41l2 0c7,-16 18,-30 33,-40 15,-11 33,-16 54,-16 36,0 63,11 84,33 20,22 30,53 30,95 0,21 -2,39 -8,55 -6,16 -14,30 -24,40 -10,11 -23,20 -37,25 -15,6 -30,8 -48,8zm0 -35c10,0 20,-2 29,-6 9,-4 17,-10 23,-17 7,-8 13,-18 17,-29 4,-12 6,-25 6,-40 0,-30 -6,-53 -20,-70 -14,-17 -32,-25 -55,-25 -24,0 -42,9 -56,26 -14,16 -21,40 -21,69 0,29 7,51 21,68 13,16 32,24 56,24zm192 130c-5,0 -10,0 -15,-1 -5,-1 -9,-2 -14,-4l0 -37c4,1 8,2 12,4 4,1 8,1 12,1 9,0 15,-1 21,-5 5,-4 9,-10 13,-17l17 -43 -99 -249 46 0 74 205 1 0 70 -205 44 0 -110 284c-4,12 -9,23 -14,31 -5,8 -10,15 -15,21 -6,5 -12,9 -19,11 -7,3 -15,4 -24,4zm367 -202c-8,3 -18,6 -31,9 -14,3 -27,5 -42,5 -31,0 -53,-7 -66,-21 -14,-13 -20,-32 -20,-56l0 -86 41 0 0 79c0,17 4,29 11,37 8,8 22,12 42,12 12,0 24,-2 36,-4 12,-3 22,-6 29,-9l0 -115 41 0 0 251 -41 0 0 -102zm210 107c-20,0 -38,-3 -53,-9 -15,-7 -27,-16 -37,-28 -10,-11 -18,-25 -23,-41 -5,-16 -7,-34 -7,-53 0,-19 2,-36 8,-52 6,-16 14,-30 25,-42 10,-11 23,-21 37,-27 15,-6 30,-10 47,-10 23,0 41,5 56,14 15,9 26,21 35,35 9,14 15,30 19,47 3,17 5,33 4,48l-188 0c0,11 1,21 4,31 3,10 8,19 14,26 7,8 15,14 25,19 10,4 22,6 35,6 18,0 32,-4 43,-12 11,-8 19,-20 22,-37l41 0c-5,29 -17,50 -36,64 -19,14 -43,21 -71,21zm67 -155c0,-9 -3,-18 -6,-27 -4,-9 -9,-16 -15,-23 -7,-6 -14,-11 -23,-15 -8,-3 -18,-5 -28,-5 -11,0 -20,2 -29,5 -8,4 -16,9 -22,16 -6,6 -11,14 -14,22 -4,9 -6,18 -7,27l144 0zm87 -101l41 0 0 100 127 0 0 -100 41 0 0 251 -41 0 0 -116 -127 0 0 116 -41 0 0 -251zm271 0l42 0 0 205 118 -205 53 0 0 251 -42 0 0 -205 -118 205 -53 0 0 -251zm328 153c-18,-3 -33,-11 -44,-24 -11,-14 -17,-31 -17,-52 0,-23 7,-42 21,-56 14,-14 33,-21 58,-21l127 0 0 251 -42 0 0 -97 -54 0 -77 97 -55 0 83 -98zm103 -34l0 -82 -72 0c-18,0 -30,3 -38,11 -8,7 -12,17 -12,30 0,13 4,23 12,30 8,7 20,11 38,11l72 0z"/>
</symbol>
 <g id="Layer-361">
  <metadata id="CorelCorpID_0Corel-Layer"/>
  <g id="_2096992114944">
   <g>
    <g>
     <g>
      <path class="fil1" d="M364 321c0,-5 -4,-9 -9,-9l-52 0c-4,0 -8,4 -8,9 0,5 4,8 8,8l52 0c5,0 9,-3 9,-8z"/>
      <path class="fil1" d="M329 95l0 -43c0,-5 -3,-9 -8,-9 -5,0 -9,4 -9,9l0 43c0,24 20,44 43,44l78 0 0 164c0,5 4,9 9,9 5,0 9,-4 9,-9l0 -173c0,-5 -4,-9 -9,-9l-87 0c-14,0 -26,-11 -26,-26z"/>
      <path class="fil1" d="M355 208l-69 0c-5,0 -9,4 -9,9 0,5 4,8 9,8l69 0c5,0 9,-3 9,-8 0,-5 -4,-9 -9,-9z"/>
      <path class="fil1" d="M260 217c0,-5 -4,-9 -9,-9l-52 0c-4,0 -8,4 -8,9 0,5 4,8 8,8l52 0c5,0 9,-3 9,-8z"/>
      <path class="fil1" d="M199 260c-4,0 -8,4 -8,9 0,5 4,8 8,8l18 0c5,0 8,-3 8,-8 0,-5 -3,-9 -8,-9l-18 0z"/>
      <path class="fil1" d="M199 173l87 0c5,0 9,-4 9,-8 0,-5 -4,-9 -9,-9l-87 0c-4,0 -8,4 -8,9 0,4 4,8 8,8z"/>
      <path class="fil1" d="M251 277l87 0c5,0 9,-3 9,-8 0,-5 -4,-9 -9,-9l-87 0c-4,0 -8,4 -8,9 0,5 4,8 8,8z"/>
      <path class="fil1" d="M303 364c-4,0 -8,4 -8,9 0,5 4,8 8,8l18 0c5,0 8,-3 8,-8 0,-5 -3,-9 -8,-9l-18 0z"/>
      <path class="fil1" d="M269 312l-70 0c-4,0 -8,4 -8,9 0,5 4,8 8,8l70 0c5,0 8,-3 8,-8 0,-5 -3,-9 -8,-9z"/>
      <path class="fil1" d="M269 364l-70 0c-4,0 -8,4 -8,9 0,5 4,8 8,8l70 0c5,0 8,-3 8,-8 0,-5 -3,-9 -8,-9z"/>
      <path class="fil1" d="M475 357l-17 -17c-14,-14 -34,-14 -47,0l-114 113c-1,2 -2,4 -2,6l0 52c0,5 4,9 8,9l52 0c3,0 5,-1 7,-2l113 -114c14,-14 14,-33 0,-47zm-75 18l13 14 -75 76 -14 -14 76 -76zm-88 128l0 -40 40 40 -40 0zm52 -12l-14 -14 76 -76 13 14 -75 76zm99 -99l-11 11 -40 -40 11 -11c7,-7 16,-7 23,0l17 17c7,7 7,16 0,23z"/>
      <path class="fil1" d="M269 503l-226 0c-14,0 -26,-12 -26,-26l0 -434c0,-14 12,-26 26,-26l274 0 84 84c4,4 9,4 13,0 3,-3 3,-8 0,-12l-87 -86c-2,-2 -4,-3 -6,-3l-278 0c-24,0 -43,19 -43,43l0 434c0,24 19,43 43,43l226 0c5,0 8,-4 8,-9 0,-4 -3,-8 -8,-8z"/>
      <path class="fil1" d="M269 416l-70 0c-4,0 -8,4 -8,9 0,5 4,8 8,8l70 0c5,0 8,-3 8,-8 0,-5 -3,-9 -8,-9z"/>
      <path class="fil1" d="M156 165c0,-5 -4,-9 -9,-9l-52 0c-4,0 -8,4 -8,9l0 52c0,5 4,8 8,8l52 0c5,0 9,-3 9,-8l0 -52zm-17 43l-35 0 0 -35 35 0 0 35z"/>
      <path class="fil1" d="M95 433l52 0c5,0 9,-3 9,-8l0 -52c0,-5 -4,-9 -9,-9l-52 0c-4,0 -8,4 -8,9l0 52c0,5 4,8 8,8zm9 -52l35 0 0 35 -35 0 0 -35z"/>
      <path class="fil1" d="M107 327c1,2 3,2 6,2 0,0 0,0 1,0 2,0 4,-1 6,-3l35 -52c2,-4 1,-10 -3,-12 -4,-3 -9,-2 -12,2l-29 43 -10 -10c-3,-3 -8,-3 -12,0 -3,4 -3,9 0,13l18 17z"/>
     </g>
    </g>
   </g>
   <g>
   </g>
   <g>
   </g>
   <g>
   </g>
   <g>
   </g>
   <g>
   </g>
   <g>
   </g>
   <g>
   </g>
   <g>
   </g>
   <g>
   </g>
   <g>
   </g>
   <g>
   </g>
   <g>
   </g>
   <g>
   </g>
   <g>
   </g>
   <g>
   </g>
  </g>
 </g>
</svg>
