<svg xmlns="http://www.w3.org/2000/svg" xml:space="preserve" width="69px" height="69px" version="1.1" style="shape-rendering:geometricPrecision; text-rendering:geometricPrecision; image-rendering:optimizeQuality; fill-rule:evenodd; clip-rule:evenodd"
viewBox="0 0 6796 6796"
 xmlns:xlink="http://www.w3.org/1999/xlink">
 <defs>
  <style type="text/css">
   <![CDATA[
    .fil1 {fill:#69C925}
    .fil0 {fill:#429A44;fill-rule:nonzero}
   ]]>
  </style>
 </defs>
<symbol id="Fm1-60-0" viewBox="162175 -298973 56364 5394">
 <path class="fil0" d="M162175 -298875l546 0 0 1767 2165 0 0 -1767 547 0 0 4110 -547 0 0 -1883 -2165 0 0 1883 -546 0 0 -4110zm4898 4173c-134,0 -260,-14 -379,-42 -119,-29 -225,-78 -315,-145 -89,-67 -161,-154 -212,-260 -52,-106 -78,-233 -78,-381 0,-169 29,-307 86,-415 57,-108 134,-196 229,-263 93,-66 200,-117 321,-151 121,-35 245,-64 370,-87 136,-27 263,-47 384,-62 121,-13 227,-32 320,-57 91,-24 164,-60 218,-109 54,-47 80,-118 80,-209 0,-108 -19,-194 -60,-259 -41,-66 -92,-116 -155,-150 -64,-35 -134,-58 -212,-69 -80,-11 -157,-18 -234,-18 -207,0 -380,39 -518,118 -139,79 -214,228 -225,447l-488 0c8,-185 45,-340 116,-467 68,-126 159,-228 275,-308 114,-79 245,-136 393,-170 149,-34 307,-51 475,-51 136,0 269,10 402,28 132,20 251,59 358,118 108,60 195,143 260,251 65,107 98,248 98,421l0 1530c0,116 6,199 19,253 13,54 59,82 136,82 34,0 85,-10 150,-30l0 380c-85,51 -202,75 -353,75 -125,0 -226,-36 -301,-107 -75,-71 -113,-186 -113,-348 -134,162 -290,277 -468,348 -178,71 -372,107 -579,107zm109 -425c161,0 299,-23 414,-67 116,-44 209,-100 283,-167 73,-67 127,-140 161,-220 34,-78 52,-152 52,-220l0 -501c-62,50 -142,85 -241,103 -100,19 -204,37 -313,52 -110,15 -221,31 -332,46 -112,16 -212,44 -300,81 -88,38 -160,93 -215,163 -56,72 -83,170 -83,292 0,80 16,149 49,204 31,56 73,101 125,136 52,34 113,60 183,75 68,14 140,23 217,23zm2158 -2614l490 0 0 2429 1403 -2429 628 0 0 2976 -489 0 0 -2430 -1405 2430 -627 0 0 -2976zm1260 -437c-114,0 -222,-18 -321,-53 -100,-34 -188,-83 -262,-148 -75,-65 -135,-145 -179,-240 -44,-93 -67,-202 -67,-325l410 0c8,284 145,426 414,426 134,0 237,-37 308,-112 71,-75 106,-180 106,-314l408 0c0,116 -21,221 -62,317 -42,96 -99,176 -173,241 -73,66 -160,116 -259,152 -100,38 -207,56 -323,56zm2718 869l-1065 0 0 -432 2618 0 0 432 -1064 0 0 2544 -489 0 0 -2544zm1945 -432l489 0 0 2429 1403 -2429 628 0 0 2976 -489 0 0 -2430 -1405 2430 -626 0 0 -2976zm4858 0l490 0 0 1421 1364 -1421 649 0 -1317 1289 1474 1687 -629 0 -1243 -1416 -298 293 0 1123 -490 0 0 -2976zm3333 4162c-57,0 -115,-3 -173,-12 -57,-8 -112,-21 -166,-40l0 -449c46,15 93,31 140,46 48,14 97,22 147,22 100,0 181,-22 243,-68 61,-47 114,-114 160,-202l201 -501 -1180 -2958 553 0 870 2434 11 0 834 -2434 519 0 -1296 3367c-57,145 -114,269 -169,369 -56,99 -118,181 -185,245 -67,63 -142,109 -223,138 -83,28 -178,43 -286,43zm2590 -4162l489 0 0 403 11 0c80,-165 208,-286 381,-361 172,-73 362,-111 569,-111 230,0 431,43 602,126 171,85 313,199 426,343 112,145 199,310 256,497 57,188 86,388 86,599 0,215 -27,416 -83,602 -55,186 -140,349 -253,489 -112,141 -254,252 -426,332 -171,80 -370,120 -597,120 -76,0 -158,-8 -246,-23 -88,-14 -176,-40 -264,-75 -90,-34 -173,-81 -252,-141 -78,-59 -145,-133 -199,-221l-11 0 0 1531 -489 0 0 -4110zm1411 2614c165,0 303,-33 419,-98 116,-66 207,-152 277,-260 69,-107 118,-230 149,-368 31,-139 46,-281 46,-426 0,-139 -18,-274 -54,-407 -38,-132 -93,-249 -167,-354 -75,-102 -171,-186 -287,-248 -117,-60 -254,-91 -413,-91 -164,0 -305,33 -419,98 -116,65 -209,150 -282,256 -74,106 -126,225 -158,359 -33,135 -49,271 -49,410 0,145 18,287 52,422 34,137 88,258 163,361 75,102 171,186 290,249 119,64 263,97 433,97zm3217 425c-227,0 -426,-36 -600,-109 -175,-73 -322,-176 -439,-312 -118,-133 -206,-293 -265,-478 -60,-184 -89,-388 -89,-615 0,-223 29,-430 86,-625 57,-194 145,-362 263,-507 116,-144 263,-256 437,-339 175,-82 380,-123 618,-123 168,0 327,20 475,61 149,41 279,103 392,186 112,85 205,191 279,319 73,129 119,281 137,459l-506 0c-37,-188 -119,-335 -241,-439 -123,-103 -289,-155 -496,-155 -177,0 -323,33 -443,98 -119,65 -215,152 -285,259 -70,108 -121,232 -152,371 -31,140 -45,285 -45,435 0,139 16,273 48,403 31,131 82,247 152,348 69,103 158,184 268,245 109,62 243,93 399,93 242,0 431,-64 568,-191 136,-126 219,-305 250,-535l501 0c-54,371 -190,657 -408,854 -219,198 -521,297 -904,297zm4741 0c-236,0 -445,-39 -623,-119 -178,-78 -330,-187 -452,-328 -122,-138 -215,-303 -276,-491 -62,-187 -93,-391 -93,-610 0,-219 31,-422 93,-613 61,-191 154,-356 276,-496 122,-139 274,-250 452,-330 178,-80 387,-121 623,-121 235,0 442,41 623,121 180,80 332,191 454,330 122,140 215,305 277,496 61,191 92,394 92,613 0,219 -31,423 -92,610 -62,188 -155,353 -277,491 -122,141 -274,250 -454,328 -181,80 -388,119 -623,119zm0 -425c127,0 248,-25 361,-76 112,-50 212,-122 297,-217 83,-93 150,-210 197,-350 47,-139 72,-299 72,-480 0,-181 -25,-341 -72,-481 -47,-141 -114,-258 -197,-354 -85,-97 -185,-168 -297,-219 -113,-50 -234,-75 -361,-75 -126,0 -246,25 -359,75 -112,51 -212,122 -295,219 -85,96 -152,213 -199,354 -47,140 -72,300 -72,481 0,181 25,341 72,480 47,140 114,257 199,350 83,95 183,167 295,217 113,51 233,76 359,76zm3351 425c-383,0 -693,-98 -930,-293 -236,-196 -385,-500 -445,-911 -25,-161 -36,-341 -36,-540 0,-142 5,-290 15,-443 9,-154 27,-306 52,-456 24,-148 60,-292 104,-430 44,-139 101,-263 175,-374 130,-204 290,-354 478,-452 187,-98 424,-157 708,-176 188,-15 346,-33 471,-52 126,-18 198,-67 214,-144l488 0c-8,150 -39,266 -96,346 -57,80 -139,140 -242,181 -104,41 -231,67 -380,80 -150,15 -325,29 -525,44 -165,11 -309,49 -431,114 -122,66 -227,152 -313,261 -87,110 -157,239 -211,387 -54,148 -93,310 -116,486l18 0c84,-196 216,-357 395,-483 178,-125 393,-189 646,-189 420,0 749,131 991,390 241,261 362,638 362,1129 0,250 -33,468 -100,657 -67,191 -163,350 -285,478 -123,129 -269,227 -441,292 -171,66 -359,98 -566,98zm5 -414c116,0 227,-25 335,-72 107,-47 202,-117 282,-210 80,-93 145,-208 196,-343 50,-135 75,-294 75,-475 0,-349 -80,-623 -242,-824 -161,-199 -382,-298 -657,-298 -276,0 -496,101 -659,302 -164,200 -245,476 -245,827 0,338 81,603 243,799 161,196 385,294 672,294zm2268 1537c-57,0 -116,-3 -173,-12 -57,-8 -113,-21 -167,-40l0 -449c46,15 93,31 141,46 47,14 96,22 147,22 99,0 181,-22 243,-68 60,-47 114,-114 160,-202l200 -501 -1179 -2958 553 0 869 2434 12 0 833 -2434 519 0 -1295 3367c-57,145 -114,269 -170,369 -55,99 -117,181 -184,245 -67,63 -142,109 -224,138 -83,28 -178,43 -285,43zm4356 -2395c-88,37 -211,75 -367,109 -158,34 -323,52 -496,52 -367,0 -630,-80 -788,-240 -158,-158 -237,-381 -237,-668l0 -1020 490 0 0 938c0,196 45,341 135,434 90,95 255,142 493,142 145,0 290,-16 432,-47 142,-31 255,-66 338,-103l0 -1364 489 0 0 2976 -489 0 0 -1209zm2493 1272c-238,0 -447,-39 -625,-116 -178,-76 -326,-182 -445,-321 -120,-139 -209,-303 -268,-496 -60,-191 -90,-400 -90,-626 0,-224 34,-429 105,-620 68,-190 164,-353 290,-491 124,-139 271,-247 442,-323 171,-77 357,-115 561,-115 266,0 487,54 661,164 175,109 313,249 419,417 106,168 178,353 219,552 41,200 57,390 49,571l-2227 0c-5,130 11,254 46,370 34,117 89,222 166,312 77,89 175,161 294,215 119,54 258,82 419,82 207,0 379,-49 511,-146 132,-96 218,-241 261,-437l484 0c-65,338 -208,591 -432,757 -224,168 -503,251 -840,251zm799 -1837c-8,-114 -32,-223 -76,-328 -45,-102 -105,-192 -180,-267 -75,-74 -163,-134 -264,-178 -101,-44 -214,-67 -336,-67 -128,0 -242,23 -343,67 -103,44 -189,104 -263,181 -73,77 -130,166 -171,268 -42,102 -67,210 -75,324l1708 0zm1025 -1202l489 0 0 1186 1508 0 0 -1186 489 0 0 2976 -489 0 0 -1371 -1508 0 0 1371 -489 0 0 -2976zm3224 0l489 0 0 2429 1403 -2429 628 0 0 2976 -489 0 0 -2430 -1405 2430 -626 0 0 -2976zm3884 1812c-210,-31 -383,-125 -517,-287 -135,-161 -202,-364 -202,-610 0,-279 83,-502 251,-667 166,-165 393,-248 682,-248l1507 0 0 2976 -489 0 0 -1146 -649 0 -911 1146 -649 0 977 -1164zm1232 -403l0 -977 -863 0c-207,0 -356,44 -449,132 -93,88 -138,208 -138,358 0,153 45,272 138,359 93,86 242,128 449,128l863 0z"/>
</symbol>
 <g id="Layer-362">
  <metadata id="CorelCorpID_0Corel-Layer"/>
  <g id="_2096992103552">
   <g>
    <g>
     <g>
      <path class="fil1" d="M2492 4191c0,62 51,113 113,113l453 0c63,0 113,-51 113,-113l0 -680c0,-62 -50,-113 -113,-113l-453 0c-62,0 -113,51 -113,113l0 680 0 0zm226 -567l227 0 0 453 -227 0 0 -453z"/>
      <path class="fil1" d="M2605 2945l453 0c63,0 113,-51 113,-113l0 -680c0,-63 -50,-113 -113,-113l-453 0c-62,0 -113,50 -113,113l0 680c0,62 51,113 113,113zm113 -680l227 0 0 453 -227 0 0 -453z"/>
      <path class="fil1" d="M1757 2136l1641 -985 1640 985c19,11 39,16 59,16 38,0 76,-20 97,-55 32,-54 15,-123 -39,-155l-1644 -987 0 -728 566 0 0 226 -339 0c-63,0 -114,51 -114,113 0,63 51,114 114,114l453 0c62,0 113,-51 113,-114l0 -453c0,-62 -51,-113 -113,-113l-793 0c-63,0 -113,51 -113,113l0 842 -1644 987c-54,32 -71,101 -39,155 32,54 102,71 155,39z"/>
      <path class="fil1" d="M1246 4304c62,0 113,-51 113,-113l0 -680c0,-62 -51,-113 -113,-113l-453 0c-63,0 -113,51 -113,113l0 227c0,62 50,113 113,113 62,0 113,-51 113,-113l0 -114 227 0 0 567c0,62 50,113 113,113z"/>
      <path class="fil1" d="M2039 5776l0 -3284c0,-63 -51,-114 -114,-114 -62,0 -113,51 -113,114l0 3284c0,63 51,114 113,114 63,0 114,-51 114,-114z"/>
      <path class="fil1" d="M1472 6343l3851 0c63,0 114,-51 114,-114 0,-62 -51,-113 -114,-113l-1019 0 0 -1133 113 0c63,0 114,-50 114,-113 0,-62 -51,-113 -114,-113l-2039 0c-62,0 -113,51 -113,113 0,63 51,113 113,113l114 0 0 1133 -1020 0c-62,0 -113,51 -113,113 0,63 51,114 113,114zm2039 -680c63,0 113,-51 113,-113 0,-63 -50,-113 -113,-113l0 -454 566 0 0 1133 -566 0 0 -453zm-793 -680l567 0 0 454c-63,0 -114,50 -114,113 0,62 51,113 114,113l0 453 -567 0 0 -1133z"/>
      <path class="fil1" d="M6003 4870l-453 0c-63,0 -113,51 -113,113l0 680c0,63 50,113 113,113l453 0c62,0 113,-50 113,-113l0 -680c0,-62 -51,-113 -113,-113zm-113 680l-227 0 0 -453 227 0 0 453z"/>
      <path class="fil1" d="M6003 3511l-453 0c-63,0 -113,51 -113,113l0 680c0,62 50,113 113,113l453 0c62,0 113,-51 113,-113l0 -680c0,-62 -51,-113 -113,-113zm-113 680l-227 0 0 -453 227 0 0 453z"/>
      <path class="fil1" d="M5776 6569l-4757 0c-62,0 -113,51 -113,113 0,63 51,114 113,114l4757 0c63,0 114,-51 114,-114 0,-62 -51,-113 -114,-113z"/>
      <path class="fil1" d="M6682 2492c-62,0 -113,51 -113,113l0 113 -1246 0c-62,0 -113,51 -113,114 0,62 51,113 113,113l1246 0 0 3737c0,63 51,114 113,114 63,0 114,-51 114,-114l0 -4077c0,-62 -51,-113 -114,-113z"/>
      <path class="fil1" d="M3624 4191c0,62 51,113 114,113l453 0c62,0 113,-51 113,-113l0 -680c0,-62 -51,-113 -113,-113l-453 0c-63,0 -114,51 -114,113l0 680zm227 -567l226 0 0 453 -226 0 0 -453z"/>
      <path class="fil1" d="M1133 5550c0,-15 -7,-1473 -567,-1473 -560,0 -566,1458 -566,1473 0,273 195,502 453,555l0 577c0,63 51,114 113,114 63,0 114,-51 114,-114l0 -577c258,-53 453,-282 453,-555zm-567 340c-187,0 -339,-153 -339,-340 0,-564 151,-1246 339,-1246 189,0 340,682 340,1246 0,187 -152,340 -340,340z"/>
      <path class="fil1" d="M4983 5776l0 -3398c0,-62 -50,-113 -113,-113 -62,0 -113,51 -113,113l0 3398c0,63 51,114 113,114 63,0 113,-51 113,-114z"/>
      <path class="fil1" d="M3738 2945l453 0c62,0 113,-51 113,-113l0 -680c0,-63 -51,-113 -113,-113l-453 0c-63,0 -114,50 -114,113l0 680c0,62 51,113 114,113zm113 -680l226 0 0 453 -226 0 0 -453z"/>
      <path class="fil1" d="M113 3964c63,0 114,-51 114,-113l0 -906 1245 0c63,0 114,-51 114,-113 0,-63 -51,-114 -114,-114l-1245 0 0 -113c0,-62 -51,-113 -114,-113 -62,0 -113,51 -113,113l0 1246c0,62 51,113 113,113z"/>
     </g>
    </g>
   </g>
   <g>
   </g>
   <g>
   </g>
   <g>
   </g>
   <g>
   </g>
   <g>
   </g>
   <g>
   </g>
   <g>
   </g>
   <g>
   </g>
   <g>
   </g>
   <g>
   </g>
   <g>
   </g>
   <g>
   </g>
   <g>
   </g>
   <g>
   </g>
   <g>
   </g>
  </g>
 </g>
</svg>
