<svg xmlns="http://www.w3.org/2000/svg" xml:space="preserve" width="55px" height="55px" version="1.1" style="shape-rendering:geometricPrecision; text-rendering:geometricPrecision; image-rendering:optimizeQuality; fill-rule:evenodd; clip-rule:evenodd"
viewBox="0 0 518 518"
 xmlns:xlink="http://www.w3.org/1999/xlink">
 <defs>
  <style type="text/css">
   <![CDATA[
    .fil1 {fill:#69C925}
    .fil0 {fill:#429A44;fill-rule:nonzero}
   ]]>
  </style>
 </defs>
<symbol id="Fm1-60-0" viewBox="12348 -28575 5361 513">
 <path class="fil0" d="M12348 -28566l52 0 0 169 206 0 0 -169 52 0 0 391 -52 0 0 -179 -206 0 0 179 -52 0 0 -391zm466 397c-13,0 -25,-1 -36,-4 -11,-2 -21,-7 -30,-13 -9,-7 -15,-15 -20,-25 -5,-10 -8,-22 -8,-36 0,-16 3,-30 9,-40 5,-10 12,-18 21,-25 9,-6 19,-11 31,-14 11,-3 23,-6 35,-8 13,-3 25,-5 37,-6 11,-2 21,-3 30,-6 9,-2 16,-6 21,-10 5,-5 7,-11 7,-20 0,-10 -1,-18 -5,-25 -4,-6 -9,-11 -15,-14 -6,-3 -13,-5 -20,-6 -8,-2 -15,-2 -22,-2 -20,0 -37,4 -50,11 -13,8 -20,22 -21,42l-47 0c1,-17 5,-32 11,-44 7,-12 16,-22 27,-29 10,-8 23,-13 37,-16 14,-4 29,-5 45,-5 13,0 26,1 38,2 13,2 24,6 35,12 10,5 18,13 24,24 6,10 9,23 9,40l0 145c0,11 1,19 2,24 2,5 6,8 13,8 4,0 8,-1 15,-3l0 36c-9,5 -20,7 -34,7 -12,0 -22,-3 -29,-10 -7,-6 -10,-17 -10,-33 -13,16 -28,27 -45,33 -17,7 -35,10 -55,10zm10 -40c16,0 29,-2 40,-6 11,-5 20,-10 27,-16 7,-7 12,-14 15,-21 3,-8 5,-15 5,-21l0 -48c-6,5 -14,8 -23,10 -9,2 -19,4 -30,5 -10,1 -21,3 -31,4 -11,2 -20,4 -29,8 -8,4 -15,9 -20,16 -6,6 -8,16 -8,27 0,8 1,14 4,20 3,5 7,9 12,13 5,3 11,5 18,7 6,1 13,2 20,2zm206 -249l46 0 0 231 134 -231 59 0 0 283 -46 0 0 -231 -134 231 -59 0 0 -283zm119 -41c-10,0 -21,-2 -30,-5 -10,-3 -18,-8 -25,-14 -7,-7 -13,-14 -17,-23 -4,-9 -6,-19 -6,-31l39 0c0,27 13,40 39,40 13,0 23,-3 29,-10 7,-7 10,-17 10,-30l39 0c0,11 -2,21 -6,30 -4,9 -9,17 -16,23 -7,6 -15,11 -25,14 -9,4 -20,6 -31,6zm259 82l-101 0 0 -41 249 0 0 41 -101 0 0 242 -47 0 0 -242zm185 -41l47 0 0 231 133 -231 60 0 0 283 -47 0 0 -231 -133 231 -60 0 0 -283zm462 0l47 0 0 136 129 -136 62 0 -125 123 140 160 -60 0 -118 -134 -28 28 0 106 -47 0 0 -283zm317 396c-5,0 -11,0 -16,-1 -6,-1 -11,-2 -16,-4l0 -42c4,1 9,3 13,4 5,1 9,2 14,2 10,0 17,-2 23,-6 6,-5 11,-11 16,-20l19 -47 -113 -282 53 0 83 232 1 0 79 -232 50 0 -124 321c-5,13 -11,25 -16,35 -5,9 -11,17 -17,23 -7,6 -14,10 -22,13 -8,3 -17,4 -27,4zm246 -396l47 0 0 39 1 0c8,-16 20,-27 36,-35 17,-7 35,-10 54,-10 22,0 41,4 58,12 16,8 29,19 40,32 11,14 19,30 25,48 5,18 8,37 8,57 0,20 -3,39 -8,57 -5,18 -13,33 -24,46 -11,14 -24,24 -41,32 -16,8 -35,11 -56,11 -8,0 -16,0 -24,-2 -8,-1 -17,-4 -25,-7 -9,-3 -16,-8 -24,-13 -7,-6 -14,-13 -19,-21l-1 0 0 145 -47 0 0 -391zm135 249c15,0 29,-3 40,-9 11,-7 19,-15 26,-25 6,-10 11,-22 14,-35 3,-13 4,-27 4,-41 0,-13 -1,-26 -5,-38 -3,-13 -9,-24 -16,-34 -7,-10 -16,-18 -27,-24 -11,-5 -24,-8 -39,-8 -16,0 -29,3 -40,9 -11,6 -20,14 -27,24 -7,11 -12,22 -15,35 -3,12 -5,25 -5,39 0,13 2,27 5,40 4,13 9,24 16,34 7,10 16,18 28,24 11,6 25,9 41,9zm306 40c-22,0 -41,-3 -57,-10 -17,-7 -31,-17 -42,-30 -11,-12 -20,-28 -25,-45 -6,-18 -9,-37 -9,-59 0,-21 3,-41 8,-59 6,-18 14,-34 25,-48 11,-14 25,-25 42,-33 17,-7 36,-11 59,-11 16,0 31,2 45,6 14,3 27,9 37,17 11,8 20,18 27,31 7,12 11,26 13,43l-48 0c-4,-18 -12,-32 -23,-41 -12,-10 -28,-15 -47,-15 -17,0 -31,3 -42,9 -12,6 -21,15 -28,25 -6,10 -11,22 -14,35 -3,13 -4,27 -4,41 0,14 1,26 4,39 3,12 8,23 15,33 6,10 15,17 25,23 11,6 23,9 38,9 23,0 41,-6 54,-18 13,-12 21,-29 24,-51l48 0c-6,35 -18,62 -39,81 -21,19 -50,28 -86,28zm451 0c-23,0 -43,-3 -60,-11 -16,-7 -31,-18 -43,-31 -11,-13 -20,-29 -26,-47 -6,-18 -9,-37 -9,-58 0,-21 3,-40 9,-58 6,-18 15,-34 26,-47 12,-14 27,-24 43,-32 17,-7 37,-11 60,-11 22,0 42,4 59,11 17,8 32,18 43,32 12,13 21,29 27,47 5,18 8,37 8,58 0,21 -3,40 -8,58 -6,18 -15,34 -27,47 -11,13 -26,24 -43,31 -17,8 -37,11 -59,11zm0 -40c12,0 23,-2 34,-7 11,-5 20,-12 28,-21 8,-9 15,-20 19,-33 5,-13 7,-29 7,-46 0,-17 -2,-32 -7,-46 -4,-13 -11,-24 -19,-33 -8,-9 -17,-16 -28,-21 -11,-5 -22,-7 -34,-7 -12,0 -24,2 -34,7 -11,5 -21,12 -29,21 -8,9 -14,20 -18,33 -5,14 -7,29 -7,46 0,17 2,33 7,46 4,13 10,24 18,33 8,9 18,16 29,21 10,5 22,7 34,7zm318 40c-36,0 -65,-9 -88,-27 -22,-19 -37,-48 -42,-87 -3,-15 -4,-33 -4,-51 0,-14 1,-28 2,-43 1,-14 2,-29 5,-43 2,-14 5,-28 10,-41 4,-13 9,-25 16,-35 13,-20 28,-34 46,-43 17,-10 40,-15 67,-17 18,-2 33,-3 45,-5 12,-2 19,-7 20,-14l47 0c-1,14 -4,25 -10,33 -5,8 -13,13 -23,17 -10,4 -22,7 -36,8 -14,1 -31,3 -50,4 -15,1 -29,5 -41,11 -11,6 -21,14 -29,25 -9,10 -15,22 -20,37 -6,14 -9,29 -12,46l2 0c8,-19 21,-34 38,-46 17,-12 37,-18 61,-18 40,0 71,12 94,37 23,25 35,61 35,107 0,24 -3,45 -10,63 -6,18 -15,33 -27,45 -11,13 -25,22 -42,28 -16,6 -34,9 -54,9zm1 -39c11,0 22,-2 32,-7 10,-4 19,-11 27,-20 7,-9 13,-20 18,-32 5,-13 7,-28 7,-46 0,-33 -7,-59 -23,-78 -15,-19 -36,-28 -62,-28 -26,0 -47,9 -63,28 -15,19 -23,46 -23,79 0,32 8,57 23,76 15,19 37,28 64,28zm216 146c-6,0 -11,0 -17,-1 -5,-1 -11,-2 -16,-4l0 -42c5,1 9,3 14,4 4,1 9,2 14,2 9,0 17,-2 23,-6 6,-5 11,-11 15,-20l19 -47 -112 -282 53 0 82 232 1 0 80 -232 49 0 -123 321c-6,13 -11,25 -16,35 -6,9 -12,17 -18,23 -6,6 -13,10 -21,13 -8,3 -17,4 -27,4zm414 -228c-8,4 -20,8 -35,11 -15,3 -31,5 -47,5 -35,0 -60,-8 -75,-23 -15,-15 -23,-36 -23,-64l0 -97 47 0 0 90c0,18 4,32 13,41 8,9 24,13 47,13 14,0 27,-1 41,-4 13,-3 24,-6 32,-10l0 -130 47 0 0 283 -47 0 0 -115zm237 121c-23,0 -42,-3 -59,-11 -17,-7 -31,-17 -43,-30 -11,-13 -20,-29 -25,-47 -6,-18 -9,-38 -9,-60 0,-21 4,-41 10,-59 7,-18 16,-33 28,-47 12,-13 26,-23 42,-30 16,-8 34,-11 53,-11 26,0 47,5 63,15 17,11 30,24 40,40 10,16 17,34 21,53 4,19 5,37 5,54l-212 0c-1,12 1,24 4,35 3,11 9,21 16,30 7,8 16,15 28,20 11,5 24,8 40,8 19,0 36,-5 48,-14 13,-9 21,-23 25,-41l46 0c-6,32 -20,56 -41,72 -21,16 -48,23 -80,23zm76 -174c-1,-11 -3,-22 -7,-31 -4,-10 -10,-19 -17,-26 -7,-7 -16,-13 -25,-17 -10,-4 -21,-6 -32,-6 -12,0 -23,2 -33,6 -10,4 -18,10 -25,17 -7,8 -12,16 -16,26 -4,10 -7,20 -7,31l162 0zm98 -115l46 0 0 113 144 0 0 -113 46 0 0 283 -46 0 0 -130 -144 0 0 130 -46 0 0 -283zm306 0l47 0 0 231 133 -231 60 0 0 283 -47 0 0 -231 -133 231 -60 0 0 -283zm370 173c-20,-3 -37,-12 -49,-28 -13,-15 -20,-34 -20,-58 0,-26 8,-47 24,-63 16,-16 38,-24 65,-24l144 0 0 283 -47 0 0 -109 -62 0 -86 109 -62 0 93 -110zm117 -39l0 -93 -82 0c-20,0 -34,5 -43,13 -9,8 -13,20 -13,34 0,15 4,26 13,34 9,8 23,12 43,12l82 0z"/>
</symbol>
 <g id="Layer-363">
  <metadata id="CorelCorpID_0Corel-Layer"/>
  <g id="_2096992098528">
   <g>
    <g>
     <g>
      <path class="fil1" d="M518 198c0,-1 0,-1 -1,-2 0,0 0,-1 0,-1 0,-1 -1,-1 -1,-2 0,0 -1,-1 -1,-1 0,0 0,0 0,0l-83 -65 0 -67c0,-14 -12,-26 -26,-26l-94 0 -37 -29c-10,-7 -23,-7 -32,0l-37 29 -94 0c-14,0 -26,12 -26,26l0 67 -83 65c0,0 0,0 0,0 0,0 -1,1 -1,1 -1,1 -1,1 -1,2 0,0 0,1 -1,1 0,1 0,1 0,2 0,0 0,0 0,0l0 294c0,5 2,11 5,15 0,0 0,0 0,0 0,1 0,1 0,1 5,6 13,10 21,10l466 0c8,0 16,-4 20,-10 1,0 1,0 1,-1 0,0 0,0 0,0 3,-4 5,-10 5,-15l0 -293c0,-1 0,-1 0,-1zm-264 -179c3,-2 7,-2 10,0l20 15 -50 0 20 -15zm-226 482l226 -176c3,-2 7,-2 10,0l226 176 -462 0zm473 -14l-226 -175c-10,-8 -23,-8 -32,0l-226 175 0 -275 142 109c3,3 9,3 12,-1 3,-4 2,-9 -2,-12l-143 -112 60 -47 0 67c0,5 4,8 9,8 5,0 9,-3 9,-8l0 -156c0,-4 3,-8 8,-8l294 0c4,0 8,4 8,8l0 156c0,5 4,8 9,8 5,0 9,-3 9,-8l0 -67 60 47 -144 112c-2,2 -3,5 -3,8 0,3 2,6 5,7 3,1 6,1 9,-1l142 -110 0 275 0 0z"/>
      <path class="fil1" d="M363 207l0 -34c0,-58 -47,-104 -104,-104 -57,0 -104,46 -104,104 0,57 47,103 104,103 5,0 9,-4 9,-8 0,-5 -4,-9 -9,-9 -48,0 -86,-39 -86,-86 0,-48 38,-87 86,-87 48,0 86,39 86,87l0 34c0,10 -7,17 -17,17 -10,0 -17,-7 -17,-17l0 -34c0,-5 -4,-9 -9,-9 -5,0 -9,4 -9,9 0,19 -15,34 -34,34 -19,0 -35,-15 -35,-34 0,-19 16,-35 35,-35 5,0 9,-4 9,-9 0,-4 -4,-8 -9,-8 -23,0 -44,15 -50,37 -6,23 3,47 23,59 19,12 45,9 62,-6 2,18 18,32 36,31 18,-1 33,-17 33,-35z"/>
     </g>
    </g>
   </g>
   <g>
   </g>
   <g>
   </g>
   <g>
   </g>
   <g>
   </g>
   <g>
   </g>
   <g>
   </g>
   <g>
   </g>
   <g>
   </g>
   <g>
   </g>
   <g>
   </g>
   <g>
   </g>
   <g>
   </g>
   <g>
   </g>
   <g>
   </g>
   <g>
   </g>
  </g>
 </g>
</svg>
