<svg xmlns="http://www.w3.org/2000/svg" xml:space="preserve" width="127px" height="127px" version="1.1" style="shape-rendering:geometricPrecision; text-rendering:geometricPrecision; image-rendering:optimizeQuality; fill-rule:evenodd; clip-rule:evenodd"
viewBox="0 0 4371 4371"
 xmlns:xlink="http://www.w3.org/1999/xlink">
 <defs>
  <style type="text/css">
   <![CDATA[
    .fil1 {fill:#FF9301}
    .fil0 {fill:#429A44;fill-rule:nonzero}
   ]]>
  </style>
 </defs>
<symbol id="Fm1-60-0" viewBox="48830 165036 19595 1875">
 <path class="fil0" d="M48830 165071l190 0 0 614 752 0 0 -614 190 0 0 1428 -190 0 0 -654 -752 0 0 654 -190 0 0 -1428zm1702 1450c-46,0 -90,-5 -131,-14 -42,-11 -78,-28 -110,-51 -31,-23 -56,-53 -73,-90 -19,-37 -28,-81 -28,-133 0,-58 11,-106 30,-144 20,-37 47,-68 80,-91 32,-23 70,-41 112,-53 42,-12 85,-22 128,-30 47,-10 92,-16 134,-22 42,-4 78,-11 111,-19 32,-9 57,-21 76,-38 18,-17 28,-41 28,-73 0,-37 -7,-67 -21,-90 -15,-23 -32,-40 -54,-52 -22,-12 -47,-20 -74,-24 -28,-4 -54,-6 -81,-6 -72,0 -132,13 -181,40 -48,28 -74,80 -78,156l-169 0c2,-64 16,-118 40,-162 24,-44 55,-80 96,-108 39,-27 85,-47 136,-59 52,-11 107,-17 165,-17 48,0 94,3 140,10 46,6 87,20 125,40 37,21 67,50 90,88 23,37 34,86 34,146l0 532c0,40 2,69 7,88 4,19 20,28 47,28 12,0 29,-3 52,-10l0 132c-29,18 -70,26 -122,26 -44,0 -79,-12 -105,-37 -26,-24 -39,-65 -39,-121 -47,56 -101,97 -163,121 -62,25 -130,37 -202,37zm38 -148c57,0 104,-8 144,-23 41,-15 73,-35 99,-58 25,-23 44,-49 56,-76 12,-28 18,-53 18,-77l0 -174c-22,18 -49,29 -84,36 -35,6 -71,13 -109,18 -38,5 -77,11 -115,16 -39,5 -74,15 -104,28 -31,13 -56,32 -75,57 -20,25 -29,59 -29,101 0,28 5,52 17,71 11,19 25,35 43,47 19,12 40,21 64,26 24,5 49,8 75,8zm751 -908l170 0 0 844 488 -844 218 0 0 1034 -170 0 0 -844 -488 844 -218 0 0 -1034zm438 -152c-40,0 -78,-7 -112,-18 -35,-12 -65,-29 -91,-52 -26,-23 -47,-51 -62,-83 -16,-33 -24,-71 -24,-113l143 0c3,98 50,148 144,148 46,0 82,-13 107,-39 24,-27 37,-63 37,-109l142 0c0,40 -8,76 -22,110 -15,33 -34,61 -60,84 -25,22 -55,40 -90,52 -35,13 -72,20 -112,20zm945 302l-371 0 0 -150 910 0 0 150 -369 0 0 884 -170 0 0 -884zm676 -150l170 0 0 844 488 -844 218 0 0 1034 -170 0 0 -844 -489 844 -217 0 0 -1034zm1689 0l170 0 0 494 474 -494 226 0 -458 448 512 586 -218 0 -432 -492 -104 102 0 390 -170 0 0 -1034zm1158 1447c-19,0 -40,-2 -60,-4 -20,-3 -39,-8 -58,-15l0 -156c16,6 33,11 49,16 17,5 34,8 51,8 35,0 63,-8 85,-24 21,-16 39,-39 55,-70l70 -174 -410 -1028 192 0 303 846 4 0 289 -846 181 0 -451 1170c-19,51 -39,94 -59,129 -19,34 -40,62 -64,85 -23,22 -49,38 -77,48 -29,9 -62,15 -100,15zm900 -1447l171 0 0 140 4 0c27,-57 72,-99 132,-126 60,-25 126,-38 198,-38 80,0 149,15 209,44 60,29 109,69 148,119 39,50 69,107 89,173 20,65 30,135 30,208 0,75 -10,144 -29,209 -19,65 -49,121 -88,170 -39,49 -88,88 -148,115 -59,28 -128,42 -207,42 -27,0 -55,-2 -86,-8 -31,-5 -61,-14 -92,-26 -31,-12 -60,-28 -87,-49 -27,-20 -51,-46 -69,-77l-4 0 0 532 -171 0 0 -1428zm491 908c57,0 106,-11 146,-34 40,-22 72,-52 96,-90 24,-37 41,-80 52,-128 11,-48 16,-98 16,-148 0,-48 -6,-95 -19,-141 -13,-46 -32,-87 -58,-123 -26,-36 -59,-65 -100,-87 -40,-21 -88,-31 -143,-31 -57,0 -106,11 -146,34 -40,22 -72,52 -98,89 -26,37 -44,78 -55,124 -11,48 -17,95 -17,143 0,50 6,100 18,147 12,47 31,89 57,125 26,36 59,65 101,87 41,22 91,33 150,33zm1119 148c-79,0 -148,-12 -209,-38 -61,-25 -112,-61 -153,-108 -41,-47 -71,-102 -92,-166 -21,-64 -31,-135 -31,-214 0,-78 10,-150 30,-217 20,-68 51,-126 92,-177 40,-50 91,-89 152,-118 60,-28 132,-42 215,-42 58,0 113,7 165,21 51,14 97,36 136,65 39,29 71,66 97,111 25,44 41,97 47,159l-176 0c-13,-65 -41,-116 -83,-153 -43,-35 -101,-53 -173,-53 -61,0 -112,11 -154,34 -41,22 -74,52 -99,90 -24,37 -42,80 -53,129 -10,48 -15,99 -15,151 0,48 5,95 17,140 10,45 28,86 52,121 24,36 55,64 93,85 38,22 85,32 139,32 84,0 150,-22 198,-66 47,-44 76,-106 86,-186l175 0c-19,129 -66,228 -142,297 -76,69 -181,103 -314,103zm1648 0c-82,0 -155,-13 -217,-41 -62,-27 -114,-65 -157,-114 -43,-48 -75,-106 -96,-171 -21,-65 -32,-136 -32,-212 0,-76 11,-147 32,-213 21,-67 53,-124 96,-173 43,-48 95,-86 157,-114 62,-28 135,-42 217,-42 81,0 153,14 216,42 63,28 116,66 158,114 43,49 75,106 97,173 20,66 31,137 31,213 0,76 -11,147 -31,212 -22,65 -54,123 -97,171 -42,49 -95,87 -158,114 -63,28 -135,41 -216,41zm0 -148c44,0 86,-8 125,-26 39,-17 74,-42 103,-75 29,-33 53,-73 69,-122 16,-48 25,-104 25,-167 0,-63 -9,-118 -25,-167 -16,-49 -40,-90 -69,-123 -29,-34 -64,-59 -103,-76 -39,-18 -81,-26 -125,-26 -44,0 -86,8 -125,26 -39,17 -74,42 -103,76 -29,33 -52,74 -69,123 -16,49 -25,104 -25,167 0,63 9,119 25,167 17,49 40,89 69,122 29,33 64,58 103,75 39,18 81,26 125,26zm1165 148c-134,0 -241,-34 -324,-102 -82,-68 -133,-173 -154,-316 -9,-56 -13,-119 -13,-188 0,-49 2,-101 5,-154 4,-54 10,-106 18,-158 9,-52 21,-102 37,-150 15,-48 35,-92 60,-130 46,-71 101,-123 167,-157 65,-34 147,-55 246,-61 65,-6 120,-12 164,-19 43,-6 68,-23 74,-50l170 0c-3,53 -14,93 -34,121 -20,28 -48,48 -84,63 -36,14 -80,23 -132,27 -52,6 -113,11 -183,16 -57,4 -107,17 -149,39 -43,23 -79,53 -109,91 -30,38 -55,83 -73,135 -19,51 -33,107 -41,169l6 0c29,-68 75,-125 138,-168 62,-44 136,-66 224,-66 146,0 261,45 345,136 84,90 126,221 126,392 0,87 -12,163 -35,229 -23,66 -57,121 -99,166 -43,45 -94,79 -153,101 -60,23 -125,34 -197,34zm1 -144c41,0 79,-8 117,-25 37,-16 70,-41 98,-73 28,-32 50,-72 68,-119 17,-47 26,-102 26,-165 0,-121 -28,-217 -84,-286 -56,-70 -133,-104 -229,-104 -95,0 -172,35 -229,105 -56,69 -85,165 -85,287 0,118 29,210 85,278 56,68 134,102 233,102zm789 535c-20,0 -40,-2 -60,-4 -20,-3 -39,-8 -58,-15l0 -156c16,6 32,11 49,16 16,5 33,8 51,8 34,0 63,-8 84,-24 21,-16 40,-39 56,-70l70 -174 -411 -1028 193 0 302 846 4 0 290 -846 180 0 -450 1170c-20,51 -40,94 -59,129 -19,34 -41,62 -64,85 -23,22 -50,38 -78,48 -29,9 -62,15 -99,15zm1514 -833c-30,13 -73,26 -127,38 -55,12 -113,18 -173,18 -127,0 -219,-28 -274,-83 -55,-55 -82,-133 -82,-233l0 -354 170 0 0 326c0,68 16,118 47,151 31,33 89,49 171,49 51,0 101,-6 151,-16 49,-11 88,-23 117,-36l0 -474 170 0 0 1034 -170 0 0 -420zm867 442c-83,0 -156,-13 -217,-40 -62,-27 -114,-63 -155,-112 -42,-48 -73,-105 -93,-172 -21,-66 -31,-139 -31,-218 0,-78 11,-149 36,-215 24,-66 57,-123 101,-171 43,-48 94,-86 153,-112 60,-27 125,-40 196,-40 92,0 169,19 229,57 61,38 109,86 146,145 37,58 62,122 76,191 14,70 20,136 17,199l-774 0c-2,45 4,88 16,129 12,41 31,77 58,108 26,31 60,56 102,75 41,19 89,28 145,28 73,0 132,-17 178,-50 46,-34 76,-84 91,-152l168 0c-22,117 -72,205 -150,263 -78,58 -175,87 -292,87zm278 -638c-3,-40 -12,-78 -27,-114 -15,-36 -36,-67 -62,-93 -26,-26 -57,-47 -92,-62 -35,-15 -75,-23 -117,-23 -44,0 -84,8 -119,23 -36,15 -66,36 -91,63 -26,26 -46,58 -60,93 -15,36 -23,73 -26,113l594 0zm356 -418l170 0 0 412 524 0 0 -412 170 0 0 1034 -170 0 0 -476 -524 0 0 476 -170 0 0 -1034zm1121 0l170 0 0 844 488 -844 218 0 0 1034 -170 0 0 -844 -489 844 -217 0 0 -1034zm1350 630c-73,-11 -133,-44 -180,-100 -47,-56 -70,-126 -70,-212 0,-97 29,-175 87,-232 58,-57 137,-86 237,-86l524 0 0 1034 -170 0 0 -398 -225 0 -317 398 -226 0 340 -404zm428 -140l0 -340 -300 0c-72,0 -123,15 -156,46 -32,31 -48,72 -48,124 0,53 16,95 48,125 33,30 84,45 156,45l300 0z"/>
</symbol>
 <g id="Layer-30">
  <metadata id="CorelCorpID_0Corel-Layer"/>
  <path class="fil1" d="M2186 0c-1207,0 -2186,979 -2186,2186 0,1207 979,2185 2186,2185 1207,0 2185,-978 2185,-2185 0,-1207 -978,-2186 -2185,-2186zm755 2302l-1093 683c-22,13 -47,20 -72,20 -23,0 -46,-5 -66,-17 -44,-24 -71,-70 -71,-119l0 -1366c0,-50 27,-96 71,-120 43,-24 96,-23 138,4l1093 683c40,25 64,69 64,116 0,47 -24,91 -64,116z"/>
 </g>
</svg>
