<svg xmlns="http://www.w3.org/2000/svg" xml:space="preserve" width="109px" height="109px" version="1.1" style="shape-rendering:geometricPrecision; text-rendering:geometricPrecision; image-rendering:optimizeQuality; fill-rule:evenodd; fill:red; clip-rule:evenodd"
viewBox="0 0 1353 1353"
 xmlns:xlink="http://www.w3.org/1999/xlink">
 <defs>
  <style type="text/css">
   <![CDATA[
    .fil1 {fill:#69C925}
    .fil2 {fill:white}
    .fil0 {fill:#429A44;fill-rule:nonzero}
   ]]>
  </style>
 </defs>
<symbol id="Fm1-60-0" viewBox="25328 -15466 7059 675">
 <path class="fil0" d="M25328 -15454l69 0 0 221 271 0 0 -221 68 0 0 515 -68 0 0 -236 -271 0 0 236 -69 0 0 -515zm614 523c-17,0 -33,-2 -48,-6 -15,-3 -28,-10 -39,-18 -12,-8 -21,-19 -27,-32 -6,-14 -10,-30 -10,-48 0,-21 4,-39 11,-52 7,-14 17,-25 29,-33 11,-8 25,-15 40,-19 15,-4 31,-8 46,-11 17,-3 33,-6 48,-8 16,-1 29,-4 40,-7 12,-3 21,-7 28,-13 7,-6 10,-15 10,-27 0,-13 -3,-24 -8,-32 -5,-8 -11,-15 -19,-19 -8,-4 -17,-7 -27,-9 -10,-1 -19,-2 -29,-2 -26,0 -48,5 -65,15 -17,10 -27,29 -28,56l-61 0c1,-23 6,-43 14,-59 9,-15 20,-28 35,-38 14,-10 31,-17 49,-21 19,-5 39,-7 60,-7 17,0 33,2 50,4 16,2 31,7 45,14 13,8 24,18 32,32 8,13 13,31 13,53l0 191c0,15 0,25 2,32 2,7 7,10 17,10 4,0 11,-1 19,-3l0 47c-11,6 -26,10 -44,10 -16,0 -29,-5 -38,-14 -10,-9 -14,-23 -14,-43 -17,20 -37,34 -59,43 -22,9 -47,14 -72,14zm13 -54c20,0 38,-3 52,-8 15,-6 26,-13 35,-21 10,-8 16,-18 21,-28 4,-9 6,-19 6,-27l0 -63c-8,6 -18,11 -30,13 -12,2 -26,5 -39,6 -14,2 -28,4 -42,6 -14,2 -26,6 -37,10 -11,5 -20,12 -27,21 -7,9 -11,21 -11,36 0,10 2,19 6,26 4,7 10,13 16,17 7,4 14,8 23,9 9,2 18,3 27,3zm271 -327l61 0 0 304 176 -304 78 0 0 373 -61 0 0 -305 -176 305 -78 0 0 -373zm157 -55c-14,0 -28,-2 -40,-6 -12,-5 -23,-11 -33,-19 -9,-8 -17,-18 -22,-30 -6,-12 -9,-25 -9,-41l52 0c1,36 18,54 52,54 16,0 29,-5 38,-14 9,-10 14,-23 14,-40l51 0c0,15 -3,28 -8,40 -5,12 -13,22 -22,30 -9,8 -20,15 -32,19 -13,5 -26,7 -41,7zm341 109l-134 0 0 -54 328 0 0 54 -133 0 0 319 -61 0 0 -319zm243 -54l62 0 0 304 175 -304 79 0 0 373 -61 0 0 -305 -176 305 -79 0 0 -373zm609 0l61 0 0 178 171 -178 81 0 -165 161 185 212 -79 0 -156 -178 -37 37 0 141 -61 0 0 -373zm417 521c-7,0 -14,0 -22,-1 -7,-1 -14,-3 -20,-5l0 -57c5,2 11,4 17,6 6,2 12,3 19,3 12,0 22,-3 30,-9 8,-6 14,-14 20,-25l25 -63 -148 -370 70 0 109 305 1 0 104 -305 65 0 -162 422c-7,18 -14,33 -21,46 -7,12 -15,22 -23,30 -9,8 -18,14 -28,18 -11,3 -22,5 -36,5zm324 -521l62 0 0 50 1 0c10,-20 26,-35 48,-45 21,-9 45,-14 71,-14 29,0 54,6 75,16 22,11 40,25 54,43 14,18 25,39 32,62 7,24 11,49 11,75 0,27 -4,52 -11,76 -7,23 -17,43 -31,61 -15,18 -32,31 -54,41 -21,10 -46,16 -75,16 -9,0 -19,-1 -30,-3 -11,-2 -22,-5 -34,-10 -11,-4 -21,-10 -31,-18 -10,-7 -18,-16 -25,-27l-1 0 0 192 -62 0 0 -515zm177 327c21,0 38,-4 53,-12 14,-8 26,-19 34,-33 9,-13 15,-28 19,-46 4,-17 6,-35 6,-53 0,-17 -3,-34 -7,-51 -5,-16 -12,-31 -21,-44 -9,-13 -21,-24 -36,-31 -15,-8 -32,-12 -52,-12 -20,0 -38,4 -52,12 -15,9 -26,19 -35,33 -10,13 -16,28 -20,45 -4,16 -6,33 -6,51 0,18 2,36 6,53 4,17 11,32 21,45 9,13 21,23 36,31 15,8 33,12 54,12zm403 54c-28,0 -53,-5 -75,-14 -22,-9 -40,-22 -55,-39 -15,-17 -26,-37 -33,-60 -8,-23 -11,-49 -11,-77 0,-28 3,-54 10,-78 8,-25 19,-46 33,-64 15,-18 33,-32 55,-42 22,-11 48,-16 77,-16 22,0 41,3 60,8 19,5 35,13 49,23 14,11 26,24 35,40 9,16 15,35 17,58l-63 0c-5,-24 -15,-42 -31,-55 -15,-13 -36,-20 -62,-20 -22,0 -40,4 -55,12 -15,9 -27,19 -36,33 -9,13 -15,29 -19,46 -4,18 -5,36 -5,55 0,17 2,34 6,50 4,17 10,31 19,44 8,13 19,23 33,31 14,7 31,11 50,11 30,0 54,-8 71,-24 17,-15 28,-38 32,-67l62 0c-6,47 -23,83 -51,107 -27,25 -65,38 -113,38zm594 0c-30,0 -56,-5 -78,-15 -23,-10 -42,-24 -57,-41 -15,-18 -27,-38 -34,-62 -8,-23 -12,-49 -12,-76 0,-28 4,-53 12,-77 7,-24 19,-45 34,-62 15,-18 34,-32 57,-42 22,-10 48,-15 78,-15 29,0 55,5 78,15 22,10 41,24 57,42 15,17 27,38 34,62 8,24 12,49 12,77 0,27 -4,53 -12,76 -7,24 -19,44 -34,62 -16,17 -35,31 -57,41 -23,10 -49,15 -78,15zm0 -54c16,0 31,-3 45,-9 14,-7 27,-16 37,-27 11,-12 19,-27 25,-44 6,-18 9,-38 9,-60 0,-23 -3,-43 -9,-61 -6,-17 -14,-32 -25,-44 -10,-12 -23,-21 -37,-27 -14,-7 -29,-10 -45,-10 -16,0 -31,3 -45,10 -14,6 -27,15 -37,27 -11,12 -19,27 -25,44 -6,18 -9,38 -9,61 0,22 3,42 9,60 6,17 14,32 25,44 10,11 23,20 37,27 14,6 29,9 45,9zm419 54c-48,0 -86,-13 -116,-37 -30,-25 -48,-63 -56,-114 -3,-20 -4,-43 -4,-68 0,-18 0,-36 2,-55 1,-20 3,-39 6,-57 3,-19 8,-37 13,-54 6,-18 13,-33 22,-47 16,-26 36,-45 60,-57 23,-12 53,-19 89,-22 23,-2 43,-4 59,-6 15,-3 24,-9 26,-18l61 0c-1,18 -4,33 -12,43 -7,10 -17,18 -30,23 -13,5 -29,8 -47,10 -19,1 -41,3 -66,5 -21,2 -39,6 -54,14 -15,9 -29,19 -39,33 -11,14 -20,30 -27,49 -6,18 -11,38 -14,60l2 0c10,-24 27,-44 49,-60 23,-16 50,-24 81,-24 53,0 94,17 124,49 31,33 46,80 46,141 0,32 -4,59 -13,83 -8,24 -20,44 -35,60 -16,16 -34,28 -56,36 -21,8 -45,13 -71,13zm1 -52c15,0 28,-3 42,-9 13,-6 25,-15 35,-27 10,-11 18,-26 25,-43 6,-17 9,-36 9,-59 0,-44 -10,-78 -30,-103 -20,-25 -48,-38 -82,-38 -35,0 -62,13 -83,38 -20,25 -31,60 -31,104 0,42 11,75 31,100 20,24 48,37 84,37zm284 192c-7,0 -14,0 -22,-1 -7,-1 -14,-3 -20,-5l0 -57c5,2 11,4 17,6 6,2 12,3 19,3 12,0 22,-3 30,-9 8,-6 14,-14 20,-25l25 -63 -148 -370 70 0 109 305 1 0 104 -305 65 0 -162 422c-7,18 -14,33 -21,46 -7,12 -15,22 -23,30 -9,8 -18,14 -28,18 -11,3 -22,5 -36,5zm546 -300c-11,5 -27,10 -46,14 -20,4 -41,6 -62,6 -46,0 -79,-10 -99,-30 -20,-19 -30,-47 -30,-83l0 -128 62 0 0 117c0,25 5,43 16,55 12,12 32,17 62,17 18,0 37,-2 54,-5 18,-4 32,-9 43,-13l0 -171 61 0 0 373 -61 0 0 -152zm312 160c-30,0 -56,-5 -78,-15 -23,-10 -41,-23 -56,-40 -15,-18 -26,-38 -34,-62 -7,-24 -11,-50 -11,-79 0,-28 4,-54 13,-77 9,-24 21,-45 36,-62 16,-17 34,-31 56,-40 21,-10 45,-15 70,-15 33,0 61,7 83,21 22,13 39,31 52,52 14,21 23,44 28,69 5,25 7,49 6,72l-279 0c-1,16 1,31 6,46 4,15 11,28 21,39 9,11 21,20 36,27 15,7 33,10 53,10 26,0 47,-6 64,-18 16,-12 27,-30 33,-55l60 0c-8,43 -26,74 -54,95 -28,21 -63,32 -105,32zm100 -231c-1,-14 -4,-28 -10,-41 -5,-12 -13,-24 -22,-33 -10,-9 -21,-17 -33,-22 -13,-6 -27,-9 -42,-9 -16,0 -31,3 -43,9 -13,5 -24,13 -33,22 -9,10 -16,21 -22,34 -5,13 -8,26 -9,40l214 0zm128 -150l62 0 0 148 188 0 0 -148 62 0 0 373 -62 0 0 -172 -188 0 0 172 -62 0 0 -373zm404 0l61 0 0 304 176 -304 79 0 0 373 -62 0 0 -305 -176 305 -78 0 0 -373zm486 227c-26,-4 -48,-16 -64,-36 -17,-20 -26,-46 -26,-76 0,-35 11,-63 32,-84 21,-21 49,-31 85,-31l189 0 0 373 -61 0 0 -144 -82 0 -114 144 -81 0 122 -146zm155 -51l0 -122 -108 0c-26,0 -45,6 -57,17 -11,11 -17,26 -17,44 0,20 6,34 17,45 12,11 31,16 57,16l108 0z"/>
</symbol>
 <g id="Layer-159">
  <metadata id="CorelCorpID_0Corel-Layer"/>
  <circle class="fil1" cx="676" cy="676" r="676"/>
 </g>
 <g id="Layer-187">
  <metadata id="CorelCorpID_1Corel-Layer"/>
  <g id="_2314307154896">
   <g>
    <g>
     <g>
      <path class="fil2" d="M529 942c-6,-4 -13,-3 -17,3 -9,13 -24,21 -40,21 -26,0 -48,-22 -48,-48 0,-16 8,-31 22,-40 5,-4 6,-11 3,-17 -4,-5 -11,-7 -17,-3 -20,14 -32,36 -32,60 0,40 33,72 72,72 24,0 47,-12 60,-32 4,-5 2,-13 -3,-16z"/>
      <path class="fil2" d="M737 341c-58,0 -112,22 -153,63l-119 119c-5,5 -5,12 0,17 5,5 12,5 17,0l119 -119c36,-36 85,-56 136,-56 51,0 100,20 136,56 36,36 56,85 56,136 0,52 -20,100 -56,136l-153 153c-4,4 -5,9 -2,14 14,29 7,89 -14,110l-39 39 -380 -380 40 -39c20,-21 77,-28 107,-14l254 253c5,5 12,5 17,0 5,-4 5,-12 0,-17l-255 -255c-1,-1 -2,-2 -3,-2 -39,-19 -109,-10 -137,18l-48 48c-5,4 -5,12 0,17l396 397c3,2 6,3 9,3 3,0 6,-1 8,-3l48 -48c27,-27 36,-90 22,-130l147 -147c41,-41 63,-95 63,-153 0,-58 -22,-112 -63,-153 -41,-41 -95,-63 -153,-63z"/>
      <path class="fil2" d="M963 331c-18,-19 -49,-19 -68,0l-16 16c-4,4 -4,12 0,17 5,4 13,4 18,0l15 -16c10,-10 25,-10 34,0 5,4 7,10 7,17 0,6 -2,12 -7,17l-15 16c-5,4 -5,12 0,17 2,2 5,3 8,3 3,0 6,-1 9,-3l15 -16c9,-9 14,-21 14,-34 0,-13 -5,-25 -14,-34z"/>
      <path class="fil2" d="M681 449c2,0 4,0 6,-1 31,-15 68,-15 100,0 6,2 13,0 16,-6 2,-6 0,-13 -6,-16 -38,-18 -83,-17 -121,0 -6,3 -8,10 -5,16 2,4 6,7 10,7z"/>
     </g>
    </g>
   </g>
   <g>
   </g>
   <g>
   </g>
   <g>
   </g>
   <g>
   </g>
   <g>
   </g>
   <g>
   </g>
   <g>
   </g>
   <g>
   </g>
   <g>
   </g>
   <g>
   </g>
   <g>
   </g>
   <g>
   </g>
   <g>
   </g>
   <g>
   </g>
   <g>
   </g>
  </g>
 </g>
</svg>
