<svg xmlns="http://www.w3.org/2000/svg" xml:space="preserve" width="109px" height="109px" version="1.1" style="shape-rendering:geometricPrecision; text-rendering:geometricPrecision; image-rendering:optimizeQuality; fill-rule:evenodd; clip-rule:evenodd"
viewBox="0 0 2404 2404"
 xmlns:xlink="http://www.w3.org/1999/xlink">
 <defs>
  <style type="text/css">
   <![CDATA[
    .fil1 {fill:#69C925}
    .fil2 {fill:white}
    .fil0 {fill:#429A44;fill-rule:nonzero}
   ]]>
  </style>
 </defs>
<symbol id="Fm1-60-0" viewBox="40777 -31425 12545 1200">
 <path class="fil0" d="M40777 -31403l121 0 0 393 482 0 0 -393 122 0 0 915 -122 0 0 -419 -482 0 0 419 -121 0 0 -915zm1090 929c-30,0 -58,-3 -85,-10 -26,-6 -50,-17 -70,-32 -20,-15 -36,-34 -47,-58 -12,-23 -17,-52 -17,-85 0,-37 6,-68 19,-92 13,-24 30,-43 51,-58 20,-15 44,-26 71,-34 27,-8 55,-14 83,-19 30,-6 58,-11 85,-14 27,-3 51,-7 71,-13 21,-5 37,-13 49,-24 12,-11 18,-26 18,-47 0,-24 -5,-43 -14,-57 -9,-15 -20,-26 -34,-34 -14,-7 -30,-12 -47,-15 -18,-3 -35,-4 -52,-4 -47,0 -85,9 -116,26 -31,18 -47,51 -50,100l-109 0c2,-41 11,-76 26,-104 15,-28 36,-51 62,-69 25,-17 54,-30 87,-38 33,-7 68,-11 106,-11 30,0 60,2 89,6 30,5 56,13 80,26 24,14 43,32 58,56 14,24 22,56 22,94l0 341c0,25 1,44 4,56 3,12 13,18 30,18 8,0 19,-2 33,-6l0 84c-18,11 -45,17 -78,17 -28,0 -50,-8 -67,-24 -17,-16 -25,-41 -25,-77 -30,36 -65,61 -104,77 -40,16 -83,24 -129,24zm24 -95c36,0 66,-5 92,-15 26,-10 47,-22 63,-37 16,-15 28,-31 36,-49 8,-17 12,-34 12,-49l0 -111c-14,11 -32,19 -54,23 -22,4 -46,8 -70,11 -24,3 -49,7 -74,10 -25,4 -47,10 -66,18 -20,9 -36,21 -48,37 -13,16 -19,38 -19,65 0,18 4,33 11,45 7,13 16,23 28,30 12,8 25,14 41,17 15,3 31,5 48,5zm480 -582l109 0 0 541 313 -541 139 0 0 663 -109 0 0 -541 -312 541 -140 0 0 -663zm281 -97c-26,0 -50,-4 -72,-12 -22,-7 -42,-18 -58,-33 -17,-14 -30,-32 -40,-53 -10,-21 -15,-45 -15,-72l91 0c2,63 33,95 93,95 29,0 52,-9 68,-25 16,-17 24,-40 24,-70l91 0c0,26 -5,49 -14,70 -10,22 -22,39 -39,54 -16,15 -35,26 -57,34 -23,8 -47,12 -72,12zm605 194l-237 0 0 -97 582 0 0 97 -236 0 0 566 -109 0 0 -566zm432 -97l109 0 0 541 313 -541 139 0 0 663 -108 0 0 -541 -313 541 -140 0 0 -663zm1082 0l109 0 0 317 303 -317 145 0 -293 287 328 376 -140 0 -277 -315 -66 65 0 250 -109 0 0 -663zm742 927c-13,0 -26,-1 -39,-3 -13,-2 -25,-5 -37,-9l0 -100c10,4 21,7 31,10 11,4 22,5 33,5 22,0 40,-5 54,-15 14,-10 26,-25 36,-45l44 -111 -262 -659 123 0 193 542 3 0 186 -542 115 0 -288 750c-13,32 -26,60 -38,82 -12,22 -26,40 -41,54 -15,15 -32,25 -50,31 -18,6 -39,10 -63,10zm576 -927l109 0 0 90 2 0c18,-37 46,-63 85,-80 38,-16 81,-25 127,-25 51,0 96,10 134,28 38,19 69,44 94,76 26,33 45,69 57,111 13,42 20,87 20,133 0,48 -6,93 -19,134 -12,42 -31,78 -56,109 -25,32 -57,56 -95,74 -38,18 -82,27 -133,27 -17,0 -35,-2 -55,-5 -19,-3 -39,-9 -58,-17 -20,-8 -39,-18 -56,-31 -18,-14 -33,-30 -45,-50l-2 0 0 341 -109 0 0 -915zm314 582c37,0 68,-7 93,-22 26,-14 46,-33 62,-57 15,-24 26,-52 33,-82 7,-31 10,-63 10,-95 0,-31 -4,-61 -12,-91 -8,-29 -20,-55 -37,-78 -16,-23 -38,-42 -64,-56 -26,-13 -56,-20 -92,-20 -36,0 -67,7 -93,22 -26,14 -46,33 -63,57 -16,23 -28,50 -35,80 -7,30 -11,60 -11,91 0,32 4,64 12,94 7,30 19,57 36,80 17,23 38,42 65,56 26,14 58,21 96,21zm716 95c-50,0 -95,-8 -134,-24 -38,-17 -71,-40 -97,-70 -26,-30 -46,-65 -59,-106 -14,-41 -20,-87 -20,-137 0,-50 6,-96 19,-139 13,-43 32,-81 59,-113 25,-32 58,-57 97,-76 39,-18 85,-27 138,-27 37,0 72,5 105,14 33,9 62,22 87,41 25,19 46,42 62,71 17,29 27,63 31,102l-113 0c-8,-42 -26,-74 -53,-97 -28,-23 -65,-35 -111,-35 -39,0 -72,7 -98,22 -27,14 -48,34 -64,58 -15,24 -27,51 -33,82 -7,31 -11,64 -11,97 0,31 4,61 11,90 7,29 18,54 34,77 15,23 35,41 60,54 24,14 54,21 89,21 53,0 95,-14 126,-42 30,-28 49,-68 55,-119l112 0c-12,82 -42,146 -91,190 -48,44 -116,66 -201,66zm1055 0c-52,0 -99,-9 -138,-27 -40,-17 -74,-41 -101,-73 -27,-30 -48,-67 -61,-109 -14,-42 -21,-87 -21,-136 0,-48 7,-94 21,-136 13,-43 34,-79 61,-111 27,-30 61,-55 101,-73 39,-18 86,-27 138,-27 53,0 99,9 139,27 40,18 74,43 101,73 27,32 48,68 62,111 13,42 20,88 20,136 0,49 -7,94 -20,136 -14,42 -35,79 -62,109 -27,32 -61,56 -101,73 -40,18 -86,27 -139,27zm0 -95c29,0 55,-5 80,-17 26,-11 48,-27 67,-48 18,-21 33,-47 43,-78 11,-31 16,-66 16,-107 0,-40 -5,-76 -16,-107 -10,-31 -25,-57 -43,-79 -19,-21 -41,-37 -67,-48 -25,-12 -51,-17 -80,-17 -28,0 -55,5 -80,17 -25,11 -47,27 -65,48 -19,22 -34,48 -45,79 -10,31 -16,67 -16,107 0,41 6,76 16,107 11,31 26,57 45,78 18,21 40,37 65,48 25,12 52,17 80,17zm746 95c-85,0 -154,-22 -207,-65 -53,-44 -86,-112 -99,-203 -5,-36 -8,-76 -8,-120 0,-32 1,-65 3,-99 2,-34 6,-68 12,-101 5,-33 13,-65 23,-96 10,-31 23,-59 39,-83 29,-46 65,-79 106,-101 42,-22 95,-35 158,-39 42,-3 77,-7 105,-12 28,-4 44,-15 47,-32l109 0c-2,34 -9,59 -21,77 -13,18 -31,31 -54,41 -23,9 -52,14 -85,17 -33,4 -72,7 -117,10 -36,3 -68,11 -96,26 -27,14 -50,33 -69,58 -20,24 -35,53 -47,86 -12,33 -21,69 -26,108l4 0c19,-44 48,-80 88,-108 40,-28 87,-42 144,-42 93,0 166,29 220,87 54,58 81,142 81,251 0,56 -7,105 -22,147 -15,42 -37,77 -64,106 -27,29 -60,51 -98,65 -38,15 -80,22 -126,22zm1 -92c26,0 51,-6 75,-16 24,-11 45,-26 62,-47 18,-21 33,-46 44,-76 11,-31 17,-66 17,-106 0,-78 -18,-139 -54,-183 -36,-45 -85,-67 -146,-67 -62,0 -111,23 -147,67 -36,45 -55,106 -55,184 0,76 19,135 55,178 35,44 85,66 149,66zm505 342c-13,0 -26,-1 -39,-3 -12,-2 -25,-5 -37,-9l0 -100c11,4 21,7 32,10 10,4 21,5 32,5 22,0 41,-5 54,-15 14,-10 26,-25 36,-45l45 -111 -263 -659 123 0 194 542 2 0 186 -542 115 0 -288 750c-13,32 -25,60 -38,82 -12,22 -26,40 -41,54 -15,15 -31,25 -50,31 -18,6 -39,10 -63,10zm969 -533c-19,8 -46,16 -81,24 -36,8 -72,12 -111,12 -81,0 -140,-18 -175,-54 -35,-35 -53,-85 -53,-149l0 -227 109 0 0 209c0,44 10,76 30,97 20,21 57,31 110,31 32,0 65,-3 96,-10 32,-7 57,-15 75,-23l0 -304 109 0 0 663 -109 0 0 -269zm555 283c-53,0 -99,-9 -139,-26 -39,-17 -72,-41 -99,-71 -26,-31 -46,-68 -60,-111 -13,-42 -20,-89 -20,-139 0,-50 8,-96 24,-138 15,-42 36,-79 64,-110 28,-30 61,-54 99,-71 38,-17 79,-26 125,-26 59,0 108,12 147,36 39,25 69,56 93,93 24,38 40,79 49,123 9,45 12,87 11,127l-496 0c-1,29 2,57 10,83 8,26 20,49 37,69 17,20 39,36 66,48 26,12 57,18 93,18 46,0 84,-11 113,-32 30,-22 49,-54 59,-98l107 0c-14,76 -46,132 -96,169 -50,37 -112,56 -187,56zm178 -409c-2,-25 -7,-50 -17,-73 -10,-23 -23,-43 -40,-60 -17,-16 -36,-29 -59,-39 -22,-10 -47,-15 -75,-15 -28,0 -53,5 -76,15 -23,10 -42,23 -58,40 -17,17 -29,37 -38,60 -10,23 -15,47 -17,72l380 0zm228 -268l109 0 0 264 336 0 0 -264 109 0 0 663 -109 0 0 -305 -336 0 0 305 -109 0 0 -663zm718 0l109 0 0 541 312 -541 140 0 0 663 -109 0 0 -541 -313 541 -139 0 0 -663zm864 404c-47,-7 -85,-28 -115,-64 -30,-36 -45,-81 -45,-136 0,-62 19,-112 56,-148 37,-37 88,-56 152,-56l335 0 0 663 -109 0 0 -255 -144 0 -203 255 -144 0 217 -259zm274 -90l0 -217 -192 0c-46,0 -79,9 -100,29 -20,20 -30,46 -30,80 0,34 10,60 30,79 21,20 54,29 100,29l192 0z"/>
</symbol>
 <g id="Layer-160">
  <metadata id="CorelCorpID_0Corel-Layer"/>
  <circle class="fil1" cx="1202" cy="1202" r="1202"/>
 </g>
 <g id="Layer-189">
  <metadata id="CorelCorpID_1Corel-Layer"/>
  <g id="_2314307136624">
   <g>
    <g>
     <g>
      <path class="fil2" d="M1284 1061c4,8 12,12 20,12 4,0 7,-1 10,-2 2,-1 133,-68 198,-88 12,-4 18,-17 14,-28 -3,-12 -16,-19 -28,-15 -68,22 -198,88 -204,91 -11,5 -15,19 -10,30z"/>
      <path class="fil2" d="M1304 805c4,0 7,-1 10,-2 2,-1 133,-68 198,-88 12,-4 18,-16 14,-28 -3,-12 -16,-18 -28,-15 -68,22 -198,88 -204,91 -11,6 -15,19 -10,30 4,8 12,12 20,12z"/>
      <path class="fil2" d="M1840 761c-12,0 -22,10 -22,22l0 871c0,36 -30,66 -67,66l-536 0 0 -51c32,-11 117,-38 201,-38 194,0 326,43 328,44 6,2 14,1 20,-3 6,-5 9,-11 9,-18l0 -983c0,-10 -7,-19 -17,-22 0,0 -18,-3 -48,-9 -12,-2 -24,6 -26,18 -2,12 6,24 18,26 11,2 21,4 28,5l0 935c-50,-13 -163,-37 -312,-37 -97,0 -193,32 -223,42 -26,-11 -105,-42 -201,-42 -154,0 -281,25 -335,38l0 -936c44,-11 176,-40 335,-40 81,0 151,25 178,37l0 878c0,8 5,16 12,20 7,4 15,4 22,-1 2,-1 223,-133 420,-199 9,-3 15,-11 15,-21l0 -915c0,-7 -4,-14 -10,-18 -6,-5 -13,-5 -20,-3 -179,67 -360,180 -361,181 -11,6 -14,20 -7,30 6,11 20,14 30,8 2,-2 159,-99 323,-165l0 866c-152,53 -311,140 -379,178l0 -854c0,-8 -5,-16 -12,-20 -4,-2 -96,-47 -211,-47 -202,0 -357,44 -364,46 -9,3 -16,11 -16,21l0 983c0,7 3,13 9,17 4,3 9,5 13,5 2,0 5,0 7,-1 1,0 155,-44 351,-44 81,0 151,26 178,37l0 52 -536 0c-37,0 -67,-30 -67,-66l0 -871c0,-12 -10,-22 -22,-22 -12,0 -22,10 -22,22l0 871c0,61 50,111 111,111l1117 0c61,0 111,-50 111,-111l0 -871c0,-12 -10,-22 -22,-22z"/>
      <path class="fil2" d="M1284 927c4,8 12,12 20,12 4,0 7,-1 10,-2 2,-1 133,-68 198,-88 12,-4 18,-16 14,-28 -3,-12 -16,-19 -28,-15 -68,22 -198,88 -204,91 -11,5 -15,19 -10,30z"/>
      <path class="fil2" d="M1284 1195c4,8 12,12 20,12 4,0 7,-1 10,-2 2,-1 133,-68 198,-88 12,-4 18,-17 14,-28 -3,-12 -16,-19 -28,-15 -68,22 -198,88 -204,91 -11,5 -15,19 -10,30z"/>
      <path class="fil2" d="M1064 840c-138,-32 -295,9 -301,11 -12,3 -19,15 -16,27 2,10 11,16 21,16 2,0 4,0 6,0 2,-1 152,-40 279,-11 12,3 25,-4 27,-16 3,-12 -4,-24 -16,-27z"/>
      <path class="fil2" d="M1064 974c-138,-32 -295,9 -301,11 -12,3 -19,15 -16,27 2,10 11,16 21,16 2,0 4,0 6,0 2,-1 152,-40 279,-11 12,3 25,-4 27,-16 3,-12 -4,-24 -16,-27z"/>
      <path class="fil2" d="M1284 1329c4,8 12,12 20,12 4,0 7,-1 10,-2 2,-1 133,-68 198,-88 12,-4 18,-17 14,-28 -3,-12 -16,-19 -28,-15 -68,22 -198,88 -204,91 -11,5 -15,19 -10,30z"/>
      <path class="fil2" d="M1064 1108c-138,-32 -295,9 -301,10 -12,4 -19,16 -16,28 2,10 11,16 21,16 2,0 4,0 6,0 2,-1 152,-40 279,-11 12,3 25,-4 27,-16 3,-12 -4,-24 -16,-27z"/>
      <path class="fil2" d="M1064 1376c-138,-33 -295,9 -301,10 -12,4 -19,16 -16,28 2,10 11,16 21,16 2,0 4,0 6,0 2,-1 152,-41 279,-11 12,3 25,-4 27,-16 3,-12 -4,-24 -16,-27z"/>
      <path class="fil2" d="M1064 1242c-138,-33 -295,9 -301,10 -12,4 -19,16 -16,28 2,10 11,16 21,16 2,0 4,0 6,0 2,-1 152,-41 279,-11 12,3 25,-4 27,-16 3,-12 -4,-24 -16,-27z"/>
     </g>
    </g>
   </g>
   <g>
   </g>
   <g>
   </g>
   <g>
   </g>
   <g>
   </g>
   <g>
   </g>
   <g>
   </g>
   <g>
   </g>
   <g>
   </g>
   <g>
   </g>
   <g>
   </g>
   <g>
   </g>
   <g>
   </g>
   <g>
   </g>
   <g>
   </g>
   <g>
   </g>
  </g>
 </g>
</svg>
