<svg xmlns="http://www.w3.org/2000/svg" xml:space="preserve" width="109px" height="109px" version="1.1" style="shape-rendering:geometricPrecision; text-rendering:geometricPrecision; image-rendering:optimizeQuality; fill-rule:evenodd; clip-rule:evenodd"
viewBox="0 0 11431 11431"
 xmlns:xlink="http://www.w3.org/1999/xlink">
 <defs>
  <style type="text/css">
   <![CDATA[
    .fil1 {fill:#69C925}
    .fil2 {fill:white}
    .fil0 {fill:#429A44;fill-rule:nonzero}
   ]]>
  </style>
 </defs>
<symbol id="Fm1-60-0" viewBox="173432 -130250 59652 5708">
 <path class="fil0" d="M173432 -130146l579 0 0 1870 2291 0 0 -1870 578 0 0 4349 -578 0 0 -1992 -2291 0 0 1992 -579 0 0 -4349zm5184 4417c-142,0 -275,-16 -401,-45 -126,-31 -238,-83 -333,-154 -95,-71 -171,-162 -225,-274 -55,-113 -82,-247 -82,-404 0,-178 31,-325 91,-439 60,-114 142,-207 242,-278 98,-71 212,-124 340,-161 128,-36 259,-67 392,-91 143,-29 278,-50 406,-66 127,-13 240,-34 338,-60 97,-26 174,-64 231,-116 57,-50 85,-124 85,-221 0,-114 -21,-205 -64,-274 -43,-69 -97,-123 -164,-159 -67,-36 -141,-61 -224,-73 -85,-12 -166,-19 -247,-19 -220,0 -403,42 -549,125 -147,84 -227,241 -239,473l-516 0c9,-195 48,-359 123,-494 72,-133 169,-242 292,-326 120,-83 259,-144 416,-180 157,-36 324,-53 502,-53 143,0 285,10 425,29 140,21 266,62 380,124 114,64 205,152 274,266 69,114 104,263 104,446l0 1619c0,123 7,211 21,268 13,57 62,86 143,86 36,0 90,-10 159,-31l0 402c-90,54 -214,80 -373,80 -133,0 -240,-38 -320,-114 -79,-74 -119,-197 -119,-368 -141,171 -307,294 -495,368 -189,76 -394,114 -613,114zm115 -451c171,0 316,-24 439,-71 123,-46 221,-105 299,-176 77,-71 134,-148 171,-233 36,-83 55,-160 55,-233l0 -530c-66,53 -150,90 -256,109 -105,20 -216,39 -331,55 -116,15 -233,33 -351,48 -119,18 -224,47 -317,87 -94,39 -170,98 -228,172 -59,76 -88,180 -88,309 0,85 17,157 51,216 33,59 78,107 133,144 56,36 119,63 194,79 72,15 148,24 229,24zm2285 -2766l518 0 0 2571 1485 -2571 664 0 0 3149 -518 0 0 -2571 -1486 2571 -663 0 0 -3149zm1333 -463c-121,0 -235,-19 -340,-55 -106,-36 -199,-88 -277,-157 -79,-69 -143,-154 -190,-254 -46,-98 -70,-214 -70,-343l433 0c9,300 154,450 439,450 141,0 250,-40 326,-119 74,-79 112,-190 112,-331l432 0c0,122 -23,233 -66,334 -45,102 -105,187 -183,256 -78,69 -169,123 -274,161 -106,39 -220,58 -342,58zm2876 921l-1127 0 0 -458 2771 0 0 458 -1126 0 0 2691 -518 0 0 -2691zm2058 -458l518 0 0 2571 1485 -2571 665 0 0 3149 -518 0 0 -2571 -1487 2571 -663 0 0 -3149zm5142 0l518 0 0 1504 1444 -1504 687 0 -1393 1364 1559 1785 -665 0 -1316 -1498 -316 310 0 1188 -518 0 0 -3149zm3528 4405c-61,0 -123,-4 -183,-12 -61,-9 -119,-23 -176,-44l0 -474c48,15 98,32 148,48 50,15 102,24 156,24 105,0 191,-24 257,-72 64,-50 121,-121 169,-214l212 -531 -1248 -3130 585 0 921 2576 12 0 882 -2576 549 0 -1371 3564c-60,153 -121,285 -179,390 -59,105 -125,192 -195,259 -71,67 -151,116 -237,147 -88,29 -188,45 -302,45zm2740 -4405l518 0 0 427 12 0c85,-175 219,-303 402,-382 183,-78 384,-117 603,-117 243,0 456,44 637,132 181,90 332,211 451,363 119,154 210,328 271,527 60,198 91,411 91,633 0,228 -29,441 -88,637 -58,197 -148,370 -267,518 -119,149 -270,266 -451,351 -181,85 -392,128 -632,128 -81,0 -167,-9 -261,-24 -93,-16 -186,-44 -279,-80 -95,-36 -183,-86 -266,-150 -83,-62 -154,-140 -211,-233l-12 0 0 1619 -518 0 0 -4349zm1494 2766c174,0 321,-34 443,-103 123,-70 220,-161 294,-275 72,-114 124,-243 157,-390 33,-147 48,-297 48,-451 0,-147 -19,-290 -57,-430 -39,-140 -98,-264 -176,-375 -79,-108 -181,-196 -304,-262 -124,-64 -269,-97 -437,-97 -174,0 -322,35 -443,104 -123,69 -221,159 -299,271 -78,112 -133,238 -167,380 -35,143 -52,287 -52,433 0,154 19,304 55,447 36,146 93,273 173,382 79,109 181,197 307,264 126,68 278,102 458,102zm3404 451c-240,0 -450,-38 -635,-116 -185,-78 -340,-186 -464,-330 -125,-141 -218,-311 -280,-506 -64,-195 -95,-411 -95,-651 0,-236 31,-455 91,-661 61,-205 154,-383 278,-537 123,-152 278,-271 463,-359 185,-86 402,-129 655,-129 177,0 345,20 502,63 157,44 295,109 414,197 120,90 218,202 296,339 77,136 126,297 145,485l-536 0c-39,-199 -126,-354 -255,-465 -130,-108 -306,-164 -525,-164 -186,0 -342,35 -468,104 -126,69 -228,161 -302,274 -74,114 -128,246 -161,392 -32,149 -48,303 -48,461 0,147 17,289 52,427 33,138 86,261 160,368 73,108 168,195 284,259 115,65 257,98 423,98 255,0 455,-67 600,-202 144,-133 232,-323 265,-566l530 0c-57,393 -201,696 -432,905 -231,208 -551,314 -957,314zm5018 0c-250,0 -471,-42 -659,-126 -189,-83 -349,-199 -479,-347 -129,-147 -228,-321 -292,-520 -65,-199 -98,-414 -98,-646 0,-231 33,-447 98,-649 64,-202 163,-376 292,-525 130,-147 290,-264 479,-349 188,-84 409,-127 659,-127 249,0 468,43 660,127 190,85 350,202 480,349 129,149 228,323 293,525 64,202 97,418 97,649 0,232 -33,447 -97,646 -65,199 -164,373 -293,520 -130,148 -290,264 -480,347 -192,84 -411,126 -660,126zm0 -451c135,0 263,-26 382,-79 119,-54 224,-130 314,-230 88,-98 159,-223 209,-371 50,-147 76,-316 76,-508 0,-191 -26,-361 -76,-509 -50,-149 -121,-273 -209,-375 -90,-102 -195,-178 -314,-231 -119,-54 -247,-80 -382,-80 -133,0 -261,26 -380,80 -119,53 -224,129 -312,231 -90,102 -161,226 -211,375 -50,148 -76,318 -76,509 0,192 26,361 76,508 50,148 121,273 211,371 88,100 193,176 312,230 119,53 247,79 380,79zm3547 451c-406,0 -734,-104 -985,-311 -250,-207 -407,-528 -471,-963 -26,-171 -38,-361 -38,-572 0,-150 5,-307 16,-470 10,-162 29,-323 55,-481 26,-158 64,-309 110,-456 47,-147 107,-278 185,-396 138,-215 307,-374 506,-478 199,-103 449,-166 749,-186 199,-16 366,-35 499,-56 133,-19 209,-70 227,-152l516 0c-9,159 -42,282 -102,366 -60,85 -147,149 -256,192 -110,43 -245,71 -402,85 -159,15 -344,31 -556,46 -174,12 -326,52 -456,121 -129,69 -240,161 -331,276 -92,116 -166,253 -223,410 -57,157 -98,328 -123,514l19 0c88,-207 228,-378 418,-511 188,-133 416,-200 684,-200 444,0 793,138 1048,413 256,276 383,675 383,1194 0,265 -34,496 -105,696 -71,202 -173,370 -302,506 -130,136 -285,240 -466,309 -182,69 -380,104 -599,104zm5 -439c122,0 240,-26 354,-76 114,-50 214,-124 298,-223 85,-98 154,-219 208,-362 53,-143 79,-311 79,-503 0,-369 -85,-659 -255,-872 -171,-210 -405,-315 -696,-315 -292,0 -525,107 -698,319 -173,212 -259,504 -259,875 0,358 86,639 257,846 171,208 408,311 712,311zm2400 1627c-61,0 -123,-4 -183,-12 -61,-9 -119,-23 -176,-44l0 -474c48,15 98,32 148,48 50,15 102,24 156,24 105,0 191,-24 257,-72 64,-50 121,-121 169,-214l212 -531 -1248 -3130 585 0 921 2576 12 0 882 -2576 549 0 -1371 3564c-60,153 -121,285 -179,390 -59,105 -125,192 -196,259 -70,67 -150,116 -236,147 -88,29 -188,45 -302,45zm4610 -2535c-93,40 -223,79 -389,116 -167,36 -341,55 -524,55 -389,0 -667,-85 -834,-254 -168,-167 -251,-404 -251,-708l0 -1079 518 0 0 993c0,207 49,361 143,459 95,100 270,150 522,150 154,0 307,-17 457,-50 151,-33 270,-69 358,-108l0 -1444 518 0 0 3149 -518 0 0 -1279zm2638 1347c-252,0 -473,-42 -661,-123 -188,-81 -345,-193 -471,-340 -127,-147 -221,-321 -284,-525 -64,-202 -95,-423 -95,-663 0,-236 37,-454 111,-656 72,-200 174,-373 307,-520 131,-147 287,-260 468,-342 181,-81 378,-120 594,-120 282,0 515,56 699,172 185,116 332,264 444,442 112,178 188,373 232,584 43,212 60,412 51,604l-2357 0c-5,138 13,269 49,392 36,124 95,235 176,330 81,95 185,171 311,228 126,57 273,86 443,86 220,0 401,-52 541,-154 140,-101 231,-255 276,-462l513 0c-69,357 -221,625 -458,801 -236,178 -531,266 -889,266zm846 -1944c-8,-121 -34,-237 -81,-347 -47,-109 -110,-204 -190,-284 -79,-77 -172,-141 -280,-188 -107,-46 -226,-71 -355,-71 -135,0 -256,25 -363,71 -109,47 -200,111 -278,192 -78,81 -138,176 -181,283 -45,109 -71,223 -80,344l1808 0zm1085 -1273l518 0 0 1255 1595 0 0 -1255 518 0 0 3149 -518 0 0 -1450 -1595 0 0 1450 -518 0 0 -3149zm3411 0l518 0 0 2571 1485 -2571 665 0 0 3149 -518 0 0 -2571 -1487 2571 -663 0 0 -3149zm4112 1918c-223,-32 -406,-133 -548,-304 -143,-170 -214,-385 -214,-645 0,-296 88,-532 266,-707 176,-174 416,-262 722,-262l1595 0 0 3149 -518 0 0 -1212 -687 0 -964 1212 -687 0 1035 -1231zm1303 -426l0 -1034 -913 0c-220,0 -377,46 -475,139 -98,94 -147,220 -147,379 0,162 49,288 147,379 98,92 255,137 475,137l913 0z"/>
</symbol>
 <g id="Layer-165">
  <metadata id="CorelCorpID_0Corel-Layer"/>
  <circle class="fil1" cx="5716" cy="5716" r="5716"/>
 </g>
 <g id="Layer-188">
  <metadata id="CorelCorpID_1Corel-Layer"/>
  <g id="_2314307145712">
   <g>
    <g>
     <g>
      <path class="fil2" d="M6967 4533l-186 0c-51,0 -93,41 -93,93 0,51 42,93 93,93l186 0c52,0 93,-42 93,-93 0,-52 -41,-93 -93,-93z"/>
      <path class="fil2" d="M6967 4905l-186 0c-51,0 -93,41 -93,93 0,51 42,93 93,93l186 0c52,0 93,-42 93,-93 0,-52 -41,-93 -93,-93z"/>
      <path class="fil2" d="M6967 4161l-186 0c-51,0 -93,41 -93,93 0,51 42,93 93,93l186 0c52,0 93,-42 93,-93 0,-52 -41,-93 -93,-93z"/>
      <path class="fil2" d="M6967 7137l-186 0c-51,0 -93,41 -93,93 0,51 42,93 93,93l186 0c52,0 93,-42 93,-93 0,-52 -41,-93 -93,-93z"/>
      <path class="fil2" d="M4921 4161l-558 0c-51,0 -93,41 -93,93l0 1302c0,51 42,93 93,93l558 0c52,0 93,-42 93,-93l0 -1302c0,-52 -41,-93 -93,-93zm-93 1302l-372 0 0 -1116 372 0 0 1116z"/>
      <path class="fil2" d="M4921 7137l-558 0c-51,0 -93,41 -93,93 0,51 42,93 93,93l558 0c52,0 93,-42 93,-93 0,-52 -41,-93 -93,-93z"/>
      <path class="fil2" d="M4921 7509l-558 0c-51,0 -93,41 -93,93 0,51 42,93 93,93l558 0c52,0 93,-42 93,-93 0,-52 -41,-93 -93,-93z"/>
      <path class="fil2" d="M6967 7509l-186 0c-51,0 -93,41 -93,93 0,51 42,93 93,93l186 0c52,0 93,-42 93,-93 0,-52 -41,-93 -93,-93z"/>
      <path class="fil2" d="M8083 7509l-372 0c-51,0 -93,41 -93,93 0,51 42,93 93,93l372 0c52,0 93,-42 93,-93 0,-52 -41,-93 -93,-93z"/>
      <path class="fil2" d="M6130 4254c0,-52 -42,-93 -93,-93l-372 0c-51,0 -93,41 -93,93l0 1302c0,51 42,93 93,93l372 0c51,0 93,-42 93,-93l0 -1302zm-186 1209l-186 0 0 -1116 186 0 0 1116z"/>
      <path class="fil2" d="M8083 7137l-372 0c-51,0 -93,41 -93,93 0,51 42,93 93,93l372 0c52,0 93,-42 93,-93 0,-52 -41,-93 -93,-93z"/>
      <path class="fil2" d="M6037 7509l-372 0c-51,0 -93,41 -93,93 0,51 42,93 93,93l372 0c51,0 93,-42 93,-93 0,-52 -42,-93 -93,-93z"/>
      <path class="fil2" d="M7711 6021c52,0 93,-42 93,-93l0 -930c0,-52 -41,-93 -93,-93 -51,0 -93,41 -93,93l0 930c0,51 42,93 93,93z"/>
      <path class="fil2" d="M8176 4998c0,-52 -41,-93 -93,-93 -51,0 -93,41 -93,93l0 930c0,51 42,93 93,93 52,0 93,-42 93,-93l0 -930z"/>
      <path class="fil2" d="M8269 3417l-558 0c-51,0 -93,41 -93,93 0,51 42,93 93,93l558 0c51,0 93,41 93,93l0 4278c0,51 -42,93 -93,93l-837 0 0 -3906 558 0c52,0 93,-42 93,-93 0,-52 -41,-93 -93,-93l-558 0 0 -837c0,-157 -122,-279 -279,-279l-558 0c-154,0 -279,125 -279,279l0 4929 -930 0 0 -4836 651 0c51,0 93,-42 93,-93 0,-52 -42,-93 -93,-93l-651 0 0 -93c0,-157 -122,-279 -279,-279l-930 0c-154,0 -279,125 -279,279l0 837 -465 0c-51,0 -93,41 -93,93 0,51 42,93 93,93l465 0 0 4092 -651 0c-51,0 -93,-42 -93,-93l0 -4464c0,-52 42,-93 93,-93l372 0c52,0 93,-42 93,-93 0,-52 -41,-93 -93,-93l-372 0c-154,0 -279,125 -279,279l0 4464c0,153 125,279 279,279l5022 0c154,0 279,-126 279,-279l0 -4278c0,-154 -125,-279 -279,-279zm-3069 4650l-1116 0 0 -4650 837 0c52,0 93,-42 93,-93 0,-52 -41,-93 -93,-93l-837 0 0 -279c0,-53 41,-93 93,-93l930 0c53,0 93,40 93,93l0 5115 0 0zm2046 0l-744 0 0 -4464 465 0c52,0 93,-42 93,-93 0,-52 -41,-93 -93,-93l-465 0 0 -279c0,-53 41,-93 93,-93l558 0c53,0 93,40 93,93l0 4929z"/>
      <path class="fil2" d="M3619 7137l-186 0c-51,0 -93,41 -93,93 0,51 42,93 93,93l186 0c52,0 93,-42 93,-93 0,-52 -41,-93 -93,-93z"/>
      <path class="fil2" d="M3619 7509l-186 0c-51,0 -93,41 -93,93 0,51 42,93 93,93l186 0c52,0 93,-42 93,-93 0,-52 -41,-93 -93,-93z"/>
      <path class="fil2" d="M6037 7137l-372 0c-51,0 -93,41 -93,93 0,51 42,93 93,93l372 0c51,0 93,-42 93,-93 0,-52 -42,-93 -93,-93z"/>
      <path class="fil2" d="M3619 4905l-186 0c-51,0 -93,41 -93,93 0,51 42,93 93,93l186 0c52,0 93,-42 93,-93 0,-52 -41,-93 -93,-93z"/>
      <path class="fil2" d="M3619 5277l-186 0c-51,0 -93,41 -93,93 0,51 42,93 93,93l186 0c52,0 93,-42 93,-93 0,-52 -41,-93 -93,-93z"/>
     </g>
    </g>
   </g>
   <g>
   </g>
   <g>
   </g>
   <g>
   </g>
   <g>
   </g>
   <g>
   </g>
   <g>
   </g>
   <g>
   </g>
   <g>
   </g>
   <g>
   </g>
   <g>
   </g>
   <g>
   </g>
   <g>
   </g>
   <g>
   </g>
   <g>
   </g>
   <g>
   </g>
  </g>
 </g>
</svg>
