<svg xmlns="http://www.w3.org/2000/svg" xml:space="preserve" width="109px" height="109px" version="1.1" style="shape-rendering:geometricPrecision; text-rendering:geometricPrecision; image-rendering:optimizeQuality; fill-rule:evenodd; clip-rule:evenodd"
viewBox="0 0 4295 4295"
 xmlns:xlink="http://www.w3.org/1999/xlink"
 enable-background="new 0 0 64 64">
 <defs>
  <style type="text/css">
   <![CDATA[
    .fil1 {fill:#69C925}
    .fil2 {fill:white}
    .fil0 {fill:#429A44;fill-rule:nonzero}
   ]]>
  </style>
 </defs>
<symbol id="Fm1-60-0" viewBox="57671 -56223 22415 2145">
 <path class="fil0" d="M57671 -56184l218 0 0 702 861 0 0 -702 217 0 0 1634 -217 0 0 -749 -861 0 0 749 -218 0 0 -1634zm1948 1659c-53,0 -103,-5 -150,-16 -48,-12 -90,-32 -126,-58 -35,-27 -64,-61 -84,-103 -21,-43 -31,-93 -31,-152 0,-67 12,-122 34,-165 23,-43 53,-78 91,-104 37,-27 80,-47 128,-61 48,-13 97,-25 147,-34 54,-11 105,-19 153,-25 48,-5 90,-13 127,-23 36,-9 65,-24 87,-43 21,-19 32,-47 32,-83 0,-43 -8,-77 -24,-103 -17,-26 -37,-46 -62,-60 -25,-14 -53,-23 -84,-27 -32,-5 -63,-7 -93,-7 -83,0 -151,15 -207,46 -55,32 -85,91 -89,178l-194 0c3,-73 18,-135 46,-185 27,-50 64,-91 110,-123 45,-31 97,-54 156,-67 59,-14 122,-21 189,-21 54,0 107,4 159,11 53,8 100,24 143,47 43,24 77,57 103,100 26,43 39,99 39,167l0 609c0,46 3,79 8,101 5,21 23,32 54,32 14,0 34,-4 60,-12l0 152c-34,20 -81,29 -141,29 -50,0 -90,-14 -120,-42 -29,-28 -44,-74 -44,-139 -54,65 -116,111 -187,139 -70,28 -147,42 -230,42zm44 -169c64,0 118,-9 164,-27 46,-17 83,-39 113,-66 29,-26 50,-56 64,-87 13,-31 21,-61 21,-88l0 -199c-25,20 -57,34 -96,41 -40,8 -82,15 -125,21 -43,5 -88,12 -132,18 -44,6 -84,17 -119,32 -35,15 -64,37 -86,65 -22,29 -33,68 -33,116 0,32 7,59 20,81 12,22 29,41 50,54 20,14 44,24 72,30 28,6 56,9 87,9zm858 -1039l195 0 0 966 558 -966 249 0 0 1183 -194 0 0 -966 -559 966 -249 0 0 -1183zm501 -174c-46,0 -88,-7 -128,-21 -40,-14 -75,-33 -104,-59 -30,-26 -54,-58 -71,-95 -18,-37 -27,-81 -27,-129l163 0c3,112 58,169 165,169 53,0 94,-15 123,-45 27,-30 42,-71 42,-124l162 0c0,46 -9,87 -25,125 -17,39 -39,70 -69,96 -29,26 -63,46 -103,61 -39,15 -82,22 -128,22zm1081 346l-424 0 0 -172 1041 0 0 172 -423 0 0 1011 -194 0 0 -1011zm773 -172l195 0 0 966 558 -966 250 0 0 1183 -195 0 0 -966 -559 966 -249 0 0 -1183zm1932 0l195 0 0 565 542 -565 259 0 -524 512 586 671 -250 0 -494 -563 -119 117 0 446 -195 0 0 -1183zm1326 1655c-23,0 -46,-2 -69,-5 -23,-3 -45,-8 -66,-16l0 -178c18,5 37,12 56,18 18,6 38,9 58,9 40,0 72,-9 97,-27 24,-19 45,-46 63,-81l80 -199 -469 -1176 220 0 346 968 4 0 332 -968 206 0 -515 1339c-23,58 -45,107 -68,146 -22,40 -46,72 -73,98 -26,25 -56,43 -89,55 -33,11 -70,17 -113,17zm1029 -1655l195 0 0 160 5 0c31,-66 82,-114 151,-143 69,-30 144,-45 226,-45 92,0 171,17 240,50 68,34 124,80 169,137 45,57 79,123 102,198 23,74 34,154 34,238 0,85 -11,165 -33,239 -22,74 -56,139 -100,195 -45,55 -102,100 -170,131 -68,32 -147,48 -237,48 -31,0 -63,-3 -98,-9 -35,-6 -70,-16 -105,-30 -36,-13 -69,-32 -100,-56 -31,-23 -58,-53 -79,-88l-5 0 0 609 -195 0 0 -1634zm562 1039c65,0 120,-13 166,-39 46,-26 83,-60 111,-103 27,-43 46,-92 59,-147 12,-55 18,-111 18,-169 0,-55 -7,-109 -22,-162 -14,-52 -37,-99 -66,-140 -30,-41 -68,-74 -114,-99 -47,-24 -101,-36 -164,-36 -66,0 -121,13 -167,39 -46,26 -83,59 -112,101 -29,43 -50,90 -63,143 -13,54 -19,108 -19,163 0,58 7,114 20,168 14,55 35,103 65,144 30,40 68,73 116,99 47,25 104,38 172,38zm1279 169c-90,0 -169,-14 -239,-43 -69,-29 -128,-70 -174,-124 -47,-53 -82,-117 -105,-190 -24,-73 -36,-155 -36,-245 0,-89 12,-171 34,-248 23,-77 58,-144 105,-202 46,-57 104,-102 174,-135 69,-32 151,-49 246,-49 66,0 129,8 188,24 59,17 111,41 156,74 45,34 82,76 111,128 29,51 47,111 55,182l-202 0c-14,-75 -47,-133 -96,-175 -48,-41 -114,-61 -197,-61 -70,0 -128,13 -176,39 -47,26 -85,60 -113,103 -28,43 -48,92 -61,147 -12,56 -18,114 -18,173 0,55 7,109 20,161 12,51 32,98 60,138 27,41 63,73 107,97 43,25 96,37 158,37 96,0 172,-25 226,-76 54,-50 87,-121 100,-213l199 0c-22,148 -76,262 -163,340 -86,79 -206,118 -359,118zm1885 0c-94,0 -177,-15 -247,-47 -71,-31 -131,-75 -180,-130 -49,-56 -86,-121 -110,-196 -24,-74 -37,-155 -37,-242 0,-87 13,-168 37,-244 24,-76 61,-142 110,-198 49,-55 109,-99 180,-131 70,-31 153,-48 247,-48 94,0 176,17 248,48 72,32 132,76 181,131 48,56 85,122 110,198 24,76 36,157 36,244 0,87 -12,168 -36,242 -25,75 -62,140 -110,196 -49,55 -109,99 -181,130 -72,32 -154,47 -248,47zm0 -169c51,0 99,-10 144,-30 45,-20 84,-48 118,-86 33,-37 60,-84 78,-140 19,-55 29,-118 29,-190 0,-72 -10,-136 -29,-192 -18,-56 -45,-102 -78,-141 -34,-38 -73,-66 -118,-86 -45,-21 -93,-30 -144,-30 -49,0 -97,9 -142,30 -45,20 -85,48 -118,86 -33,39 -60,85 -79,141 -19,56 -28,120 -28,192 0,72 9,135 28,190 19,56 46,103 79,140 33,38 73,66 118,86 45,20 93,30 142,30zm1333 169c-152,0 -276,-39 -370,-116 -94,-78 -153,-199 -177,-362 -10,-65 -14,-136 -14,-215 0,-57 2,-116 6,-177 4,-61 11,-121 21,-181 9,-59 24,-116 41,-171 18,-55 40,-104 69,-149 52,-81 116,-140 191,-179 74,-39 168,-63 281,-70 75,-6 138,-13 188,-21 50,-7 78,-27 85,-57l194 0c-4,60 -16,106 -39,137 -22,32 -55,56 -96,72 -41,17 -92,27 -151,32 -60,6 -129,12 -209,18 -65,4 -122,19 -171,45 -49,26 -90,60 -125,104 -34,43 -62,95 -83,154 -22,59 -37,123 -46,193l7 0c33,-78 85,-142 157,-192 70,-50 156,-75 257,-75 166,0 298,52 394,155 96,104 144,253 144,449 0,99 -13,186 -40,261 -27,76 -65,139 -114,190 -48,52 -107,91 -175,116 -68,26 -142,39 -225,39zm2 -164c46,0 90,-10 133,-29 43,-19 81,-47 112,-84 32,-37 58,-82 78,-136 20,-54 30,-117 30,-189 0,-139 -32,-248 -96,-327 -64,-79 -152,-119 -261,-119 -110,0 -198,40 -263,120 -64,80 -97,189 -97,329 0,134 33,240 97,318 64,78 153,117 267,117zm902 611c-23,0 -46,-2 -69,-5 -23,-3 -45,-8 -66,-16l0 -178c18,5 37,12 56,18 19,6 38,9 58,9 40,0 72,-9 97,-27 24,-19 45,-46 63,-81l80 -199 -469 -1176 220 0 346 968 4 0 332 -968 206 0 -515 1339c-23,58 -45,107 -67,146 -22,40 -47,72 -74,98 -26,25 -56,43 -89,55 -33,11 -70,17 -113,17zm1732 -953c-35,15 -83,30 -146,44 -63,13 -128,21 -197,21 -146,0 -250,-32 -313,-96 -63,-63 -94,-152 -94,-266l0 -405 194 0 0 373c0,78 18,135 54,172 36,38 101,57 196,57 58,0 115,-7 172,-19 56,-12 101,-26 134,-41l0 -542 195 0 0 1183 -195 0 0 -481zm992 506c-95,0 -178,-15 -249,-46 -71,-30 -130,-72 -177,-127 -47,-56 -83,-121 -106,-198 -24,-76 -36,-159 -36,-249 0,-89 14,-171 41,-246 28,-76 66,-141 116,-196 49,-55 108,-98 176,-128 68,-31 142,-46 223,-46 106,0 193,22 263,65 69,44 124,100 166,166 43,67 71,141 87,220 17,79 23,155 20,227l-886 0c-2,52 5,101 18,147 14,47 36,88 67,124 30,36 69,64 116,86 48,21 103,32 167,32 82,0 151,-19 203,-58 53,-38 87,-96 104,-174l193 0c-26,135 -83,235 -172,301 -89,67 -200,100 -334,100zm318 -730c-4,-46 -13,-89 -31,-131 -18,-40 -42,-76 -71,-106 -30,-29 -65,-53 -105,-71 -41,-17 -85,-26 -134,-26 -51,0 -96,9 -136,26 -41,18 -76,42 -105,72 -29,31 -52,67 -68,107 -17,41 -27,83 -30,129l680 0zm407 -478l195 0 0 471 599 0 0 -471 195 0 0 1183 -195 0 0 -545 -599 0 0 545 -195 0 0 -1183zm1282 0l195 0 0 966 558 -966 249 0 0 1183 -194 0 0 -966 -559 966 -249 0 0 -1183zm1545 720c-84,-12 -153,-49 -206,-114 -54,-64 -80,-144 -80,-242 0,-111 33,-200 100,-266 66,-65 156,-98 271,-98l599 0 0 1183 -194 0 0 -455 -259 0 -362 455 -258 0 389 -463zm490 -160l0 -388 -344 0c-82,0 -141,17 -178,52 -37,35 -55,83 -55,142 0,61 18,109 55,143 37,34 96,51 178,51l344 0z"/>
</symbol>
 <g id="Layer-166">
  <metadata id="CorelCorpID_0Corel-Layer"/>
  <circle class="fil1" cx="2148" cy="2148" r="2148"/>
 </g>
 <g id="Layer-190">
  <metadata id="CorelCorpID_1Corel-Layer"/>
  <g id="_2314307134960">
   <path class="fil2" d="M1554 2151c-66,0 -119,53 -119,119 0,65 53,118 119,118 65,0 119,-53 119,-118 0,-66 -54,-119 -119,-119zm0 158c-22,0 -40,-18 -40,-39 0,-22 18,-40 40,-40 22,0 39,18 39,40 0,21 -17,39 -39,39z"/>
   <path class="fil2" d="M3059 1715l-792 0c-66,0 -119,53 -119,119l0 634c0,65 53,119 119,119l792 0c66,0 119,-54 119,-119l0 -634c0,-66 -53,-119 -119,-119zm-515 79l238 0 0 142 -40 -39 -79 79 -79 -79 -40 39 0 -142zm555 674c0,22 -18,39 -40,39l-792 0c-22,0 -40,-17 -40,-39l0 -634c0,-22 18,-40 40,-40l198 0 0 333 119 -118 79 79 79 -79 119 118 0 -333 198 0c22,0 40,18 40,40l0 634z"/>
   <path class="fil2" d="M2997 1081l-1919 0c-65,0 -119,53 -119,119l0 1505c0,66 54,119 119,119l165 0 -148 413 203 -51 107 160 152 -405 144 407 108 -162 203 51 -147 -413 1432 0c66,0 119,-53 119,-119l0 -1205 -419 -419zm23 135l261 261 -222 0c-21,0 -39,-18 -39,-40l0 -221zm-1236 1298c-16,44 -79,80 -127,71 -26,-4 -42,-21 -52,-43 65,-12 121,-47 162,-95 17,19 26,42 17,67l0 0zm0 -489c9,26 -1,48 -17,67 -40,-48 -97,-83 -162,-95 10,-22 26,-39 52,-43 48,-8 111,27 127,71l0 0zm-230 443c-110,0 -198,-89 -198,-198 0,-110 88,-199 198,-199 109,0 198,89 198,199 0,109 -89,198 -198,198zm-230 -443c16,-44 78,-79 126,-71 27,4 43,21 52,43 -64,12 -121,47 -162,95 -16,-19 -25,-41 -16,-67l0 0zm190 -131l0 -44 59 59c-7,7 -13,13 -19,21 -11,-14 -25,-26 -40,-36zm0 -156l0 -86 79 79 0 86 -79 -79zm0 -198l0 -86 79 79 0 86 -79 -79zm79 -119l-79 -79 0 -86 79 79 0 86zm0 -198l-63 -63 63 0 0 63zm-158 651c-27,0 -54,6 -79,18l0 -732 79 0 0 714zm-143 305c-10,29 -16,59 -16,91 0,31 6,62 16,90 -27,5 -54,1 -73,-22 -29,-35 -29,-102 0,-137 19,-23 46,-26 73,-22zm32 335c-9,-25 0,-48 16,-67 41,48 98,83 162,95 -9,22 -26,39 -52,43 -48,9 -110,-27 -126,-71l0 0zm492 -335c26,-4 53,-1 72,22 30,35 30,102 0,137 -19,23 -46,27 -72,22 9,-28 15,-59 15,-90 0,-32 -6,-62 -15,-91zm-64 -287c-26,-11 -53,-18 -79,-18l0 -714 79 0 0 732zm-674 853c-22,0 -39,-18 -39,-40l0 -1505c0,-22 17,-40 39,-40l198 0 0 792c-11,14 -21,30 -27,47 -7,20 -15,57 3,100 -49,6 -79,34 -94,51 -54,65 -54,174 0,239 15,17 45,45 94,51 -18,43 -10,80 -3,101 12,32 36,61 65,83l-43 121 -193 0zm307 429l-52 -78 -113 29 166 -467c26,7 52,10 77,5 38,-6 69,-25 91,-54 9,12 20,22 32,30l-201 535zm389 -78l-51 76 -122 -347 60 -160c3,0 7,1 11,1 16,0 33,-3 49,-8l167 466 -114 -28zm1523 -351l-1461 0 -43 -121c30,-22 54,-51 65,-83 7,-21 15,-58 -2,-101 48,-6 79,-34 93,-51 54,-65 54,-174 0,-239 -14,-17 -45,-45 -93,-51 17,-43 9,-80 2,-100 -6,-17 -15,-33 -27,-47l0 -792 1109 0 0 277c0,66 54,119 119,119l278 0 0 1149c0,22 -18,40 -40,40l0 0z"/>
   <polygon class="fil2" points="2940,2349 3020,2349 3020,2428 2940,2428 "/>
   <polygon class="fil2" points="2782,2349 2861,2349 2861,2428 2782,2428 "/>
   <polygon class="fil2" points="2623,2349 2703,2349 2703,2428 2623,2428 "/>
   <polygon class="fil2" points="1990,1398 2544,1398 2544,1477 1990,1477 "/>
   <polygon class="fil2" points="1990,1556 2069,1556 2069,1636 1990,1636 "/>
   <polygon class="fil2" points="2148,1556 2227,1556 2227,1636 2148,1636 "/>
   <polygon class="fil2" points="2306,1556 2386,1556 2386,1636 2306,1636 "/>
   <polygon class="fil2" points="2623,1398 2861,1398 2861,1477 2623,1477 "/>
   <polygon class="fil2" points="2148,1239 2703,1239 2703,1319 2148,1319 "/>
  </g>
 </g>
</svg>
