<svg xmlns="http://www.w3.org/2000/svg" xml:space="preserve" width="109px" height="109px" version="1.1" style="shape-rendering:geometricPrecision; text-rendering:geometricPrecision; image-rendering:optimizeQuality; fill-rule:evenodd; clip-rule:evenodd"
viewBox="0 0 1771 1771"
 xmlns:xlink="http://www.w3.org/1999/xlink">
 <defs>
  <style type="text/css">
   <![CDATA[
    .fil1 {fill:#69C925}
    .fil2 {fill:white}
    .fil0 {fill:#429A44;fill-rule:nonzero}
   ]]>
  </style>
 </defs>
<symbol id="Fm1-60-0" viewBox="20574 -20179 9241 884">
 <path class="fil0" d="M20574 -20163l90 0 0 290 355 0 0 -290 90 0 0 674 -90 0 0 -309 -355 0 0 309 -90 0 0 -674zm803 685c-22,0 -42,-3 -62,-7 -19,-5 -37,-13 -51,-24 -15,-11 -27,-25 -35,-43 -9,-17 -13,-38 -13,-62 0,-28 5,-51 14,-68 10,-18 22,-32 38,-43 15,-11 33,-20 52,-25 20,-6 41,-11 61,-14 22,-5 43,-8 63,-11 20,-2 37,-5 52,-9 15,-4 27,-10 36,-18 9,-8 13,-19 13,-34 0,-18 -3,-32 -10,-43 -6,-10 -14,-19 -25,-24 -10,-6 -22,-10 -35,-11 -13,-2 -25,-3 -38,-3 -34,0 -62,6 -85,19 -23,13 -35,37 -37,73l-80 0c1,-30 8,-55 19,-76 11,-21 26,-38 45,-51 19,-13 40,-22 65,-28 24,-5 50,-8 78,-8 22,0 44,2 65,5 22,3 42,9 59,19 18,10 32,23 43,41 10,18 16,41 16,69l0 251c0,19 1,33 3,41 2,9 10,14 22,14 6,0 14,-2 25,-5l0 62c-14,9 -33,13 -58,13 -21,0 -37,-6 -49,-18 -13,-12 -19,-31 -19,-57 -22,26 -47,45 -77,57 -29,12 -61,18 -95,18zm18 -70c27,0 49,-4 68,-11 19,-7 35,-16 47,-27 12,-11 20,-23 26,-37 6,-12 9,-24 9,-36l0 -82c-11,8 -24,14 -40,17 -16,3 -33,6 -51,9 -18,2 -36,5 -55,7 -18,3 -34,7 -49,13 -14,7 -26,16 -35,27 -9,12 -14,28 -14,48 0,13 3,24 8,34 5,9 12,16 21,22 8,5 18,10 30,12 11,2 23,4 35,4zm354 -429l80 0 0 399 231 -399 102 0 0 488 -80 0 0 -398 -230 398 -103 0 0 -488zm207 -71c-19,0 -37,-3 -53,-9 -16,-6 -31,-14 -43,-24 -12,-11 -22,-24 -29,-40 -7,-15 -11,-33 -11,-53l67 0c1,47 24,70 68,70 22,0 39,-6 50,-19 12,-12 18,-29 18,-51l67 0c0,19 -4,36 -10,52 -7,16 -17,29 -29,40 -12,10 -26,19 -42,24 -17,7 -34,10 -53,10zm445 142l-174 0 0 -71 429 0 0 71 -174 0 0 417 -81 0 0 -417zm319 -71l80 0 0 399 231 -399 103 0 0 488 -81 0 0 -398 -230 398 -103 0 0 -488zm797 0l80 0 0 233 224 -233 106 0 -216 212 242 276 -103 0 -204 -232 -49 48 0 184 -80 0 0 -488zm546 683c-9,0 -19,-1 -28,-2 -9,-2 -18,-4 -27,-7l0 -73c7,2 15,5 23,7 7,2 15,4 24,4 16,0 29,-4 40,-11 10,-8 18,-19 26,-34l33 -82 -194 -485 91 0 143 399 1 0 137 -399 85 0 -212 552c-10,24 -19,45 -28,61 -9,16 -19,30 -30,40 -11,10 -23,18 -37,23 -14,4 -29,7 -47,7zm425 -683l80 0 0 66 2 0c13,-27 34,-46 62,-59 29,-12 60,-18 94,-18 37,0 70,7 98,21 28,14 52,32 70,56 19,24 33,51 42,81 10,31 14,64 14,99 0,35 -4,68 -13,98 -9,31 -23,58 -42,81 -18,23 -41,41 -70,54 -28,13 -60,20 -97,20 -13,0 -26,-2 -41,-4 -14,-3 -29,-7 -43,-12 -15,-6 -29,-14 -41,-24 -13,-9 -24,-21 -33,-36l-2 0 0 251 -80 0 0 -674zm231 429c27,0 50,-6 69,-16 19,-11 34,-25 45,-43 12,-17 20,-37 25,-60 5,-23 7,-46 7,-70 0,-23 -3,-45 -9,-67 -6,-21 -15,-41 -27,-58 -12,-17 -28,-30 -47,-40 -19,-10 -42,-15 -68,-15 -27,0 -50,5 -68,16 -19,10 -35,24 -47,42 -12,17 -20,37 -26,59 -5,22 -8,44 -8,67 0,23 3,47 9,69 6,22 14,42 27,59 12,17 28,31 47,41 20,10 43,16 71,16zm528 70c-37,0 -70,-6 -99,-18 -28,-12 -52,-29 -72,-51 -19,-22 -33,-49 -43,-79 -10,-30 -15,-63 -15,-101 0,-36 5,-70 14,-102 10,-32 24,-59 44,-83 19,-24 43,-42 71,-56 29,-13 63,-20 102,-20 27,0 53,3 77,10 25,7 46,17 65,30 18,14 33,32 45,53 12,21 20,46 23,75l-83 0c-6,-31 -20,-55 -40,-72 -20,-17 -47,-25 -81,-25 -29,0 -53,5 -72,16 -20,10 -36,25 -47,42 -12,18 -20,38 -25,61 -5,23 -8,47 -8,71 0,23 3,45 8,66 5,22 14,41 25,57 11,17 26,31 44,41 18,10 40,15 66,15 39,0 70,-11 93,-31 22,-21 36,-51 41,-88l82 0c-9,61 -31,108 -67,140 -36,32 -85,49 -148,49zm777 0c-39,0 -73,-7 -102,-20 -29,-13 -54,-31 -74,-54 -20,-22 -36,-49 -45,-80 -11,-31 -16,-64 -16,-100 0,-36 5,-70 16,-101 9,-31 25,-58 45,-81 20,-23 45,-41 74,-54 29,-13 63,-20 102,-20 39,0 73,7 102,20 30,13 55,31 75,54 20,23 35,50 45,81 10,31 15,65 15,101 0,36 -5,69 -15,100 -10,31 -25,58 -45,80 -20,23 -45,41 -75,54 -29,13 -63,20 -102,20zm0 -70c21,0 41,-4 59,-13 19,-8 35,-20 49,-35 14,-15 24,-35 32,-58 8,-22 12,-49 12,-78 0,-30 -4,-56 -12,-79 -8,-23 -18,-42 -32,-58 -14,-16 -30,-28 -49,-36 -18,-8 -38,-12 -59,-12 -21,0 -40,4 -59,12 -18,8 -35,20 -48,36 -14,16 -25,35 -33,58 -8,23 -12,49 -12,79 0,29 4,56 12,78 8,23 19,43 33,58 13,15 30,27 48,35 19,9 38,13 59,13zm550 70c-63,0 -114,-16 -153,-49 -39,-32 -63,-81 -73,-149 -4,-26 -6,-56 -6,-88 0,-24 1,-48 3,-73 1,-25 4,-50 8,-75 4,-24 10,-48 17,-70 7,-23 17,-43 29,-62 21,-33 47,-58 78,-74 31,-16 70,-25 116,-29 31,-2 57,-5 78,-8 20,-3 32,-11 35,-24l80 0c-2,25 -7,44 -16,57 -10,13 -23,23 -40,30 -17,6 -38,11 -62,13 -25,2 -53,5 -86,7 -27,2 -51,8 -71,19 -20,10 -37,25 -51,43 -14,17 -26,39 -35,63 -9,24 -15,51 -19,80l3 0c14,-32 36,-59 65,-80 29,-20 64,-31 106,-31 69,0 123,22 162,64 40,43 60,105 60,186 0,40 -6,76 -17,107 -11,32 -26,58 -46,79 -21,21 -45,37 -73,48 -28,10 -59,16 -92,16zm0 -68c19,0 37,-4 55,-12 18,-8 33,-19 46,-35 14,-15 24,-34 33,-56 8,-22 12,-48 12,-78 0,-57 -13,-102 -40,-135 -26,-32 -62,-49 -108,-49 -45,0 -81,17 -108,50 -26,33 -40,78 -40,135 0,56 14,99 40,132 27,32 63,48 110,48zm372 252c-9,0 -19,-1 -28,-2 -10,-2 -19,-4 -28,-7l0 -73c8,2 16,5 23,7 8,2 16,4 25,4 16,0 29,-4 39,-11 10,-8 19,-19 27,-34l33 -82 -194 -485 91 0 142 399 2 0 137 -399 85 0 -212 552c-10,24 -19,45 -28,61 -9,16 -19,30 -30,40 -11,10 -24,18 -37,23 -14,4 -29,7 -47,7zm714 -393c-14,6 -34,12 -60,18 -26,6 -53,8 -81,8 -60,0 -103,-13 -129,-39 -26,-26 -39,-62 -39,-110l0 -167 80 0 0 154c0,32 8,56 22,71 15,16 42,24 81,24 24,0 48,-3 71,-8 23,-5 42,-11 55,-17l0 -224 81 0 0 488 -81 0 0 -198zm409 209c-39,0 -73,-7 -102,-19 -30,-13 -54,-30 -73,-53 -20,-23 -35,-50 -44,-81 -10,-32 -15,-66 -15,-103 0,-37 6,-70 17,-102 11,-31 27,-58 48,-80 20,-23 44,-41 72,-53 28,-13 59,-19 92,-19 44,0 80,9 109,27 28,18 51,41 68,68 18,28 29,58 36,91 7,33 10,64 8,93l-365 0c-1,22 2,42 8,61 5,19 14,36 27,51 12,15 28,27 48,35 20,9 42,14 69,14 34,0 62,-8 83,-24 22,-16 36,-40 43,-72l80 0c-11,56 -35,97 -71,124 -37,28 -83,42 -138,42zm131 -302c-1,-18 -5,-36 -12,-53 -8,-17 -18,-32 -30,-44 -12,-12 -27,-22 -43,-29 -17,-8 -35,-11 -55,-11 -21,0 -40,3 -56,11 -17,7 -31,17 -44,29 -12,13 -21,28 -28,44 -7,17 -11,35 -12,53l280 0zm168 -197l80 0 0 195 248 0 0 -195 80 0 0 488 -80 0 0 -225 -248 0 0 225 -80 0 0 -488zm529 0l80 0 0 399 230 -399 103 0 0 488 -80 0 0 -398 -231 398 -102 0 0 -488zm637 297c-35,-5 -63,-20 -85,-47 -22,-26 -33,-59 -33,-100 0,-45 13,-82 41,-109 27,-27 64,-41 112,-41l247 0 0 488 -80 0 0 -188 -107 0 -149 188 -107 0 161 -191zm202 -66l0 -160 -142 0c-34,0 -58,7 -73,22 -16,14 -23,34 -23,58 0,26 7,45 23,59 15,14 39,21 73,21l142 0z"/>
</symbol>
 <g id="Layer-171">
  <metadata id="CorelCorpID_0Corel-Layer"/>
  <circle class="fil1" cx="885" cy="885" r="885"/>
 </g>
 <g id="Layer-191">
  <metadata id="CorelCorpID_1Corel-Layer"/>
  <g id="_2314307132816">
   <path class="fil2" d="M1351 464l-920 0c-30,0 -55,25 -55,56l0 202c0,9 6,15 15,15 8,0 15,-6 15,-15l0 -202c0,-14 11,-26 25,-26l920 0c14,0 26,12 26,26l0 610c0,14 -12,26 -26,26l-316 0c1,-7 2,-15 2,-22 0,-7 -1,-14 -2,-21l198 0c9,0 16,-7 16,-15 0,-39 31,-71 70,-71 8,0 15,-7 15,-15l0 -260c0,-8 -7,-15 -15,-15 -9,0 -15,7 -15,15l0 246c-44,7 -78,41 -85,84l-192 0c-21,-54 -74,-93 -136,-93 -62,0 -115,39 -135,93l-192 0c-7,-43 -41,-77 -85,-84l0 -346c44,-7 78,-41 85,-85l655 0c7,44 41,78 85,85l0 29c0,9 6,15 15,15 8,0 15,-6 15,-15l0 -43c0,-9 -7,-16 -15,-16 -39,0 -70,-31 -70,-70 0,-8 -7,-15 -16,-15l-683 0c-9,0 -16,7 -16,15 0,39 -31,70 -70,70 -8,0 -15,7 -15,16l0 374c0,8 7,15 15,15 39,0 70,32 70,71 0,8 7,15 16,15l197 0c-1,7 -1,14 -1,21 0,7 0,15 1,22l-316 0c-14,0 -25,-12 -25,-26l0 -337c0,-8 -7,-15 -15,-15 -9,0 -15,7 -15,15l0 337c0,31 25,56 55,56l325 0c5,14 12,26 20,37l0 164c0,5 3,9 7,12 4,3 10,4 14,2l94 -39 94 39c2,0 4,1 6,1 3,0 6,-1 9,-3 4,-3 6,-7 6,-12l0 -44c0,-9 -6,-15 -15,-15 -8,0 -15,6 -15,15l0 21 -79 -32c-3,-2 -8,-2 -11,0l-79 32 0 -111c24,17 53,27 84,27 32,0 61,-10 85,-27l0 19c0,8 7,15 15,15 9,0 15,-7 15,-15l0 -49c9,-11 16,-23 21,-37l324 0c31,0 56,-25 56,-56l0 -610c0,-31 -25,-56 -56,-56l0 0zm-460 785c-63,0 -115,-51 -115,-115 0,-63 52,-115 115,-115 64,0 115,52 115,115 0,64 -51,115 -115,115zm0 0z"/>
   <path class="fil2" d="M1026 665c8,0 15,-7 15,-15 0,-9 -7,-15 -15,-15l-269 0c-8,0 -15,6 -15,15 0,8 7,15 15,15l269 0zm0 0z"/>
   <path class="fil2" d="M1128 716l-473 0c-8,0 -15,7 -15,15 0,9 7,15 15,15l473 0c8,0 15,-6 15,-15 0,-8 -7,-15 -15,-15zm0 0z"/>
   <path class="fil2" d="M1128 797l-473 0c-8,0 -15,7 -15,16 0,8 7,15 15,15l473 0c8,0 15,-7 15,-15 0,-9 -7,-16 -15,-16l0 0zm0 0z"/>
   <path class="fil2" d="M1128 891l-74 0c-8,0 -15,7 -15,15 0,9 7,16 15,16l74 0c8,0 15,-7 15,-16 0,-8 -7,-15 -15,-15zm0 0z"/>
   <path class="fil2" d="M655 891c-8,0 -15,7 -15,15 0,9 7,16 15,16l74 0c8,0 15,-7 15,-16 0,-8 -7,-15 -15,-15l-74 0zm0 0z"/>
   <path class="fil2" d="M891 1054c-44,0 -80,36 -80,80 0,45 36,81 80,81 45,0 81,-36 81,-81 0,-44 -36,-80 -81,-80zm0 130c-27,0 -49,-22 -49,-50 0,-27 22,-50 49,-50 28,0 50,23 50,50 0,28 -22,50 -50,50zm0 0z"/>
   <path class="fil2" d="M840 906c0,29 23,52 51,52 29,0 52,-23 52,-52 0,-28 -23,-52 -52,-52 -28,0 -51,24 -51,52zm73 0c0,12 -10,22 -22,22 -11,0 -21,-10 -21,-22 0,-12 10,-21 21,-21 12,0 22,9 22,21zm0 0z"/>
  </g>
 </g>
</svg>
